<svg width="16" height="17" viewBox="0 0 16 17" fill="none" xmlns="http://www.w3.org/2000/svg">
<path d="M3.48049 5.98C3.43404 6.02638 3.3972 6.08145 3.37206 6.14208C3.34692 6.20271 3.33398 6.2677 3.33398 6.33333C3.33398 6.39897 3.34692 6.46395 3.37206 6.52458C3.3972 6.58521 3.43404 6.64029 3.48049 6.68667L7.64715 10.8533C7.69353 10.8998 7.74861 10.9366 7.80924 10.9618C7.86986 10.9869 7.93485 10.9998 8.00049 10.9998C8.06612 10.9998 8.13111 10.9869 8.19174 10.9618C8.25237 10.9366 8.30744 10.8998 8.35382 10.8533L12.5205 6.68667C12.5669 6.64026 12.6037 6.58518 12.6288 6.52455C12.6539 6.46393 12.6668 6.39895 12.6668 6.33333C12.6668 6.26771 12.6539 6.20273 12.6288 6.14211C12.6037 6.08148 12.5669 6.0264 12.5205 5.98C12.4741 5.9336 12.419 5.89679 12.3584 5.87168C12.2978 5.84657 12.2328 5.83364 12.1672 5.83364C12.1015 5.83364 12.0366 5.84657 11.9759 5.87168C11.9153 5.89679 11.8602 5.9336 11.8138 5.98L8.00049 9.79267L4.18715 5.98C4.14078 5.93356 4.0857 5.89671 4.02507 5.87157C3.96444 5.84643 3.89945 5.8335 3.83382 5.8335C3.76819 5.8335 3.7032 5.84643 3.64257 5.87157C3.58194 5.89671 3.52686 5.93356 3.48049 5.98Z" fill="#333333"/>
</svg>
