<svg width="40" height="40" viewBox="0 0 40 40" fill="none" xmlns="http://www.w3.org/2000/svg">
<rect width="40" height="40" rx="20" fill="#076536"/>
<g clip-path="url(#clip0_412_947)">
<path d="M9.78374 16.4695C10.1106 16.5787 10.6863 16.8216 11.2345 17.3699C11.7827 17.9181 12.0257 18.4938 12.1349 18.8206C12.2134 19.0594 12.442 19.2628 12.747 19.2629C13.0519 19.2628 13.2805 19.0594 13.3591 18.8206C13.4683 18.4938 13.7113 17.9181 14.2595 17.3699C14.8077 16.8216 15.3835 16.5787 15.7102 16.4695C15.949 16.3909 16.1524 16.1623 16.1525 15.8574C16.1524 15.5524 15.949 15.3238 15.7102 15.2452C15.3834 15.1361 14.8077 14.8931 14.2595 14.3449C13.7113 13.7966 13.4683 13.221 13.3591 12.8941C13.2805 12.6554 13.0519 12.452 12.747 12.4519C12.442 12.452 12.2134 12.6554 12.1349 12.8941C12.0257 13.2209 11.7827 13.7966 11.2345 14.3449C10.6863 14.8931 10.1105 15.1361 9.78374 15.2452C9.545 15.3238 9.34159 15.5524 9.34146 15.8574C9.34159 16.1623 9.545 16.3909 9.78374 16.4695ZM19.7043 15.8578C19.7043 16.2138 19.9929 16.5023 20.3489 16.5023H21.0851V17.2385C21.0851 17.5945 21.3737 17.8831 21.7296 17.8831C22.0856 17.8831 22.3741 17.5945 22.3741 17.2385V16.5023H23.1103C23.4663 16.5023 23.7549 16.2138 23.7549 15.8578C23.7549 15.5019 23.4663 15.2133 23.1103 15.2133H22.3741V14.4771C22.3741 14.1211 22.0856 13.8326 21.7296 13.8326C21.3737 13.8326 21.0851 14.1211 21.0851 14.4771V15.2133H20.3489C19.9929 15.2133 19.7043 15.5019 19.7043 15.8578ZM16.897 11.6698H17.6332V12.406C17.6332 12.7619 17.9218 13.0505 18.2778 13.0505C18.6337 13.0505 18.9223 12.7619 18.9223 12.406V11.6698H19.6585C20.0145 11.6698 20.303 11.3812 20.303 11.0252C20.303 10.6693 20.0145 10.3807 19.6585 10.3807H18.9223V9.64453C18.9223 9.28858 18.6337 9 18.2778 9C17.9218 9 17.6332 9.28858 17.6332 9.64453V10.3807H16.897C16.5411 10.3807 16.2525 10.6693 16.2525 11.0252C16.2525 11.3812 16.5411 11.6698 16.897 11.6698ZM20.1477 28.4324C20.1706 28.4295 20.8225 28.3442 21.4331 27.9327C21.4563 27.917 21.478 27.9004 21.5004 27.8842L22.6722 22.0252H23.1103C23.4663 22.0252 23.7549 21.7367 23.7549 21.3807C23.7549 21.0248 23.4663 20.7362 23.1103 20.7362H10.6838C10.3278 20.7362 10.0392 21.0248 10.0392 21.3807C10.0392 21.7367 10.3278 22.0252 10.6838 22.0252H11.1219L12.2791 27.8111C12.3468 27.7683 12.4097 27.7181 12.4663 27.6614L16.4414 23.6864C16.693 23.4347 17.1011 23.4347 17.3529 23.6864C17.6046 23.9381 17.6046 24.3462 17.3529 24.5979L13.3778 28.573C13.1731 28.7777 12.8848 28.9786 12.5392 29.1116L12.8132 30.4819C12.8424 30.628 12.9214 30.7594 13.0366 30.8539C13.1518 30.9484 13.2962 31 13.4452 31H18.5253C18.4631 30.8234 18.4269 30.6388 18.4177 30.4518C18.3664 29.4245 19.1257 28.5392 20.1477 28.4324Z" fill="white"/>
<path d="M11.2991 27.8936C10.8975 27.7273 10.6379 27.3388 10.6379 26.9036C10.6379 26.7737 10.6622 26.6477 10.7083 26.5303L10.3844 24.9108L10.0257 25.2694C9.58923 25.7059 9.34882 26.2863 9.34882 26.9041C9.34882 27.8621 9.92073 28.718 10.8058 29.0845C11.4493 29.3511 12.0513 29.2993 12.5391 29.1116L12.279 27.8111C11.9892 27.9939 11.6255 28.0288 11.2991 27.8936ZM27.8971 20.8723V9.64453C27.8971 9.28858 27.6085 9 27.2526 9C26.8966 9 26.608 9.28858 26.608 9.64453V20.8723C26.8216 20.8428 27.037 20.8279 27.2526 20.8279C27.4712 20.8279 27.6863 20.8432 27.8971 20.8723ZM27.2526 22.1169C25.3745 22.1169 23.8466 23.6449 23.8466 25.5229C23.8466 29.3163 20.3754 29.7045 20.2847 29.7142C19.943 29.7483 19.688 30.0445 19.7051 30.3876C19.7223 30.7307 20.0054 31 20.3489 31H25.1814C30.0351 31 30.6585 27.3461 30.6585 25.5229C30.6585 23.6448 29.1306 22.1169 27.2526 22.1169Z" fill="white"/>
</g>
<defs>
<clipPath id="clip0_412_947">
<rect width="22" height="22" fill="white" transform="translate(9 9)"/>
</clipPath>
</defs>
</svg>
