<svg width="40" height="40" viewBox="0 0 40 40" fill="none" xmlns="http://www.w3.org/2000/svg">
<rect width="40" height="40" rx="20" fill="#076536"/>
<path fill-rule="evenodd" clip-rule="evenodd" d="M27.5827 11.9893L27.6019 12.0094L27.9906 12.3981L28.0108 12.4173C28.3573 12.7638 28.646 13.0526 28.8633 13.3083C29.0888 13.5742 29.2758 13.8492 29.3839 14.1792C29.5485 14.6856 29.5485 15.2311 29.3839 15.7375C29.2767 16.0675 29.0888 16.3425 28.8623 16.6083C28.646 16.8641 28.3573 17.1528 28.0098 17.4993L27.9915 17.5186L27.6019 17.9073L27.5827 17.9274C27.2362 18.2739 26.9474 18.5627 26.6917 18.7799C26.4258 19.0054 26.1508 19.1924 25.8208 19.3006C25.3144 19.4652 24.7689 19.4652 24.2625 19.3006C23.9325 19.1933 23.6575 19.0054 23.3917 18.779C23.1359 18.5627 22.8472 18.273 22.5007 17.9265L22.4814 17.9082L22.0928 17.5186L22.0726 17.4993C21.7773 17.2132 21.4929 16.916 21.2201 16.6083C20.9946 16.3425 20.8076 16.0675 20.6994 15.7375C20.5348 15.2311 20.5348 14.6856 20.6994 14.1792C20.8067 13.8492 20.9946 13.5742 21.221 13.3083C21.4373 13.0526 21.7261 12.7638 22.0735 12.4173L22.0918 12.3981L22.4814 12.0094L22.5007 11.9893C22.8472 11.6428 23.1359 11.354 23.3917 11.1368C23.6575 10.9113 23.9325 10.7243 24.2625 10.6161C24.7689 10.4515 25.3144 10.4515 25.8208 10.6161C26.1508 10.7233 26.4258 10.9113 26.6917 11.1377C26.9474 11.354 27.2362 11.6428 27.5827 11.9902V11.9893ZM14.6558 11.0625H15.2608C15.7513 11.0625 16.1592 11.0625 16.4938 11.09C16.8421 11.1175 17.1684 11.1798 17.4773 11.3375C17.9515 11.5787 18.3372 11.9638 18.5792 12.4375C18.7368 12.7473 18.7992 13.0737 18.8267 13.422C18.8542 13.7557 18.8542 14.1645 18.8542 14.654V15.2599C18.8542 15.7503 18.8542 16.1583 18.8267 16.4928C18.7992 16.8412 18.7368 17.1675 18.5792 17.4764C18.3375 17.9508 17.9518 18.3366 17.4773 18.5783C17.1684 18.7359 16.8421 18.7983 16.4938 18.8258C16.1592 18.8533 15.7513 18.8533 15.2608 18.8533H14.6558C14.1654 18.8533 13.7575 18.8533 13.4229 18.8258C13.0746 18.7983 12.7483 18.7359 12.4393 18.5783C11.965 18.3368 11.5794 17.9514 11.3375 17.4773C11.1798 17.1684 11.1175 16.8421 11.09 16.4938C11.0625 16.1592 11.0625 15.7513 11.0625 15.2608V14.6558C11.0625 14.1654 11.0625 13.7575 11.09 13.4229C11.1175 13.0746 11.1798 12.7483 11.3375 12.4384C11.5794 11.9643 11.965 11.579 12.4393 11.3375C12.7483 11.1798 13.0746 11.1175 13.4229 11.09C13.7575 11.0625 14.1654 11.0625 14.6558 11.0625ZM14.6833 21.1458H14.6558C14.1654 21.1458 13.7575 21.1458 13.4229 21.1733C13.0746 21.2008 12.7483 21.2632 12.4393 21.4208C11.9652 21.6621 11.5795 22.0471 11.3375 22.5208C11.1798 22.8307 11.1175 23.157 11.09 23.5053C11.0625 23.8399 11.0625 24.2478 11.0625 24.7383V25.3433C11.0625 25.8337 11.0625 26.2416 11.09 26.5762C11.1175 26.9245 11.1798 27.2508 11.3375 27.5598C11.5792 28.0342 11.9649 28.4199 12.4393 28.6616C12.7483 28.8193 13.0746 28.8816 13.4229 28.9091C13.7575 28.9366 14.1654 28.9366 14.6549 28.9366H15.2608C15.7513 28.9366 16.1592 28.9366 16.4938 28.9091C16.8421 28.8816 17.1684 28.8193 17.4773 28.6616C17.9518 28.4199 18.3375 28.0342 18.5792 27.5598C18.7368 27.2508 18.7992 26.9236 18.8267 26.5762C18.8542 26.2416 18.8542 25.8337 18.8542 25.3433V24.7383C18.8542 24.2478 18.8542 23.8399 18.8267 23.5053C18.7992 23.157 18.7368 22.8307 18.5792 22.5208C18.3373 22.0468 17.9516 21.6614 17.4773 21.4199C17.1684 21.2623 16.8421 21.1999 16.4938 21.1724C16.1592 21.1449 15.7513 21.1449 15.2608 21.1449H15.2333L14.6833 21.1458ZM24.7392 21.1458H25.3442C25.8346 21.1458 26.2425 21.1458 26.5771 21.1733C26.9254 21.2008 27.2518 21.2632 27.5616 21.4208C28.0355 21.6624 28.4209 22.0478 28.6625 22.5218C28.8202 22.8316 28.8825 23.1579 28.91 23.5063C28.9375 23.8408 28.9375 24.2488 28.9375 24.7392V25.3442C28.9375 25.8346 28.9375 26.2425 28.91 26.5771C28.8825 26.9254 28.8202 27.2518 28.6625 27.5607C28.4208 28.0351 28.0351 28.4208 27.5607 28.6625C27.2518 28.8202 26.9254 28.8825 26.5771 28.91C26.2434 28.9375 25.8346 28.9375 25.3451 28.9375H24.7392C24.2488 28.9375 23.8408 28.9375 23.5063 28.91C23.1579 28.8825 22.8316 28.8202 22.5218 28.6625C22.0477 28.4206 21.6623 28.035 21.4208 27.5607C21.2632 27.2518 21.2008 26.9245 21.1733 26.5771C21.1458 26.2425 21.1458 25.8346 21.1458 25.3442V24.7392C21.1458 24.2488 21.1458 23.8408 21.1733 23.5063C21.2008 23.1579 21.2632 22.8316 21.4208 22.5218C21.6624 22.0478 22.0478 21.6624 22.5218 21.4208C22.8316 21.2632 23.1579 21.2008 23.5063 21.1733C23.8408 21.1458 24.2488 21.1458 24.7392 21.1458Z" fill="white"/>
</svg>
