<svg width="40" height="40" viewBox="0 0 40 40" fill="none" xmlns="http://www.w3.org/2000/svg">
<rect width="40" height="40" rx="20" fill="#076536"/>
<g clip-path="url(#clip0_412_954)">
<path d="M24.4802 13.157C22.4805 10.7658 20.5066 9.21169 20.4237 9.14681C19.9731 8.79435 19.3125 9.11643 19.3125 9.6882V12.7114C19.3125 14.2725 17.2466 14.8219 16.4724 13.465C16.2317 13.0442 15.6463 12.9999 15.3432 13.3701C13.2627 15.9091 11.4066 19.1105 11.4066 22.4065C11.4066 27.145 15.2616 31 20 31C24.7385 31 28.5935 27.145 28.5935 22.4065C28.5935 19.0252 26.6411 15.7411 24.4802 13.157ZM16.2189 20.0004C16.2189 19.242 16.8359 18.6254 17.5938 18.6254C18.3518 18.6254 18.9688 19.242 18.9688 20.0004C18.9688 20.7587 18.3518 21.3753 17.5938 21.3753C16.8359 21.3753 16.2189 20.7587 16.2189 20.0004ZM18.1365 25.9221C17.9047 26.221 17.4726 26.2766 17.1719 26.0429C16.872 25.8095 16.8183 25.3777 17.0512 25.0782L21.8635 18.8909C22.0968 18.591 22.5286 18.5373 22.8281 18.7702C23.128 19.0035 23.1818 19.4353 22.9489 19.7348L18.1365 25.9221ZM22.4062 26.1877C21.6482 26.1877 21.0312 25.5711 21.0312 24.8127C21.0312 24.0543 21.6482 23.4377 22.4062 23.4377C23.1641 23.4377 23.7811 24.0543 23.7811 24.8127C23.7811 25.5711 23.1641 26.1877 22.4062 26.1877Z" fill="white"/>
</g>
<defs>
<clipPath id="clip0_412_954">
<rect width="22" height="22" fill="white" transform="translate(9 9)"/>
</clipPath>
</defs>
</svg>
