<svg width="40" height="40" viewBox="0 0 40 40" fill="none" xmlns="http://www.w3.org/2000/svg">
<rect width="40" height="40" rx="20" fill="#076536"/>
<path d="M20.3515 12.3047C16.3277 12.3047 13.0657 15.5667 13.0657 19.5905C13.0657 23.6144 16.3277 26.8763 20.3515 26.8763C24.3754 26.8763 27.6374 23.6144 27.6374 19.5905C27.6374 15.5667 24.3754 12.3047 20.3515 12.3047ZM20.3515 25.1188C17.3032 25.1188 14.8232 22.6388 14.8232 19.5906C14.8232 16.5423 17.3032 14.0623 20.3515 14.0623C23.3998 14.0623 25.8798 16.5423 25.8798 19.5906C25.8798 22.6388 23.3998 25.1188 20.3515 25.1188Z" fill="white"/>
<path d="M20.3515 15.5441C18.1203 15.5441 16.3051 17.3593 16.3051 19.5905C16.3051 21.8217 18.1203 23.6369 20.3515 23.6369C22.5827 23.6369 24.3979 21.8217 24.3979 19.5905C24.3979 17.3593 22.5827 15.5441 20.3515 15.5441ZM30.5409 20.2014V11.3478C30.5409 11.3062 30.5278 11.2655 30.5034 11.2317C30.4791 11.1979 30.4448 11.1726 30.4053 11.1593C30.3658 11.146 30.3232 11.1454 30.2833 11.1577C30.2435 11.1699 30.2085 11.1944 30.1833 11.2275C29.0787 12.6843 28.4808 14.4624 28.4808 16.2906V19.5295C28.4808 19.9009 28.782 20.2021 29.1535 20.2021H29.4339C29.1575 23.0571 28.9748 27.05 28.9748 27.5176C28.9748 28.2541 29.4282 28.8512 29.9874 28.8512C30.5466 28.8512 31 28.2541 31 27.5176C31 27.05 30.8173 23.0564 30.5409 20.2014ZM11.9398 18.4464C12.5002 18.1069 12.8748 17.4914 12.8748 16.7884L12.5972 12.25C12.5916 12.1637 12.5522 12.0831 12.4875 12.0257C12.4228 11.9683 12.3381 11.9388 12.2518 11.9436C12.1654 11.9484 12.0845 11.9871 12.0265 12.0513C11.9686 12.1154 11.9383 12.1999 11.9423 12.2863L12.1228 15.9261C12.1228 16.0244 12.0838 16.1186 12.0143 16.1881C11.9449 16.2575 11.8507 16.2966 11.7524 16.2966C11.6542 16.2966 11.5599 16.2575 11.4905 16.1881C11.421 16.1186 11.382 16.0244 11.382 15.9261L11.2918 12.2878C11.2893 12.1955 11.2509 12.1078 11.1847 12.0433C11.1185 11.9789 11.0298 11.9429 10.9374 11.9429C10.8451 11.9429 10.7563 11.9789 10.6902 12.0433C10.624 12.1078 10.5855 12.1955 10.5831 12.2878L10.4929 15.9261C10.4929 16.0244 10.4538 16.1186 10.3844 16.1881C10.3149 16.2575 10.2207 16.2966 10.1224 16.2966C10.0242 16.2966 9.92996 16.2575 9.86049 16.1881C9.79102 16.1186 9.752 16.0244 9.752 15.9261L9.93251 12.2863C9.94179 12.0991 9.79234 11.9421 9.605 11.9421C9.5215 11.9421 9.44114 11.974 9.38032 12.0312C9.3195 12.0884 9.2828 12.1666 9.27771 12.25L9 16.7884C9 17.4915 9.37452 18.1069 9.93496 18.4464C10.1136 18.5547 10.2576 18.7118 10.3499 18.8992C10.4422 19.0867 10.479 19.2965 10.456 19.5042C10.1396 22.3555 9.92477 27.0105 9.92477 27.5176C9.92477 28.2542 10.3781 28.8513 10.9374 28.8513C11.4966 28.8513 11.95 28.2541 11.95 27.5176C11.95 27.0105 11.7351 22.3555 11.4188 19.5042C11.3958 19.2965 11.4326 19.0867 11.5249 18.8993C11.6172 18.7118 11.7612 18.5547 11.9398 18.4464Z" fill="white"/>
</svg>
