<svg width="41" height="40" viewBox="0 0 41 40" fill="none" xmlns="http://www.w3.org/2000/svg">
<rect x="0.5" width="40" height="40" rx="20" fill="#076536"/>
<path d="M18.0181 20.8525C18.6575 21.5675 19.29 22.2653 19.9088 22.9391C18.0594 25.0291 15.3713 28.0266 14.505 28.7484C12.8 30.1647 10.6344 28.2466 12.1056 26.3491C12.7175 25.5584 14.8969 23.5372 18.0181 20.8525ZM29.8569 15.8028L29.8535 15.8063C29.8382 15.8284 29.8209 15.8491 29.8019 15.8681C25.9072 19.7594 25.9622 19.8419 25.1269 20.0756C23.9822 20.3953 23.5078 19.8144 22.8135 20.0653C22.1431 19.4534 21.4488 18.8244 20.7406 18.1919C21.105 17.4356 20.4485 16.9647 20.775 15.765C21.0156 14.9263 21.0913 14.9847 25.0066 11.0728C25.0818 10.9809 25.1754 10.9058 25.2815 10.8522C25.3875 10.7987 25.5035 10.768 25.6222 10.7621C25.7408 10.7562 25.8593 10.7752 25.9702 10.8179C26.081 10.8606 26.1816 10.9261 26.2656 11.01C26.3496 11.094 26.415 11.1947 26.4578 11.3055C26.5005 11.4163 26.5195 11.5349 26.5135 11.6535C26.5076 11.7721 26.4769 11.8882 26.4234 11.9942C26.3699 12.1002 26.2948 12.1939 26.2028 12.2691L23.8035 14.6719C23.7608 14.7104 23.7264 14.7571 23.7024 14.8093C23.6784 14.8615 23.6652 14.918 23.6637 14.9755C23.6623 15.0329 23.6725 15.09 23.6938 15.1434C23.7151 15.1967 23.747 15.2452 23.7876 15.2858C23.8283 15.3264 23.8767 15.3584 23.9301 15.3797C23.9834 15.401 24.0406 15.4112 24.098 15.4097C24.1554 15.4082 24.212 15.3951 24.2642 15.3711C24.3163 15.3471 24.3631 15.3127 24.4016 15.27L26.8044 12.8706C26.8797 12.7788 26.9733 12.7037 27.0794 12.6502C27.1854 12.5968 27.3014 12.5661 27.42 12.5601C27.5386 12.5542 27.6572 12.5731 27.768 12.6157C27.8788 12.6583 27.9796 12.7236 28.0636 12.8075C28.1477 12.8913 28.2133 12.9918 28.2563 13.1025C28.2992 13.2133 28.3185 13.3317 28.3128 13.4504C28.3072 13.569 28.2769 13.6851 28.2237 13.7913C28.1705 13.8975 28.0957 13.9913 28.0041 14.0669L25.6013 16.4697C25.5586 16.5082 25.5242 16.5549 25.5002 16.6071C25.4762 16.6593 25.463 16.7158 25.4616 16.7733C25.4601 16.8307 25.4703 16.8878 25.4916 16.9412C25.5129 16.9945 25.5448 17.043 25.5855 17.0836C25.6261 17.1243 25.6745 17.1562 25.7279 17.1775C25.7813 17.1988 25.8384 17.209 25.8958 17.2075C25.9533 17.2061 26.0098 17.1929 26.062 17.1689C26.1142 17.1449 26.1609 17.1105 26.1994 17.0678L28.6022 14.6684C28.6746 14.5789 28.7645 14.5052 28.8664 14.4516C28.9684 14.398 29.0801 14.3657 29.1949 14.3568C29.3097 14.3479 29.4251 14.3624 29.534 14.3996C29.643 14.4368 29.7433 14.4958 29.8287 14.573C29.9141 14.6502 29.9828 14.744 30.0308 14.8487C30.0787 14.9534 30.1048 15.0667 30.1074 15.1818C30.11 15.2969 30.0892 15.4114 30.0461 15.5181C30.003 15.6249 29.9387 15.7218 29.8569 15.8028Z" fill="white"/>
<path d="M28.4784 28.6247C28.1565 28.9312 27.7263 29.0978 27.2819 29.0882C26.8374 29.0785 26.4149 28.8933 26.1066 28.5731C22.1191 24.4172 18.2828 20.1203 18.2828 20.1203C18.0987 19.912 17.8678 19.7504 17.609 19.6488C17.3502 19.5472 17.071 19.5085 16.7944 19.5359C15.4641 19.6631 13.8828 19.0581 12.635 17.8103C10.7409 15.9128 10.3284 13.2522 11.7172 11.8634C13.1059 10.4747 15.77 10.8872 17.6641 12.7812C18.9119 14.0291 19.5169 15.6103 19.3897 16.9406C19.3634 17.2172 19.4025 17.4961 19.5041 17.7547C19.6056 18.0133 19.7666 18.2443 19.9741 18.4291C22.5443 20.7136 26.2568 24.1666 28.4269 26.2528C28.5863 26.405 28.714 26.5872 28.8029 26.7888C28.8918 26.9905 28.94 27.2077 28.9448 27.4281C28.9496 27.6484 28.9108 27.8675 28.8308 28.0728C28.7508 28.2782 28.6311 28.4657 28.4784 28.6247Z" fill="white"/>
</svg>
