<svg width="243" height="100" viewBox="0 0 243 100" fill="none" xmlns="http://www.w3.org/2000/svg">
<path d="M12.5074 98.8044H1.49414V1.34819H98.3181C140.789 1.34819 147.491 39.4439 147.491 39.4439L171.324 1.34819H196.298L241.95 75.2391L227.648 98.8014H167.454V87.0462H234.782L183.784 1.34717C183.784 1.34717 150.174 59.7416 142.959 71.1172C135.743 82.4934 122.189 98.7988 98.9734 98.7988H63.0171V40.7809H74.4104V87.0431H100.615C112.203 87.0431 137.073 77.1841 137.073 49.3132C137.073 21.4423 110.488 12.7208 101.754 12.7208H12.5064V98.7963L12.5074 98.8044ZM16.3051 98.8044V57.472H58.8393V68.8482H27.698V98.8049H16.3046L16.3051 98.8044ZM58.8393 52.5422V40.787H27.698V28.3186H99.3568C110.098 28.3186 121.504 36.9948 121.504 49.6978C121.504 62.4008 109.976 71.1223 101.756 71.1223H90.5849V40.7865H78.8119V82.4985H101.756C116.287 82.4985 133.086 69.9049 133.086 50.0768C133.086 30.4385 117.808 16.8971 99.5376 16.8971H16.3077V52.5417H58.8418L58.8393 52.5422ZM131.563 98.8044L183.784 12.7289L226.698 82.499H167.456V71.1228H205.813L183.786 35.2885L147.518 98.806H131.568L131.563 98.8044Z" fill="black"/>
</svg>
