<svg width="202" height="100" viewBox="0 0 202 100" fill="none" xmlns="http://www.w3.org/2000/svg">
<g clip-path="url(#clip0_233_285)">
<path fill-rule="evenodd" clip-rule="evenodd" d="M125.833 80.593C119.26 80.593 123.543 66.0398 124.686 62.7722C125.906 59.2891 129.243 52.0517 132.116 49.9098C135.422 47.4414 139.064 47.4568 143.013 48.0327C143.897 48.1559 147.679 48.9659 148.533 49.3724L147.15 56.274L144.906 60.7935C144.142 62.2626 141.931 65.8319 140.998 67.0823L136.635 72.7074L132.571 77.1345C131.143 78.562 127.842 80.5946 125.833 80.593ZM144.904 65.8427C144.904 66.4987 143.982 70.8842 143.78 71.899C143.39 73.9024 143.035 75.8657 142.621 77.9106C141.814 81.9219 142.899 86.7479 147.618 86.7648C152.21 86.7787 156.353 83.8945 159.256 81.4353C160.284 80.5638 160.612 80.165 161.573 79.2118C161.89 78.893 163.053 77.5226 163.176 77.1776C163.269 76.9159 163.662 74.4074 163.662 74.0286L161.302 76.5078C161.285 76.5247 161.264 76.5494 161.255 76.5648C161.15 76.6649 161.255 76.574 161.095 76.7141C159.789 77.8444 158.704 79.0717 157.084 80.1711C155.732 81.0981 152.893 83.1138 151.166 82.1006C149.357 81.035 150.473 76.8081 150.777 75.2651C151 74.1395 151.275 72.963 151.517 71.7635C152.684 65.8781 154.038 60.039 155.199 54.2322L157.41 43.6164C156.28 43.6164 155.077 43.4285 154.382 43.407C149.956 43.1852 145.327 42.9712 140.935 43.6857C138.419 44.0922 136.221 44.7205 134.176 45.6044C132.582 46.2911 130.699 47.3598 129.303 48.4069L127.504 49.8344C125.687 51.2079 123.327 53.5085 121.965 55.2008C118.296 59.7695 116.067 63.9949 114.713 69.7647C113.706 74.0717 113.473 80.2142 116.379 84.107C119.666 88.5156 124.724 86.8325 128.688 84.4689C129.785 83.8129 130.794 82.986 131.781 82.2068C132.032 82.0282 132.139 81.885 132.376 81.6925C133.672 80.6454 134.564 79.6784 135.743 78.5004L137.806 76.2198C139.757 73.9116 142.958 69.3829 144.457 66.5156C144.643 66.1723 144.623 66.0444 144.904 65.8427Z" fill="#3E4094"/>
<path fill-rule="evenodd" clip-rule="evenodd" d="M42.1064 30.0732C42.1295 29.3865 42.3893 28.4133 42.5139 27.7558C43.7007 21.7688 43.5639 18.0485 47.4597 13.2102C50.3008 9.69475 55.1652 8.51522 59.5898 9.82564C60.3632 10.0597 60.9428 10.3061 61.6008 10.6402L63.4887 11.5826L69.4661 5.64492C68.9019 5.60334 67.9164 5.40932 67.3937 5.34465C60.46 4.98278 54.2627 5.48477 48.11 9.20969C42.7214 12.4788 38.5104 17.8498 36.1244 23.786C35.534 25.2535 35.0544 26.7564 34.6977 28.2716L34.3671 30.0732H42.1064ZM33.3263 35.7553L33.3109 35.8446L33.3094 35.8493C33.1018 37.035 32.8097 38.5286 32.719 39.0676C32.4623 40.6274 32.1717 42.1735 31.8719 43.7703C30.7066 49.9282 29.7011 56.6327 28.5081 62.7337C28.196 64.3213 27.9392 65.8688 27.6733 67.4564C27.4134 69.0486 27.1013 70.6208 26.8092 72.2454C25.3026 80.6653 24.3371 92.4068 14.7375 93.5971C10.8417 94.0837 8.30346 93.0689 5.07644 92.3159L3.88034 93.7449C3.47292 94.2484 3.02554 94.6673 2.61351 95.2001L0.454994 97.6885C0.185948 98.0319 0.0814039 98.0319 0.0429688 98.5107C5.05031 98.5092 10.0853 99.1282 14.879 97.379C15.2741 97.2357 15.6369 97.0972 16.0474 96.937C18.498 95.9623 20.2399 94.7458 22.2416 93.1382L23.902 91.5644C24.397 90.9208 25.3333 89.9722 26.205 88.8204C26.7062 88.1644 27.0998 87.5177 27.561 86.8355C28.0053 86.1657 28.3466 85.5313 28.7556 84.8029C32.3654 78.3371 34.6408 69.5506 36.0721 62.3302C36.4303 60.5455 36.8424 58.5653 37.1468 56.7328C38.0646 51.2094 39.3253 45.4287 40.26 39.9453L41.3008 34.3109H33.5923L33.3263 35.7553Z" fill="#3E4094"/>
<path fill-rule="evenodd" clip-rule="evenodd" d="M41.3011 34.3129L200.286 34.3175L202 30.0736L172.846 30.0444L171.43 30.1075C170.19 29.9474 107.076 30.0752 106.663 30.0752C86.461 30.0736 66.2487 30.0752 46.0394 30.0752C44.8956 30.0736 42.9308 30.1691 42.1052 30.1198L34.3828 30.1691V34.2497L41.3011 34.3129Z" fill="#F27440"/>
<path fill-rule="evenodd" clip-rule="evenodd" d="M173.857 46.9474C175.153 46.9474 176.552 46.8534 177.561 47.879C179.28 49.6067 178.185 52.9667 177.813 54.9562C177.549 56.399 177.309 57.6848 177.023 59.1153L174.671 71.5081C174.217 73.7733 172.441 82.4642 172.441 84.1288C172.441 86.4925 172.609 88.9963 174.277 90.6794C175.919 92.3209 177.175 92.8228 179.703 92.8228C183.143 92.8228 187.199 90.6424 189.874 88.8608L195.795 84.1796C195.938 83.8424 195.845 81.2739 195.845 80.6934C195.378 80.8196 194.928 81.5634 194.346 82.0284C192.483 83.5113 191.842 84.3259 189.368 85.8319C187.945 86.6973 184.711 88.2772 183.286 86.5033C181.967 84.8587 182.614 81.8175 182.99 79.9465L191.507 37.8545C191.009 38.0916 190.137 38.2964 189.528 38.4982C186.301 39.5791 182.702 40.6016 179.487 41.6795L169.454 44.867C168.389 45.1734 167.745 45.2612 167.694 45.8325C167.419 48.8491 167.346 48.5411 168.381 48.2424C168.709 48.1454 169.128 48.0514 169.5 47.9452C170.335 47.7065 173.093 46.9489 173.857 46.9474Z" fill="#F27440"/>
<path fill-rule="evenodd" clip-rule="evenodd" d="M84.069 55.2349C84.069 58.6395 85.1191 60.92 87.1208 62.888L92.8615 69.3693C93.7962 70.5334 94.6771 71.1201 95.5381 72.8493C97.5229 76.8114 96.5528 81.0984 91.7991 82.1732C90.6814 82.4196 89.925 82.3426 88.8073 82.3149C87.2207 82.2748 85.0576 81.5172 83.6186 80.9428C81.3816 80.0436 81.0573 79.6463 79.2262 78.6792C78.8726 79.212 76.5265 81.4849 76.0207 82.0361L74.082 84.1288C74.9399 84.5877 78.1377 85.5347 79.0479 85.7272C85.5127 87.0946 91.7776 86.7296 97.2231 82.9647C98.4807 82.09 100.167 80.4378 100.95 79.1135C101.479 78.2235 101.805 77.6799 102.166 76.5958C103.307 73.1435 102.59 69.5556 100.422 66.8423L93.7947 58.7288C92.9983 57.7187 91.7976 56.4745 91.2641 55.3997C90.5507 53.9645 90.0019 52.708 90.2202 50.6861C90.563 47.4678 94.2129 45.6369 96.9771 45.6369C98.2532 45.6354 99.2586 45.6031 100.498 46.0527C102.323 46.7087 104.244 48.1608 104.244 50.3843C104.246 52.0351 104.12 51.6624 104.038 52.6063H106.566C106.793 52.1459 107.445 49.1063 107.601 48.3918L108.581 44.0201C107.642 43.7984 106.97 43.3056 104.819 42.9345C100.512 42.1984 96.5313 42.531 92.5386 44.3219C91.1104 44.9625 89.2363 46.0558 88.1324 47.1768L87.2207 48.0853C85.4604 50.0995 84.066 52.2106 84.069 55.2349Z" fill="#3E4094"/>
<path fill-rule="evenodd" clip-rule="evenodd" d="M48.4609 55.5366C48.4609 57.6647 49.2296 60.1131 50.5179 61.7623L55.3638 67.2165C55.5499 67.4552 55.6421 67.5291 55.8481 67.737L58.3233 70.5179C59.3918 71.5727 60.9692 74.1705 60.9692 76.2493C60.9723 78.2357 60.4311 79.8926 59.0075 80.9566C55.2455 83.7946 49.7615 81.9052 46.0671 80.0558C45.649 79.8495 45.3215 79.6508 44.8956 79.4168C44.519 79.2135 44.1146 78.8732 43.7149 78.7793L39.8253 82.7583C39.3025 83.4389 38.6937 83.79 38.5723 84.235C39.0089 84.3336 39.3379 84.4906 39.6961 84.6246C40.1051 84.7755 40.5232 84.9048 40.903 85.0296C47.4293 87.23 56.0695 87.1176 61.5888 83.0431C63.0355 81.9668 64.2116 80.9258 65.2248 79.4091C67.9506 75.3716 67.7477 70.6042 64.7989 66.7561L56.3539 56.4282C55.9665 55.9924 55.8051 55.6783 55.5483 55.1086C54.9626 53.7874 54.6151 53.0313 54.6151 51.396C54.6166 44.0447 68.7393 43.5581 68.7393 50.894C68.7393 51.6285 68.5486 52.0027 68.5394 52.6078C71.462 52.6078 71.0638 52.8388 71.3006 51.7409C71.3944 51.3359 71.462 50.9925 71.545 50.6707C71.7849 49.6913 72.8703 44.5513 73.0748 44.1232C71.0269 43.033 67.7261 42.6064 64.9081 42.6064C60.3927 42.6049 55.1517 44.6529 52.8225 46.9766C52.4735 47.32 52.2091 47.4693 51.8632 47.8312C51.6571 48.0529 51.6402 48.1176 51.4588 48.3378C50.0567 50.0009 49.0543 51.5053 48.6623 53.8212C48.5869 54.2355 48.4578 55.0932 48.4609 55.5366Z" fill="#3E4094"/>
<path fill-rule="evenodd" clip-rule="evenodd" d="M179.305 26.4377C178.757 27.2508 177.04 28.1454 175.938 28.5227C175.132 28.7953 173.565 29.1925 172.635 29.2618C172.145 29.2926 171.737 29.365 171.33 29.365C171.332 29.7761 171.316 29.81 171.428 30.1057L172.846 30.0425C173.095 29.9317 176.236 29.8362 178.753 28.0099C180.353 26.8566 179.128 27.2338 180.957 26.9828C181.551 26.9028 181.84 26.912 182.387 26.7996C190.775 25.0934 194.064 14.1604 194.13 6.42572L194.307 3.3691C194.423 2.54374 194.333 1.06701 194.333 0.167733C194.316 -0.0755647 194.145 -0.0339884 194.13 0.167733C194.074 0.874529 193.42 2.07408 193.054 2.7316C192.243 4.18369 191.19 5.75434 190.703 6.43342C185.508 12.2495 177.461 17.9608 179.305 26.4377Z" fill="#259048"/>
<path fill-rule="evenodd" clip-rule="evenodd" d="M173.768 19.8071C175.825 19.8071 177.489 21.4748 177.489 23.529C177.492 25.5847 175.822 27.2508 173.765 27.2508C171.714 27.2508 170.051 25.5831 170.051 23.529C170.054 21.4748 171.714 19.8071 173.768 19.8071Z" fill="#824C2A"/>
<path fill-rule="evenodd" clip-rule="evenodd" d="M188.251 95.9346L186.222 99.9998H0V99.2391C9.68874 99.9089 16.0721 98.6016 20.2046 95.9469L188.251 95.9346Z" fill="#259048"/>
<path d="M38.1134 30.0718H25.8926V34.3126H38.1134V30.0718Z" fill="#3E4094"/>
</g>
<defs>
<clipPath id="clip0_233_285">
<rect width="202" height="100" fill="white"/>
</clipPath>
</defs>
</svg>
