<svg width="100" height="100" viewBox="0 0 100 100" fill="none" xmlns="http://www.w3.org/2000/svg">
<g clip-path="url(#clip0_237_156)">
<path d="M99.9998 50.141C99.8798 77.2495 78.392 99.4054 51.1022 99.9865C22.9575 100.588 0.442461 78.3136 0.00655419 50.8386C-0.4378 22.8384 21.7698 0.488156 49.095 0.00845034C77.1434 -0.484768 100.005 21.9989 99.9998 50.141ZM50.0142 1.45263C23.14 1.44419 1.47309 23.1323 1.44437 50.0667C1.41565 76.7174 23.1755 98.5102 49.8013 98.5592C77.14 98.6099 98.5316 76.4606 98.5485 50.1106C98.5654 23.2049 76.89 1.46277 50.0142 1.45263Z" fill="#004F94"/>
<path d="M50.0151 1.45264C76.891 1.46108 98.5663 23.2049 98.5494 50.109C98.5326 76.459 77.141 98.6082 49.8022 98.5575C23.1765 98.5102 1.41662 76.7174 1.44534 50.0667C1.47406 23.1323 23.141 1.44419 50.0151 1.45264ZM50.0219 12.6666C29.514 12.6261 12.7282 29.3212 12.6708 49.8303C12.6133 70.5572 29.1997 87.1257 49.5015 87.3081C70.4031 87.4956 87.2784 70.863 87.3206 50.2238C87.3629 29.4529 70.7342 12.7071 50.0219 12.6666ZM43.409 91.1592C43.4681 91.1795 43.5255 91.2015 43.5847 91.2217C43.3464 92.5038 43.1099 93.7858 42.8666 95.0965C43.2603 95.1641 43.5272 95.2097 43.8702 95.2671C44.247 93.3179 44.6102 91.4295 44.9718 89.5546C43.5864 89.1391 43.5847 89.1374 42.9038 90.2505C42.3631 91.1356 41.8309 92.0257 41.1838 93.0966C40.9489 91.6609 40.6904 90.4802 40.5857 89.2877C40.5114 88.4448 39.9386 88.4736 39.4064 88.4145C38.7745 88.3452 38.9401 88.9009 38.8454 89.2404C38.7931 89.4296 38.7542 89.6238 38.717 89.8164C38.4484 91.242 38.1814 92.6676 37.8993 94.1777C38.3082 94.2165 38.5971 94.2452 38.9147 94.2756C39.1851 92.899 39.4385 91.6085 39.6919 90.3181C40.0349 91.5241 40.2039 92.7183 40.4269 93.9023C40.4826 94.1946 40.7158 94.453 40.8679 94.7266C41.1044 94.5391 41.4085 94.3956 41.5656 94.154C42.206 93.1727 42.799 92.1609 43.409 91.1592ZM67.448 86.1358C67.9684 87.4905 68.4533 88.7523 68.994 90.1559C67.6237 89.2539 66.387 88.4786 65.1958 87.6391C64.6248 87.2355 64.1787 87.325 63.6228 87.7692C64.324 89.5681 65.0201 91.3552 65.7382 93.1997C66.1099 93.0358 66.3582 92.9277 66.6759 92.7875C66.1724 91.4751 65.6875 90.2133 65.1451 88.7996C66.4968 89.7032 67.7048 90.4752 68.8723 91.3045C69.4721 91.7318 69.9671 91.715 70.5179 91.1947C69.8235 89.4161 69.1342 87.6459 68.4246 85.8301C68.1053 85.9298 67.8484 86.0092 67.448 86.1358ZM32.1345 92.0511C33.7193 92.0359 35.0929 90.4448 35.0794 88.6408C35.0676 87.0632 33.6754 85.8132 31.9757 85.8521C30.4754 85.8876 29.1186 87.5006 29.1001 89.2725C29.0865 90.7691 30.5041 92.068 32.1345 92.0511ZM37.5867 11.8913C37.3958 11.1126 37.2252 10.4167 36.9937 9.47081C37.5225 9.61777 37.8993 9.64648 38.1882 9.82046C38.6174 10.0789 39.0093 10.4167 39.3743 10.7647C39.9183 11.2849 40.4303 11.1836 41.0486 10.7984C40.2799 10.1853 39.5804 9.6279 38.8556 9.05023C38.984 8.91003 39.0702 8.80362 39.1682 8.70734C39.7865 8.10433 39.92 7.43038 39.5246 6.64157C39.1479 5.88991 38.4856 5.68384 37.7591 5.80039C36.8332 5.94903 35.9293 6.22942 34.9595 6.46759C35.5508 8.4658 36.0948 10.3086 36.6541 12.1987C37.0123 12.0822 37.2454 12.0045 37.5867 11.8913ZM78.7816 22.1374C79.4185 22.8114 79.9457 23.4684 80.5725 24.0123C82.1911 25.416 84.3622 24.8805 85.2273 22.9059C85.8321 21.5259 84.8488 19.3267 83.1575 18.3589C81.7349 19.5869 80.2988 20.8267 78.7816 22.1374ZM61.6545 94.2807C60.6104 92.5984 59.6186 90.9701 58.5846 89.3688C58.4612 89.1762 58.0828 89.0141 57.8631 89.0563C57.6401 89.1002 57.3529 89.3806 57.2938 89.6103C57.069 90.4785 56.9271 91.367 56.7497 92.247C56.5537 93.2267 56.3527 94.2047 56.1465 95.2131C56.9018 95.3482 57.3275 95.1371 57.3242 94.4445C57.3174 93.2706 58.2636 93.497 58.9276 93.2858C59.5459 93.0882 59.9514 93.2875 60.2015 93.8736C60.4803 94.5239 60.95 94.6219 61.6545 94.2807ZM75.9516 18.3589C75.1423 17.7407 74.4158 17.1866 73.6386 16.5938C74.0103 16.1124 74.3262 15.7036 74.6743 15.2509C75.3349 15.7205 75.9229 16.1394 76.5818 16.6073C76.7558 16.364 76.9011 16.158 77.0548 15.9435C76.3993 15.4249 75.8181 14.9638 75.2065 14.479C75.5528 14.0263 75.8333 13.6581 76.1357 13.2629C76.918 13.8219 77.6175 14.3236 78.3524 14.8506C78.5383 14.6192 78.687 14.4334 78.8762 14.1986C77.8337 13.4301 76.8335 12.6902 75.8029 11.9285C74.6033 13.5449 73.4679 15.0736 72.2768 16.6816C73.3496 17.4772 74.3921 18.2525 75.4751 19.0548C75.6643 18.7795 75.7843 18.6038 75.9516 18.3589ZM29.0021 15.8776C30.2219 15.1935 31.332 14.5685 32.4386 13.9469C32.0551 13.2088 32.0517 13.2004 31.4992 13.4959C30.8403 13.8473 30.1898 14.2121 29.4904 14.5956C29.1828 14.0382 28.9311 13.5838 28.6642 13.099C29.3991 12.6717 30.0462 12.295 30.7322 11.8964C30.5649 11.6379 30.4331 11.4369 30.2929 11.2207C29.5985 11.5839 28.9564 11.9183 28.235 12.295C27.9697 11.8187 27.7332 11.3913 27.4696 10.9167C28.306 10.4471 29.0578 10.0265 29.8671 9.57216C29.7134 9.29852 29.5968 9.09245 29.4481 8.82895C28.3144 9.45899 27.2432 10.0552 26.1231 10.6768C27.0929 12.4301 28.0154 14.0956 29.0021 15.8776ZM49.6603 93.4919C50.571 93.2554 51.3465 93.1287 52.0612 92.8483C52.7421 92.5815 52.9448 91.9413 52.8756 91.2386C52.808 90.5512 52.4312 90.0259 51.7655 89.9144C50.7636 89.7455 49.738 89.71 48.677 89.612C48.677 91.7251 48.677 93.6253 48.677 95.5594C49.0149 95.5594 49.3004 95.5594 49.6586 95.5594C49.6603 94.8043 49.6603 94.1101 49.6603 93.4919ZM21.9059 14.4148C21.6035 14.3608 21.2183 14.1598 21.0138 14.2763C20.0558 14.8253 19.3209 15.5871 19.233 16.7728C19.1317 18.1444 20.0508 19.5615 21.372 20.097C22.5158 20.5615 23.854 20.0818 24.8762 18.896C25.2901 18.4163 25.2698 18.0852 24.7038 17.7998C22.9754 19.5531 22.0259 19.695 20.855 18.3893C19.745 17.1529 20.0356 16.0668 21.9059 14.4148ZM25.0705 87.7625C22.9298 86.5429 22.5361 85.7051 23.4147 84.2761C24.3068 82.8218 25.3678 82.7965 27.4291 84.2086C27.5643 84.0076 27.6977 83.8083 27.8228 83.6208C26.5015 82.0432 24.7579 81.6986 23.4181 82.7154C21.225 84.3792 21.5207 86.9517 24.0263 88.1814C24.5467 88.4381 24.8728 88.3976 25.0705 87.7625ZM62.0938 6.55711C63.0163 6.81048 63.8171 7.03175 64.6163 7.25133C64.6923 7.18715 64.7684 7.12296 64.8444 7.05877C64.7211 6.81554 64.6501 6.4186 64.4642 6.35442C63.4623 6.00815 62.4317 5.74634 61.3166 5.4271C60.7624 7.3341 60.2268 9.18029 59.698 11.0062C60.384 11.4927 60.7354 11.3711 60.9027 10.6278C61.0294 10.0637 61.2338 9.51811 61.3994 8.97591C63.6482 9.45223 63.6482 9.45223 63.7597 8.71747C63.0822 8.50465 62.3979 8.28844 61.6579 8.05366C61.8083 7.53341 61.9384 7.08749 62.0938 6.55711ZM74.8382 85.141C74.1049 84.7913 73.5186 84.5363 72.9543 84.2373C72.3528 83.9197 71.7868 83.663 71.2833 84.494C73.0861 85.4991 75.3856 85.8403 76.08 88.2371C76.3655 88.102 76.5226 88.0479 76.6578 87.9584C76.7913 87.8706 76.9011 87.7456 77.1174 87.5496C75.1406 85.9382 75.9854 83.6681 75.7353 81.6293C75.0341 81.7746 74.7858 82.1327 74.828 82.7779C74.8736 83.5042 74.8382 84.2339 74.8382 85.141ZM47.5264 4.97273C48.0029 4.93557 48.3982 4.94739 48.7699 4.86125C48.9879 4.81058 49.1687 4.60113 49.3663 4.46431C49.1501 4.31905 48.9304 4.04372 48.7175 4.0471C47.594 4.07075 46.4721 4.15014 45.3503 4.24135C45.0107 4.26837 44.4261 4.09609 44.5595 4.74977C44.595 4.92375 45.0968 5.11462 45.379 5.10786C46.4552 5.07914 46.4586 5.04874 46.5363 6.13652C46.6309 7.4422 46.7171 8.74957 46.8067 10.0232C47.6007 10.1819 47.8508 9.93532 47.7917 9.23941C47.6734 7.84759 47.6143 6.44901 47.5264 4.97273ZM54.5905 4.33087C54.3742 6.30543 54.1698 8.18541 53.9552 10.1465C54.3134 10.1904 54.6023 10.2258 54.9791 10.2731C55.1936 8.27662 55.4014 6.35611 55.6126 4.39168C55.2038 4.36803 54.9571 4.35283 54.5905 4.33087ZM69.8472 8.54181C68.9669 10.3171 68.112 12.0416 67.225 13.8321C67.5426 13.9892 67.8062 14.1209 68.161 14.2966C69.0413 12.5028 69.8877 10.7799 70.7579 9.00631C70.4149 8.83233 70.1733 8.70903 69.8472 8.54181Z" fill="white"/>
<path d="M50.0212 12.6666C70.7335 12.7071 87.3622 29.4529 87.3199 50.2238C87.2777 70.8646 70.4023 87.4956 49.5008 87.3081C29.199 87.1256 12.6126 70.5572 12.6701 49.8302C12.7275 29.3211 29.5133 12.626 50.0212 12.6666ZM56.2236 44.5011C56.156 50.0667 60.1332 54.1087 65.6733 54.2388C72.3453 54.3976 75.6096 49.3792 75.6704 44.8744C75.7464 39.1889 71.972 35.4323 66.3575 35.1773C60.118 34.8969 56.1441 39.5605 56.2236 44.5011ZM51.633 35.1401C51.5249 35.13 51.4151 35.1198 51.3069 35.1097C51.236 35.1502 51.1312 35.1739 51.0991 35.2347C50.4453 36.4914 50.3844 36.5353 49.075 35.9374C47.9092 35.4053 46.7333 35.0236 45.4239 35.0624C43.0517 35.1333 40.8891 36.6113 40.22 38.6923C39.5003 40.9337 40.3349 43.3407 42.4367 44.741C43.6735 45.5636 45.0285 46.2071 46.3008 46.9773C47.2081 47.5263 48.2032 48.0246 48.9196 48.7745C50.3523 50.2711 49.6799 52.4416 47.6811 53.0294C45.8767 53.5598 44.2919 53.0328 42.9132 51.8301C41.7288 50.7964 41.0716 49.4434 40.6543 47.9503C40.585 47.7003 40.4025 47.4824 40.2724 47.251C40.2065 47.2898 40.1389 47.327 40.073 47.3658C40.073 49.6411 40.073 51.9163 40.073 54.1847C40.2268 54.1932 40.2842 54.2067 40.3366 54.1949C40.389 54.1847 40.46 54.1628 40.4836 54.1239C41.2541 52.8149 42.2965 53.0953 43.4116 53.5834C44.9491 54.2557 46.5559 54.4499 48.1965 54.0479C50.4419 53.4973 52.0622 52.1781 52.6501 49.9046C53.2263 47.6733 52.52 45.7764 50.648 44.4031C49.7694 43.7579 48.8098 43.2191 47.8687 42.66C46.5424 41.8729 45.1603 41.1719 43.883 40.3155C43.094 39.7868 42.7121 38.9271 43.0382 37.9406C43.3795 36.9086 44.15 36.3461 45.2093 36.1823C46.5373 35.9762 47.7099 36.3461 48.7591 37.1704C49.9097 38.0741 50.6412 39.2345 50.9977 40.6516C51.0484 40.851 51.2698 41.0064 51.4117 41.182C51.5012 40.9776 51.6617 40.7749 51.6651 40.5689C51.6803 39.6973 51.6398 38.824 51.633 37.9525C51.628 37.0133 51.633 36.0776 51.633 35.1401ZM36.6618 53.8064C36.6703 53.6544 36.6787 53.5023 36.6872 53.3503C36.3746 53.3047 36.0654 53.2456 35.7512 53.2152C34.6935 53.1155 34.168 52.6662 34.163 51.6342C34.1376 46.9909 34.1376 42.3458 34.1663 37.7025C34.1731 36.6113 34.6935 36.14 35.7782 36.0252C36.0705 35.9948 36.3628 35.983 36.6568 35.9627C36.6753 35.8816 36.6922 35.7989 36.7108 35.7178C36.525 35.635 36.3391 35.4796 36.1533 35.4779C33.3097 35.4644 30.4679 35.4661 27.6244 35.4813C27.4588 35.483 27.2949 35.6249 26.9739 35.7718C27.2679 35.9103 27.3591 35.9813 27.4571 35.9948C29.5048 36.287 29.6856 36.4694 29.6873 38.4609C29.6924 42.7394 29.689 47.0179 29.6772 51.2964C29.6738 52.6865 29.243 53.1291 27.9099 53.2388C27.6514 53.2608 27.398 53.3621 27.1428 53.428C27.1564 53.5547 27.1716 53.6814 27.1851 53.8081C30.3429 53.83 33.5023 53.8351 36.6618 53.8064ZM32.2859 55.3975C32.2065 55.3756 32.1287 55.3536 32.0493 55.3316C32.0814 55.6019 32.0223 55.9414 32.1642 56.1306C32.7877 56.9633 33.4162 57.7994 34.1359 58.5477C39.3651 63.99 45.6908 66.4341 53.2161 65.1994C59.1617 64.2231 63.7404 61.0037 67.1989 56.1255C67.5842 55.5816 67.5673 55.5698 66.8881 55.3012C66.7613 55.4769 66.6465 55.6745 66.4961 55.8384C65.1884 57.2657 63.884 58.698 62.5476 60.0983C62.3786 60.274 61.9579 60.4209 61.7738 60.3331C61.13 60.024 60.5404 59.6051 59.9642 59.2487C60.7195 58.1237 61.4375 57.0883 62.1083 56.0225C62.2114 55.8603 62.0998 55.5631 62.088 55.33C61.8819 55.4482 61.6082 55.5174 61.4798 55.6931C60.8327 56.5748 60.2396 57.4988 59.5858 58.3754C59.4506 58.5578 59.0789 58.7605 58.9184 58.6963C57.9097 58.2943 56.9281 57.8197 55.9498 57.3738C56.3976 55.5124 56.3976 55.5124 55.8299 55.3316C55.6102 55.9211 55.3889 56.5157 55.1625 57.1204C54.2113 56.9278 53.3192 56.7944 52.4558 56.5596C51.6127 56.3316 50.6463 56.6762 49.8945 55.9972C49.8184 55.9296 49.5853 56.0157 49.4332 56.058C49.1037 56.1525 48.7861 56.3079 48.4499 56.362C47.5629 56.5039 46.6606 56.5596 45.7804 56.7336C44.2598 57.0326 44.2665 57.0579 43.6667 55.5901C43.6279 55.4938 43.5485 55.4127 43.4927 55.3316C42.6463 55.4448 42.9926 55.9532 43.1633 56.3215C43.5113 57.0731 43.3694 57.4903 42.5178 57.7099C41.9265 57.8619 41.3588 58.1524 40.8215 58.4514C40.3637 58.7065 40.0376 58.6626 39.7351 58.2504C39.2029 57.5258 38.6825 56.791 38.1199 56.0901C37.929 55.8519 37.5066 55.487 37.3951 55.5478C36.7885 55.884 37.3647 56.2353 37.5286 56.4836C38.1216 57.3856 38.789 58.2369 39.4631 59.1558C39.0188 59.4311 38.566 59.627 38.223 59.9412C37.5455 60.5594 37.0217 60.3939 36.4557 59.7875C35.0787 58.3112 33.6764 56.8603 32.2859 55.3975ZM44.2547 32.1723C45.2718 32.3666 46.2366 32.5439 47.1979 32.7348C48.0005 32.8953 48.7962 33.0828 49.5988 33.2314C49.739 33.2568 49.9029 33.1537 50.055 33.1047C50.3608 33.0068 50.6565 32.8666 50.969 32.8125C51.7986 32.6689 52.6383 32.5727 53.4696 32.4358C53.995 32.3497 54.6134 32.0017 55.0037 32.1791C55.3602 32.3413 55.448 33.0642 55.6981 33.5152C55.7775 33.6588 56.0005 33.7229 56.1577 33.8243C56.232 33.6452 56.3976 33.4476 56.3621 33.2922C56.254 32.8058 56.0698 32.3362 55.9025 31.821C56.8436 31.4072 57.756 31.0457 58.6295 30.6065C59.0772 30.3802 59.3459 30.4545 59.6111 30.838C60.2177 31.7163 60.8209 32.598 61.4612 33.4527C61.6014 33.6402 61.8903 33.7196 62.11 33.8479C62.0914 33.5878 62.1607 33.272 62.039 33.076C61.3852 32.0338 60.684 31.0238 59.9592 29.9427C60.6418 29.5255 61.3277 29.1049 62.0221 28.681C63.7979 30.0356 65.2526 31.6251 66.5333 33.3902C66.6802 33.5929 67.0165 33.6571 67.2665 33.7854C67.2209 33.5219 67.2581 33.2027 67.1212 33.0034C61.5271 24.8839 51.3323 21.4448 42.0177 25.1693C37.9577 26.7926 34.7391 29.49 32.1879 33.0152C31.9327 33.3665 31.7131 33.6942 32.3771 33.9324C32.5427 33.728 32.7032 33.5 32.8907 33.299C34.1697 31.9207 35.4403 30.5339 36.7548 29.1894C36.9491 28.9918 37.4373 28.8549 37.6654 28.9597C38.2939 29.2485 38.8566 29.6792 39.4259 30.0424C38.6065 31.1994 37.8226 32.3092 37.0572 33.3885C37.51 33.9054 37.7127 33.7838 37.9814 33.3767C38.5389 32.5338 39.1438 31.7214 39.7808 30.9376C39.9345 30.7484 40.3451 30.5728 40.5394 30.6471C41.5024 31.017 42.4317 31.4731 43.4251 31.9207C43.2528 32.5237 43.0855 33.103 42.92 33.679C43.3964 33.8192 43.3964 33.8192 44.2547 32.1723ZM76.4848 70.5522C76.7585 70.3326 76.9393 70.2008 77.1048 70.0522C77.9124 69.3292 77.9023 68.26 77.0863 67.5591C76.1198 66.7297 74.2039 66.8834 73.3912 67.8547C72.8218 68.5371 72.788 69.4644 73.3422 70.1839C73.5922 70.5099 73.8964 70.792 74.2022 71.1231C73.893 71.368 73.6176 71.5572 73.376 71.7835C72.7441 72.3747 72.6207 73.2953 73.0972 74.0165C73.7004 74.932 74.6229 75.0891 75.6265 74.9979C76.6047 74.9084 77.3532 74.4337 77.7029 73.5115C78.0425 72.6129 77.7756 71.797 77.1116 71.1146C76.9359 70.9356 76.7382 70.7785 76.4848 70.5522ZM34.1799 71.1974C34.413 72.0115 34.5854 72.9253 34.9402 73.7615C35.2764 74.5503 35.9438 75.0384 36.8764 75.0029C37.8411 74.9658 38.4629 74.3814 38.8059 73.579C39.5223 71.9017 39.5037 70.167 38.8245 68.4847C38.468 67.6013 37.7719 66.9983 36.7463 67.0287C35.7647 67.0591 35.1024 67.657 34.7966 68.532C34.5127 69.3411 34.3995 70.211 34.1799 71.1974ZM39.9159 71.1619C40.2268 72.0876 40.4093 73.1686 40.9297 74.0503C41.7237 75.3982 43.437 75.383 44.2682 74.0486C45.4273 72.1872 45.336 70.1958 44.4642 68.2415C44.1195 67.4712 43.4606 67.0253 42.5854 67.0338C41.6764 67.0422 40.9888 67.5118 40.6762 68.3259C40.3501 69.1772 40.193 70.0944 39.9159 71.1619ZM45.6976 71.0741C45.9747 72.0419 46.1487 72.9237 46.4849 73.7395C46.8161 74.5435 47.497 75.0452 48.4093 75.0013C49.3301 74.9557 49.9874 74.4371 50.3439 73.5925C51.0569 71.9034 51.0298 70.1924 50.376 68.4982C50.0634 67.6891 49.4569 67.1452 48.5682 67.0354C47.649 66.9223 46.9141 67.3648 46.5728 68.1536C46.169 69.0843 45.9764 70.1062 45.6976 71.0741ZM66.4437 71.1315C66.1599 70.064 66.0551 69.0826 65.6462 68.2516C64.8521 66.6419 62.9379 66.6047 61.9664 68.0928C61.032 69.5235 61.0625 72.6078 62.0238 74.0064C62.9379 75.334 64.6122 75.4303 65.4418 74.0554C65.9706 73.1804 66.1328 72.0859 66.4437 71.1315ZM57.1444 73.3628C57.6766 72.7919 58.0922 72.449 58.3744 72.02C58.937 71.1653 59.6094 70.3174 59.9034 69.3647C60.2599 68.206 59.3036 67.1283 58.104 67.0236C56.8081 66.9104 55.7319 67.8226 55.6795 69.0843C55.7319 69.0725 55.8062 69.0793 55.835 69.0472C56.3537 68.4644 56.9636 68.1857 57.7019 68.5877C58.295 68.912 58.5214 69.738 58.1581 70.6332C57.8675 71.3511 57.4316 72.02 56.9923 72.6618C56.5108 73.3662 55.9498 74.0165 55.3044 74.8442C56.8605 74.8442 58.2257 74.8543 59.5925 74.829C59.7243 74.8273 59.9305 74.6212 59.9659 74.4776C60.1028 73.9067 60.1856 73.3223 60.287 72.7446C59.3966 73.7294 58.3456 73.2125 57.1444 73.3628ZM24.5426 73.2615C25.1863 72.52 25.8402 71.9271 26.2862 71.2058C26.7137 70.515 27.0972 69.711 27.1868 68.9222C27.3118 67.8344 26.2491 66.9898 25.0765 67.0169C23.9124 67.0439 22.9392 67.9999 22.9713 69.1164C23.0507 69.0641 23.1284 69.032 23.1791 68.9762C23.6674 68.4442 24.2605 68.2127 24.916 68.5658C25.6222 68.9458 25.7371 69.6569 25.4921 70.3258C25.2167 71.0775 24.8315 71.8055 24.3939 72.476C23.8837 73.2581 23.2636 73.9658 22.5827 74.8475C24.0983 74.8475 25.411 74.8628 26.7238 74.829C26.9046 74.8239 27.1885 74.6043 27.2375 74.4303C27.3912 73.8881 27.4554 73.3223 27.5771 72.6348C26.6478 73.4219 26.4552 73.4591 24.5426 73.2615ZM28.41 74.7749C30.0523 74.7749 31.4952 74.7749 32.982 74.7749C33.1019 74.0722 33.2117 73.4371 33.3199 72.802C32.3754 73.7125 31.3617 73.2378 30.2483 73.3172C30.9393 72.5369 31.5695 71.9575 32.0307 71.2666C32.4548 70.6282 32.813 69.8968 32.9887 69.1553C33.1712 68.3817 32.7201 67.7229 32.0443 67.3243C31.2873 66.8767 30.4899 66.8632 29.7329 67.3682C29.1247 67.7736 28.7226 68.3056 28.6263 69.2093C28.8527 69.0539 28.9321 69.0184 28.9828 68.961C29.466 68.4087 30.0709 68.1975 30.7129 68.5641C31.3498 68.9272 31.5408 69.5826 31.2856 70.2532C31.0102 70.9778 30.6808 71.6991 30.2601 72.3477C29.7329 73.1618 29.0892 73.8966 28.41 74.7749ZM67.3324 68.3428C68.7483 68.4627 68.7533 68.4627 68.7584 69.6519C68.7635 70.6619 68.7685 71.6737 68.7533 72.6838C68.7398 73.552 69.0642 74.606 67.6957 74.807C68.9341 74.807 70.1743 74.807 71.4127 74.807C70.3415 74.6077 70.4209 73.8206 70.4378 73.0503C70.4547 72.3206 70.4412 71.591 70.4412 70.8613C70.4412 69.6096 70.4412 68.3597 70.4412 66.9172C69.3683 67.4087 68.4577 67.8259 67.3324 68.3428ZM53.3902 72.9642C53.2516 72.9642 53.1131 72.9642 52.9745 72.9642C52.7245 73.3307 52.3122 73.677 52.2615 74.0689C52.1889 74.6364 52.6383 74.9945 53.2246 74.981C53.7788 74.9675 54.1826 74.5891 54.0998 74.0706C54.0356 73.6736 53.6385 73.3307 53.3902 72.9642ZM53.2398 71.2869C53.772 71.2447 54.1978 70.9018 54.0744 70.341C53.9967 69.9846 53.5642 69.5404 53.2094 69.4475C52.6315 69.2955 52.2734 69.7617 52.248 70.3241C52.2244 70.9102 52.5809 71.2396 53.2398 71.2869Z" fill="#004F94"/>
<path d="M43.4084 91.1592C42.7984 92.1608 42.2054 93.1726 41.5667 94.1556C41.4113 94.3955 41.1055 94.539 40.8689 94.7282C40.7169 94.4546 40.4837 94.1962 40.428 93.9039C40.2049 92.7199 40.036 91.5257 39.693 90.3197C39.4396 91.6101 39.1861 92.9006 38.9158 94.2772C38.5965 94.2468 38.3093 94.2181 37.9004 94.1793C38.1825 92.6709 38.4495 91.2436 38.7181 89.818C38.7553 89.6254 38.7925 89.4312 38.8465 89.242C38.9412 88.9042 38.7756 88.3468 39.4075 88.416C39.9414 88.4752 40.5124 88.4464 40.5868 89.2893C40.6915 90.4835 40.9517 91.6625 41.1849 93.0982C41.832 92.0257 42.3642 91.1355 42.9049 90.2521C43.5841 89.139 43.5874 89.1407 44.9729 89.5562C44.6113 91.4311 44.2464 93.3178 43.8713 95.2687C43.53 95.2113 43.2631 95.1657 42.8677 95.0981C43.111 93.7857 43.3475 92.5037 43.5858 91.2233C43.5266 91.2014 43.4675 91.1794 43.4084 91.1592Z" fill="#004F94"/>
<path d="M67.4482 86.136C67.8486 86.011 68.1055 85.93 68.4248 85.8286C69.1327 87.6444 69.8237 89.4146 70.5181 91.1932C69.9673 91.7135 69.4723 91.7303 68.8725 91.303C67.705 90.4736 66.497 89.7017 65.1453 88.7981C65.6877 90.2118 66.1726 91.4736 66.6761 92.786C66.3584 92.9245 66.1118 93.0343 65.7384 93.1982C65.0203 91.3554 64.3242 89.5666 63.623 87.7677C64.1789 87.3235 64.625 87.234 65.196 87.6376C66.3872 88.4771 67.6239 89.2524 68.9942 90.1544C68.4535 88.7524 67.9686 87.4907 67.4482 86.136Z" fill="#004F94"/>
<path d="M32.1342 92.051C30.5037 92.0679 29.0862 90.7673 29.0997 89.2725C29.1166 87.5006 30.4733 85.8875 31.9753 85.852C33.675 85.8115 35.0672 87.0631 35.0791 88.6407C35.0926 90.4464 33.719 92.0358 32.1342 92.051ZM33.9876 88.5951C33.9944 87.504 33.2983 86.7962 32.222 86.7979C31.1846 86.7996 30.2081 87.9904 30.1776 89.291C30.154 90.3383 30.9075 91.1322 31.9247 91.1339C33.0296 91.1339 33.9792 89.9667 33.9876 88.5951Z" fill="#004F94"/>
<path d="M37.5865 11.8913C37.2452 12.0045 37.0121 12.0822 36.6556 12.1987C36.0963 10.3069 35.5523 8.4658 34.9609 6.46759C35.9307 6.22943 36.8347 5.94903 37.7605 5.80039C38.4871 5.68384 39.151 5.88992 39.5261 6.64157C39.9198 7.43038 39.788 8.10433 39.1696 8.70734C39.0716 8.80193 38.9855 8.90834 38.8571 9.05023C39.5819 9.6279 40.2814 10.1853 41.0501 10.7985C40.4317 11.1836 39.9198 11.2849 39.3758 10.7647C39.0108 10.4167 38.6188 10.0789 38.1897 9.82046C37.9008 9.64648 37.524 9.61777 36.9952 9.47081C37.2249 10.4184 37.3956 11.1143 37.5865 11.8913ZM36.1504 7.07567C36.4393 7.69726 36.686 8.22763 36.931 8.75801C37.4682 8.49282 38.0511 8.28506 38.5158 7.92528C38.6594 7.8138 38.607 7.14323 38.4195 6.97094C37.7318 6.33077 37.0323 6.87466 36.1504 7.07567Z" fill="#004F94"/>
<path d="M78.7812 22.1374C80.2985 20.8284 81.7346 19.5869 83.1572 18.3589C84.8485 19.3267 85.8318 21.526 85.2269 22.906C84.3619 24.8805 82.1925 25.416 80.5722 24.0123C79.9454 23.4684 79.4182 22.8097 78.7812 22.1374ZM83.3127 19.6122C82.228 20.5463 81.2142 21.4179 80.1582 22.3266C80.8155 23.1475 81.4153 23.9448 82.527 23.7775C83.3735 23.6508 84.0341 23.139 84.3416 22.3114C84.7589 21.1915 84.0645 20.4568 83.3127 19.6122Z" fill="#004F94"/>
<path d="M61.6545 94.2805C60.9499 94.6217 60.4785 94.5237 60.2014 93.8734C59.9514 93.2873 59.5459 93.088 58.9275 93.2856C58.2635 93.4984 57.3173 93.2721 57.3241 94.4443C57.3275 95.1368 56.9017 95.348 56.1465 95.2128C56.3509 94.2045 56.552 93.2265 56.7497 92.2468C56.9271 91.3668 57.069 90.4766 57.2937 89.6101C57.3528 89.3804 57.6401 89.1 57.8631 89.0561C58.081 89.0138 58.4595 89.176 58.5845 89.3686C59.6202 90.9698 60.612 92.5981 61.6545 94.2805ZM58.2314 90.605C58.1706 90.6185 58.1081 90.632 58.0472 90.6455C57.9476 91.2705 57.8462 91.8938 57.7296 92.6285C58.3226 92.512 58.7349 92.4309 59.2553 92.3295C58.8599 91.6657 58.5457 91.1353 58.2314 90.605Z" fill="#004F94"/>
<path d="M75.9502 18.3586C75.7829 18.6036 75.6613 18.7809 75.4737 19.0545C74.3924 18.2522 73.3483 17.4769 72.2754 16.6814C73.4682 15.075 74.6036 13.5447 75.8015 11.9282C76.8321 12.6883 77.834 13.4281 78.8748 14.1984C78.6856 14.4332 78.5369 14.619 78.351 14.8504C77.6144 14.3234 76.9166 13.8234 76.1343 13.2626C75.8319 13.6579 75.5498 14.0261 75.2051 14.4788C75.8167 14.9635 76.3979 15.4247 77.0535 15.9432C76.9014 16.1577 76.7544 16.3638 76.5804 16.607C75.9215 16.1392 75.3335 15.7203 74.6729 15.2507C74.3248 15.7017 74.0072 16.1121 73.6372 16.5935C74.4144 17.1847 75.1426 17.7404 75.9502 18.3586Z" fill="#004F94"/>
<path d="M29.0018 15.8777C28.0151 14.0957 27.0926 12.4303 26.1211 10.677C27.2413 10.0537 28.3125 9.45914 29.4461 8.8291C29.5948 9.0926 29.7114 9.29867 29.8652 9.57231C29.0559 10.025 28.304 10.4473 27.4677 10.9168C27.7312 11.3932 27.9695 11.8188 28.233 12.2951C28.9545 11.9185 29.5965 11.584 30.2909 11.2209C30.4312 11.4371 30.5629 11.6381 30.7302 11.8965C30.0443 12.2951 29.3971 12.6718 28.6622 13.0992C28.9291 13.5839 29.1809 14.0366 29.4884 14.5957C30.1896 14.2123 30.84 13.8457 31.4973 13.4961C32.0498 13.2022 32.0531 13.2089 32.4367 13.9471C31.3317 14.5704 30.2217 15.1936 29.0018 15.8777Z" fill="#004F94"/>
<path d="M49.6594 93.4917C49.6594 94.1099 49.6594 94.8041 49.6594 95.5591C49.2995 95.5591 49.0156 95.5591 48.6777 95.5591C48.6777 93.6251 48.6777 91.7249 48.6777 89.6118C49.7388 89.7081 50.7627 89.7436 51.7663 89.9142C52.4319 90.0273 52.8087 90.5526 52.8763 91.2384C52.9456 91.9411 52.7428 92.5813 52.0619 92.8481C51.3456 93.1285 50.57 93.2552 49.6594 93.4917ZM49.6475 91.3921C49.6442 92.4174 49.6611 92.4394 50.3622 92.436C51.2239 92.4309 51.7882 92.061 51.8169 91.485C51.8457 90.8972 51.3709 90.6118 50.4873 90.5526C49.7523 90.502 49.5191 90.7976 49.6475 91.3921Z" fill="#004F94"/>
<path d="M21.9051 14.415C20.0348 16.0669 19.7442 17.153 20.8542 18.3895C22.0251 19.6951 22.9746 19.5532 24.703 17.8C25.269 18.0871 25.2876 18.4165 24.8754 18.8962C23.8532 20.0836 22.5151 20.5616 21.3712 20.0971C20.05 19.56 19.1309 18.1428 19.2322 16.773C19.3201 15.5855 20.0551 14.8254 21.013 14.2765C21.2158 14.1599 21.6027 14.3609 21.9051 14.415Z" fill="#004F94"/>
<path d="M25.0696 87.7627C24.872 88.3978 24.5459 88.4383 24.0238 88.1816C21.5182 86.9519 21.2225 84.3777 23.4156 82.7156C24.7554 81.6988 26.499 82.0434 27.8202 83.621C27.6952 83.8085 27.56 84.0078 27.4266 84.2088C25.367 82.7967 24.306 82.822 23.4122 84.2764C22.537 85.707 22.9307 86.5431 25.0696 87.7627Z" fill="#004F94"/>
<path d="M62.0928 6.5573C61.9374 7.08767 61.8073 7.53529 61.6552 8.05722C62.3952 8.29032 63.0812 8.50652 63.757 8.72104C63.6455 9.4558 63.6455 9.4558 61.3967 8.97947C61.2311 9.52167 61.0267 10.0689 60.9 10.6314C60.7344 11.3746 60.383 11.4962 59.6953 11.0098C60.2258 9.18385 60.7614 7.33766 61.3139 5.43066C62.429 5.7499 63.4597 6.01172 64.4616 6.35798C64.6474 6.42217 64.7184 6.81911 64.8417 7.06234C64.7657 7.12652 64.6897 7.19071 64.6136 7.2549C63.8161 7.03193 63.0153 6.81066 62.0928 6.5573Z" fill="#004F94"/>
<path d="M74.838 85.141C74.838 84.234 74.8752 83.5026 74.8279 82.778C74.7857 82.1328 75.034 81.7747 75.7352 81.6294C75.9869 83.6665 75.1405 85.9366 77.1173 87.5497C76.901 87.7456 76.7912 87.8689 76.6577 87.9585C76.5225 88.048 76.3654 88.102 76.0799 88.2372C75.3855 85.8403 73.086 85.4991 71.2832 84.4941C71.785 83.6631 72.3527 83.9198 72.9542 84.2374C73.5168 84.5363 74.1048 84.7931 74.838 85.141Z" fill="#004F94"/>
<path d="M47.5261 4.97257C47.6139 6.44716 47.6731 7.84574 47.793 9.23925C47.8522 9.93516 47.6021 10.1818 46.808 10.023C46.7202 8.74941 46.6323 7.44204 46.5377 6.13637C46.46 5.04858 46.4566 5.07899 45.3803 5.1077C45.0982 5.11615 44.5981 4.92528 44.5609 4.74961C44.4257 4.09593 45.012 4.26822 45.3516 4.24119C46.4718 4.14998 47.5953 4.07059 48.7189 4.04694C48.9318 4.04188 49.1514 4.3172 49.3677 4.46415C49.17 4.60266 48.9892 4.81042 48.7713 4.86109C48.3979 4.94893 48.0025 4.9371 47.5261 4.97257Z" fill="#004F94"/>
<path d="M54.5904 4.33105C54.957 4.35301 55.2037 4.36822 55.6125 4.39355C55.4013 6.35798 55.1935 8.27849 54.979 10.275C54.6022 10.2277 54.3133 10.1922 53.9551 10.1483C54.1697 8.18559 54.3741 6.30562 54.5904 4.33105Z" fill="#004F94"/>
<path d="M69.8471 8.54199C70.1732 8.70921 70.4148 8.83083 70.7594 9.0065C69.8893 10.7784 69.0428 12.5029 68.1626 14.2968C67.8078 14.1211 67.5442 13.9894 67.2266 13.8323C68.1119 12.0435 68.9668 10.3172 69.8471 8.54199Z" fill="#004F94"/>
<path d="M56.2238 44.501C56.1444 39.5587 60.1166 34.8951 66.3578 35.1788C71.9722 35.4322 75.7467 39.1888 75.6707 44.876C75.6098 49.3808 72.3456 54.3991 65.6735 54.2404C60.1335 54.1086 56.1562 50.0666 56.2238 44.501ZM60.9242 44.4284C61.2452 46.3049 61.4513 48.065 61.8686 49.7727C62.1559 50.95 62.7962 52.0107 63.9265 52.6475C66.2784 53.9718 68.9732 52.83 69.9616 50.1206C70.8318 47.7356 70.8571 45.2746 70.6898 42.7899C70.5817 41.1785 70.3469 39.6009 69.5139 38.1753C68.7198 36.8206 67.5337 36.1382 65.9658 36.1467C63.9012 36.1585 62.6121 37.3578 62.0325 39.16C61.48 40.8779 61.2722 42.7038 60.9242 44.4284Z" fill="white"/>
<path d="M51.6337 35.1402C51.6337 36.0777 51.6269 37.0134 51.6354 37.9509C51.6421 38.8242 51.681 39.6957 51.6675 40.5673C51.6641 40.7734 51.5019 40.9761 51.414 41.1805C51.2721 41.0048 51.0491 40.8494 51.0001 40.6501C50.6436 39.2329 49.912 38.0725 48.7614 37.1688C47.7122 36.3462 46.5397 35.9763 45.2117 36.1807C44.1523 36.3446 43.3819 36.907 43.0406 37.9391C42.7145 38.9255 43.0963 39.7853 43.8854 40.3139C45.1644 41.1703 46.5464 41.8696 47.871 42.6584C48.8104 43.2175 49.7701 43.7563 50.6504 44.4016C52.5224 45.7765 53.2303 47.6717 52.6525 49.903C52.0645 52.1765 50.4442 53.4957 48.1988 54.0464C46.5582 54.4484 44.9515 54.2541 43.414 53.5819C42.2989 53.0937 41.2564 52.8116 40.486 54.1224C40.4623 54.1629 40.3913 54.1832 40.339 54.1933C40.2866 54.2034 40.2292 54.1899 40.0754 54.1832C40.0754 51.9147 40.0754 49.6395 40.0754 47.3643C40.1413 47.3254 40.2089 47.2883 40.2748 47.2494C40.4049 47.4825 40.5873 47.7004 40.6566 47.9487C41.0739 49.4402 41.7312 50.7948 42.9156 51.8286C44.2942 53.0312 45.8774 53.5599 47.6835 53.0278C49.6822 52.44 50.3547 50.2695 48.9219 48.773C48.2039 48.023 47.2104 47.5247 46.3031 46.9758C45.0292 46.2055 43.6742 45.562 42.4391 44.7394C40.3373 43.3408 39.5026 40.9322 40.2224 38.6907C40.8915 36.6081 43.0541 35.1301 45.4262 35.0608C46.7356 35.022 47.9116 35.402 49.0774 35.9358C50.3885 36.5354 50.4476 36.4898 51.1015 35.2331C51.1336 35.1723 51.2383 35.1487 51.3093 35.1081C51.4157 35.1216 51.5256 35.1301 51.6337 35.1402Z" fill="white"/>
<path d="M36.6625 53.8066C33.5031 53.8354 30.3453 53.8303 27.1858 53.81C27.1723 53.6833 27.1571 53.5567 27.1436 53.43C27.3987 53.3641 27.6521 53.2627 27.9106 53.2408C29.2437 53.131 29.6745 52.6885 29.6779 51.2983C29.6897 47.0198 29.6931 42.7413 29.688 38.4628C29.6847 36.4714 29.5056 36.2889 27.4578 35.9967C27.3598 35.9832 27.2686 35.9123 26.9746 35.7738C27.2956 35.6251 27.4595 35.4832 27.6251 35.4832C30.4686 35.468 33.3105 35.4664 36.154 35.4799C36.3398 35.4816 36.5257 35.637 36.7115 35.7197C36.693 35.8008 36.6761 35.8836 36.6575 35.9646C36.3652 35.9849 36.0712 35.9967 35.7789 36.0271C34.6942 36.142 34.1738 36.6116 34.1671 37.7044C34.1383 42.3478 34.14 46.9928 34.1637 51.6361C34.1688 52.6699 34.6942 53.1175 35.7519 53.2171C36.0644 53.2459 36.3753 53.3067 36.6879 53.3523C36.6794 53.5026 36.671 53.6546 36.6625 53.8066Z" fill="white"/>
<path d="M32.2854 55.3975C33.6776 56.8586 35.0799 58.3113 36.4552 59.7875C37.0212 60.3939 37.5433 60.5594 38.2225 59.9412C38.5672 59.6271 39.0183 59.4311 39.4626 59.1558C38.7885 58.2386 38.1211 57.3856 37.5281 56.4836C37.3642 56.2337 36.7864 55.884 37.3946 55.5479C37.5061 55.4854 37.9285 55.8519 38.1194 56.0901C38.682 56.7911 39.2024 57.5258 39.7346 58.2504C40.0371 58.6626 40.3632 58.7065 40.821 58.4514C41.3583 58.1508 41.926 57.862 42.5173 57.7099C43.3689 57.4903 43.5108 57.0715 43.1628 56.3215C42.9921 55.955 42.6458 55.4465 43.4922 55.3317C43.548 55.4111 43.6274 55.4921 43.6662 55.5901C44.266 57.0579 44.2593 57.0326 45.7799 56.7336C46.6601 56.5613 47.5624 56.5056 48.4494 56.362C48.7839 56.308 49.1016 56.1526 49.4327 56.058C49.5848 56.0141 49.8196 55.9279 49.894 55.9972C50.6441 56.6762 51.6106 56.3316 52.4553 56.5597C53.3187 56.7944 54.2091 56.9279 55.162 57.1204C55.3884 56.5157 55.6097 55.9212 55.8294 55.3317C56.3971 55.5124 56.3971 55.5124 55.9493 57.3738C56.9276 57.8197 57.9092 58.2944 58.9179 58.6964C59.0784 58.7606 59.4501 58.5579 59.5853 58.3754C60.2391 57.4971 60.8322 56.5749 61.4793 55.6931C61.6077 55.5175 61.8814 55.4482 62.0875 55.33C62.0993 55.5648 62.2109 55.8604 62.1078 56.0225C61.437 57.0867 60.7207 58.1238 59.9637 59.2487C60.5399 59.6051 61.1295 60.024 61.7733 60.3331C61.9574 60.4226 62.3798 60.2757 62.5471 60.0983C63.8835 58.6981 65.1879 57.2657 66.4956 55.8384C66.646 55.6746 66.7608 55.4786 66.8876 55.3013C67.5651 55.5698 67.5837 55.5834 67.1984 56.1256C63.7416 61.002 59.1612 64.2231 53.2156 65.1994C45.6903 66.4342 39.3663 63.99 34.1354 58.5477C33.4174 57.7995 32.7872 56.9617 32.1637 56.1306C32.0218 55.9414 32.0826 55.6019 32.0488 55.3317C32.1265 55.3553 32.206 55.3756 32.2854 55.3975ZM44.4468 57.6609C45.1801 59.5392 46.1617 60.9243 47.4965 62.0459C47.9476 62.4242 49.3144 62.1793 49.3263 61.7503C49.3651 60.2132 49.3415 58.6744 49.3415 56.9346C47.6654 57.1829 46.133 57.4093 44.4468 57.6609ZM54.8984 57.7758C53.2917 57.4937 51.7744 57.2268 50.1153 56.9363C50.1153 58.4683 50.1001 59.7842 50.1254 61.1C50.1322 61.4327 50.2471 62.0408 50.3518 62.0492C50.9043 62.0965 51.6258 62.1945 52.0008 61.904C53.3035 60.8905 54.1956 59.5274 54.8984 57.7758ZM54.4997 64.186C51.9282 62.3921 47.3867 62.3888 45.0128 64.2028C48.2179 64.9714 51.3149 64.9714 54.4997 64.186ZM58.6256 59.3585C57.7268 58.9717 56.9361 58.644 56.1555 58.291C55.7179 58.0934 55.5422 58.2707 55.3191 58.6541C54.7582 59.6203 54.1365 60.5527 53.5079 61.4766C53.268 61.828 52.9419 62.1219 52.528 62.5813C53.1143 62.6658 53.5907 62.8938 53.8999 62.7536C55.6418 61.9597 57.1878 60.8669 58.6256 59.3585ZM46.6061 62.5374C45.5822 61.0307 44.5955 59.5815 43.553 58.0494C42.6998 58.4227 41.7756 58.8281 40.8497 59.2335C40.8329 59.3416 40.816 59.448 40.7991 59.5561C42.1963 60.5375 43.6004 61.507 44.9858 62.5036C45.5771 62.9293 46.1178 62.8938 46.6061 62.5374ZM44.6411 63.3549C43.1898 62.1979 41.752 61.0442 40.299 59.9091C40.1773 59.8146 39.9087 59.774 39.7836 59.8433C39.2092 60.1642 38.6618 60.5324 37.9792 60.9648C39.6535 62.1506 41.3042 62.9951 43.0681 63.6522C43.7541 63.9073 44.2475 63.7873 44.6411 63.3549ZM54.7751 63.409C55.1232 63.5238 55.581 63.8515 55.9122 63.7535C57.8501 63.1843 59.6377 62.2806 61.3678 60.9986C60.7055 60.6 60.1411 60.2453 59.5599 59.926C59.4518 59.8669 59.2237 59.9007 59.1207 59.9801C57.6913 61.0949 56.2721 62.2232 54.7751 63.409Z" fill="white"/>
<path d="M44.2545 32.1724C43.3962 33.8193 43.3962 33.8193 42.9197 33.6808C43.0853 33.1048 43.2509 32.5254 43.4249 31.9224C42.4331 31.4748 41.5022 31.0188 40.5391 30.6488C40.3448 30.5745 39.9343 30.7502 39.7805 30.9394C39.1436 31.7231 38.5387 32.5373 37.9812 33.3784C37.7108 33.7855 37.5098 33.9088 37.057 33.3903C37.8206 32.3109 38.6063 31.2012 39.4257 30.0441C38.8563 29.681 38.2937 29.2486 37.6652 28.9614C37.4371 28.8567 36.9488 28.9935 36.7545 29.1911C35.4401 30.534 34.1695 31.9224 32.8905 33.3007C32.703 33.5034 32.5425 33.7298 32.3769 33.9341C31.7129 33.696 31.9325 33.3683 32.1876 33.017C34.7389 29.4918 37.9575 26.7943 42.0175 25.1711C51.3321 21.4466 61.5285 24.8856 67.121 33.0051C67.2578 33.2044 67.2224 33.5237 67.2663 33.7872C67.0179 33.6588 66.68 33.5946 66.533 33.3919C65.2523 31.6268 63.7976 30.0374 62.0219 28.6827C61.3275 29.1067 60.6415 29.5273 59.9589 29.9445C60.6838 31.0255 61.3866 32.0373 62.0388 33.0778C62.1604 33.272 62.0912 33.5879 62.1098 33.8497C61.8901 33.7213 61.6029 33.6419 61.461 33.4544C60.8206 32.5998 60.2175 31.718 59.6109 30.8397C59.3456 30.4546 59.077 30.382 58.6293 30.6083C57.7558 31.0475 56.8434 31.4089 55.9023 31.8228C56.0696 32.3379 56.2537 32.8075 56.3619 33.294C56.3957 33.4477 56.2301 33.647 56.1574 33.826C56.0003 33.7247 55.7773 33.6605 55.6979 33.5169C55.4478 33.0659 55.36 32.343 55.0035 32.1809C54.6115 32.0035 53.9931 32.3498 53.4693 32.4376C52.6381 32.5744 51.8001 32.6707 50.9688 32.8143C50.6562 32.8683 50.3589 33.0085 50.0547 33.1065C49.9027 33.1555 49.7388 33.2585 49.5986 33.2332C48.7943 33.0845 47.9986 32.897 47.1977 32.7366C46.2363 32.544 45.2716 32.3667 44.2545 32.1724ZM44.4522 31.5153C46.1215 31.7772 47.6674 32.0204 49.3468 32.2839C49.3468 30.7299 49.3637 29.4158 49.335 28.1034C49.3282 27.774 49.2353 27.2031 49.0765 27.1625C48.5882 27.0392 47.8904 26.9075 47.5559 27.1558C46.1434 28.2132 45.1854 29.6523 44.4522 31.5153ZM54.9139 31.4697C54.1722 29.6388 53.2379 28.2655 51.9065 27.1896C51.3354 26.7284 50.1375 27.0173 50.124 27.5882C50.0919 28.9344 50.1021 30.2823 50.1358 31.6268C50.1409 31.7941 50.418 32.1099 50.5363 32.0964C51.9623 31.9207 53.3815 31.6961 54.9139 31.4697ZM45.0047 25.0039C47.3734 26.8196 52.3373 26.8044 54.4307 24.9988C51.2797 24.2302 48.1878 24.2336 45.0047 25.0039ZM58.6411 29.8364C57.3165 28.5071 55.9175 27.502 54.3834 26.6575C53.76 26.3146 53.2345 26.3518 52.8003 26.6338C53.6924 28.0257 54.5524 29.3955 55.458 30.7367C55.556 30.8836 55.9462 30.9664 56.1338 30.8971C56.9448 30.5965 57.7321 30.2283 58.6411 29.8364ZM46.6604 26.5865C46.2853 26.5392 45.7666 26.3028 45.4575 26.4632C43.7662 27.3466 42.2084 28.4378 40.7503 29.9512C41.8029 30.3972 42.7373 30.7924 43.555 31.137C44.611 29.5881 45.5876 28.1574 46.6604 26.5865ZM37.993 28.2452C38.5607 28.6101 39.0625 28.8989 39.5254 29.2401C39.9275 29.5374 40.1945 29.4327 40.5375 29.1219C41.2623 28.4648 42.0175 27.8365 42.7964 27.2436C43.408 26.7774 44.0737 26.3788 44.9404 25.7994C44.3102 25.6305 43.8507 25.34 43.5094 25.443C41.5478 26.0275 39.7417 26.9548 37.993 28.2452ZM54.8227 25.8467C56.2453 26.9632 57.6426 28.0713 59.0601 29.1557C59.197 29.2604 59.4943 29.3009 59.6413 29.2249C60.2039 28.9361 60.7345 28.5864 61.2785 28.2604C61.2971 28.1557 61.3157 28.0527 61.3326 27.948C59.7376 27.1744 58.1376 26.4109 56.5477 25.6238C55.8939 25.3011 55.3211 25.3451 54.8227 25.8467Z" fill="white"/>
<path d="M76.4841 70.552C76.7375 70.7783 76.9352 70.9354 77.1109 71.1145C77.7749 71.7968 78.0418 72.6127 77.7022 73.5113C77.3525 74.4335 76.604 74.9082 75.6258 74.9977C74.6239 75.0889 73.7014 74.9318 73.0965 74.0163C72.62 73.2951 72.7434 72.3762 73.3753 71.7833C73.6169 71.557 73.8923 71.3678 74.2015 71.1229C73.8957 70.7935 73.5915 70.5098 73.3415 70.1838C72.789 69.4642 72.8211 68.5352 73.3905 67.8545C74.2015 66.8832 76.1191 66.7295 77.0855 67.5589C77.9016 68.2599 77.9117 69.3291 77.1041 70.052C76.9385 70.2006 76.7578 70.3324 76.4841 70.552ZM74.7607 71.4776C74.2741 72.2867 74.1542 73.1076 74.4819 73.8981C74.6103 74.2089 75.1696 74.572 75.4653 74.5214C75.7626 74.469 76.1428 73.9555 76.1918 73.6025C76.332 72.5688 75.6139 72.0131 74.7607 71.4776ZM75.7187 70.1956C75.8826 70.1449 76.0482 70.0942 76.212 70.0419C76.212 69.4051 76.2779 68.7582 76.1901 68.1315C76.1225 67.6518 75.7592 67.3173 75.2101 67.4778C74.6306 67.6467 74.3366 68.1214 74.585 68.645C74.8553 69.2125 75.3318 69.6821 75.7187 70.1956Z" fill="white"/>
<path d="M34.1797 71.1975C34.3993 70.2127 34.5142 69.3412 34.7964 68.5304C35.1022 67.6554 35.7645 67.0575 36.7461 67.0271C37.7717 66.995 38.4678 67.5997 38.8243 68.4831C39.5035 70.1655 39.5221 71.9002 38.8057 73.5774C38.4627 74.3798 37.841 74.9642 36.8762 75.0014C35.9436 75.0368 35.2762 74.5487 34.94 73.7599C34.5835 72.9254 34.4128 72.0116 34.1797 71.1975ZM36.1531 70.9526C36.1615 70.9526 36.1683 70.9526 36.1767 70.9526C36.1767 71.9035 36.1311 72.8596 36.2072 73.8055C36.2274 74.0588 36.6245 74.2818 36.8492 74.52C37.0503 74.2852 37.4186 74.0555 37.4253 73.8156C37.4726 71.9694 37.4777 70.1198 37.4169 68.2737C37.4084 67.9933 36.9894 67.7264 36.7613 67.4527C36.5586 67.7517 36.2105 68.0372 36.1801 68.3514C36.099 69.2111 36.1531 70.0844 36.1531 70.9526Z" fill="white"/>
<path d="M39.916 71.162C40.1931 70.0945 40.3502 69.1773 40.6763 68.326C40.9889 67.5101 41.6765 67.0406 42.5855 67.0338C43.4607 67.0254 44.1213 67.473 44.4643 68.2415C45.3378 70.1958 45.4291 72.1873 44.2683 74.0487C43.4371 75.3847 41.7238 75.3999 40.9298 74.0503C40.4094 73.1686 40.2269 72.0876 39.916 71.162ZM43.2343 71.0488C43.2292 71.0488 43.2259 71.0488 43.2208 71.0488C43.2208 70.1249 43.2749 69.1942 43.1904 68.277C43.1634 67.9848 42.7714 67.7247 42.5467 67.4493C42.3422 67.7162 41.9688 67.9797 41.9604 68.2533C41.908 70.0725 41.9046 71.8951 41.9638 73.7142C41.9722 73.9929 42.3845 74.2598 42.6109 74.5334C42.8187 74.2412 43.1769 73.9625 43.2073 73.6534C43.2884 72.792 43.2343 71.9187 43.2343 71.0488Z" fill="white"/>
<path d="M45.6973 71.074C45.976 70.1061 46.1687 69.0842 46.5725 68.1518C46.9137 67.363 47.647 66.9205 48.5678 67.0336C49.4565 67.1434 50.0631 67.6873 50.3757 68.4964C51.0295 70.1906 51.0566 71.9016 50.3436 73.5907C49.9871 74.4353 49.3298 74.9538 48.409 74.9994C47.4966 75.0434 46.8174 74.5417 46.4846 73.7377C46.1484 72.9235 45.9744 72.0418 45.6973 71.074ZM49.0071 71.0723C49.0004 71.0723 48.9936 71.0723 48.9868 71.0723C48.9868 70.1483 49.0392 69.2176 48.9564 68.3005C48.9294 68.0049 48.5526 67.738 48.3364 67.4593C48.1285 67.7228 47.7484 67.9795 47.7416 68.2498C47.6876 70.0673 47.6842 71.8898 47.7416 73.7073C47.7518 73.9961 48.1556 74.2714 48.3786 74.5535C48.5881 74.2343 48.9429 73.9302 48.9784 73.5907C49.0663 72.7597 49.0071 71.9134 49.0071 71.0723Z" fill="white"/>
<path d="M66.4433 71.1314C66.1308 72.0858 65.9703 73.182 65.4431 74.0553C64.6119 75.4302 62.9375 75.3356 62.0251 74.0063C61.0638 72.6077 61.0334 69.5234 61.9677 68.0927C62.9392 66.6046 64.8535 66.6418 65.6476 68.2515C66.0547 69.0825 66.1595 70.0622 66.4433 71.1314ZM62.9848 71.0588C63.0389 71.9084 63.0642 72.8898 63.1909 73.8576C63.223 74.1009 63.5779 74.3036 63.7857 74.5248C63.985 74.2951 64.35 74.0688 64.3567 73.8323C64.4074 71.9591 64.4159 70.0842 64.3652 68.211C64.3584 67.9525 63.9664 67.7042 63.7536 67.4526C63.5474 67.7161 63.2011 67.961 63.1622 68.2464C63.0406 69.1298 63.0389 70.0301 62.9848 71.0588Z" fill="white"/>
<path d="M57.1444 73.3629C58.3456 73.2125 59.3948 73.7277 60.2852 72.7446C60.1822 73.324 60.1011 73.9084 59.9642 74.4777C59.9304 74.6212 59.7226 74.8256 59.5908 74.829C58.2257 74.8543 56.8588 74.8442 55.3027 74.8442C55.9481 74.0182 56.5091 73.3662 56.9906 72.6619C57.4299 72.0183 57.8658 71.3494 58.1564 70.6333C58.518 69.738 58.2933 68.9121 57.7002 68.5878C56.9619 68.1858 56.3519 68.4645 55.8333 69.0472C55.8045 69.0793 55.7302 69.0725 55.6778 69.0827C55.7319 67.8226 56.8081 66.9105 58.104 67.0236C59.3036 67.1284 60.2599 68.206 59.9034 69.3647C59.6094 70.3174 58.9387 71.1653 58.3744 72.02C58.0922 72.449 57.6766 72.7919 57.1444 73.3629Z" fill="white"/>
<path d="M24.5419 73.2616C26.4562 73.4593 26.6471 73.4221 27.5764 72.6367C27.4547 73.3224 27.3905 73.89 27.2368 74.4322C27.1878 74.6062 26.9039 74.8257 26.7231 74.8308C25.4104 74.8646 24.0959 74.8494 22.582 74.8494C23.2629 73.9694 23.883 73.2599 24.3932 72.4779C24.8325 71.8056 25.2161 71.0776 25.4915 70.3276C25.7364 69.6588 25.6215 68.9477 24.9153 68.5676C24.2598 68.2146 23.6667 68.446 23.1784 68.9781C23.1278 69.0338 23.05 69.0659 22.9706 69.1183C22.9385 68.0018 23.9117 67.0457 25.0758 67.0187C26.2484 66.9917 27.3094 67.8379 27.1861 68.924C27.0948 69.7145 26.7113 70.5185 26.2855 71.2077C25.8395 71.9272 25.184 72.5201 24.5419 73.2616Z" fill="white"/>
<path d="M28.4102 74.7748C29.0894 73.8964 29.7331 73.16 30.2602 72.3492C30.6809 71.7006 31.0104 70.9793 31.2858 70.2547C31.5409 69.5825 31.3483 68.9288 30.713 68.5656C30.071 68.1991 29.4661 68.4102 28.9829 68.9626C28.9322 69.0217 28.8528 69.0555 28.6264 69.2109C28.7227 68.3072 29.1248 67.7751 29.7331 67.3697C30.49 66.8664 31.2858 66.8799 32.0444 67.3258C32.7202 67.7244 33.173 68.3832 32.9889 69.1568C32.8132 69.8983 32.455 70.6297 32.0309 71.2682C31.5713 71.959 30.9411 72.5384 30.2484 73.3188C31.3601 73.2394 32.3756 73.7123 33.32 72.8036C33.2102 73.4387 33.1021 74.0738 32.9821 74.7764C31.4953 74.7748 30.0507 74.7748 28.4102 74.7748Z" fill="white"/>
<path d="M67.332 68.3426C68.4573 67.8274 69.368 67.4085 70.4408 66.917C70.4408 68.3595 70.4408 69.6111 70.4408 70.861C70.4408 71.5907 70.4543 72.3204 70.4374 73.0501C70.4205 73.8204 70.3411 74.6075 71.4123 74.8068C70.1739 74.8068 68.9337 74.8068 67.6953 74.8068C69.0655 74.6041 68.7411 73.5518 68.753 72.6836C68.7682 71.6735 68.7614 70.6617 68.758 69.6516C68.753 68.4625 68.7496 68.4625 67.332 68.3426Z" fill="white"/>
<path d="M53.39 72.9644C53.6384 73.3309 54.0337 73.6738 54.0979 74.0707C54.1824 74.5893 53.7786 74.9676 53.2227 74.9811C52.6348 74.9947 52.187 74.6366 52.2597 74.069C52.3104 73.6772 52.7226 73.3309 52.9727 72.9644C53.1129 72.9644 53.2515 72.9644 53.39 72.9644Z" fill="white"/>
<path d="M53.2396 71.287C52.5806 71.238 52.2224 70.9086 52.2495 70.3242C52.2748 69.7617 52.633 69.2955 53.2108 69.4475C53.5656 69.5404 53.9965 69.9847 54.0759 70.3411C54.1975 70.9019 53.7718 71.2448 53.2396 71.287Z" fill="white"/>
<path d="M33.9863 88.5953C33.9778 89.9668 33.0283 91.134 31.9233 91.1323C30.9045 91.1306 30.1527 90.3367 30.1763 89.2895C30.2067 87.9906 31.1833 86.7981 32.2207 86.7964C33.2969 86.7964 33.993 87.5041 33.9863 88.5953Z" fill="white"/>
<path d="M36.1504 7.07567C37.0323 6.87466 37.7318 6.33077 38.4212 6.96925C38.607 7.14323 38.6594 7.81381 38.5175 7.9236C38.0528 8.28338 37.4699 8.49114 36.9327 8.75633C36.686 8.22764 36.4393 7.69726 36.1504 7.07567Z" fill="white"/>
<path d="M83.3129 19.6123C84.0647 20.4569 84.7608 21.1916 84.3435 22.3115C84.0343 23.1408 83.3754 23.651 82.5289 23.7776C81.4172 23.9449 80.8174 23.1476 80.1602 22.3267C81.2144 21.418 82.2265 20.5464 83.3129 19.6123Z" fill="white"/>
<path d="M58.23 90.605C58.5443 91.1354 58.8586 91.6657 59.2522 92.3296C58.7319 92.4309 58.3196 92.512 57.7266 92.6285C57.8448 91.8938 57.9445 91.2688 58.0442 90.6455C58.1067 90.632 58.1675 90.6185 58.23 90.605Z" fill="white"/>
<path d="M49.648 91.3923C49.5213 90.7994 49.7544 90.5021 50.4877 90.5511C51.3713 90.6102 51.8461 90.8957 51.8174 91.4835C51.7886 92.0612 51.2243 92.4294 50.3627 92.4345C49.6615 92.4395 49.6446 92.4176 49.648 91.3923Z" fill="white"/>
<path d="M60.9238 44.4285C61.2719 42.7056 61.4814 40.878 62.0322 39.1619C62.6117 37.3596 63.9008 36.1604 65.9655 36.1485C67.5334 36.1384 68.7195 36.8225 69.5136 38.1772C70.3482 39.6028 70.583 41.1821 70.6895 42.7918C70.8551 45.2765 70.8297 47.7375 69.9613 50.1225C68.9746 52.8318 66.278 53.9737 63.9262 52.6494C62.7959 52.0126 62.1538 50.9519 61.8683 49.7745C61.451 48.0635 61.2448 46.3051 60.9238 44.4285Z" fill="#004F94"/>
<path d="M44.4473 57.6609C46.1351 57.4109 47.6659 57.1829 49.3419 56.9346C49.3419 58.676 49.3656 60.2131 49.3267 61.7502C49.3166 62.1792 47.948 62.4242 47.4969 62.0458C46.1605 60.9242 45.1805 59.5392 44.4473 57.6609Z" fill="#004F94"/>
<path d="M54.899 57.776C54.1978 59.5276 53.3041 60.8924 52.0014 61.9042C51.6263 62.1947 50.9049 62.0967 50.3524 62.0494C50.2459 62.041 50.1327 61.4329 50.126 61.1002C50.1006 59.7844 50.1159 58.4685 50.1159 56.9365C51.775 57.227 53.2922 57.4939 54.899 57.776Z" fill="#004F94"/>
<path d="M54.5006 64.1857C51.3157 64.9711 48.2188 64.9694 45.0137 64.2026C47.3875 62.3902 51.929 62.3919 54.5006 64.1857Z" fill="#004F94"/>
<path d="M58.6267 59.3585C57.1888 60.8686 55.6429 61.9614 53.8993 62.7519C53.5901 62.8921 53.1136 62.6641 52.5273 62.5796C52.9396 62.1202 53.2674 61.8263 53.5073 61.4749C54.1358 60.551 54.7576 59.6186 55.3185 58.6524C55.5415 58.269 55.7172 58.09 56.1548 58.2893C56.9371 58.6423 57.7278 58.9717 58.6267 59.3585Z" fill="#004F94"/>
<path d="M46.6056 62.5375C46.1173 62.8939 45.575 62.9311 44.9836 62.5054C43.5999 61.5072 42.1941 60.5376 40.7969 59.558C40.8138 59.4498 40.8307 59.3434 40.8476 59.2353C41.7734 58.8299 42.6993 58.4246 43.5509 58.0513C44.5967 59.5816 45.5817 61.0308 46.6056 62.5375Z" fill="#004F94"/>
<path d="M44.6421 63.355C44.2468 63.7874 43.7534 63.9073 43.0675 63.6523C41.3019 62.9952 39.6529 62.1507 37.9785 60.9649C38.6628 60.5342 39.2102 60.1643 39.783 59.8434C39.908 59.7741 40.1783 59.8146 40.2983 59.9092C41.7547 61.0443 43.1925 62.198 44.6421 63.355Z" fill="#004F94"/>
<path d="M54.7754 63.4089C56.274 62.2231 57.6916 61.0931 59.1209 59.98C59.224 59.9006 59.4521 59.8668 59.5602 59.926C60.1431 60.2452 60.7057 60.5999 61.3681 60.9985C59.6363 62.2806 57.8504 63.1825 55.9125 63.7535C55.5813 63.8514 55.1234 63.5237 54.7754 63.4089Z" fill="#004F94"/>
<path d="M44.4531 31.5151C45.1864 29.652 46.1444 28.2129 47.5585 27.1589C47.8931 26.9089 48.5909 27.0406 49.0791 27.1656C49.238 27.2062 49.3292 27.7754 49.3376 28.1064C49.3664 29.4189 49.3495 30.733 49.3495 32.287C47.6667 32.0201 46.1207 31.7769 44.4531 31.5151Z" fill="#004F94"/>
<path d="M54.9148 31.4699C53.3807 31.6979 51.9632 31.9209 50.5372 32.0966C50.4189 32.1118 50.1401 31.7959 50.1368 31.627C50.103 30.2808 50.0928 28.9329 50.1249 27.5883C50.1385 27.0191 51.3364 26.7286 51.9074 27.1897C53.2388 28.2657 54.1731 29.6389 54.9148 31.4699Z" fill="#004F94"/>
<path d="M45.0039 25.0039C48.187 24.2337 51.2789 24.2303 54.43 24.9988C52.3366 26.8045 47.3727 26.818 45.0039 25.0039Z" fill="#004F94"/>
<path d="M58.6413 29.8364C57.734 30.2283 56.945 30.5965 56.1323 30.8971C55.9448 30.9664 55.5562 30.8836 55.4565 30.7367C54.5526 29.3955 53.6909 28.024 52.7988 26.6339C53.233 26.3518 53.7585 26.3129 54.3819 26.6575C55.9178 27.5021 57.3167 28.5071 58.6413 29.8364Z" fill="#004F94"/>
<path d="M46.6598 26.5866C45.587 28.1575 44.6104 29.5881 43.5527 31.1387C42.7367 30.7925 41.8006 30.3972 40.748 29.953C42.2061 28.4395 43.7639 27.3484 45.4552 26.465C45.766 26.3011 46.2847 26.5393 46.6598 26.5866Z" fill="#004F94"/>
<path d="M37.9922 28.2454C39.7392 26.9549 41.5453 26.0276 43.5086 25.4415C43.8499 25.3385 44.3095 25.629 44.9397 25.7979C44.0729 26.3773 43.4072 26.7759 42.7956 27.2421C42.0167 27.8349 41.2615 28.4633 40.5367 29.1204C40.192 29.4328 39.9267 29.5359 39.5246 29.2386C39.0634 28.8974 38.5599 28.6102 37.9922 28.2454Z" fill="#004F94"/>
<path d="M54.8223 25.8464C55.3207 25.3448 55.8934 25.2992 56.5473 25.6235C58.1355 26.4106 59.7355 27.1741 61.3321 27.9477C61.3136 28.0524 61.295 28.1555 61.2781 28.2602C60.7357 28.5862 60.2035 28.9358 59.6409 29.2247C59.4939 29.3007 59.1965 29.2601 59.0597 29.1554C57.6438 28.0727 56.2449 26.9646 54.8223 25.8464Z" fill="#004F94"/>
<path d="M74.7618 71.478C75.615 72.0135 76.3331 72.5709 76.1928 73.6029C76.1438 73.9559 75.7637 74.4694 75.4663 74.5218C75.1723 74.5742 74.6131 74.211 74.483 73.8985C74.1552 73.108 74.2752 72.2871 74.7618 71.478Z" fill="#004F94"/>
<path d="M75.7185 70.1958C75.3315 69.684 74.8551 69.2127 74.5848 68.6452C74.3364 68.1216 74.6304 67.6469 75.2099 67.478C75.7607 67.3176 76.124 67.6537 76.1898 68.1317C76.2777 68.7567 76.2118 69.4036 76.2118 70.0421C76.0479 70.0945 75.884 70.1451 75.7185 70.1958Z" fill="#004F94"/>
<path d="M36.1534 70.9527C36.1534 70.0845 36.101 69.2112 36.1821 68.3498C36.2125 68.0339 36.5605 67.7501 36.7633 67.4512C36.9914 67.7248 37.4104 67.9917 37.4188 68.2721C37.4797 70.1183 37.4746 71.9678 37.4273 73.814C37.4205 74.0539 37.0522 74.2836 36.8511 74.5184C36.6264 74.2819 36.2311 74.0573 36.2091 73.8039C36.1314 72.858 36.1787 71.9036 36.1787 70.951C36.1686 70.9527 36.1601 70.9527 36.1534 70.9527Z" fill="#004F94"/>
<path d="M43.2337 71.0487C43.2337 71.9169 43.2878 72.7919 43.205 73.6533C43.1746 73.9624 42.8164 74.2411 42.6086 74.5333C42.3839 74.2614 41.9716 73.9945 41.9615 73.7141C41.9023 71.8949 41.9057 70.0724 41.9581 68.2532C41.9665 67.9796 42.3399 67.7178 42.5444 67.4492C42.7691 67.7245 43.1611 67.983 43.1881 68.2769C43.2726 69.1941 43.2185 70.1231 43.2185 71.0487C43.2236 71.0487 43.2286 71.0487 43.2337 71.0487Z" fill="#004F94"/>
<path d="M49.0072 71.0722C49.0072 71.9134 49.0663 72.7597 48.9784 73.5924C48.943 73.9302 48.5882 74.2342 48.3787 74.5552C48.1573 74.2731 47.7518 73.9978 47.7417 73.7089C47.6826 71.8915 47.6876 70.0706 47.7417 68.2514C47.7501 67.9829 48.1286 67.7244 48.3364 67.4609C48.5527 67.7396 48.9295 68.0065 48.9565 68.3021C49.0376 69.2193 48.9869 70.1483 48.9869 71.0739C48.9937 71.0722 49.0004 71.0722 49.0072 71.0722Z" fill="#004F94"/>
<path d="M62.9844 71.0589C63.0384 70.0319 63.0418 69.1316 63.1601 68.2465C63.1989 67.9611 63.5453 67.7161 63.7514 67.4526C63.9643 67.706 64.3563 67.9526 64.3631 68.211C64.4121 70.0843 64.4053 71.9592 64.3546 73.8324C64.3478 74.0689 63.9829 74.2935 63.7835 74.5249C63.5774 74.3036 63.2209 74.101 63.1888 73.8577C63.0621 72.8899 63.0384 71.9068 62.9844 71.0589Z" fill="#004F94"/>
</g>
<defs>
<clipPath id="clip0_237_156">
<rect width="100" height="100" fill="white"/>
</clipPath>
</defs>
</svg>
