<svg width="170" height="70" viewBox="0 0 170 70" fill="none" xmlns="http://www.w3.org/2000/svg">
<path d="M17.7786 64.9991H11V5.00063H70.595C96.7359 5.00063 100.861 28.4541 100.861 28.4541L115.53 5.00063H130.902L159 50.4912L150.198 64.9972H113.148V57.7602H154.588L123.199 5C123.199 5 102.512 40.9502 98.0712 47.9536C93.6299 54.9572 85.2876 64.9956 70.9983 64.9956H48.8673V29.2772H55.8799V57.7583H72.0085C79.1412 57.7583 94.4484 51.6886 94.4484 34.53C94.4484 17.3715 78.0859 12.0021 72.7097 12.0021H17.778V64.9941L17.7786 64.9991ZM20.1161 64.9991V39.553H46.2959V46.5567H27.1284V64.9994H20.1158L20.1161 64.9991ZM46.2959 36.518V29.2809H27.1284V21.6048H71.2343C77.8458 21.6048 84.8656 26.9463 84.8656 34.7668C84.8656 42.5873 77.7702 47.9567 72.7108 47.9567H65.8352V29.2806H58.589V54.9604H72.7108C81.6549 54.9604 91.9949 47.2072 91.9949 35.0002C91.9949 22.91 82.591 14.5733 71.3456 14.5733H20.1177V36.5177H46.2974L46.2959 36.518ZM91.0572 64.9991L123.199 12.0071L149.613 54.9607H113.149V47.957H136.758L123.201 25.8958L100.878 65H91.06L91.0572 64.9991Z" fill="black"/>
</svg>
