<svg width="107" height="100" viewBox="0 0 107 100" fill="none" xmlns="http://www.w3.org/2000/svg">
<g clip-path="url(#clip0_237_103)">
<path d="M37.7806 97.5778C36.0854 96.9161 34.4789 96.392 32.9658 95.6717C31.1216 94.7934 29.2697 93.9316 27.5268 92.8317C25.2173 91.3737 22.9515 89.8707 20.8864 88.0779C19.1912 86.6062 17.5477 85.0847 16.1222 83.3407C14.8847 81.827 13.5858 80.3582 12.4261 78.786C11.5157 77.5524 10.7641 76.1997 9.9676 74.8851C9.48174 74.0839 8.98711 73.2787 8.59277 72.4306C7.32894 69.7146 6.10211 66.979 5.35044 64.0629C4.96291 62.5599 4.60071 61.0492 4.23753 59.5394C4.11971 59.0495 4.17813 58.9987 4.66497 59.0378C5.27644 59.0866 5.88985 59.1715 6.50034 59.1588C7.04755 59.1471 7.24813 59.3891 7.36692 59.8859C7.72231 61.3634 8.08743 62.84 8.51293 64.2981C9.20327 66.6677 10.2198 68.9084 11.3064 71.119C12.69 73.9336 14.3813 76.555 16.3023 79.0222C17.2526 80.2431 18.2331 81.4591 19.3392 82.5336C20.8874 84.0365 22.564 85.4068 24.1881 86.8307C26.1033 88.5103 28.2766 89.8151 30.4566 91.1024C31.2998 91.6001 32.2005 92.0032 33.0924 92.4111C34.3095 92.9674 35.5217 93.5491 36.7767 94.0068C38.2801 94.5553 39.8117 95.0442 41.3598 95.4482C42.8486 95.8367 44.3626 96.1734 45.8864 96.3686C48.1201 96.6555 50.3692 96.8965 52.6175 96.9678C54.4957 97.0273 56.3836 96.8312 58.2657 96.7189C60.9589 96.5589 63.581 95.9548 66.1691 95.255C68.4718 94.6324 70.7229 93.8165 72.8592 92.7205C73.9331 92.1691 75.0616 91.7133 76.0986 91.1014C77.6896 90.1625 79.2747 89.1973 80.7683 88.1131C82.3213 86.9858 83.8227 85.7698 85.2346 84.4708C86.6104 83.205 87.8577 81.7977 89.1371 80.4295C90.5713 78.8963 91.7699 77.1796 92.8838 75.4053C94.0687 73.5178 95.1505 71.5728 96.0385 69.5243C96.3987 68.6937 96.7648 67.8661 97.1076 67.0278C97.2078 66.7828 97.314 66.6687 97.6022 66.696C98.4035 66.7702 99.2097 66.7975 100.012 66.8648C100.428 66.9 100.29 67.183 100.199 67.4045C99.8319 68.2829 99.4687 69.1642 99.0763 70.0308C98.6236 71.0311 98.202 72.0539 97.6577 73.0045C96.5496 74.9369 95.4659 76.8956 94.1904 78.7157C92.875 80.5905 91.434 82.3979 89.8829 84.0814C87.8986 86.2363 85.7506 88.2419 83.3632 89.9605C81.1724 91.5376 78.9135 92.9986 76.5299 94.2849C73.9838 95.6581 71.3402 96.7775 68.6052 97.6617C65.5897 98.6367 62.4964 99.2739 59.3309 99.6224C56.9484 99.8839 54.5668 100.016 52.1822 99.9971C50.416 99.9835 48.6468 99.7668 46.8884 99.5618C45.3704 99.3842 43.8602 99.1197 42.3559 98.8455C41.6928 98.7245 41.0512 98.4854 40.3978 98.3029C39.4797 98.0472 38.5615 97.7944 37.7806 97.5778Z" fill="#4064AE"/>
<path d="M102.269 40.6423C101.302 40.5672 100.374 40.5145 99.4527 40.4012C99.3077 40.3837 99.1343 40.1055 99.0798 39.9172C98.6933 38.5665 98.3564 37.2011 97.962 35.8524C97.3106 33.6233 96.4022 31.4958 95.4003 29.4053C93.9739 26.4287 92.2261 23.6521 90.2096 21.0463C88.6547 19.0369 86.9595 17.1416 85.0472 15.4718C83.4319 14.0605 81.7805 12.6718 80.0231 11.4479C78.2578 10.2192 76.3669 9.16326 74.4838 8.11705C73.4021 7.51587 72.2356 7.06303 71.0906 6.58384C69.8988 6.08514 68.7148 5.53373 67.4763 5.18825C65.4287 4.61634 63.3577 4.08738 61.2633 3.73311C59.0608 3.3603 56.8243 3.07338 54.5956 3.00994C52.4126 2.94748 50.2208 3.21587 48.032 3.33395C45.8286 3.45302 43.6914 3.96149 41.5581 4.468C40.3974 4.74322 39.2417 5.07796 38.1307 5.50933C36.1444 6.2813 34.1562 7.06889 32.2371 7.99213C29.8214 9.15448 27.544 10.5696 25.3853 12.174C23.066 13.8976 20.9162 15.8133 18.9523 17.9263C16.4032 20.6677 14.1735 23.655 12.3887 26.9596C11.7286 28.1815 11.0928 29.417 10.4803 30.6633C10.1668 31.3016 9.90195 31.9671 9.67022 32.6386C9.56117 32.9558 9.38006 33.0504 9.09965 33.027C8.347 32.9626 7.59629 32.867 6.84169 32.8152C6.46586 32.7889 6.44833 32.622 6.56712 32.338C7.0228 31.2479 7.44148 30.1402 7.93513 29.0676C9.39467 25.8987 11.1434 22.8938 13.23 20.1007C15.5989 16.9298 18.2902 14.0557 21.3387 11.5182C23.6629 9.58389 26.137 7.87111 28.7766 6.41501C30.4036 5.51714 32.1066 4.75395 33.7901 3.96344C35.9916 2.92991 38.2982 2.1921 40.6506 1.59385C43.0186 0.991691 45.407 0.50372 47.8519 0.353424C49.8791 0.22948 51.9063 0.0704009 53.9354 0.00501273C54.9451 -0.0271934 55.9607 0.12115 56.9742 0.177755C59.6392 0.32805 62.2613 0.776008 64.8561 1.37914C66.1307 1.67583 67.4052 1.99691 68.6447 2.41266C70.0682 2.8899 71.4684 3.44716 72.85 4.03761C74.2112 4.61927 75.5695 5.22338 76.8674 5.93191C78.2948 6.71169 79.6501 7.62225 81.0376 8.47522C82.985 9.6727 84.7415 11.12 86.4415 12.6386C89.1522 15.0609 91.6108 17.7223 93.6915 20.7048C94.893 22.4263 95.9991 24.2221 97.0555 26.0383C98.4995 28.5211 99.6377 31.16 100.516 33.8898C101.205 36.0319 101.698 38.2366 102.275 40.4149C102.288 40.4588 102.274 40.5086 102.269 40.6423Z" fill="#4064AE"/>
<path d="M0 55.5536C0.089578 54.3658 0.16163 53.3021 0.250234 52.2402C0.472232 49.5788 0.706888 46.9184 0.926938 44.257C1.15867 41.4522 1.38749 38.6473 1.5978 35.8415C1.62604 35.4696 1.73898 35.3154 2.11774 35.3506C2.88694 35.4218 3.65907 35.4726 4.42924 35.535C5.45647 35.617 6.48175 35.7214 7.51092 35.7741C7.84782 35.7917 7.9335 35.9176 7.90916 36.2094C7.73779 38.2862 7.57129 40.363 7.39311 42.4388C7.36487 42.7629 7.47295 42.9376 7.80108 42.9619C9.77959 43.1113 11.7571 43.2596 13.7347 43.4148C14.0511 43.4402 14.1085 43.2694 14.13 43.0068C14.2692 41.297 14.4172 39.5881 14.5623 37.8792C14.5856 37.604 14.6236 37.3288 14.6187 37.0536C14.611 36.5412 14.8252 36.3577 15.3441 36.4075C17.2029 36.5861 19.0636 36.7345 20.9885 36.9004C20.9476 37.4752 20.9145 38.0178 20.8697 38.5604C20.6487 41.2375 20.4228 43.9135 20.2018 46.5905C19.9282 49.9087 19.6595 53.2279 19.382 56.5461C19.3313 57.1473 19.2846 57.1561 18.6945 57.1053C17.1688 56.9745 15.6421 56.8428 14.1144 56.7471C13.0579 56.6808 13.0151 56.6691 13.1076 55.5458C13.2809 53.4319 13.4659 51.319 13.648 49.206C13.7093 48.4936 13.7142 48.4692 13.0307 48.4038C11.763 48.2828 10.4923 48.1911 9.22264 48.0896C8.61312 48.0408 8.0036 48.0056 7.39506 47.951C7.11756 47.9256 6.97638 48.0046 6.95009 48.3082C6.79722 50.1117 6.62975 51.9133 6.47299 53.7159C6.41944 54.3288 6.3727 54.9417 6.34251 55.5555C6.32596 55.8854 6.23931 56.062 5.85373 56.0288C3.93267 55.8629 2.00966 55.7146 0 55.5536Z" fill="#4064AE"/>
<path d="M21.4531 57.2188C21.6128 56.8538 21.753 56.5171 21.9059 56.1863C22.6186 54.6462 23.3323 53.1072 24.0519 51.5701C25.0129 49.5176 25.9817 47.4691 26.9456 45.4187C27.8969 43.3975 28.8453 41.3744 29.7985 39.3542C30.0195 38.8867 30.2308 38.4114 30.4976 37.9703C30.5803 37.8337 30.8335 37.7263 31.0039 37.7322C31.8091 37.7595 32.6134 37.8259 33.4167 37.8864C34.6075 37.9761 35.7963 38.0806 36.9871 38.1635C37.2987 38.185 37.4769 38.2767 37.5694 38.6115C38.285 41.187 39.0153 43.7596 39.7514 46.3292C40.4115 48.6334 41.0873 50.9337 41.7552 53.235C42.2917 55.0844 42.8272 56.9338 43.3608 58.7842C43.3822 58.8574 43.3783 58.9375 43.392 59.079C42.5604 59.0253 41.764 58.9814 40.9675 58.9189C39.7806 58.8262 38.5947 58.7071 37.4068 58.6281C36.99 58.6007 36.7661 58.4729 36.6921 58.023C36.5607 57.2257 36.3455 56.442 36.2023 55.6456C36.1342 55.2679 35.9336 55.1244 35.5841 55.0971C34.217 54.9917 32.85 54.8834 31.4839 54.7741C30.8413 54.7224 30.1987 54.6755 29.558 54.6082C29.188 54.5691 28.967 54.6677 28.8326 55.0571C28.5473 55.8828 28.2211 56.6947 27.8755 57.497C27.8161 57.6346 27.5707 57.7849 27.4208 57.7751C26.2475 57.7 25.0771 57.5858 23.9058 57.4862C23.2028 57.4267 22.4989 57.373 21.7959 57.3115C21.7073 57.3047 21.6186 57.2647 21.4531 57.2188ZM33.5569 43.4658C33.4186 43.6844 33.3388 43.7762 33.2959 43.8826C32.9551 44.7385 32.6221 45.5963 32.2853 46.4542C32.2083 46.6494 32.1217 46.8416 32.0428 47.0368C31.6728 47.9493 31.2989 48.8599 30.9357 49.7753C30.8121 50.0866 30.9026 50.2496 31.2717 50.2779C32.3963 50.3618 33.5179 50.478 34.6415 50.5726C35.067 50.6088 35.0661 50.3531 34.995 50.0378C34.7448 48.9331 34.5033 47.8263 34.2618 46.7196C34.0349 45.6812 33.812 44.6438 33.5569 43.4658Z" fill="#4064AE"/>
<path d="M86.7659 48.3298C84.8497 48.5933 83.0932 48.8315 81.3377 49.0784C81.0105 49.1242 80.9658 48.8988 80.9015 48.6773C80.6561 47.8262 80.18 47.1567 79.476 46.6005C78.8392 46.0969 78.1168 46.0354 77.3807 45.9983C75.3233 45.8939 73.7518 47.6223 73.45 49.498C73.188 51.123 72.9816 52.7323 73.2445 54.368C73.7362 57.4285 76.7351 58.0883 78.8159 57.003C79.7886 56.4955 80.3056 55.505 80.6279 54.45C80.8061 53.8663 80.8966 53.8361 81.4185 54.1015C81.5762 54.1816 81.7535 54.2245 81.919 54.2899C83.2549 54.8208 84.5917 55.3469 85.9198 55.8953C86.0289 55.9402 86.17 56.192 86.133 56.2662C85.6511 57.2334 85.2042 58.2278 84.6219 59.1335C83.6395 60.6628 82.1507 61.5246 80.4234 61.9735C78.9016 62.3697 77.3612 62.2468 75.814 62.1062C74.4928 61.9862 73.2455 61.629 72.0177 61.1625C70.8756 60.7282 69.933 60.0099 69.1473 59.0896C67.9867 57.7311 67.2321 56.1608 66.9468 54.3982C66.6917 52.824 66.7813 51.245 66.9906 49.66C67.2233 47.8994 67.8455 46.293 68.8143 44.8438C69.6507 43.5926 70.7392 42.5278 72.1929 42.0272C73.2844 41.6514 74.4314 41.3284 75.5735 41.2367C77.2745 41.0991 78.9834 41.2132 80.6474 41.7354C81.6668 42.0555 82.6531 42.4273 83.5168 43.0549C84.5868 43.8327 85.3531 44.876 85.8848 46.0803C86.1954 46.7859 86.4495 47.5149 86.7659 48.3298Z" fill="#4064AE"/>
<path d="M50.8108 59.5852C48.4847 58.9118 46.9541 57.3171 45.9142 55.2032C44.7828 52.9019 44.7341 50.4708 45.106 47.9871C45.3524 46.3445 45.8743 44.8035 46.7282 43.3894C47.6405 41.8786 48.9092 40.7475 50.582 40.1346C52.6948 39.3607 54.8759 39.2436 57.0744 39.6242C58.0559 39.794 59.0559 39.9951 59.9721 40.3688C61.7685 41.1008 63.1346 42.352 63.895 44.1858C64.1423 44.7821 64.3595 45.392 64.6009 45.9912C64.7509 46.3641 64.6817 46.5553 64.2426 46.6129C62.7217 46.811 61.2028 47.0248 59.6887 47.2609C59.2438 47.3302 59.0559 47.1946 58.9342 46.7632C58.5009 45.229 57.2361 44.2267 55.4942 44.1828C53.4105 44.1301 51.8964 45.8195 51.5995 47.6747C51.3969 48.9396 51.1272 50.1888 51.2236 51.4829C51.2966 52.4627 51.4261 53.4094 52.0035 54.2507C52.6189 55.1475 53.5254 55.5369 54.5263 55.6082C56.4221 55.7419 57.4902 55.3554 58.4541 53.1859C58.5788 52.9058 58.6946 52.6169 58.8602 52.3612C58.9225 52.2656 59.1299 52.1817 59.2389 52.2119C59.6751 52.3329 60.1026 52.4871 60.5242 52.653C61.6069 53.0785 62.6789 53.5314 63.7675 53.9422C64.1355 54.0808 64.2407 54.2419 64.0995 54.6235C63.2018 57.0555 61.7568 58.9967 59.2525 59.9238C58.5203 60.1951 57.7151 60.3327 56.9332 60.3874C55.3267 60.5016 53.7211 60.3806 52.1428 60.0409C51.6861 59.9453 51.2538 59.7403 50.8108 59.5852Z" fill="#4064AE"/>
<path d="M106.762 52.0181C105.848 54.1652 104.597 55.3948 102.703 55.9199C101.341 56.2976 99.9561 56.2166 98.5715 56.1297C97.7361 56.077 96.9036 55.9863 96.0692 55.9189C95.7372 55.8916 95.5882 56.0292 95.5609 56.3913C95.4022 58.5354 95.2133 60.6776 95.0507 62.8218C95.0215 63.2112 94.9514 63.3859 94.4821 63.3371C92.6866 63.1516 90.8863 63.014 89.086 62.8755C88.7501 62.8491 88.6401 62.73 88.6683 62.3904C89.0208 58.2192 89.3674 54.0471 89.7062 49.8739C89.8854 47.6683 90.0451 45.4607 90.2174 43.2541C90.2661 42.6276 90.3771 42.5563 91.0012 42.6119C93.2465 42.8091 95.4947 42.9828 97.739 43.1897C99.2463 43.3293 100.768 43.4151 102.249 43.7021C103.496 43.9441 104.715 44.4282 105.601 45.4227C106.49 46.422 106.994 47.6312 106.999 48.9644C107.005 50.1043 106.828 51.2442 106.762 52.0181ZM99.4956 47.639C98.59 47.5336 97.6826 47.4438 96.78 47.315C96.3964 47.2604 96.2766 47.437 96.2522 47.76C96.1656 48.939 96.0857 50.1179 95.9942 51.2959C95.9728 51.575 96.0585 51.7341 96.3564 51.739C97.224 51.7536 98.0964 51.8317 98.9591 51.7692C99.997 51.6941 100.616 51.0451 100.783 50.0438C100.949 49.0473 100.352 47.8801 99.4956 47.639Z" fill="#4064AE"/>
<path d="M25.5723 60.8072C25.9189 60.7984 26.246 60.7614 26.5674 60.7887C27.3541 60.857 28.1418 60.9302 28.9198 61.0571C29.1544 61.0951 29.4436 61.261 29.5634 61.4572C30.1515 62.4234 30.648 63.4462 31.2556 64.3987C32.4513 66.2745 33.8855 67.958 35.5602 69.4229C36.4219 70.1763 37.269 70.9648 38.2193 71.5914C39.5114 72.4434 40.8658 73.2124 42.2484 73.9063C43.2542 74.4119 44.333 74.7925 45.4089 75.1331C47.9648 75.9412 50.5869 76.3247 53.2743 76.3013C55.5507 76.2818 57.7853 76.0085 59.9839 75.4288C62.2136 74.8403 64.3148 73.9551 66.3381 72.8377C68.154 71.8354 69.7897 70.5959 71.2726 69.1798C72.4109 68.0936 73.4108 66.8512 74.3904 65.6118C74.8412 65.0418 75.2667 64.7481 76.0096 64.8545C76.9297 64.9872 77.8625 65.0233 78.9131 65.1111C77.4681 67.7442 75.6133 69.9635 73.4634 71.9281C68.1783 76.759 61.9322 79.4731 54.802 79.7844C39.5357 80.451 28.8711 70.2758 25.5723 60.8072Z" fill="#4064AE"/>
<path d="M80.7454 38.8593C80.0765 38.8193 79.4397 38.789 78.8039 38.7392C78.4505 38.7119 78.0892 38.5733 77.7504 38.6202C76.9228 38.7353 76.6005 38.2034 76.2986 37.6091C75.4282 35.8973 74.3513 34.3221 73.0728 32.8963C72.1897 31.9125 71.2939 30.9219 70.2881 30.0709C69.1713 29.1252 67.9591 28.282 66.7264 27.4905C65.0079 26.3867 63.1638 25.5103 61.1921 24.9628C59.8747 24.5968 58.5349 24.2777 57.1844 24.065C53.2683 23.4491 49.4096 23.7312 45.6065 24.8926C43.7886 25.4479 42.0545 26.1701 40.4012 27.1001C38.82 27.9902 37.3526 29.0364 35.9875 30.2378C34.5251 31.5251 33.2291 32.9597 32.0724 34.5241C31.8884 34.774 31.7005 34.8657 31.3801 34.8325C30.2468 34.7144 29.1095 34.6334 27.8359 34.5271C29.3081 32.1672 30.9312 30.0748 32.8903 28.2596C38.2056 23.332 44.4906 20.532 51.7163 20.2627C68.1042 19.6527 77.8254 30.8419 80.7454 38.8593Z" fill="#4064AE"/>
<path d="M30.5399 23.4385C29.9294 22.7759 29.3627 22.1776 28.8175 21.5599C28.6247 21.3422 28.4796 21.1646 28.1953 21.4369C27.9226 21.6984 28.0044 21.8848 28.2401 22.1239C28.7162 22.608 29.1514 23.1331 29.6266 23.6191C29.8924 23.8894 29.8924 24.0934 29.6022 24.3325C29.3189 24.5658 29.056 24.8244 28.7386 25.1133C28.1729 24.5033 27.6461 23.9372 27.1213 23.3692C26.1778 22.3455 25.2441 21.3139 24.2889 20.3019C24.0299 20.0276 24.0474 19.8617 24.3093 19.5904C25.1282 18.7404 25.1155 18.7267 25.913 19.5845C26.1661 19.8578 26.43 20.1233 26.6578 20.417C26.8497 20.6639 27.0775 20.6571 27.2235 20.4629C27.319 20.336 27.3375 20.0218 27.2469 19.9047C26.8896 19.446 26.4826 19.0253 26.0775 18.6057C25.8254 18.3441 25.7591 18.1323 26.1155 17.9079C26.2635 17.8142 26.3803 17.6707 26.5079 17.5458C26.9723 17.093 27.021 17.1066 27.4465 17.58C28.6695 18.9385 29.9031 20.2872 31.1329 21.6389C31.2195 21.7345 31.3023 21.8341 31.3967 21.9219C31.7492 22.2498 31.6976 22.5036 31.2994 22.7642C31.0365 22.9369 30.8213 23.1848 30.5399 23.4385Z" fill="#4064AE"/>
<path d="M55.7852 14.1856C55.9224 13.602 56.0432 13.0847 56.1649 12.5685C56.5368 10.9943 56.9195 9.423 57.2739 7.84588C57.3703 7.41451 57.5456 7.23982 58.0071 7.32277C58.5144 7.41451 59.0353 7.44086 59.5513 7.48087C59.824 7.50234 59.9603 7.62043 59.9739 7.90248C60.0713 9.95879 60.1716 12.0151 60.2787 14.0714C60.2991 14.4725 60.2572 14.7673 59.7363 14.6014C59.6477 14.5731 59.5396 14.6092 59.4481 14.5867C58.6994 14.4042 58.601 14.6336 58.6458 13.7201C58.6624 13.3804 58.5796 13.1589 58.1872 13.1316C57.8153 13.1062 57.6936 13.2594 57.6429 13.6235C57.5358 14.3847 57.5095 14.3837 56.7345 14.3076C56.4326 14.2764 56.1347 14.2305 55.7852 14.1856ZM58.7471 8.84427C58.6906 8.84622 58.6341 8.84817 58.5777 8.85012C58.5543 8.87062 58.5153 8.88818 58.5095 8.91258C58.2933 9.83973 58.0684 10.7659 57.8805 11.6999C57.8601 11.8004 58.0558 12.0493 58.1414 12.0454C58.3284 12.0356 58.6633 11.9156 58.6682 11.8258C58.7247 10.8332 58.7286 9.83778 58.7471 8.84427Z" fill="#4064AE"/>
<path d="M49.2688 9.20118C49.2269 8.63904 49.1899 8.1335 49.1471 7.55867C49.5745 7.48157 49.9942 7.383 50.4177 7.34786C50.5044 7.34006 50.6796 7.55476 50.6981 7.68456C50.9425 9.41784 51.1645 11.1531 51.3962 12.8883C51.4391 13.2094 51.4819 13.5314 51.5501 13.8476C51.626 14.1941 51.5764 14.4254 51.1577 14.4264C50.7283 14.4274 50.2785 14.7172 49.8715 14.3132C49.8345 14.2761 49.6096 14.3825 49.5063 14.4644C48.6446 15.1564 47.743 14.8919 47.559 13.8174C47.337 12.5252 47.1997 11.2165 47.078 9.90971C47.0147 9.23534 47.7567 8.74541 48.485 8.92889C48.7177 8.98745 48.9397 9.08504 49.2688 9.20118ZM48.6592 9.88141C48.6563 10.0454 48.6417 10.1586 48.6544 10.2689C48.7294 10.913 48.8034 11.5561 48.8929 12.1983C48.9533 12.6306 49.0137 13.0669 49.1295 13.4865C49.1695 13.629 49.3798 13.7237 49.5132 13.8408C49.6232 13.6993 49.7507 13.5675 49.8374 13.4114C49.8773 13.3382 49.8462 13.2201 49.8335 13.1245C49.7001 12.1456 49.5677 11.1677 49.4255 10.1898C49.408 10.0659 49.3603 9.93021 49.2814 9.83749C49.2065 9.74771 49.0653 9.64621 48.9698 9.66085C48.852 9.67744 48.7517 9.81017 48.6592 9.88141Z" fill="#4064AE"/>
<path d="M17.524 65.4701C17.7187 65.9376 17.9203 66.4216 18.1666 67.013C17.4938 67.1741 16.8911 67.3283 16.2835 67.4561C16.1715 67.4795 16.0255 67.419 15.9135 67.3605C15.0888 66.9311 14.676 66.2059 14.5105 65.3227C14.3401 64.4151 14.7918 63.7807 15.5523 63.4352C16.7704 62.8819 18.0137 62.3705 19.2824 61.9499C20.0779 61.6863 20.814 62.0728 21.2707 62.7257C21.8179 63.5094 21.9912 64.4414 21.4274 65.2837C21.1811 65.6526 20.6573 65.838 20.2522 66.0957C20.1451 66.164 20.0039 66.1747 19.892 66.2372C19.5463 66.4285 19.4032 66.3318 19.2785 65.9493C18.9222 64.8582 18.9027 64.8699 19.9465 64.4004C20.2766 64.2521 20.7624 64.1213 20.5774 63.647C20.3934 63.1747 19.9504 63.4479 19.6456 63.565C18.4869 64.011 17.34 64.4893 16.192 64.9626C16.0596 65.0172 15.9174 65.0953 15.8317 65.2036C15.7461 65.3139 15.6458 65.5296 15.6944 65.6018C15.785 65.7346 15.9982 65.8936 16.1277 65.8683C16.5766 65.7824 17.0128 65.6223 17.524 65.4701Z" fill="#4064AE"/>
<path d="M41.6908 85.9193C41.7025 85.8725 41.7142 85.8246 41.7258 85.7778C42.2896 83.4716 44.0967 83.7576 45.4579 84.7433C45.8708 85.0419 46.0081 85.4889 45.8941 85.9993C45.7919 86.4561 45.7179 86.9216 45.5777 87.3666C45.5436 87.4759 45.3041 87.5296 45.1512 87.5882C45.1045 87.6057 45.0305 87.553 44.9691 87.5316C43.9799 87.1949 43.9964 87.1997 44.2827 86.1682C44.3771 85.8266 44.6352 85.3425 44.0958 85.1668C43.5943 85.0039 43.4921 85.5426 43.3762 85.8432C43.1192 86.5039 42.9468 87.1988 42.7609 87.8858C42.6051 88.4626 42.4512 89.0433 42.3558 89.6318C42.3295 89.7967 42.5126 89.9948 42.6002 90.1783C42.7803 90.0876 43.0247 90.0417 43.127 89.8963C43.31 89.6367 43.3821 89.3 43.5544 89.0296C43.6303 88.9106 43.8533 88.7934 43.9857 88.8159C45.1921 89.0238 45.1551 89.0189 44.7248 90.1744C44.162 91.6852 42.6761 91.4656 41.6411 90.882C40.8193 90.4194 40.6363 89.9919 40.8447 89.0628C41.0832 88.0049 41.3753 86.9587 41.644 85.9066C41.6596 85.9115 41.6752 85.9154 41.6908 85.9193Z" fill="#4064AE"/>
<path d="M73.0098 80.5732C73.8403 80.0745 74.6095 79.5699 75.4206 79.1454C75.8305 78.9307 76.3456 78.9297 76.6737 79.325C77.1362 79.8813 77.5539 80.4805 77.9395 81.0934C78.1887 81.4877 78.1293 81.8995 77.7584 82.2342C77.5549 82.4187 77.3923 82.6646 77.1635 82.8022C76.738 83.0579 76.8392 83.3254 77.0583 83.6406C77.4283 84.1725 77.7788 84.7171 78.1615 85.2392C78.3416 85.4861 78.3036 85.6442 78.0583 85.7867C77.9745 85.8355 77.8859 85.8774 77.8071 85.9321C76.9755 86.5108 76.9707 86.5157 76.4244 85.7057C75.3398 84.0993 74.2629 82.488 73.1831 80.8777C73.1383 80.8143 73.1042 80.743 73.0098 80.5732ZM75.0428 80.6279C75.3339 81.0485 75.6056 81.4652 75.9074 81.8585C75.9941 81.9717 76.1684 82.0186 76.3018 82.0957C76.3855 81.9249 76.5783 81.7141 76.5335 81.5892C76.4059 81.2359 76.2102 80.8972 75.9892 80.5908C75.7361 80.2384 75.4177 80.2072 75.0428 80.6279Z" fill="#4064AE"/>
<path d="M88.7142 75.7438C88.646 75.8541 88.61 75.9234 88.5643 75.9858C87.7649 77.0555 88.0511 77.2526 86.7338 76.264C85.6744 75.4686 84.6092 74.68 83.5284 73.9149C83.2392 73.7099 83.2314 73.5255 83.4018 73.2727C83.4836 73.1517 83.5937 73.0502 83.6696 72.9263C83.8711 72.5974 84.0688 72.2782 84.4456 72.492C84.5722 72.0596 84.6296 71.6156 84.8273 71.2476C85.0843 70.7704 85.6218 70.6621 86.0775 70.9529C86.7708 71.395 87.4445 71.8693 88.1154 72.3446C88.6957 72.7545 89.2468 73.2054 89.8388 73.5958C90.1319 73.789 90.1075 73.9198 89.9186 74.1647C89.1592 75.1465 89.1144 75.1299 88.1047 74.3287C87.2858 73.6777 86.4134 73.0922 85.5439 72.5095C85.4018 72.4139 85.1457 72.489 84.9422 72.4851C85.0074 72.6793 85.0133 72.9507 85.1476 73.0561C86.1885 73.8739 87.2547 74.6605 88.3131 75.4559C88.4396 75.5506 88.5682 75.6394 88.7142 75.7438Z" fill="#4064AE"/>
<path d="M53.5094 87.637C53.745 87.4652 53.8726 87.3725 53.9991 87.2788C54.447 86.948 55.1179 86.9421 55.5327 87.2973C55.6388 87.3881 55.7138 87.5735 55.7177 87.718C55.7498 88.9799 55.7634 90.2418 55.78 91.5027C55.7829 91.7291 55.7644 91.9565 55.7654 92.1839C55.7703 92.9197 55.7722 92.9197 55.0702 92.8788C54.1413 92.8241 54.1588 92.8251 54.1968 91.8882C54.2387 90.8224 54.2474 89.7548 54.265 88.6871C54.2679 88.5417 54.2854 88.3719 54.2202 88.2567C54.1286 88.0976 53.9651 87.9795 53.8317 87.8439C53.7236 87.9766 53.5405 88.0996 53.522 88.244C53.4539 88.772 53.4227 89.3078 53.4091 89.8406C53.3877 90.6663 53.3818 91.4929 53.3896 92.3195C53.3926 92.6621 53.2825 92.8065 52.9184 92.8182C51.8356 92.8544 51.8162 92.868 51.823 91.8042C51.8327 90.3472 51.8795 88.8891 51.9028 87.432C51.9067 87.1773 51.9778 87.0299 52.268 87.0543C52.4763 87.0719 52.6886 87.0729 52.897 87.0534C53.2494 87.0202 53.5211 87.0797 53.5094 87.637Z" fill="#4064AE"/>
<path d="M61.0039 14.7964C61.3126 13.5384 61.6095 12.3322 61.9026 11.1249C62.0214 10.6369 62.1343 10.147 62.2385 9.65514C62.3047 9.34187 62.4605 9.19938 62.7877 9.29795C62.9425 9.34479 63.0993 9.39066 63.258 9.41506C63.6134 9.46971 63.9317 9.55365 63.8587 9.99672C64.2443 9.92158 64.6007 9.79666 64.958 9.79373C65.6873 9.78787 66.0621 10.2485 65.9229 10.961C65.7282 11.9613 65.5003 12.9558 65.2822 13.9512C65.1888 14.3787 65.0846 14.8042 64.9872 15.2317C64.9064 15.5869 64.7477 15.8007 64.3456 15.6123C64.2725 15.5781 64.1927 15.5576 64.1148 15.5381C63.3534 15.3439 63.3398 15.341 63.517 14.5534C63.7876 13.353 64.07 12.1555 64.368 10.9619C64.4458 10.6516 64.331 10.4388 64.072 10.4203C63.9288 10.4095 63.6698 10.6291 63.627 10.7892C63.2813 12.0706 62.9571 13.3579 62.666 14.6529C62.5842 15.017 62.4459 15.1722 62.0876 15.0853C61.7332 14.9994 61.3807 14.8979 61.0039 14.7964Z" fill="#4064AE"/>
<path d="M66.6396 85.2651C67.3523 85.595 67.5636 86.2138 67.77 86.8013C67.99 87.4268 68.1458 88.0759 68.3084 88.72C68.5937 89.853 68.3318 90.4142 67.2793 90.9851C66.252 91.5414 65.0398 91.0827 64.6484 89.9907C64.5832 89.8072 64.4936 89.6305 64.4468 89.4431C64.2531 88.6741 64.0369 87.909 63.8938 87.1302C63.7351 86.2713 64.3612 85.4935 65.2326 85.3969C65.7 85.3442 66.1702 85.3081 66.6396 85.2651ZM66.9872 90.0443C66.9842 89.9194 66.9969 89.8511 66.9784 89.7916C66.6415 88.6985 66.3124 87.6025 65.9444 86.5202C65.8966 86.3787 65.6396 86.3084 65.4799 86.2059C65.4225 86.406 65.2901 86.6197 65.3241 86.8032C65.403 87.2297 65.5559 87.6435 65.6883 88.0602C65.885 88.677 66.0748 89.2968 66.3007 89.9028C66.3533 90.0424 66.5237 90.1771 66.6697 90.2278C66.7506 90.2542 66.8927 90.1029 66.9872 90.0443Z" fill="#4064AE"/>
<path d="M83.6404 81.2239C83.4203 81.8553 82.4135 82.7825 81.6073 82.7278C81.3951 82.7132 81.1224 82.6741 80.99 82.5375C80.141 81.6601 79.2871 80.7828 78.5111 79.8429C78.1226 79.3725 78.2365 78.7869 78.5442 78.2531C79.1323 77.2323 80.25 76.7843 81.2101 77.3191C81.6843 77.5836 82.0504 78.0589 82.435 78.4678C82.7777 78.8318 83.0825 79.232 83.3989 79.6214C83.7923 80.1064 83.8332 80.6481 83.6404 81.2239ZM82.6462 81.462C82.5382 81.178 82.5177 81.0492 82.4486 80.9574C82.2149 80.6491 81.9773 80.3426 81.7174 80.0566C81.1964 79.4857 80.6697 78.9197 80.1215 78.3751C80.029 78.2834 79.8187 78.3117 79.6629 78.2853C79.6551 78.46 79.5704 78.7011 79.6532 78.8006C80.3883 79.679 81.1429 80.5427 81.9238 81.38C82.028 81.4913 82.3162 81.4308 82.6462 81.462Z" fill="#4064AE"/>
<path d="M34.07 20.1319C34.0554 20.1729 34.0067 20.2734 33.9853 20.3798C33.8918 20.8472 33.6494 21.2679 33.1752 21.2874C32.8179 21.302 32.4021 21.1137 32.1012 20.8921C31.816 20.6823 31.628 20.3241 31.4333 20.0089C31.2649 19.7366 31.2405 19.4682 31.4557 19.1559C31.7283 18.7607 31.9172 18.3059 32.1353 17.8745C32.3632 17.4256 32.0847 16.6556 31.6222 16.4936C31.5278 16.4604 31.3213 16.5101 31.2902 16.5775C31.2259 16.7209 31.1899 16.92 31.2395 17.0616C31.334 17.329 31.6621 17.6403 31.593 17.8081C31.4859 18.0658 31.1227 18.2141 30.8715 18.4132C30.5706 18.6523 30.3778 18.5987 30.1909 18.2483C29.6953 17.3182 29.8491 16.5023 30.706 15.8738C31.2279 15.4913 31.7741 15.098 32.4751 15.3224C32.7078 15.3966 32.9561 15.5566 33.1002 15.7509C33.9279 16.8693 34.7204 18.0131 35.5373 19.1393C35.7282 19.4028 35.6766 19.5775 35.4234 19.7386C35.1927 19.885 34.9833 20.0811 34.7341 20.1738C34.5666 20.2382 34.3485 20.1563 34.07 20.1319ZM32.8442 18.0697C32.5121 18.7802 32.7069 19.5824 33.222 19.8957C33.3495 19.9738 33.5647 19.9806 33.7068 19.9279C33.7721 19.9035 33.8227 19.6205 33.7662 19.5209C33.4946 19.0476 33.183 18.5948 32.8442 18.0697Z" fill="#4064AE"/>
<path d="M46.8771 87.8045C47.0027 87.0033 47.5071 86.5983 48.2617 86.5251C49.1361 86.4392 49.9033 86.6968 50.396 87.4678C50.5323 87.6806 50.5859 88.0007 50.5557 88.2574C50.4418 89.2333 50.3463 90.22 50.1156 91.1705C49.842 92.2978 49.1789 92.654 48.0426 92.4295C47.7281 92.3671 47.3971 92.2987 47.1215 92.1465C46.6123 91.8635 46.2988 91.4419 46.3854 90.7977C46.5208 89.7915 46.6279 88.7814 46.7476 87.7733C46.7905 87.7831 46.8343 87.7938 46.8771 87.8045ZM48.6337 91.313C48.7972 90.1185 48.9472 89.0166 49.0971 87.9138C49.1039 87.867 49.1117 87.8035 49.0884 87.7713C49.0017 87.6532 48.8946 87.4473 48.8079 87.4532C48.6629 87.4639 48.4224 87.5927 48.4029 87.704C48.2043 88.8449 48.0309 89.9897 47.8849 91.1383C47.8683 91.2672 48.0592 91.5326 48.1673 91.5404C48.325 91.5521 48.4964 91.3872 48.6337 91.313Z" fill="#4064AE"/>
<path d="M41.5578 15.9999C41.4283 16.2887 41.3562 16.4263 41.3036 16.5708C41.1459 17.0022 40.7701 17.1954 40.3903 17.1466C40.0632 17.1046 39.7175 16.8831 39.4683 16.6479C39.2725 16.4625 39.2015 16.1375 39.0914 15.8681C38.8782 15.347 38.8889 14.8814 39.3641 14.4745C39.6435 14.2354 39.8577 13.9191 40.107 13.643C40.4614 13.2487 40.3757 12.423 39.9288 12.1371C39.8392 12.0805 39.6318 12.061 39.5851 12.1156C39.4936 12.223 39.4176 12.4055 39.441 12.5372C39.4975 12.8476 39.6163 13.1472 39.7204 13.4888C39.2443 13.6508 38.8217 13.7942 38.4118 13.9338C37.7156 12.8847 38.1197 11.6794 39.2979 11.2695C39.6854 11.1348 40.1167 11.0753 40.5286 11.0713C41.0573 11.0665 41.4302 11.3602 41.6337 11.8648C42.1283 13.0935 42.6298 14.3203 43.1341 15.5451C43.2559 15.8408 43.2948 16.0731 42.8897 16.1599C42.7349 16.1931 42.5918 16.2819 42.4448 16.3492C42.1176 16.5015 41.7992 16.603 41.5578 15.9999ZM40.809 14.0812C40.7496 14.0773 40.6902 14.0724 40.6308 14.0685C40.5403 14.2285 40.3514 14.4081 40.3777 14.5457C40.4614 14.9771 40.6084 15.3997 40.774 15.8086C40.81 15.8984 41.0729 15.993 41.1488 15.9481C41.2657 15.8779 41.4039 15.6593 41.3708 15.5539C41.2141 15.0542 41.0018 14.5711 40.809 14.0812Z" fill="#4064AE"/>
<path d="M30.9955 85.3249C30.6079 85.2556 30.2418 85.2565 29.9342 85.1228C29.3178 84.8545 29.1727 84.2718 29.5077 83.6784C29.5476 83.6082 29.569 83.5272 29.6128 83.4598C30.2204 82.5171 30.3489 82.2828 31.4161 82.4868C31.7014 82.5415 31.9915 82.5707 32.2807 82.6069C32.8367 82.6761 33.3654 82.2946 33.4092 81.747C33.4219 81.5831 33.304 81.383 33.1872 81.2522C33.1522 81.2132 32.9165 81.3469 32.7773 81.4113C32.7383 81.4299 32.7198 81.4894 32.6858 81.5226C32.4969 81.7061 32.2359 82.0759 32.1298 82.035C31.7978 81.91 31.5164 81.6387 31.234 81.4016C31.1766 81.3537 31.1571 81.1869 31.1931 81.1098C31.5563 80.3339 32.4531 79.9777 33.2378 80.3388C33.6409 80.5242 34.0265 80.7799 34.3654 81.0678C34.9126 81.5323 34.9846 82.194 34.5727 82.8713C34.0518 83.7272 33.4949 84.5617 32.9506 85.4039C32.7578 85.7025 32.5679 86.0041 32.3557 86.2881C32.2905 86.375 32.1425 86.4706 32.0509 86.454C31.6147 86.3779 31.0295 85.7182 30.9955 85.3249ZM32.3343 83.2842C31.5154 83.2402 31.1201 83.6804 30.8757 84.2816C30.8192 84.4211 30.9166 84.6446 30.9955 84.8037C31.0208 84.8544 31.2545 84.872 31.3265 84.8174C31.8289 84.4367 32.1921 83.9566 32.3343 83.2842Z" fill="#4064AE"/>
<path d="M68.0059 16.3383C67.3915 16.7238 66.857 16.7199 66.4354 16.3178C66.226 16.1177 66.1842 15.7371 66.08 15.4346C66.0624 15.3848 66.1102 15.3116 66.1296 15.2491C66.6223 13.6788 66.6447 13.6622 68.3204 13.5529C69.1432 13.4993 69.4275 13.2953 69.5424 12.5955C69.5667 12.4472 69.4499 12.1603 69.3476 12.1339C69.1977 12.0949 68.999 12.2286 68.8267 12.2998C68.7926 12.3145 68.7761 12.3808 68.7595 12.4267C68.5278 13.0845 68.4577 13.2172 67.5999 12.7673C67.2464 12.5819 67.2055 12.3769 67.3837 12.0305C67.8297 11.1629 68.3389 10.8896 69.2814 11.1921C69.7741 11.3502 70.2415 11.6264 70.6738 11.9192C71.0516 12.1759 71.0925 12.6277 70.9522 13.024C70.4742 14.3844 69.9552 15.7303 69.4606 17.0849C69.3359 17.4274 69.1587 17.4596 68.8773 17.2576C68.7488 17.1649 68.595 17.0966 68.4431 17.0488C68.1442 16.9551 67.8968 16.8341 68.0059 16.3383ZM68.9075 14.2312C68.0809 14.3083 67.4684 15.0559 67.6028 15.7147C67.6271 15.8318 67.7596 15.986 67.8667 16.0084C67.9728 16.0309 68.1763 15.9411 68.2211 15.8454C68.4635 15.3331 68.669 14.8031 68.9075 14.2312Z" fill="#4064AE"/>
<path d="M75.3139 18.6446C75.8903 17.9127 76.5018 17.2061 77.0344 16.4429C77.6361 15.5802 77.9681 15.5353 78.7675 16.3912C78.4968 16.7337 78.2291 17.0919 77.9409 17.4335C77.1074 18.425 76.2671 19.4107 75.4288 20.3994C74.8533 21.0776 74.4269 21.1665 73.6674 20.7556C73.3276 20.5721 72.9819 20.3955 72.6674 20.1739C72.5584 20.0968 72.4552 19.8645 72.4951 19.7601C72.5428 19.6381 72.7677 19.4849 72.8855 19.5083C73.3714 19.602 73.5632 19.3327 73.7132 18.952C74.2584 17.5642 74.8261 16.1843 75.3489 14.7877C75.5154 14.3436 75.7588 14.3183 76.0782 14.5349C76.6098 14.896 76.8572 14.8111 76.4794 15.5616C76.0724 16.3697 75.715 17.2022 75.3421 18.0259C75.2652 18.1947 75.2165 18.3762 75.1552 18.5519C75.2068 18.5822 75.2603 18.6134 75.3139 18.6446Z" fill="#4064AE"/>
<path d="M77.4743 20.2765C77.669 20.4034 77.8482 20.5098 78.0156 20.6318C78.3516 20.8748 78.557 21.1227 78.1578 21.514C77.9631 21.7043 77.8968 22.043 78.1734 22.1874C78.3253 22.2665 78.7216 22.1601 78.8102 22.0156C78.9611 21.7697 79.0341 21.4184 78.9991 21.1295C78.9533 20.7508 78.7585 20.3927 78.6466 20.0198C78.3516 19.0361 79.0429 17.781 79.9542 17.6747C80.6339 17.5956 81.1051 18.0455 81.5666 18.4359C81.9395 18.7521 82.2599 19.1708 82.1654 19.6997C82.1099 20.0111 81.9123 20.3048 81.739 20.581C81.701 20.6415 81.4712 20.6415 81.3738 20.5888C81.2229 20.5068 81.1207 20.3419 80.9795 20.2355C80.7078 20.0306 80.6007 19.8217 80.8451 19.5123C80.999 19.3181 81.0525 19.0439 80.7799 18.9404C80.6231 18.8809 80.3466 18.9619 80.2035 19.0781C79.887 19.3357 79.9065 19.6958 80.0438 20.0589C80.1928 20.4522 80.3544 20.8445 80.4635 21.2495C80.6816 22.0596 80.1051 23.1399 79.3204 23.4249C78.7839 23.6191 78.3418 23.3254 77.9007 23.1019C77.7041 23.0023 77.5395 22.8306 77.3769 22.6744C76.5912 21.919 76.6116 21.189 77.4743 20.2765Z" fill="#4064AE"/>
<path d="M86.9792 26.8786C86.7923 26.6648 86.6199 26.4765 86.4563 26.2793C86.2587 26.0412 86.2139 25.8285 86.4534 25.5523C86.5751 25.4117 86.5479 25.1404 86.5878 24.9277C86.3561 24.9589 86.0552 24.9111 85.9111 25.0399C85.7358 25.197 85.617 25.4996 85.6083 25.7435C85.5937 26.1427 85.6823 26.5467 85.7358 26.9479C85.8663 27.9179 85.4836 28.5474 84.508 28.9524C84.0066 29.1613 83.0942 28.7875 82.6532 28.1922C82.0174 27.3343 81.9239 26.7624 82.3426 26.1573C82.4506 26.0012 82.6016 25.8704 82.7457 25.7426C82.9336 25.5767 83.1186 25.5786 83.2812 25.7914C83.399 25.9456 83.5178 26.0998 83.6463 26.2452C83.8372 26.4618 83.8031 26.6268 83.5918 26.82C83.3902 27.0054 83.0582 27.1987 83.2734 27.5334C83.3513 27.6554 83.657 27.7315 83.8118 27.6827C84.1906 27.5617 84.434 27.2602 84.4136 26.8405C84.3951 26.4531 84.3269 26.0676 84.2646 25.684C84.1302 24.8584 84.508 24.2845 85.139 23.82C85.544 23.5223 85.9607 23.4872 86.4174 23.6892C87.133 24.0064 87.8185 25.0448 87.8049 25.8275C87.7961 26.3555 87.4427 26.6277 86.9792 26.8786Z" fill="#4064AE"/>
<path d="M30.1278 80.5728C29.7559 80.2303 29.4803 80.0097 29.2535 79.7472C29.1834 79.6652 29.2155 79.4593 29.2564 79.3275C29.2924 79.2124 29.4501 79.1314 29.4784 79.0172C29.5261 78.82 29.5154 78.6092 29.529 78.4043C29.3323 78.4404 29.0636 78.4072 28.9516 78.5243C28.2126 79.2924 27.4901 80.078 26.8086 80.8968C26.6908 81.0384 26.793 81.3634 26.793 81.6034C27.0043 81.5527 27.2165 81.5068 27.4249 81.4492C27.4658 81.4375 27.496 81.3848 27.531 81.3516C28.0286 80.892 28.566 80.9681 28.9224 81.5624C28.9682 81.6386 28.9672 81.7869 28.9234 81.864C28.5456 82.5208 27.7404 82.8819 26.9984 82.6252C26.3198 82.39 25.6811 81.9997 25.4649 81.2511C25.3743 80.9408 25.388 80.5104 25.5369 80.2342C26.1523 79.0982 27.0199 78.1496 28.0111 77.3347C28.2321 77.1531 28.6508 77.1512 28.973 77.1697C29.7442 77.2127 31.0333 78.3262 30.7383 79.3471C30.6263 79.7355 30.3771 80.0849 30.1278 80.5728Z" fill="#4064AE"/>
<path d="M69.1186 82.6411C69.657 83.8932 70.1692 85.0819 70.6804 86.2706C71.0182 87.0572 71.3473 87.8468 71.692 88.6295C71.8478 88.9828 71.8322 89.178 71.4038 89.3527C70.3863 89.7665 70.3922 89.8016 69.9715 88.8315C69.2267 87.1158 68.4964 85.3933 67.7477 83.6795C67.6172 83.3818 67.7019 83.215 67.9726 83.1027C68.3299 82.9554 68.6902 82.8139 69.1186 82.6411Z" fill="#4064AE"/>
<path d="M34.3869 14.7808C34.3042 14.6802 34.237 14.6119 34.1844 14.5338C33.8241 14 33.8475 13.9229 34.4161 13.637C34.9078 13.39 35.4044 13.1509 35.8805 12.8767C36.1882 12.7 36.3382 12.7537 36.531 13.0611C37.0343 13.8624 36.9564 14.771 37.0811 15.6425C37.1648 16.2291 37.2281 16.8195 37.3011 17.408C37.3615 17.4734 37.4228 17.5388 37.4832 17.6042C37.7451 17.4178 38.0012 17.2235 38.2699 17.0469C38.5289 16.8751 38.6526 17.0557 38.747 17.2626C38.8395 17.4666 39.0917 17.6939 38.7577 17.8823C38.083 18.2629 37.3985 18.6289 36.7043 18.9724C36.6108 19.0183 36.3596 18.9353 36.3109 18.8436C36.1386 18.5186 35.9536 18.1741 35.9 17.8179C35.751 16.8244 35.6712 15.8201 35.5524 14.8208C35.4901 14.2918 35.3684 14.2372 34.901 14.4948C34.7336 14.5865 34.5671 14.6802 34.3869 14.7808Z" fill="#4064AE"/>
<path d="M33.7578 87.1052C34.2855 86.1566 34.7675 85.3154 35.2242 84.4604C35.7422 83.4913 36.2543 82.5183 36.7343 81.5306C36.9164 81.1549 37.1258 81.1725 37.4179 81.3413C38.3779 81.8957 38.3944 81.9044 37.8687 82.9028C37.0031 84.5473 36.1131 86.1791 35.232 87.8157C35.2018 87.8713 35.1424 87.9728 35.1258 87.967C34.7179 87.8235 34.3011 87.6937 33.9165 87.5015C33.8084 87.4468 33.7938 87.2038 33.7578 87.1052Z" fill="#4064AE"/>
<path d="M73.9733 11.8902C75.0064 12.3108 75.0161 12.3167 74.5098 13.3131C73.6831 14.939 72.837 16.5542 72.0114 18.1811C71.8205 18.5568 71.6657 18.6847 71.2207 18.4349C70.3882 17.9684 70.3327 17.9957 70.7612 17.133C71.6102 15.4241 72.5001 13.7357 73.3687 12.0356C73.5186 11.7418 73.727 11.7555 73.9733 11.8902Z" fill="#4064AE"/>
<path d="M26.4539 72.9362C26.2153 73.148 26.0352 73.308 25.8541 73.4691C25.8804 73.4798 25.9057 73.4896 25.932 73.5003C25.8521 73.7277 25.7869 73.961 25.6846 74.1766C25.6584 74.2313 25.4695 74.2801 25.4325 74.2469C25.0917 73.9346 24.8784 74.2206 24.6496 74.4021C23.9398 74.9662 23.231 75.5322 22.529 76.1061C22.2894 76.3022 22.0752 76.5033 22.1697 76.8898C22.195 76.9942 21.9866 77.206 21.8416 77.284C21.7578 77.3289 21.5826 77.2079 21.4511 77.1552C21.4258 77.1445 21.4122 77.1054 21.3917 77.0801C20.4765 75.949 20.5018 75.6679 21.6381 74.7573C22.307 74.2206 23.0032 73.717 23.6594 73.1665C23.8473 73.0084 23.9252 72.7254 24.0791 72.5195C24.1949 72.3653 24.3906 72.1047 24.4841 72.1311C24.8298 72.2296 25.0303 72.0383 25.2806 71.892C25.3711 71.8383 25.5873 71.8539 25.6506 71.9242C25.9281 72.2335 26.1715 72.5741 26.4539 72.9362Z" fill="#4064AE"/>
<path d="M58.4878 86.04C58.5287 86.2235 58.5394 86.3914 58.6056 86.5309C58.6728 86.6734 58.7721 86.8286 58.9007 86.9077C59.2346 87.1126 59.2619 87.42 58.9756 87.6728C58.8549 87.7801 58.7332 87.9812 58.7459 88.1295C58.8335 89.1787 58.9493 90.2249 59.0691 91.2711C59.0983 91.5268 59.1431 91.7757 59.4985 91.8303C59.592 91.8449 59.6952 92.127 59.6971 92.2871C59.6981 92.3817 59.518 92.5467 59.4041 92.5613C59.0711 92.6062 58.7264 92.6257 58.3924 92.5906C57.9679 92.5457 57.6193 92.3749 57.5667 91.8625C57.4489 90.7363 57.3146 89.612 57.187 88.4867C57.1549 88.2066 57.2026 87.906 56.8287 87.7645C56.7635 87.7401 56.8014 87.3771 56.8336 87.177C56.8657 86.9721 57.0117 86.77 56.9962 86.5758C56.9708 86.2665 57.0896 86.165 57.3632 86.1435C57.7177 86.1162 58.0701 86.0791 58.4878 86.04Z" fill="#4064AE"/>
<path d="M85.6137 68.6176C85.7013 68.4624 85.8045 68.3151 85.8727 68.1521C86.0109 67.8203 86.1959 67.7149 86.5533 67.8759C86.7139 67.9481 86.9495 67.9022 87.1365 67.8525C87.4529 67.7676 87.6759 67.9247 87.745 68.2565C87.7811 68.4293 87.896 68.6401 88.0391 68.7269C88.9232 69.2617 89.8199 69.778 90.7293 70.267C90.8929 70.3548 91.1402 70.2787 91.3476 70.2962C91.554 70.3138 91.7731 70.3197 91.9523 70.4046C91.999 70.427 91.962 70.752 91.8831 70.8916C90.9815 72.4843 90.6592 71.9885 89.5522 71.4039C88.6992 70.953 87.8774 70.4417 87.0313 69.9752C86.9525 69.9312 86.8025 70.0074 86.6886 70.0386C86.3907 70.1225 86.2027 70.0269 86.0878 69.7292C86.0177 69.5496 85.9262 69.3164 85.7763 69.2422C85.4384 69.0744 85.4579 68.884 85.6137 68.6176Z" fill="#4064AE"/>
<path d="M44.3773 9.76052C44.4542 10.0133 44.5088 10.1948 44.5964 10.4847C44.8612 10.0797 45.0793 9.74686 45.2974 9.41406C45.35 9.42773 45.4016 9.44139 45.4542 9.45505C45.5886 9.96449 45.7434 10.47 45.8408 10.9863C45.8602 11.0917 45.6918 11.2918 45.5642 11.3552C45.1456 11.5641 45.0141 11.8783 45.1193 12.3146C45.3276 13.1793 45.5379 14.043 45.7473 14.9067C45.7658 14.9847 45.8106 15.1253 45.795 15.1331C45.4045 15.3127 45.0141 15.4932 44.611 15.6416C44.3247 15.746 44.2537 15.5215 44.1982 15.3049C43.9119 14.1913 43.6237 13.0787 43.3374 11.9652C43.2118 11.4792 43.1018 10.9892 42.9577 10.5091C42.8788 10.2465 42.9538 10.1011 43.204 10.0387C43.5789 9.94498 43.9547 9.86007 44.3773 9.76052Z" fill="#4064AE"/>
<path d="M16.4766 69.4757C16.9653 69.2092 17.4697 68.935 17.9741 68.6607C19.0217 68.0918 20.0723 67.5286 21.1151 66.9499C21.3829 66.8016 21.565 66.8074 21.6818 67.1168C21.7159 67.2076 21.7558 67.3003 21.8142 67.3764C22.1102 67.7678 22.3877 68.1532 21.7003 68.5222C22.0947 68.692 22.416 68.8296 22.8502 69.017C22.3994 69.2961 22.083 69.5079 21.751 69.6933C21.4452 69.8641 21.1648 69.9939 20.8941 69.5664C20.6858 69.2365 20.3109 69.2609 19.9779 69.4376C19.2515 69.8231 18.5261 70.2086 17.8066 70.6068C17.2136 70.9347 17.1241 70.9181 16.8203 70.2984C16.7083 70.0661 16.6207 69.8221 16.4766 69.4757Z" fill="#4064AE"/>
<path d="M62.5647 86.2197C62.6358 86.53 62.6961 86.8423 62.7799 87.1488C62.9025 87.6026 62.9571 87.9647 62.3777 88.2077C62.1879 88.2867 62.0662 88.7933 62.0954 89.0851C62.1791 89.9195 62.3339 90.75 62.5072 91.5727C62.5871 91.9524 62.48 92.1095 62.1197 92.1827C61.0331 92.4033 61.0302 92.4062 60.8267 91.3112C60.5667 89.9127 60.3116 88.5122 60.0419 87.1156C59.9796 86.7935 60.0692 86.614 60.4012 86.574C60.4976 86.5622 60.593 86.5466 60.6884 86.53C61.4372 86.3983 61.4372 86.3983 61.6913 87.139C61.9454 86.7926 62.1752 86.4783 62.405 86.165C62.4585 86.1836 62.5111 86.2021 62.5647 86.2197Z" fill="#4064AE"/>
<path d="M80.8322 25.8511C80.5265 25.5319 80.286 25.2704 80.0348 25.0205C79.8157 24.8029 79.8303 24.5999 80.0436 24.393C81.2383 23.2336 82.4174 22.0556 83.6364 20.9225C84.1067 20.4853 84.2878 21.1129 84.541 21.3159C84.7347 21.471 85.1914 21.6779 84.837 22.0312C83.5887 23.2736 82.3083 24.4838 81.0387 25.7047C80.9832 25.7593 80.9092 25.7974 80.8322 25.8511Z" fill="#4064AE"/>
<path d="M18.4727 73.0125C18.8777 72.7314 19.2419 72.4689 19.6158 72.22C20.6985 71.4998 21.7793 70.7776 22.8766 70.0798C22.9944 70.0046 23.2106 70.073 23.378 70.0944C23.4306 70.1013 23.4881 70.1666 23.5182 70.2203C24.0966 71.2451 24.4169 71.0069 23.2748 71.7721C22.122 72.544 20.9555 73.2984 19.8163 74.0899C19.4327 74.3564 19.2126 74.2724 19.0062 73.9065C18.8417 73.6137 18.6635 73.3297 18.4727 73.0125Z" fill="#4064AE"/>
<path d="M23.6091 79.5639C23.5049 79.4653 23.4056 79.3833 23.3209 79.2896C22.4085 78.2805 22.4075 78.5099 23.4056 77.5661C24.3685 76.6546 25.3665 75.7801 26.3334 74.8715C26.6265 74.5954 26.8271 74.5319 27.1182 74.8862C27.7881 75.7001 27.8144 75.7001 27.0568 76.4252C26.017 77.4197 24.9586 78.3957 23.9051 79.3755C23.8242 79.4497 23.7191 79.4946 23.6091 79.5639Z" fill="#4064AE"/>
<path d="M81.3047 75.6486C81.6133 75.2982 81.8655 75.0454 82.0788 74.7634C82.2978 74.4735 82.5189 74.5301 82.735 74.7263C83.956 75.834 85.1702 76.9485 86.3873 78.0601C86.4106 78.0816 86.4632 78.1079 86.4593 78.1196C86.3999 78.3295 86.397 78.6115 86.2568 78.7286C85.9793 78.9619 85.767 79.6499 85.3591 79.3113C83.9726 78.1606 82.6746 76.9017 81.3047 75.6486Z" fill="#4064AE"/>
<path d="M53.3835 11.9592C52.5744 11.7347 52.369 10.9325 52.5569 10.343C52.7954 9.5984 53.5656 9.2129 54.256 9.45006C54.9736 9.69599 55.3065 10.4689 55.0232 11.2312C54.7584 11.9485 54.1196 12.2315 53.3835 11.9592Z" fill="#4064AE"/>
<path d="M73.1901 83.5741C73.9126 83.8416 74.2183 84.5228 73.9525 85.2703C73.6984 85.9837 72.9379 86.3185 72.2135 86.0364C71.603 85.7993 71.2457 85.0078 71.4657 84.3832C71.7189 83.6649 72.4754 83.3097 73.1901 83.5741Z" fill="#4064AE"/>
<path d="M40.2301 86.4951C39.9701 87.2426 39.2632 87.5832 38.5203 87.3197C37.8329 87.0767 37.5233 86.3809 37.7823 85.6626C38.0384 84.9531 38.7326 84.589 39.3888 84.8203C40.0977 85.0721 40.4686 85.809 40.2301 86.4951Z" fill="#4064AE"/>
<path d="M84.8766 19.8101C85.2485 20.1809 85.6078 20.5391 85.9603 20.8914C85.5445 21.4184 85.4608 21.4262 85.0752 21.028C84.9535 20.9021 84.8347 20.7723 84.712 20.6464C84.3313 20.2531 84.3401 20.1819 84.8766 19.8101Z" fill="#4064AE"/>
<path d="M80.8033 75.1573C80.4878 75.0617 80.3661 74.6996 80.5414 74.4927C80.74 74.2585 80.927 74.0018 81.1675 73.8203C81.2911 73.7266 81.5209 73.7734 81.702 73.7568C81.6991 73.9384 81.7634 74.1628 81.6806 74.2917C81.5083 74.56 81.2629 74.7826 81.036 75.0129C80.9659 75.0851 80.8608 75.1232 80.8033 75.1573Z" fill="#4064AE"/>
<path d="M23.8262 69.5625C24.1524 69.1536 24.3987 69.135 24.6343 69.5205C24.7599 69.7264 24.8846 69.9343 25.0316 70.1237C25.2176 70.3628 25.1611 70.5257 24.9235 70.677C24.6947 70.8224 24.5603 70.7814 24.4289 70.5326C24.2536 70.1968 24.0306 69.8855 23.8262 69.5625Z" fill="#4064AE"/>
<path d="M28.7648 74.7474C28.3637 75.2881 28.313 75.2979 27.9304 74.9065C27.7619 74.7348 27.5847 74.5591 27.4679 74.3532C27.3988 74.2312 27.4377 74.0467 27.4289 73.8906C27.5886 73.8837 27.8067 73.8066 27.8983 73.8818C28.2128 74.1453 28.4844 74.4615 28.7648 74.7474Z" fill="#4064AE"/>
</g>
<defs>
<clipPath id="clip0_237_103">
<rect width="107" height="100" fill="white"/>
</clipPath>
</defs>
</svg>
