<svg width="65" height="100" viewBox="0 0 65 100" fill="none" xmlns="http://www.w3.org/2000/svg">
<g clip-path="url(#clip0_233_301)">
<path d="M65 88.5823C65 94.861 59.8153 100 53.4808 100H11.5192C5.18467 100 0 94.861 0 88.5823V11.4177C0 5.13897 5.18467 0 11.5192 0H53.4808C59.8153 0 65 5.13897 65 11.4177V88.5823Z" fill="#7EBB00"/>
<path d="M5.9108 46.7104H14.6259C17.0064 46.7104 18.701 47.4103 19.6895 48.81C20.2745 49.6299 20.5772 50.5897 20.5772 51.6695C20.5772 52.9292 20.214 53.969 19.4878 54.7688C19.1045 55.1888 18.5799 55.5887 17.8739 55.9486C18.9027 56.3485 19.6895 56.7684 20.1939 57.2683C21.1017 58.1482 21.5455 59.3479 21.5455 60.8676C21.5455 62.1474 21.142 63.3271 20.3149 64.3669C19.0843 65.9266 17.1476 66.7064 14.4645 66.7064H5.89062V46.7104H5.9108ZM13.597 55.1688C14.7671 55.1688 15.6749 55.0088 16.3205 54.6889C17.3292 54.189 17.8537 53.2891 17.8537 51.9894C17.8537 50.6897 17.309 49.8098 16.2398 49.3499C15.6346 49.09 14.7268 48.97 13.5163 48.97H8.59391V55.1688H13.597ZM14.525 64.3869C16.2196 64.3869 17.4099 63.907 18.1361 62.9472C18.5799 62.3473 18.822 61.6075 18.822 60.7476C18.822 59.2879 18.1563 58.3081 16.845 57.7882C16.1389 57.5083 15.2109 57.3683 14.061 57.3683H8.59391V64.4069H14.525V64.3869Z" fill="white"/>
<path d="M23.6445 46.7104H32.8034C34.3165 46.7104 35.5471 46.9304 36.5356 47.3703C38.3916 48.2301 39.3196 49.7898 39.3196 52.0894C39.3196 53.2891 39.0775 54.2689 38.5731 55.0288C38.0688 55.7886 37.3829 56.4085 36.4751 56.8684C37.2619 57.1884 37.8469 57.6083 38.2504 58.1282C38.6538 58.6481 38.8758 59.4879 38.9161 60.6477L39.017 63.3271C39.0371 64.087 39.1178 64.6469 39.2187 65.0268C39.3801 65.6667 39.6827 66.0666 40.1064 66.2465V66.6864H36.7575C36.6566 66.5065 36.5961 66.2865 36.5356 66.0266C36.4751 65.7466 36.4347 65.2267 36.3944 64.4469L36.233 61.1076C36.1725 59.8078 35.6883 58.928 34.8006 58.4881C34.2963 58.2481 33.4893 58.1282 32.4201 58.1282H26.368V66.7064H23.6445V46.7104ZM32.5008 55.8686C33.7516 55.8686 34.7401 55.6087 35.4664 55.1088C36.1926 54.6089 36.5558 53.6891 36.5558 52.3693C36.5558 50.9496 36.0514 49.9698 35.0427 49.4699C34.498 49.19 33.7718 49.07 32.864 49.07H26.368V55.9086H32.5008V55.8686Z" fill="white"/>
<path d="M56.4656 48.1705C57.8576 49.5102 58.6242 51.0099 58.7856 52.7096H56.1227C55.8201 51.4298 55.235 50.41 54.3474 49.6502C53.4597 48.8903 52.2291 48.5304 50.6152 48.5304C48.6584 48.5304 47.0848 49.2303 45.8945 50.61C44.7043 51.9897 44.0991 54.1093 44.0991 56.9687C44.0991 59.3083 44.6438 61.2079 45.713 62.6676C46.8024 64.1273 48.4163 64.8471 50.5547 64.8471C52.5317 64.8471 54.0448 64.0873 55.0736 62.5476C55.6183 61.7478 56.0218 60.688 56.3042 59.3682H58.9672C58.7251 61.4678 57.9585 63.2275 56.627 64.6672C55.0333 66.3868 52.915 67.2467 50.2319 67.2467C47.9119 67.2467 45.9752 66.5468 44.4017 65.1471C42.3238 63.2875 41.2949 60.408 41.2949 56.5288C41.2949 53.5894 42.0817 51.1699 43.6351 49.2703C45.3095 47.2107 47.6295 46.1909 50.595 46.1909C53.1168 46.1709 55.0736 46.8307 56.4656 48.1705Z" fill="white"/>
<path d="M16.5821 68.5264V71.6057H9.76335V75.9649H16.1786V79.0443H9.76335V87.1026H5.91016V68.5264H16.5821Z" fill="white"/>
<path d="M17.4303 73.9253C17.5715 72.7256 17.8539 71.7258 18.3179 70.8659C18.7617 70.0261 19.4275 69.3462 20.2748 68.8663C21.1221 68.3864 22.2921 68.1465 23.7245 68.1465C25.177 68.1465 26.3269 68.3864 27.1742 68.8663C28.0215 69.3462 28.6872 70.0061 29.1311 70.8659C29.5749 71.7058 29.8775 72.7256 30.0187 73.9253C30.1599 75.1051 30.2204 76.4048 30.2204 77.8245C30.2204 79.2443 30.1599 80.544 30.0187 81.7238C29.8775 82.9035 29.5951 83.9233 29.1311 84.7632C28.6872 85.603 28.0215 86.2629 27.1742 86.7228C26.3269 87.1827 25.177 87.4026 23.7245 87.4026C22.272 87.4026 21.1221 87.1827 20.2748 86.7228C19.4275 86.2829 18.7617 85.623 18.3179 84.7632C17.8741 83.9233 17.5715 82.9035 17.4303 81.7238C17.289 80.544 17.2285 79.2443 17.2285 77.8245C17.2285 76.4048 17.289 75.1251 17.4303 73.9253ZM21.1826 81.0039C21.2431 81.8837 21.3641 82.5836 21.5659 83.1435C21.7475 83.6834 22.0097 84.0833 22.3728 84.3432C22.7158 84.6032 23.1798 84.7232 23.7447 84.7232C24.3095 84.7232 24.7735 84.6032 25.1165 84.3432C25.4594 84.0833 25.7217 83.6834 25.9234 83.1435C26.105 82.6036 26.226 81.8837 26.3067 81.0039C26.3673 80.1241 26.4076 79.0643 26.4076 77.8245C26.4076 76.5848 26.3673 75.525 26.3067 74.6452C26.2462 73.7854 26.1252 73.0655 25.9234 72.5056C25.7419 71.9457 25.4594 71.5458 25.1165 71.2859C24.7735 71.0459 24.3095 70.9059 23.7447 70.9059C23.1798 70.9059 22.7158 71.0259 22.3728 71.2859C22.0299 71.5458 21.7676 71.9457 21.5659 72.5056C21.3843 73.0655 21.2633 73.7654 21.1826 74.6452C21.1221 75.505 21.0817 76.5648 21.0817 77.8245C21.0817 79.0643 21.1019 80.1241 21.1826 81.0039Z" fill="white"/>
<path d="M31.6334 73.9253C31.7746 72.7256 32.057 71.7258 32.521 70.8659C32.985 70.0261 33.6306 69.3462 34.4779 68.8663C35.3252 68.3864 36.4751 68.1465 37.9276 68.1465C39.3801 68.1465 40.53 68.3864 41.3773 68.8663C42.2246 69.3462 42.8904 70.0061 43.3342 70.8659C43.7982 71.7058 44.0806 72.7256 44.2218 73.9253C44.363 75.1051 44.4236 76.4048 44.4236 77.8245C44.4236 79.2443 44.363 80.544 44.2218 81.7238C44.0806 82.9035 43.7982 83.9233 43.3342 84.7632C42.8904 85.603 42.2246 86.2629 41.3773 86.7228C40.53 87.1827 39.3801 87.4026 37.9276 87.4026C36.4751 87.4026 35.3252 87.1827 34.4779 86.7228C33.6306 86.2829 32.9648 85.623 32.521 84.7632C32.0772 83.9233 31.7746 82.9035 31.6334 81.7238C31.4922 80.544 31.4316 79.2443 31.4316 77.8245C31.4316 76.4048 31.4922 75.1251 31.6334 73.9253ZM35.3655 81.0039C35.4261 81.8837 35.5471 82.5836 35.7488 83.1435C35.9304 83.6834 36.1927 84.0833 36.5558 84.3432C36.8987 84.6032 37.3627 84.7232 37.9276 84.7232C38.4925 84.7232 38.9565 84.6032 39.2994 84.3432C39.6424 84.0833 39.9046 83.6834 40.1064 83.1435C40.2879 82.6036 40.409 81.8837 40.4897 81.0039C40.5502 80.1241 40.5905 79.0643 40.5905 77.8245C40.5905 76.5848 40.5502 75.525 40.4897 74.6452C40.4292 73.7854 40.3081 73.0655 40.1064 72.5056C39.9248 71.9457 39.6626 71.5458 39.2994 71.2859C38.9565 71.0459 38.4925 70.9059 37.9276 70.9059C37.3627 70.9059 36.8987 71.0259 36.5558 71.2859C36.2128 71.5458 35.9304 71.9457 35.7488 72.5056C35.5673 73.0655 35.4462 73.7654 35.3655 74.6452C35.305 75.505 35.2647 76.5648 35.2647 77.8245C35.2848 79.0643 35.305 80.1241 35.3655 81.0039Z" fill="white"/>
<path d="M52.5325 68.5264C53.864 68.5264 54.9534 68.7463 55.7603 69.1662C56.5673 69.5862 57.2128 70.206 57.6768 70.9859C58.1207 71.7657 58.4434 72.7255 58.6048 73.8253C58.7662 74.9251 58.8469 76.1848 58.8469 77.5446C58.8469 79.1842 58.746 80.584 58.5443 81.8037C58.3426 83.0035 57.9794 84.0033 57.4953 84.7831C56.9909 85.563 56.3252 86.1428 55.4981 86.5228C54.6508 86.9027 53.6017 87.1026 52.3106 87.1026H46.2383V68.5264H52.5325ZM51.7861 84.3432C52.472 84.3432 52.9965 84.2232 53.4202 84.0033C53.8236 83.7833 54.1464 83.4034 54.3885 82.8835C54.6306 82.3636 54.792 81.6837 54.8727 80.8239C54.9534 79.9841 54.9937 78.9243 54.9937 77.6445C54.9937 76.5848 54.9534 75.6649 54.8928 74.8651C54.8323 74.0653 54.6709 73.4054 54.449 72.8655C54.2271 72.3456 53.9043 71.9457 53.4605 71.6657C53.0167 71.4058 52.4316 71.2658 51.7054 71.2658H50.0713V84.3232H51.7861V84.3432Z" fill="white"/>
<path d="M8.89716 90.3617C8.77612 90.1218 8.55421 90.0218 8.21126 90.0218C8.02969 90.0218 7.88848 90.0618 7.76743 90.1618C7.64639 90.2618 7.56569 90.4017 7.485 90.6217C7.42448 90.8416 7.36396 91.1016 7.34378 91.4615C7.32361 91.8014 7.30344 92.2214 7.30344 92.7213C7.30344 93.2412 7.32361 93.6811 7.36396 94.001C7.4043 94.3209 7.46483 94.5809 7.52535 94.7609C7.60604 94.9408 7.70691 95.0608 7.80778 95.1208C7.92882 95.1808 8.04987 95.2208 8.21126 95.2208C8.3323 95.2208 8.45334 95.2008 8.57439 95.1608C8.69543 95.1208 8.77612 95.0408 8.85682 94.9008C8.93751 94.7809 8.99803 94.6009 9.05856 94.3609C9.0989 94.121 9.11908 93.821 9.11908 93.4411H10.5716C10.5716 93.821 10.5514 94.181 10.4909 94.5209C10.4304 94.8608 10.3093 95.1608 10.1479 95.4207C9.98655 95.6807 9.74446 95.8806 9.46203 96.0206C9.15942 96.1606 8.77612 96.2406 8.31213 96.2406C7.76743 96.2406 7.34378 96.1606 7.021 95.9806C6.69822 95.8206 6.45613 95.5607 6.27457 95.2408C6.11318 94.9208 5.99214 94.5409 5.95179 94.101C5.91144 93.6611 5.87109 93.1612 5.87109 92.6413C5.87109 92.1214 5.89127 91.6215 5.95179 91.1816C5.99214 90.7417 6.11318 90.3617 6.27457 90.0418C6.43596 89.7219 6.69822 89.4819 7.021 89.3019C7.34378 89.122 7.76743 89.042 8.31213 89.042C8.83664 89.042 9.24012 89.122 9.52255 89.2819C9.82516 89.4419 10.0471 89.6419 10.1883 89.9018C10.3295 90.1418 10.4304 90.4217 10.4707 90.7217C10.5111 91.0016 10.5312 91.2815 10.5312 91.5415H9.07873C9.07873 90.9616 9.01821 90.5817 8.89716 90.3617Z" fill="white"/>
<path d="M15.1708 90.2618H12.6088V91.9015H15.0094V93.0613H12.6088V94.9409H15.2717V96.0806H11.1562V89.1021H15.1708V90.2618Z" fill="white"/>
<path d="M18.4188 89.1021C19.024 89.1021 19.488 89.242 19.831 89.542C20.1739 89.8419 20.3353 90.2818 20.3353 90.9017C20.3353 91.3816 20.2344 91.7615 20.0529 92.0415C19.8511 92.3414 19.5485 92.5214 19.1451 92.6213V92.6413C19.5082 92.7013 19.7704 92.8013 19.9318 92.9813C20.0932 93.1612 20.1941 93.4412 20.2344 93.8211C20.2546 93.9611 20.2546 94.101 20.2748 94.241C20.2748 94.401 20.295 94.561 20.295 94.7609C20.3151 95.1408 20.3353 95.4208 20.3555 95.6207C20.3958 95.8207 20.4765 95.9407 20.6177 96.0207V96.0806H19.0442C18.9635 95.9807 18.9231 95.8607 18.903 95.7407C18.8828 95.6207 18.8626 95.4808 18.8626 95.3408L18.8223 94.0011C18.8021 93.7211 18.7416 93.5212 18.6205 93.3612C18.4995 93.2012 18.2776 93.1212 17.975 93.1212H17.2084V96.0806H15.7559V89.1021H18.4188ZM17.7934 92.1614C18.1364 92.1614 18.3986 92.0814 18.6004 91.9215C18.7819 91.7615 18.8828 91.5016 18.8828 91.1216C18.8828 90.4818 18.5398 90.1618 17.8741 90.1618H17.1882V92.1814H17.7934V92.1614Z" fill="white"/>
<path d="M25.097 90.2618H23.5235V96.0806H22.0911V90.2618H20.5176V89.1021H25.097V90.2618Z" fill="white"/>
<path d="M26.9916 89.1021H25.5391V96.0806H26.9916V89.1021Z" fill="white"/>
<path d="M31.8134 89.1021V90.2618H29.2513V91.9015H31.652V93.0613H29.2513V96.0806H27.7988V89.1021H31.8134Z" fill="white"/>
<path d="M33.7299 89.1021H32.2773V96.0806H33.7299V89.1021Z" fill="white"/>
<path d="M37.4226 90.3617C37.3015 90.1218 37.0796 90.0218 36.7366 90.0218C36.5551 90.0218 36.4139 90.0618 36.2928 90.1618C36.1718 90.2618 36.0911 90.4017 36.0104 90.6217C35.9499 90.8416 35.8893 91.1016 35.8692 91.4615C35.849 91.8014 35.8288 92.2214 35.8288 92.7213C35.8288 93.2412 35.849 93.6811 35.8894 94.001C35.9297 94.3209 35.9902 94.5809 36.0507 94.7609C36.1314 94.9408 36.2323 95.0608 36.3332 95.1208C36.4542 95.1808 36.5753 95.2208 36.7366 95.2208C36.8577 95.2208 36.9787 95.2008 37.0998 95.1608C37.2006 95.1208 37.3015 95.0408 37.3822 94.9008C37.4629 94.7809 37.5234 94.6009 37.5839 94.3609C37.6243 94.121 37.6445 93.821 37.6445 93.4411H39.097C39.097 93.821 39.0566 94.181 39.0163 94.5209C38.9558 94.8608 38.8347 95.1608 38.6733 95.4207C38.5119 95.6807 38.2699 95.8806 37.9874 96.0206C37.6848 96.1606 37.3015 96.2406 36.8375 96.2406C36.2928 96.2406 35.8692 96.1606 35.5464 95.9806C35.2236 95.8206 34.9815 95.5607 34.8 95.2408C34.6386 94.9208 34.5175 94.5409 34.4772 94.101C34.4368 93.6611 34.3965 93.1612 34.3965 92.6413C34.3965 92.1214 34.4167 91.6215 34.4772 91.1816C34.5377 90.7417 34.6386 90.3617 34.8 90.0418C34.9614 89.7219 35.2236 89.4819 35.5464 89.3019C35.8692 89.122 36.2928 89.042 36.8375 89.042C37.362 89.042 37.7655 89.122 38.0479 89.2819C38.3506 89.4419 38.5725 89.6419 38.7137 89.9018C38.8549 90.1418 38.9558 90.4217 38.9961 90.7217C39.0365 91.0016 39.0566 91.2815 39.0566 91.5415H37.6041C37.6041 90.9616 37.5436 90.5817 37.4226 90.3617Z" fill="white"/>
<path d="M42.8695 89.1021L44.7659 96.0806H43.2528L42.9301 94.601H41.0136L40.6908 96.0806H39.1777L41.0741 89.1021H42.8695ZM42.688 93.4612L42.0021 90.3218H41.9819L41.296 93.4612H42.688Z" fill="white"/>
<path d="M48.6595 90.2618H47.1061V96.0806H45.6536V90.2618H44.0801V89.1021H48.6595V90.2618Z" fill="white"/>
<path d="M53.0374 90.2618H50.4753V91.9015H52.8962V93.0613H50.4753V94.9409H53.1383V96.0806H49.043V89.1021H53.0374V90.2618Z" fill="white"/>
<path d="M56.0622 89.1021C56.5665 89.1021 56.97 89.182 57.2726 89.342C57.5752 89.502 57.8173 89.7219 57.9988 90.0219C58.1602 90.3218 58.2813 90.6817 58.3418 91.0816C58.4023 91.5016 58.4225 91.9615 58.4225 92.4814C58.4225 93.1012 58.3821 93.6211 58.3014 94.081C58.2207 94.541 58.0997 94.9009 57.898 95.2008C57.7164 95.5008 57.4541 95.7207 57.1515 95.8607C56.8288 96.0007 56.4455 96.0806 55.9613 96.0806H53.6816V89.1021H56.0622ZM55.7797 95.0409C56.042 95.0409 56.2437 95.0009 56.3849 94.9209C56.5261 94.8409 56.6674 94.7009 56.7481 94.501C56.8489 94.301 56.8893 94.0411 56.9296 93.7211C56.97 93.4012 56.97 93.0013 56.97 92.5214C56.97 92.1214 56.9498 91.7815 56.9296 91.4816C56.9095 91.1816 56.8489 90.9417 56.7682 90.7417C56.6875 90.5418 56.5665 90.4018 56.4051 90.3018C56.2437 90.2018 56.0218 90.1418 55.7394 90.1418H55.1342V95.0409H55.7797Z" fill="white"/>
<path d="M7.36328 22.9352C7.36328 22.9352 16.9458 32.4333 22.3322 44.011C22.3322 44.011 36.4136 17.2964 56.7689 4.81885C56.7689 4.81885 31.007 15.4967 21.727 29.7539C21.7472 29.7739 13.0523 21.7555 7.36328 22.9352Z" fill="white"/>
</g>
<defs>
<clipPath id="clip0_233_301">
<rect width="65" height="100" fill="white"/>
</clipPath>
</defs>
</svg>
