<svg width="100" height="100" viewBox="0 0 100 100" fill="none" xmlns="http://www.w3.org/2000/svg">
<g clip-path="url(#clip0_237_49)">
<path d="M-0.000965685 49.6877C0.143285 22.0835 22.6945 -0.178445 50.2944 8.98237e-05C77.963 0.137424 100.184 22.6603 99.999 50.2782C99.8823 77.8755 77.3448 100.11 49.738 100C22.0762 99.8284 -0.172693 77.285 -0.000965685 49.6877Z" fill="white"/>
<path d="M80.0174 48.8086C79.8732 65.6389 66.19 79.2281 49.3539 79.1045C32.4972 79.029 18.9101 65.2818 18.9926 48.424C19.1025 31.5662 32.8544 17.9976 49.6836 18.0869C66.5472 18.183 80.1205 31.9508 80.0174 48.8086Z" fill="#009540"/>
<path d="M11.5267 49.9346L12.3716 51.5894L14.2538 51.9122L12.8319 53.21L13.1547 55.0571L11.5199 54.1713L9.83694 55.0571L10.1941 53.1688L8.82031 51.8504L10.6818 51.5826L11.5267 49.9346Z" fill="#009540"/>
<path d="M3.008 49.7289L4.0521 49.7358C4.162 24.4388 24.728 4.0172 50.0062 4.0172H50.2878C75.5454 4.16827 95.9809 24.7272 95.9809 49.9693V50.2508V50.2439C95.8435 75.534 75.3256 95.9557 50.0543 95.9557L49.7452 95.9488C24.4533 95.7703 4.0521 75.3074 4.0521 50.0929V49.7427V49.7358L3.008 49.7289L1.9639 49.7152L1.95703 50.086C1.9639 76.4542 23.2924 97.8371 49.7246 98.0294H50.0474C76.4659 98.0294 97.9111 76.6808 98.0623 50.2508V50.2439V49.9624C98.0623 23.5667 76.6994 2.08765 50.2947 1.92285H50.0062C23.574 1.92972 2.08754 23.2783 1.9639 49.7289V49.7221L3.008 49.7289Z" fill="#009540"/>
<path d="M15.6607 41.6192L15.7019 42.8896C15.6539 43.4664 15.4546 43.8853 15.173 44.2629L14.1907 45.238C13.8129 45.4715 13.4145 45.6294 12.9131 45.6981H11.5255C10.976 45.6363 10.557 45.4715 10.0624 45.238L8.96337 44.3865L8.28334 43.178C8.13222 42.711 8.11161 42.2235 8.18717 41.6192L8.52375 40.5343L9.12136 39.6828L9.96626 39.1541L11.1134 38.9824L10.9554 39.9026L10.2135 40.0399L9.61594 40.4107L9.20379 41.0562L9.0252 41.7566L9.10762 42.9445L9.63654 43.7891L10.5639 44.4071L11.6423 44.723L12.7345 44.7367L13.7168 44.4277L14.5479 43.7823L14.9326 42.7454L14.9189 41.7428L14.5479 40.9188L13.8404 40.3695L12.9474 40.0948L12.5765 42.3677L11.7728 42.2372L12.2949 39.0854L16.0866 39.6966L15.9973 40.3214L15.0494 40.4038L15.6607 41.6192Z" fill="#009540"/>
<path d="M13.1546 36.7987L12.5021 36.0159L12.2754 35.0546L12.4883 33.9834L13.1134 33.0289L13.9102 32.4658L14.9337 32.356L15.9984 32.61L16.9258 33.1456L17.5646 33.9078L17.7981 34.8829L17.5989 36.0022L16.9944 36.9292L16.1702 37.4648L15.1535 37.609L14.0957 37.3549L13.1546 36.7987ZM15.2909 36.7026L15.9984 36.5996L16.5273 36.2494L16.912 35.6932L17.0219 35.0614L16.8639 34.4434L16.3694 33.901L15.6618 33.4684L14.8169 33.2555L14.1094 33.3654L13.5324 33.6812L13.189 34.2306L13.1203 34.8829L13.2439 35.5146L13.7042 36.0709L14.4254 36.5103L15.2909 36.7026Z" fill="#009540"/>
<path d="M15.8818 30.4813L15.4009 29.6093L15.291 28.6204L15.7032 27.5698L16.4931 26.7321L17.4136 26.3682L18.4027 26.4162L19.4262 26.8488L20.223 27.5698L20.7382 28.4488L20.7863 29.4239L20.381 30.4882L19.6529 31.3259L18.7118 31.6761L17.7021 31.6349L16.6992 31.1886L15.8818 30.4813ZM17.9906 30.7697L18.6912 30.7972L19.3026 30.5363L19.7765 30.0831L19.9414 29.4788L19.9208 28.8127L19.5842 28.2016L18.9248 27.6248L18.1417 27.3158L17.4136 27.2746L16.8366 27.5286L16.3695 27.9818L16.1565 28.5998L16.1771 29.2041L16.5274 29.8496L17.1869 30.4195L17.9906 30.7697Z" fill="#009540"/>
<path d="M25.0373 24.3217L24.5358 23.8342V23.8617V24.8024L24.0206 25.6539L23.1345 26.2856L22.1866 26.4436L21.2387 26.162L20.3594 25.5578L19.645 24.7887L19.3359 23.8342L19.4184 22.8729L19.9198 21.9527L20.2701 21.6849L20.6685 21.3759L21.1562 21.2455H21.7058V21.218L19.7206 19.4258L20.2976 18.7734L25.6555 23.6831L25.0373 24.3217ZM21.6027 25.3655L22.2622 25.5509L22.9285 25.4479L23.5536 25.0153L23.897 24.3835V23.7175L23.6291 23.0583L23.1964 22.5501L22.585 22.0901L21.9118 21.8841L21.2318 21.9527L20.5586 22.3716L20.2014 23.0514V23.7587L20.4899 24.3767L20.9983 24.9123L21.6027 25.3655Z" fill="#009540"/>
<path d="M27.0642 13.4106L32.0649 17.5856L31.062 11.1583L32.216 10.4785L35.788 16.8234L34.9843 17.2766L31.9962 11.9892V12.0235L32.9785 18.3958L32.2779 18.8284L27.3046 14.6809L30.2515 19.9409L29.4684 20.4009L25.8965 14.0835L27.0642 13.4106Z" fill="#009540"/>
<path d="M41.5782 15.2096L40.9943 15.1547L40.6371 14.6191L39.9914 15.4362L39.0916 15.9032L38.4253 16.0474L37.8208 15.9512L37.34 15.6148L37.0171 15.0036L36.9347 14.2483L37.2163 13.6921L37.6491 13.2732L38.2467 12.923L38.8512 12.6415L39.4213 12.3599L39.7304 12.099L39.7442 11.6733L39.5037 11.2819L39.174 11.1102H38.7619L38.3635 11.1789L37.5392 11.6321L37.3881 12.4973L36.5638 12.7582L36.502 11.9067L36.8317 11.2475L37.4087 10.7669L38.1986 10.4167L38.9061 10.2725H39.5724L40.1357 10.5815L40.4998 11.2407L41.276 13.8706L41.4614 14.2552L41.7156 14.3032L41.9423 14.2208L42.1552 14.8457L41.5782 15.2096ZM39.6549 12.9848L39.1603 13.1908L38.5833 13.4586L38.1231 13.7608L37.8758 14.1453V14.674L38.0612 15.0036L38.3497 15.1684L38.7069 15.2096L39.0641 15.1478L39.7236 14.8114L40.1082 14.3856L40.2662 13.9324L40.225 13.4998L39.9914 12.6758L39.6549 12.9848Z" fill="#009540"/>
<path d="M43.4405 9.38008L43.5504 10.1698C43.8732 9.48995 44.4021 9.11914 45.144 9.00928L46.0438 9.08481L46.6346 9.42128L47.0193 9.95002L47.1841 10.774L47.61 14.1936L46.7445 14.2898L46.3186 10.774L45.9546 10.005L45.144 9.81955L44.464 10.005L44.0175 10.4101L43.7839 10.9732V11.653L44.1205 14.6125L43.2756 14.6812L42.623 9.44188L43.4405 9.38008Z" fill="#009540"/>
<path d="M52.8291 14.3242L52.9047 13.5071H52.8566L52.1148 14.1937L51.105 14.3242L50.2395 14.1663L49.7449 13.7268L49.4358 13.1088L49.3809 12.3191L49.6213 8.87891L50.4593 8.94071L50.267 12.4839L50.4868 13.2805L51.2699 13.5895L51.9568 13.5071L52.4445 13.1912L52.781 12.6899L52.9047 12.0445L53.1039 9.08491L53.9557 9.11237L53.6466 14.3929L52.8291 14.3242Z" fill="#009540"/>
<path d="M55.4473 10.1282L55.6259 9.37976L56.4982 9.4965L56.6356 8.78922L57.1989 7.90342L58.3117 7.77295L58.607 7.82788L58.8612 7.96522L58.7101 8.69309L58.4834 8.61756L58.2361 8.53516L57.7209 8.56262L57.4736 8.98836L57.3569 9.70936L58.346 9.91536L58.2292 10.602L57.1989 10.4716L56.354 14.9075L55.5228 14.7289L56.354 10.2862L55.4473 10.1282Z" fill="#009540"/>
<path d="M62.2406 16.6932L61.8078 16.3568V15.6907L60.8461 16.0271L59.802 15.8555L59.1563 15.5945L58.7442 15.1688L58.5312 14.6195L58.6274 13.9397L58.9915 13.2805L59.5273 12.9852L60.1317 12.9028L60.8118 12.9646L61.4781 13.0745L62.062 13.1843L62.481 13.1019L62.742 12.7929L62.7626 12.3329L62.6252 12.0033L62.2818 11.7698L61.8971 11.5844L60.9629 11.5088L60.3584 12.1131L59.5135 11.8522L59.9738 11.1518L60.592 10.7878L61.3544 10.7329L62.1856 10.8634L62.8382 11.1655L63.3602 11.5638L63.6487 12.12L63.5938 12.8891L62.742 15.4435L62.6321 15.8623L62.8038 16.1027L63.0923 16.1645L62.845 16.7688L62.2406 16.6932ZM61.9521 13.8229L61.375 13.7062L60.8187 13.5895L60.2691 13.5826L59.8089 13.7268L59.5341 14.1937L59.4998 14.5302L59.6166 14.8186L59.8845 15.0521L60.2416 15.2306L60.9698 15.3473L61.5399 15.2306L61.9452 14.9628L62.1306 14.6126L62.3917 13.768L61.9521 13.8229Z" fill="#009540"/>
<path d="M68.7109 14.9282L68.0927 14.2552L67.289 14.0836L66.6364 14.2415L66.0732 14.6741L65.6679 15.3127L65.4137 15.9513L65.3656 16.6311L65.5305 17.256L66.08 17.7641L67.1653 17.8946L67.9965 17.2835L68.8002 17.6886C68.3674 18.2448 67.9209 18.5813 67.4264 18.6774C66.8974 18.8353 66.3479 18.7392 65.7503 18.4027L64.9054 17.771L64.4727 16.8783V15.9101L64.8642 14.8732L65.503 13.9943L66.3548 13.3969L67.289 13.1978L68.3674 13.5548L69.0955 14.0836L69.5146 14.681L69.7481 15.4088L69.5146 16.2603L68.7177 15.862V14.9282H68.7109Z" fill="#009540"/>
<path d="M73.7883 17.1944L73.3074 17.7986L72.4969 17.1944L70.5873 19.8587L70.443 20.0578V20.2363L70.5873 20.4011L70.8346 20.6552L71.1505 20.8269L70.6834 21.4792L70.1614 21.0947L69.7355 20.7033L69.502 20.3187V19.9136L69.8248 19.426L71.7756 16.6931L71.0544 16.1575L71.5215 15.5189L72.2427 16.0751L73.1494 14.791L73.8776 15.306L72.9365 16.5489L73.7883 17.1944Z" fill="#009540"/>
<path d="M74.1999 24.6447L74.8112 24.0267L74.8044 23.9992L73.7946 24.0473L72.9154 23.5048L72.3796 22.8388L72.2422 22.1796L72.462 21.5135L72.9154 20.8886L75.3264 18.396L75.9171 19.0003L73.4718 21.541L73.142 22.3032L73.4992 23.0516L74.0831 23.4499L74.6944 23.5598L75.2646 23.3469L75.7866 22.9761L77.868 20.7993L78.4656 21.3761L74.8112 25.2078L74.1999 24.6447Z" fill="#009540"/>
<path d="M80.4981 23.7865L79.5982 24.4869V24.5281C80.1065 24.3907 80.4981 24.3907 80.8347 24.5281L81.7757 25.2491L81.0751 25.8396L80.3951 25.2353L79.715 25.0087L78.9869 25.201L78.2107 25.6473L76.3492 27.1306L75.834 26.437L79.9898 23.1685L80.4981 23.7865Z" fill="#009540"/>
<path d="M82.9307 27.206L78.4727 30.1038L78.0605 29.3622L82.4293 26.4507L82.9307 27.206ZM83.2467 25.9288L84.0985 25.3589L84.5724 26.0936L83.7138 26.6773L83.2467 25.9288Z" fill="#009540"/>
<path d="M84.4905 29.8359L83.7212 30.193L83.7761 30.2136C84.4905 30.2342 85.0263 30.5981 85.356 31.3191L85.6102 32.1363L85.5003 32.8229L85.1225 33.3654L84.4287 33.7774L81.3376 35.3224L80.9461 34.5396L84.1264 32.9603L84.7309 32.356L84.6416 31.5251L84.1883 30.9414L83.6593 30.6942L83.0686 30.6599L82.4298 30.8659L79.7783 32.1843L79.373 31.4221L84.099 29.0806L84.4905 29.8359Z" fill="#009540"/>
<path d="M81.6251 41.1179C81.1099 40.8569 80.7253 40.3213 80.5054 39.5248L80.3887 38.7557L80.4574 38.0416L80.7321 37.4099L81.3503 36.9772L81.632 37.8493L81.2885 38.0622L81.1168 38.4742L81.0893 38.9068L81.1855 39.3394L81.5427 39.9917L82.0373 40.3488L82.6967 40.4587L83.5072 40.3213L83.8301 40.1909L82.9508 39.7514L82.4563 38.8725L82.3876 37.8425L82.7791 36.9635L83.4385 36.3249L84.3727 35.8923L85.3619 35.7344L86.3579 35.8923L87.1822 36.4073L87.7455 37.4579L87.7798 38.3849L87.347 39.2089L88.0614 38.9961L88.2881 39.7926L83.6652 41.0973C82.786 41.3857 82.1472 41.3582 81.6251 41.1179ZM83.5965 39.36L84.1735 39.6896L84.9017 39.8063L85.616 39.6896L86.2686 39.4287L86.77 38.9823L87.0517 38.433V37.7326L86.6739 37.039L86.145 36.7094L85.4512 36.6476L84.7437 36.7575L84.0911 37.0253L83.5072 37.4579L83.2187 37.9935L83.2531 38.742L83.5965 39.36Z" fill="#009540"/>
<path d="M91.2071 49.1725C91.2071 49.9004 91.0423 50.4635 90.6645 50.8274C90.3073 51.2326 89.7646 51.418 89.0915 51.418C88.3977 51.418 87.8756 51.26 87.4772 50.8824C87.0719 50.4978 86.9071 49.9691 86.9071 49.2206L86.8659 47.0301H83.8984V46.0757L91.1865 45.9727L91.2071 49.1725ZM87.7314 48.8635C87.7314 49.4404 87.8275 49.8112 88.0611 50.0858L89.064 50.4429L90.0119 50.0652C90.3004 49.8043 90.3966 49.3717 90.3966 48.8635L90.3897 46.9752L87.6627 47.0301L87.7314 48.8635Z" fill="#009540"/>
<path d="M88.7753 54.4599L87.6693 54.2951L88.5005 55.2084L88.5829 56.3826L87.6693 56.2659V55.3663L87.3465 54.7002L86.7626 54.2951L85.8422 54.041L83.541 53.684L83.6647 52.8394L88.8851 53.6222L88.7753 54.4599Z" fill="#009540"/>
<path d="M81.8108 60.3242L82.1474 59.8504H82.7794L82.429 58.8891L82.5389 57.8659L82.7725 57.2067L83.2327 56.7398L83.7616 56.5132L84.4279 56.6024L85.108 56.9595L85.4377 57.4951L85.4858 58.1063V58.7723L85.3965 59.459L85.3415 60.0221L85.3965 60.4272L85.7331 60.6881L86.1933 60.7362L86.5299 60.5165L86.7634 60.1869L86.9351 59.8229L86.9764 58.8547L86.3444 58.2505L86.578 57.4402L87.3336 57.8659L87.6633 58.4771L87.7732 59.2736L87.6427 60.077L87.3816 60.7637L86.9764 61.2993L86.42 61.5877L85.6438 61.5465L83.0679 60.7843L82.6351 60.6881L82.4016 60.8461L82.3741 61.1688L81.7559 60.9491L81.8108 60.3242ZM84.7027 59.9191L84.8057 59.3423L84.8744 58.7723V58.2161L84.7027 57.7835L84.2837 57.4951L83.8853 57.4471L83.5968 57.6119L83.3701 57.8728L83.2465 58.2573L83.1159 58.9509L83.2808 59.5483L83.5418 59.9534L83.899 60.1663L84.737 60.4203L84.7027 59.9191Z" fill="#009540"/>
<path d="M83.7743 66.7856L84.3925 66.1401L84.6054 65.3436L84.3925 64.65L83.9391 64.1625L83.2797 63.7299L82.5997 63.5033L81.9471 63.4346L81.3426 63.6749L80.8343 64.2449L80.7244 65.3092L81.3426 66.1401L80.9992 66.9023C80.4497 66.5384 80.0993 66.092 79.9551 65.6045C79.804 65.0895 79.8658 64.5333 80.1955 63.9153L80.8343 63.0569L81.693 62.5969L82.6546 62.5557L83.6781 62.899L84.6261 63.5239L85.1962 64.3135L85.3954 65.3367L85.1069 66.4079L84.6261 67.0671L84.0147 67.5684L83.2866 67.7881L82.4348 67.6233L82.8744 66.8062L83.7743 66.7856Z" fill="#009540"/>
<path d="M81.6863 71.8531L81.0268 71.4068L81.6245 70.5622L78.9249 68.7425L78.7051 68.6395H78.5334L78.3891 68.7425L78.1899 69.0309L77.9701 69.3742L77.2832 68.9279L77.6747 68.3511L78.0663 67.9185L78.3891 67.6987H78.7944L79.3371 67.9734L82.0709 69.8755L82.6067 69.0995L83.2456 69.539L82.7716 70.2806L84.0286 71.1733L83.5409 71.8737L82.2427 70.981L81.6863 71.8531Z" fill="#009540"/>
<path d="M80.1203 73.8172L76.0332 70.5074L76.6102 69.8276L80.6973 73.1443L80.1203 73.8172ZM81.4254 73.7691L82.2497 74.3803L81.7208 75.0807L80.9034 74.4283L81.4254 73.7691Z" fill="#009540"/>
<path d="M75.8275 77.0926L76.6586 76.6806L77.0914 76.0008L77.1463 75.2935L76.8578 74.6755L76.3495 74.0369L75.8344 73.5975L75.1955 73.3709H74.5292L73.9385 73.776L73.4783 74.6893L73.8011 75.6987L73.1554 76.2823C72.7982 75.7467 72.5922 75.2386 72.6196 74.6893C72.6677 74.1537 72.9287 73.7073 73.4371 73.1923L74.3232 72.643L75.2299 72.4438L76.1572 72.7391L77.0433 73.4052L77.7165 74.3185L77.9775 75.2661L77.8745 76.248L77.2425 77.1888L76.5762 77.6694L75.8412 77.9235L75.0925 77.848L74.33 77.4359L75.0032 76.8179L75.8275 77.0926Z" fill="#009540"/>
<path d="M67.874 78.1295C68.0251 77.6694 68.3549 77.2849 68.8563 76.9209L69.8592 76.4746L70.8346 76.4883L71.7207 76.9278L72.5244 77.7587L72.9777 78.7544L73.0396 79.7775L72.7167 80.677L72.0367 81.4255L70.9308 81.8787L69.8729 81.6727L68.9799 81.089L68.3686 80.3131L71.5971 78.0814L71.1643 77.6008L70.5873 77.3055L69.9553 77.2574L69.2478 77.6008L68.6434 78.3149L68.7052 79.187L67.9977 79.702C67.771 79.1046 67.7504 78.6033 67.874 78.1295ZM69.9828 80.8006L70.5117 80.986H71.0681L71.6383 80.7594L72.0848 80.3406L72.2496 79.7844V79.2282L72.0367 78.6857L69.5089 80.3886L69.9828 80.8006Z" fill="#009540"/>
<path d="M60.8126 87.7152L62.207 87.6328L63.1618 87.0629L63.6839 86.1771L63.8213 85.1677L63.5877 84.069L63.1137 82.9978L62.3856 82.2081L61.4583 81.8098L60.3043 81.9472L59.5487 82.3798L59.0816 82.9978L58.848 83.7737L58.9305 84.6046L58.065 84.9205C57.8246 84.0072 57.9276 83.2244 58.2642 82.5789C58.6214 81.9197 59.2121 81.4596 60.1257 81.185L61.6163 80.9858L62.8596 81.3978L63.8213 82.3454L64.515 83.6845C64.6799 84.2269 64.728 84.7007 64.7623 85.1814L64.5288 86.5822L63.7251 87.6878L62.4612 88.4294L61.3621 88.6148L60.3592 88.4774L59.48 87.9556L58.8206 87.0835L59.7479 86.7745L60.8126 87.7152Z" fill="#009540"/>
<path d="M52.0194 83.3001C52.4247 82.9911 52.8643 82.7233 53.4551 82.6821L54.5541 82.7714L55.4333 83.2246L55.9897 84.0417L56.292 85.1129L56.2576 86.2185L55.8386 87.1455L55.1174 87.7978L54.1763 88.1137L52.9536 87.9558L52.1499 87.3515L51.6348 86.4039L51.4355 85.4151L55.3715 84.9481L55.1929 84.2821L54.822 83.7945L54.2587 83.4649L53.5306 83.4169L52.6857 83.7945L52.2873 84.5979L51.4355 84.7078C51.4836 84.0898 51.6691 83.6366 52.0194 83.3001ZM52.6239 86.6511L53.0086 87.0768L53.5169 87.3103L54.1008 87.3652L54.6778 87.1592L55.0968 86.7953L55.3784 86.294L55.4127 85.7103L52.411 86.0674L52.6239 86.6511Z" fill="#009540"/>
<path d="M49.031 88.2991V87.1524L48.2135 88.0931L47.0664 88.3678V87.4957L47.9937 87.3034L48.5845 86.9052L48.9073 86.2254L49.031 85.3739L49.1134 83.0049H49.9514L49.8415 88.2991H49.031Z" fill="#009540"/>
<path d="M43.5508 87.8663L43.6126 87.0972L44.6842 87.2346L45.0345 83.966V83.7463L45.0002 83.554L44.8078 83.4785L44.4575 83.4304L44.066 83.3961L44.1415 82.6133L44.8078 82.7026L45.3573 82.8055L45.7214 83.0047L45.9481 83.3961V84.0141L45.5566 87.3032L46.4358 87.42L46.3534 88.1959L45.4535 88.0929L45.2474 89.6448L44.3957 89.5418L44.6017 87.9625L43.5508 87.8663Z" fill="#009540"/>
<path d="M41.716 88.5052L41.5511 89.5215L40.6719 89.3361L40.8848 88.313L41.716 88.5052ZM41.0772 87.3928L42.1419 82.2153L42.9936 82.4007L41.9358 87.6126L41.0772 87.3928Z" fill="#009540"/>
<path d="M39.8951 86.3628L39.6684 87.077L38.8098 86.8435L38.5831 87.6057L38.0061 88.4297H36.8453L36.5705 88.3336L36.3301 88.1962L36.5568 87.4958L36.7766 87.6057L36.962 87.695L37.4978 87.7156L37.8207 87.3036L38.0199 86.5894L37.0101 86.301L37.2025 85.5663L38.2328 85.841L39.4692 81.563L40.3141 81.7827L39.0502 86.1088L39.8951 86.3628Z" fill="#009540"/>
<path d="M35.3475 86.6719L34.9766 87.7225L34.166 87.3929L34.5644 86.3904L35.3475 86.6719ZM34.8529 85.5114L36.7694 80.5605L37.5662 80.8902L35.6841 85.793L34.8529 85.5114Z" fill="#009540"/>
<path d="M30.4373 82.3527L31.083 83.0051L31.8386 83.2248L32.5186 83.0737L33.075 82.6137L33.5215 81.9888L33.7344 81.2815L33.8031 80.6429L33.5696 80.018L33.0201 79.5374L31.9966 79.3657L31.1585 80.018L30.3755 79.606C30.7739 79.0498 31.1791 78.734 31.7149 78.5966C32.2439 78.5211 32.7865 78.5692 33.4047 78.8919L34.2084 79.5442L34.6686 80.382V81.3777L34.2908 82.3939L33.6451 83.3003L32.7865 83.8909L31.8386 84.0419L30.767 83.7467L30.087 83.2385L29.6061 82.6137L29.4688 81.9201L29.6061 81.0686L30.4236 81.4532L30.4373 82.3527Z" fill="#009540"/>
<path d="M27.0645 74.5999L27.3255 75.0806L27.1607 75.7123L28.1842 75.7398L29.1046 76.193L29.6129 76.6805L29.8671 77.1955L29.9014 77.7723L29.6129 78.4041L29.0084 78.9054L28.3765 79.0221L27.7995 78.8916L27.2156 78.5964L26.5562 78.2874L26.0685 78.0264L25.6563 77.9165L25.3404 78.1294L25.1206 78.5758L25.1824 78.9397L25.3678 79.2762L25.6976 79.544L26.5631 79.9285L27.3324 79.5508L28.0605 80.107L27.3873 80.6358L26.7073 80.7319L25.8968 80.5534L25.2442 80.1139L24.6947 79.647L24.31 79.0908L24.2207 78.514L24.5298 77.7586L26.1921 75.5956L26.4532 75.2385L26.3364 74.9776L26.0822 74.8815L26.4806 74.3115L27.0645 74.5999ZM26.3776 77.4359L26.9065 77.7243L27.3873 78.0058L27.9231 78.2187H28.3765L28.823 77.9028L28.9672 77.5869L28.9535 77.2436L28.768 76.9277L28.4864 76.6874L27.8407 76.2823L27.2912 76.2479L26.831 76.3853L26.4738 76.6187L25.9311 77.3191L26.3776 77.4359Z" fill="#009540"/>
<path d="M20.4621 75.6573L20.9979 75.1285L21.7054 75.8495L24.0409 73.5423L24.2126 73.3638L24.2195 73.1853L24.1577 73.0273L23.8967 72.7527L23.6288 72.4849L24.1577 71.9424L24.6591 72.4025L25.03 72.8419L25.1743 73.2471L25.0369 73.6316L24.7072 74.1123L22.2962 76.4882L22.9487 77.1268L22.4061 77.6418L21.7947 77.0169L20.6544 78.0812L20.0156 77.525L21.1559 76.4126L20.4621 75.6573Z" fill="#009540"/>
<path d="M18.6219 74.9914L17.7976 75.7125L17.248 75.0258L18.0586 74.3391L18.6219 74.9914ZM18.7936 73.7692L22.8326 70.3633L23.389 71.0568L19.35 74.3803L18.7936 73.7692Z" fill="#009540"/>
<path d="M18.7467 71.2629L17.7026 71.3315L16.8302 70.9539L16.0471 70.1642L15.5938 69.093L15.6556 68.1179L16.1501 67.2184L16.9813 66.5111L17.9842 66.0716L18.9596 65.9961L19.8869 66.3326L20.6563 67.1497L21.0615 68.2278L21.0547 69.1754L20.5601 70.0543L19.7633 70.7822L18.7467 71.2629ZM19.8869 69.4638L20.2166 68.8046L20.251 68.1797L20.0106 67.5754L19.5778 67.1497L18.9527 66.9094L18.2521 66.9231L17.4484 67.3282L16.8302 67.8638L16.4936 68.5024L16.4455 69.1479L16.6928 69.7522L17.1118 70.2329L17.7026 70.4869L18.4582 70.3771L19.2412 70.0406L19.8869 69.4638Z" fill="#009540"/>
<path d="M13.3396 65.0965L14.1227 64.7601V64.7463C13.4152 64.6571 12.8931 64.2588 12.6115 63.5309L12.3711 62.6863L12.5566 62.0065L12.9962 61.519L13.6693 61.1001L16.8635 59.7886L17.2001 60.592L13.9029 61.9585L13.2778 62.5147L13.3328 63.3455L13.7174 63.9223L14.2464 64.2588L14.8096 64.3206L15.4622 64.1764L18.2167 63.0228L18.5189 63.8399L13.6831 65.845L13.3396 65.0965Z" fill="#009540"/>
<path d="M35.8707 48.1974C34.6686 49.763 33.02 50.3466 31.4745 50.3466C26.515 50.3466 23.6094 46.6592 23.6094 42.0379C23.6094 37.2862 26.5081 33.5781 31.4745 33.5781C34.751 33.5781 37.8215 35.6107 38.2336 39.2294H34.8541C34.4625 37.4784 33.1368 36.572 31.4745 36.572C28.3284 36.572 27.1057 39.2294 27.1057 42.0379C27.1057 44.6953 28.3284 47.4008 31.4745 47.4008C33.7756 47.4008 35.1151 46.206 35.2731 43.9469H31.7698V41.3169H38.4947V49.9758H36.2416L35.8707 48.1974Z" fill="white"/>
<path d="M41.3516 33.9834H46.2836L50.0341 44.9701H50.0547L53.6197 33.9834H58.6067V49.9691H55.2958V38.5978H55.2477L51.3049 49.9691H48.6053L44.6831 38.742H44.6006V49.9691H41.3516V33.9834Z" fill="white"/>
<path d="M61.6699 33.9834H68.8825C72.8871 33.9834 74.4327 36.5103 74.4327 39.0785C74.4327 41.7085 72.8871 44.2217 68.8825 44.2217H65.2075V49.9691H61.6699V33.9834ZM65.2075 41.5025H67.9139C69.5762 41.5025 71.0119 41.1179 71.0119 39.0785C71.0119 37.0391 69.5694 36.7026 67.9139 36.7026H65.2075V41.5025Z" fill="white"/>
<path d="M36.9146 64.19L36.0147 65.165L34.5654 63.8741C33.7823 64.293 32.9305 64.499 32.1612 64.499C29.1045 64.499 27.291 62.027 27.291 59.1292C27.291 56.2658 29.1045 53.835 32.1612 53.835C35.163 53.835 37.0108 56.2658 37.0108 59.1292C37.0108 60.5712 36.578 62.075 35.5751 63.0638L36.9146 64.19ZM32.2574 61.8965L33.1297 60.9145L34.3524 62.0064C34.9844 61.2304 35.2317 60.1935 35.2317 59.1292C35.2317 57.2134 34.3524 55.3182 32.1612 55.3182C29.9493 55.3182 29.022 57.2134 29.022 59.1292C29.022 61.0931 29.9493 63.057 32.1612 63.057L33.2877 62.8166L32.2574 61.8965Z" fill="white"/>
<path d="M44.9308 64.2518H43.3097V63.2149H43.2753C42.8838 63.9428 41.984 64.4166 41.1459 64.4166C39.2638 64.4166 38.4258 63.4553 38.4258 61.5532V56.877H40.0469V61.3815C40.0469 62.6793 40.6101 63.1669 41.455 63.1669C42.8289 63.1669 43.2685 62.3017 43.2685 61.1755V56.877H44.9308V64.2518Z" fill="white"/>
<path d="M52.8093 62.6037L53.1871 63.1668L53.5924 63.1256V64.2586L52.5551 64.4166C51.882 64.4166 51.4286 64.2174 51.2912 63.5376C50.6661 64.19 49.622 64.4166 48.7222 64.4166C47.4239 64.4166 46.1875 63.7367 46.1875 62.3085C46.1875 60.427 47.6781 60.1661 49.0725 60.0219C50.2403 59.7678 51.2637 59.912 51.2637 58.9506C51.2637 58.106 50.3982 57.955 49.7457 57.955C48.8321 57.955 48.1795 58.3395 48.0902 59.1154H46.4897C46.5928 57.2271 48.207 56.6709 49.835 56.6709C51.2844 56.6709 52.8093 57.2477 52.8093 58.8064V62.6037ZM51.1676 60.5712C50.6661 60.8733 49.9037 60.8527 49.2099 60.9901C48.4886 61.0999 47.8223 61.354 47.8223 62.2398C47.8223 62.9471 48.7771 63.1668 49.3541 63.1668C50.0548 63.1668 51.1676 62.8097 51.1676 61.7523V60.5712Z" fill="white"/>
<path d="M56.2433 54.0752H54.5879V64.2585H56.2433V54.0752Z" fill="white"/>
<path d="M58.0156 55.579H59.7054V54.0752H58.0156V55.579ZM58.0156 64.2517H59.7054V56.8768H58.0156V64.2517Z" fill="white"/>
<path d="M60.6602 56.8772H61.9515V54.6523H63.5589V56.8772H64.9877V58.0582H63.5589V61.9997C63.5589 62.6795 63.5933 63.0503 64.3351 63.0503L64.9877 62.9611V64.252L63.9642 64.3207C62.24 64.3207 61.9515 63.6615 61.9515 62.4323V58.0582H60.6602V56.8772Z" fill="white"/>
<path d="M65.3652 56.877H67.2061L69.1157 62.3429H69.1226L70.9704 56.877H72.6877L69.8301 64.6569C69.3012 66.0028 68.8959 67.1564 67.213 67.1564L66.0796 67.074V65.6801L66.8833 65.8174C67.6046 65.8174 67.8106 65.3848 68.003 64.7874L68.1953 64.2106L65.3652 56.877Z" fill="white"/>
</g>
<defs>
<clipPath id="clip0_237_49">
<rect width="100" height="100" fill="white"/>
</clipPath>
</defs>
</svg>
