<svg width="100" height="100" viewBox="0 0 100 100" fill="none" xmlns="http://www.w3.org/2000/svg">
<g clip-path="url(#clip0_237_219)">
<path d="M50.0969 8.06998e-07C77.5904 0.00488732 99.9928 22.3485 100 49.7691C100.007 77.7248 77.7227 100.037 49.8275 99.9976C22.3021 99.9609 -0.0659735 77.5391 0.00014621 50.0476C0.0687148 22.1823 22.2776 -0.0048857 50.0969 8.06998e-07ZM50.0871 15.3339C31.0275 15.1824 15.4844 30.6335 15.3448 49.8693C15.2077 68.9071 30.6332 84.5244 49.7149 84.6686C68.9263 84.8127 84.5404 69.4031 84.6579 50.182C84.7755 30.9829 69.4038 15.4878 50.0871 15.3339ZM37.1105 13.1447C37.0958 13.069 37.0909 12.9859 37.0615 12.915C36.4689 11.5004 35.0632 10.5329 35.1587 8.69555C35.2224 7.49346 33.6012 6.80447 32.3254 7.2809C31.3776 7.63517 30.4324 8.02121 29.5459 8.50009C29.2814 8.64424 28.9973 9.24284 29.0953 9.4896C29.8177 11.3343 30.6038 13.1594 31.4511 14.9503C31.5711 15.2019 32.2396 15.4389 32.4796 15.3217C32.7515 15.1922 32.9033 14.6644 32.9547 14.2906C32.9866 14.0536 32.7662 13.7653 32.6168 13.5259C31.9801 12.5021 32.4796 12.1601 33.4469 11.8254C34.4828 11.4662 34.6175 12.1747 34.9383 12.7636C35.6485 14.0658 35.9546 14.1196 37.1105 13.1447ZM74.0641 86.0588C75.5432 84.649 75.7685 84.6515 76.9978 86.0295C77.7913 86.9188 78.1317 86.8528 78.9422 85.6654C78.3129 84.7199 77.6884 83.7817 77.0615 82.841C76.868 83.0218 76.6746 83.2002 76.4811 83.381C76.4689 83.1831 76.4689 82.9827 76.4419 82.7848C76.1774 80.7325 74.5465 79.9677 72.8396 81.1136C72.0658 81.634 71.2944 82.1691 70.5891 82.7726C70.3687 82.9607 70.1703 83.5276 70.2879 83.701C71.5319 85.5384 72.8421 87.3317 74.113 89.1055C75.5628 88.5362 75.5628 88.5362 74.0641 86.0588ZM31.3115 90.0731C31.1303 92.377 33.2021 93.5156 34.975 93.6549C36.8264 93.8015 38.7488 91.4266 38.761 89.1568C38.7708 87.2706 36.9929 85.6288 34.9677 85.6556C32.9841 85.6825 31.336 87.6738 31.3115 90.0731ZM80.5462 26.0085C81.5013 27.2154 82.2629 28.4786 83.311 29.4241C84.4865 30.4845 86.7027 29.8835 88.2039 28.3466C89.3745 27.147 89.5214 25.9254 88.6349 24.4961C88.2063 23.8046 87.7925 23.0936 87.2635 22.4828C87.0505 22.2361 86.4138 22.0211 86.2056 22.1554C84.3689 23.338 82.5837 24.6036 80.5462 26.0085ZM64.7191 90.4102C65.6228 90.0388 66.4652 89.7603 67.2317 89.3401C67.5133 89.1861 67.6088 88.6926 67.79 88.3554C67.4619 88.2357 67.1068 87.9743 66.8105 88.028C66.2228 88.1331 65.6791 88.4703 65.0914 88.5998C64.7436 88.678 64.1461 88.6828 64.0114 88.4849C63.5804 87.8521 64.1412 87.5541 64.6408 87.3439C65.275 87.0776 65.973 86.931 66.5509 86.5768C66.808 86.4204 66.8374 85.8877 66.9697 85.5262C66.6489 85.4284 66.2717 85.1719 66.0121 85.2623C64.751 85.6972 63.5045 86.1858 62.2996 86.7502C62.0572 86.8651 61.8099 87.4637 61.9005 87.7178C62.5396 89.5013 63.24 91.2654 63.9943 93.005C64.1314 93.3226 64.7118 93.7575 64.9273 93.6817C66.5044 93.1222 68.0423 92.4479 69.5704 91.82C69.3598 90.6765 68.8602 90.4664 67.9737 90.8818C67.146 91.2702 66.2742 91.5659 65.4048 91.9104C65.1795 91.4217 64.9983 91.021 64.7191 90.4102ZM78.3863 21.3003C77.4239 20.4623 76.4811 19.6438 75.5481 18.8326C76.3464 17.4106 76.4346 17.396 77.5782 18.3733C77.9504 18.6909 78.2933 19.0867 78.7243 19.2724C79.001 19.3921 79.4712 19.2748 79.7381 19.094C79.8508 19.0159 79.7749 18.4124 79.5985 18.2071C79.2043 17.7502 78.6361 17.44 78.2516 16.9757C78.0117 16.685 77.9774 16.2257 77.85 15.8421C78.2565 15.8689 78.7561 15.7541 79.05 15.9496C79.8165 16.4578 80.4948 17.1003 81.1903 17.677C82.1527 16.8267 82.209 16.7192 81.6409 16.2037C80.6148 15.2728 79.5545 14.381 78.4672 13.5259C78.2957 13.3915 77.7717 13.4061 77.6443 13.5552C76.1579 15.2606 74.7155 17.0075 73.2119 18.8008C74.3947 19.8319 75.4967 20.731 76.5276 21.7059C77.2745 22.4095 77.8329 22.4633 78.3863 21.3003ZM57.3994 95.4018C58.93 95.6144 59.099 95.4238 58.881 94.1069C58.5945 92.3893 58.4059 90.657 58.1341 88.9369C58.0851 88.6315 57.8941 88.2088 57.6566 88.1111C57.3676 87.9914 56.726 88.0574 56.6501 88.226C56.4664 88.6315 56.4468 89.1544 56.5031 89.6113C56.677 91.0479 56.628 91.0797 55.1734 91.1603C54.353 91.2067 53.949 90.9551 53.8828 90.1292C53.8412 89.6186 53.7212 89.1153 53.6306 88.5778C52.7833 88.5729 51.9507 88.4312 52.0976 89.6137C52.34 91.5439 52.5898 93.4741 52.9253 95.3896C52.9694 95.6363 53.5278 95.932 53.8559 95.9417C54.0983 95.9491 54.5122 95.563 54.5685 95.2918C54.6542 94.8789 54.5293 94.4074 54.4363 93.9749C54.1767 92.7533 54.3212 92.5847 55.5701 92.465C56.4272 92.3819 56.9807 92.5481 57.0492 93.5425C57.0909 94.1435 57.2696 94.7348 57.3994 95.4018ZM22.8433 12.4508C21.6238 13.4452 20.583 14.3566 19.4761 15.1775C18.7635 15.7052 18.8026 16.1475 19.3267 16.7681C20.5316 18.1949 21.6752 19.678 22.907 21.0804C23.0833 21.2808 23.7445 21.3345 23.9698 21.1708C25.0497 20.3792 26.0832 19.5167 27.0652 18.6078C27.3003 18.3904 27.2758 17.8968 27.3713 17.5304C26.955 17.5181 26.4285 17.3398 26.1444 17.5255C25.3069 18.0752 24.5673 18.7715 23.8057 19.397C22.5813 18.3195 22.5739 18.1803 23.6392 17.3105C24.0163 17.0026 24.484 16.7705 24.773 16.3991C24.9567 16.1621 24.8881 15.7321 24.9322 15.3876C24.5918 15.3461 24.1902 15.1702 23.9233 15.2899C23.4922 15.4829 23.1714 15.9007 22.7674 16.1719C22.3168 16.4724 21.8858 17.2836 21.2711 16.4724C20.6809 15.6955 21.5576 15.4389 21.9446 15.0724C22.5176 14.5276 23.1616 14.0609 23.8228 13.521C23.4286 13.091 23.1641 12.8027 22.8433 12.4508ZM45.3142 95.9906C45.4758 95.9906 45.6399 95.9857 45.8015 95.9906C46.9672 96.0224 47.7802 95.502 48.0521 94.3683C48.3263 93.2151 48.0178 92.2866 46.7615 91.8591C46.0758 91.627 45.3852 91.3826 44.7436 91.0528C44.4694 90.9111 44.3151 90.5324 44.1069 90.2636C44.3861 90.0804 44.7216 89.6919 44.9346 89.7505C45.5469 89.9191 46.1003 90.2856 46.6929 90.5373C47.1239 90.7205 47.5819 90.8451 48.0276 90.9942C48.0398 90.5886 48.1721 90.1366 48.0398 89.7848C47.6015 88.634 45.7085 87.8766 44.4032 88.2162C43.2474 88.5167 42.52 89.2643 42.4294 90.4053C42.3413 91.5146 43.0784 92.1547 44.1069 92.5041C44.7534 92.724 45.3926 92.9952 45.9828 93.3299C46.2007 93.4521 46.426 93.8625 46.3746 94.0775C46.3183 94.3121 45.9656 94.6029 45.7085 94.6395C44.8734 94.7568 44.1632 94.6004 43.6171 93.777C43.3967 93.4447 42.6768 93.4423 42.1845 93.2884C42.209 93.6866 42.1209 94.1337 42.2752 94.4734C42.858 95.7854 44.0285 96.0248 45.3142 95.9906ZM26.2032 89.4183C26.2032 87.9254 26.2472 86.6036 26.1885 85.2843C26.1517 84.4462 26.4554 84.1628 27.2831 84.0944C28.221 84.0162 29.1418 83.7426 30.141 83.5398C28.7647 81.2529 26.786 83.1953 25.1526 82.6798C25.6326 81.9566 26.0317 81.358 26.4725 80.691C26.066 80.3562 25.7085 80.063 25.2236 79.6648C23.8082 81.6169 22.4686 83.4445 21.1683 85.2965C21.0581 85.4529 21.1119 85.8633 21.2466 86.0221C21.707 86.567 22.165 86.7234 22.7135 86.005C23.1274 85.4651 23.311 84.4975 24.3592 84.715C24.9371 86.2567 23.4555 88.4727 26.2032 89.4183ZM16.1652 22.5366C14.2894 21.1537 11.9433 22.3362 11.4854 24.4252C10.8364 27.3718 14.3359 29.8639 16.7725 28.9868C17.6737 28.6618 18.472 27.5037 18.8908 26.5411C19.3022 25.5955 19.0108 24.4741 17.6321 23.5457C17.4949 24.3446 17.2329 24.9603 17.326 25.5174C17.5317 26.7488 16.9366 27.6845 15.7366 27.3962C14.8697 27.1885 13.9759 26.5777 13.3735 25.9009C12.4551 24.8699 13.1506 23.6116 14.5416 23.3771C15.0657 23.2916 15.5358 22.8762 16.1652 22.5366ZM65.2652 6.31093C63.9233 5.9249 62.5788 5.6146 61.2932 5.14305C60.5095 4.85475 60.2083 5.1797 60.032 5.79052C59.5349 7.49591 59.0573 9.20863 58.6116 10.9311C58.4671 11.4882 58.1806 12.1723 59.1455 12.3653C60.0565 12.5486 60.1422 11.8327 60.3014 11.2781C60.7715 9.64353 60.752 9.6362 62.4098 10.1175C63.7224 10.4987 63.9257 10.3765 64.0726 9.07425C63.3967 8.8739 62.6694 8.73952 62.0278 8.43167C61.7046 8.27775 61.538 7.80132 61.3005 7.47148C61.6384 7.31755 61.9886 7.01947 62.3143 7.04146C62.8678 7.08055 63.4041 7.32977 63.9502 7.47636C64.7975 7.70603 65.4269 7.62051 65.2652 6.31093ZM43.6269 11.8449C44.2759 11.6617 44.7216 11.5395 45.2187 11.4002C44.9836 9.81211 44.7706 8.33639 44.5453 6.86066C44.4081 5.95666 44.6114 5.36783 45.6962 5.33118C45.9558 5.32141 46.2007 4.9085 46.4505 4.68372C46.1395 4.46383 45.8162 4.04359 45.5199 4.06069C44.2318 4.13643 42.9535 4.3832 41.6654 4.48826C40.2965 4.60065 40.1397 4.86697 40.8524 6.16433C40.9968 6.14234 41.1683 6.14723 41.3078 6.08615C42.3511 5.62682 42.7968 5.80273 42.8604 7.09033C42.9364 8.60515 43.3306 10.1029 43.6269 11.8449ZM67.5378 15.263C68.7965 16.2721 68.919 16.2452 69.5949 14.9649C70.4103 13.4232 71.2258 11.8791 72.0609 10.3472C72.3474 9.82189 72.3033 9.49693 71.7327 9.16954C71.1572 8.8397 70.8242 8.96186 70.5499 9.4896C69.5557 11.3929 68.5639 13.2962 67.5378 15.263ZM53.7849 6.61145C53.7849 5.98598 53.7506 5.49733 53.7947 5.01356C53.8486 4.40275 53.7408 3.99472 53.011 3.93609C52.2862 3.87745 52.105 4.24638 52.0682 4.87185C51.9654 6.73117 51.7915 8.5856 51.7499 10.4474C51.7425 10.7674 52.2494 11.0997 52.5188 11.4271C52.8127 11.1486 53.3147 10.9018 53.3661 10.5817C53.5816 9.22573 53.6649 7.84774 53.7849 6.61145Z" fill="black"/>
<path d="M39.067 61.4406C37.6858 62.2224 36.7063 62.9847 35.5945 63.3732C31.0616 64.9637 25.8137 62.4252 23.8497 57.7781C22.8358 55.3788 22.5028 52.855 22.5395 50.2651C22.5689 48.3203 22.2408 48.0564 20.3037 48.3227C19.787 48.3936 19.2654 48.4302 18.707 48.4864C20.3306 43.8125 30.6184 40.0718 38.6483 41.1567C39.9927 37.912 38.2246 34.5257 34.8574 33.8904C34.3774 33.8 33.8631 33.7634 33.437 33.5557C33.175 33.4286 32.8787 33.0157 32.9007 32.7543C32.9228 32.4978 33.2852 32.1704 33.5717 32.0629C33.8925 31.9431 34.2917 32.0409 34.659 32.0409C39.1405 32.0458 43.6244 32.0531 48.1058 32.0555C48.3091 32.0555 48.5393 31.9554 48.7107 32.0213C49.0242 32.1459 49.3033 32.3609 49.5972 32.5393C49.4086 32.8178 49.2764 33.1868 49.0144 33.3578C48.6495 33.5948 48.1964 33.7096 47.7654 33.8269C46.3035 34.2251 45.559 35.2562 45.5247 36.6782C45.4292 40.624 45.4047 44.5723 45.4023 48.5206C45.4023 49.5712 46.0341 49.4124 46.6047 48.9311C48.0985 47.6704 49.5605 46.373 51.0371 45.0952C53.8705 42.6422 56.7087 40.194 59.5372 37.7337C59.9976 37.333 60.4506 36.9152 60.8474 36.4534C61.8587 35.2831 61.4522 33.9955 59.9535 33.5703C59.6425 33.4824 59.2776 33.541 58.996 33.4091C58.636 33.2381 58.3348 32.9424 58.0091 32.7005C58.3642 32.4367 58.6825 32.0751 59.0817 31.9407C59.4417 31.8185 59.8898 31.9089 60.2939 31.9651C63.6685 32.4245 67.043 32.4489 70.42 31.992C70.6208 31.9651 70.8437 31.8992 71.0273 31.9529C71.571 32.1166 72.0975 32.3316 72.6314 32.5246C72.1734 32.8838 71.7645 33.4286 71.2453 33.5679C68.2993 34.3644 66.0463 36.253 63.8399 38.1808C61.2 40.4848 58.6409 42.8816 56.0647 45.2564C54.3921 46.7981 54.2329 47.3185 55.5578 49.0826C59.4686 54.2867 63.4432 59.4469 67.4716 64.563C69.2299 66.7937 71.7963 67.7979 74.4288 68.6506C74.8402 68.7825 75.1047 69.3567 75.4402 69.7281C74.997 69.9113 74.5537 70.2461 74.1056 70.2558C71.26 70.3071 68.4119 70.2607 65.5663 70.3022C64.3199 70.3218 63.3305 69.8869 62.591 68.9194C58.6678 63.7739 54.757 58.6186 50.8437 53.4633C50.5988 53.1384 50.3906 52.7866 50.1458 52.4616C49.6682 51.8288 49.1564 51.7213 48.4928 52.2661C46.4528 53.9422 44.9664 55.8162 45.3557 58.7139C45.6398 60.842 45.559 63.0189 45.8627 65.1445C46.181 67.3606 47.3785 68.3379 49.6266 68.6628C49.9449 68.7092 50.2927 68.7459 50.5596 68.9023C50.7702 69.0269 51.0273 69.3543 50.9955 69.5448C50.949 69.8063 50.6845 70.0775 50.4445 70.2387C50.2657 70.356 49.967 70.3536 49.7343 70.3169C45.341 69.6059 40.9453 69.9651 36.552 70.2974C36.3904 70.3096 36.1994 70.3707 36.0671 70.3096C35.6214 70.1092 35.1978 69.8649 34.7668 69.6377C35.1219 69.3274 35.4304 68.8607 35.8418 68.7361C37.2059 68.3232 38.2075 67.5658 38.4695 66.1389C38.7291 64.6754 38.8491 63.185 39.067 61.4406ZM34.2378 58.4158C34.4264 57.7097 34.4362 57.2797 34.6394 56.9865C35.4917 55.76 36.3243 54.5066 37.321 53.4023C37.8891 52.7719 38.2858 52.4176 37.5683 51.6284C36.8508 50.8368 36.2459 50.9126 35.668 51.648C34.3676 53.3045 33.1089 54.9953 31.8502 56.6835C31.5955 57.0256 31.4118 57.4238 31.1963 57.7952C31.62 54.5994 33.5252 52.3003 35.6386 50.1552C34.0493 48.7772 33.6109 48.6721 32.4967 50.2187C31.0837 52.1806 29.9621 54.3551 28.7205 56.4417C28.5932 56.6542 28.4928 56.8814 28.3801 57.1013C28.4683 53.5488 30.6527 51.003 32.6534 48.3911C31.3628 47.6093 31.2135 47.6044 30.4396 48.506C29.9376 49.0899 29.4478 49.7007 29.0584 50.3628C28.3311 51.5942 27.6797 52.8672 26.9989 54.1255C27.043 51.4183 28.7499 49.4588 30.0894 47.3356C29.3597 46.698 28.7548 46.6198 28.1646 47.3796C27.6405 48.054 27.0504 48.677 26.5557 49.3709C26.1394 49.9524 25.8161 50.5998 25.4537 51.218C25.3337 51.1496 25.2137 51.0812 25.0962 51.0127C25.8357 49.5786 26.5753 48.1444 27.3124 46.7102C27.2683 46.6637 27.2267 46.6173 27.1826 46.5685C26.6634 47.2208 26.1443 47.8707 25.6276 48.5231C25.5051 48.4156 25.3802 48.3056 25.2578 48.1981C25.4463 47.6655 25.6349 47.1353 25.7916 46.6931C24.8758 46.6931 24.0333 46.6931 22.9265 46.6931C25.2725 45.3517 25.9778 45.2149 27.8022 45.6987C27.7287 45.298 27.665 44.9437 27.6014 44.5894C28.1622 44.868 28.4291 45.3639 28.8356 45.684C29.2666 46.0236 29.8298 46.1971 30.4788 46.5123C30.5449 45.6107 30.589 45.0048 30.6478 44.1765C31.6224 45.1929 30.9025 47.0987 32.6999 47.2477C32.8371 46.0261 32.962 44.9364 33.0844 43.8467C33.2044 43.8516 33.3219 43.8589 33.4419 43.8638C33.7309 45.7158 32.842 48.1028 35.8296 48.9238C35.7488 48.0613 35.6214 47.3161 35.6239 46.5709C35.6263 45.8721 35.761 45.1709 35.8394 44.4722C36.7014 46.4561 35.881 48.7967 37.8989 50.7025C38.1364 49.6372 38.2442 48.8822 38.4817 48.1712C38.7878 47.255 39.0401 46.2557 39.6033 45.5081C40.3159 44.565 39.9804 43.8711 39.2311 43.5168C38.0067 42.9402 36.672 42.3612 35.3521 42.2732C31.0273 41.9898 27.0822 43.3312 23.4309 45.5838C22.7869 45.9821 22.2065 46.4878 21.4596 47.0449C23.5436 47.5726 23.7346 47.9489 23.884 49.9231C24.0211 51.736 24.1729 53.5904 24.6798 55.3226C25.9508 59.6668 30.7016 62.1711 34.7913 60.9446C37.1814 60.2287 39.8507 56.1802 38.0458 53.5708C36.8116 55.1345 35.6435 56.6249 34.2378 58.4158Z" fill="black"/>
<path d="M30.7734 9.32602C31.7138 9.16966 32.4999 9.0084 33.2933 8.94976C33.3937 8.94243 33.7047 9.64609 33.6288 9.71939C33.0803 10.2447 32.4558 10.6918 31.7236 11.2684C31.3734 10.5501 31.1383 10.0688 30.7734 9.32602Z" fill="black"/>
<path d="M72.1729 83.1856C72.91 82.9144 73.6398 82.6139 74.3965 82.416C74.4822 82.394 74.9328 83.1221 74.8545 83.2198C74.4455 83.7354 73.9875 84.3095 73.4145 84.5465C73.1451 84.6589 72.5794 84.0603 72.1484 83.7842C72.1558 83.5839 72.1631 83.3835 72.1729 83.1856Z" fill="black"/>
<path d="M33.019 90.0704C33.0631 88.5311 34.1283 87.1629 35.2646 87.1873C36.2368 87.2093 37.0327 88.0913 37.0229 89.1395C37.0082 90.6983 35.8915 92.0738 34.6744 92.0323C33.5798 91.9957 32.9847 91.2871 33.019 90.0704Z" fill="black"/>
<path d="M82.7598 26.5143C84.0356 25.6371 85.2258 24.8211 86.7098 23.7998C87.038 24.7844 87.7481 25.8521 87.4665 26.2968C86.94 27.1324 85.9188 27.8214 84.954 28.1781C83.8299 28.5959 83.4234 27.4305 82.7598 26.5143Z" fill="black"/>
</g>
<defs>
<clipPath id="clip0_237_219">
<rect width="100" height="100" fill="white"/>
</clipPath>
</defs>
</svg>
