<svg width="170" height="70" viewBox="0 0 170 70" fill="none" xmlns="http://www.w3.org/2000/svg">
<path d="M22.3206 63.9991H16V8.00058H71.5683C95.9429 8.00058 99.7894 29.8905 99.7894 29.8905L113.467 8.00058H127.8L154 50.4584L145.792 63.9974H111.246V57.2428H149.886L120.618 8C120.618 8 101.329 41.5535 97.188 48.09C93.0468 54.6268 85.2681 63.9959 71.9444 63.9959H51.3087V30.6587H57.8475V57.2411H72.8863C79.537 57.2411 93.81 51.576 93.81 35.5614C93.81 19.5467 78.553 14.5353 73.5401 14.5353H22.32V63.9944L22.3206 63.9991ZM24.5002 63.9991V40.2494H48.911V46.7862H31.0387V63.9994H24.4999L24.5002 63.9991ZM48.911 37.4168V30.6622H31.0387V23.4978H72.1644C78.3292 23.4978 84.8747 28.4832 84.8747 35.7824C84.8747 43.0815 78.2587 48.0929 73.5411 48.0929H67.1301V30.6619H60.3735V54.6297H73.5411C81.8809 54.6297 91.5223 47.3934 91.5223 36.0001C91.5223 24.716 82.7538 16.935 72.2682 16.935H24.5016V37.4165H48.9125L48.911 37.4168ZM90.6479 63.9991L120.618 14.54L145.247 54.63H111.247V48.0932H133.261L120.619 27.5027L99.8047 64H90.6505L90.6479 63.9991Z" fill="black"/>
</svg>
