<svg width="758" height="243" viewBox="0 0 758 243" fill="none" xmlns="http://www.w3.org/2000/svg">
<rect width="758" height="243" fill="#FAE7C8"/>
<rect x="30" y="25" width="111" height="27" rx="13.5" fill="white"/>
<path d="M49.1239 38.6364C49.1239 39.5767 48.9478 40.3821 48.5955 41.0526C48.2461 41.7202 47.7688 42.2315 47.1637 42.5866C46.5614 42.9418 45.8782 43.1193 45.114 43.1193C44.3498 43.1193 43.6651 42.9418 43.06 42.5866C42.4577 42.2287 41.9805 41.7159 41.6282 41.0483C41.2788 40.3778 41.104 39.5739 41.104 38.6364C41.104 37.696 41.2788 36.892 41.6282 36.2244C41.9805 35.554 42.4577 35.0412 43.06 34.6861C43.6651 34.331 44.3498 34.1534 45.114 34.1534C45.8782 34.1534 46.5614 34.331 47.1637 34.6861C47.7688 35.0412 48.2461 35.554 48.5955 36.2244C48.9478 36.892 49.1239 37.696 49.1239 38.6364ZM47.5344 38.6364C47.5344 37.9744 47.4308 37.4162 47.2234 36.9616C47.0188 36.5043 46.7347 36.1591 46.3711 35.9261C46.0075 35.6903 45.5884 35.5724 45.114 35.5724C44.6396 35.5724 44.2205 35.6903 43.8569 35.9261C43.4933 36.1591 43.2077 36.5043 43.0004 36.9616C42.7958 37.4162 42.6935 37.9744 42.6935 38.6364C42.6935 39.2983 42.7958 39.858 43.0004 40.3153C43.2077 40.7699 43.4933 41.1151 43.8569 41.3509C44.2205 41.5838 44.6396 41.7003 45.114 41.7003C45.5884 41.7003 46.0075 41.5838 46.3711 41.3509C46.7347 41.1151 47.0188 40.7699 47.2234 40.3153C47.4308 39.858 47.5344 39.2983 47.5344 38.6364ZM52.093 39.1648V43H50.5504V36.4545H52.0249V37.5668H52.1016C52.2521 37.2003 52.4922 36.9091 52.8217 36.6932C53.1541 36.4773 53.5646 36.3693 54.0533 36.3693C54.505 36.3693 54.8984 36.4659 55.2337 36.6591C55.5717 36.8523 55.8331 37.1321 56.0178 37.4986C56.2053 37.8651 56.2976 38.3097 56.2947 38.8324V43H54.7521V39.071C54.7521 38.6335 54.6385 38.2912 54.4112 38.044C54.1868 37.7969 53.8757 37.6733 53.478 37.6733C53.2081 37.6733 52.968 37.733 52.7578 37.8523C52.5504 37.9687 52.3871 38.1378 52.2678 38.3594C52.1513 38.581 52.093 38.8494 52.093 39.1648ZM59.4055 34.2727V43H57.8629V34.2727H59.4055ZM61.9506 45.4545C61.7404 45.4545 61.5458 45.4375 61.3668 45.4034C61.1907 45.3722 61.0501 45.3352 60.945 45.2926L61.3029 44.0909C61.5273 44.1563 61.7276 44.1875 61.9038 44.1847C62.0799 44.1818 62.2347 44.1264 62.3683 44.0185C62.5046 43.9134 62.6197 43.7372 62.7134 43.4901L62.8455 43.1364L60.4719 36.4545H62.1083L63.6168 41.3977H63.685L65.1978 36.4545H66.8384L64.2177 43.7926C64.0955 44.1392 63.9336 44.4361 63.7319 44.6832C63.5302 44.9332 63.283 45.1236 62.9904 45.2543C62.7006 45.3878 62.354 45.4545 61.9506 45.4545ZM70.5671 35.598V34.2727H77.5302V35.598H74.8327V43H73.2646V35.598H70.5671ZM80.3469 39.1648V43H78.8043V34.2727H80.3129V37.5668H80.3896C80.543 37.1974 80.7802 36.9062 81.1012 36.6932C81.4251 36.4773 81.837 36.3693 82.337 36.3693C82.7915 36.3693 83.1879 36.4645 83.5259 36.6548C83.864 36.8452 84.1254 37.1236 84.31 37.4901C84.4975 37.8565 84.5913 38.304 84.5913 38.8324V43H83.0487V39.071C83.0487 38.6307 82.935 38.2884 82.7077 38.044C82.4833 37.7969 82.168 37.6733 81.7617 37.6733C81.489 37.6733 81.2447 37.733 81.0288 37.8523C80.8157 37.9687 80.6481 38.1378 80.5259 38.3594C80.4066 38.581 80.3469 38.8494 80.3469 39.1648ZM86.1637 43V36.4545H87.7063V43H86.1637ZM86.9393 35.5256C86.695 35.5256 86.4847 35.4446 86.3086 35.2827C86.1325 35.1179 86.0444 34.9205 86.0444 34.6903C86.0444 34.4574 86.1325 34.2599 86.3086 34.098C86.4847 33.9332 86.695 33.8509 86.9393 33.8509C87.1864 33.8509 87.3967 33.9332 87.57 34.098C87.7461 34.2599 87.8342 34.4574 87.8342 34.6903C87.8342 34.9205 87.7461 35.1179 87.57 35.2827C87.3967 35.4446 87.1864 35.5256 86.9393 35.5256ZM94.4659 38.1847L93.0597 38.3381C93.0199 38.196 92.9503 38.0625 92.8509 37.9375C92.7543 37.8125 92.6236 37.7116 92.4588 37.6349C92.294 37.5582 92.0923 37.5199 91.8537 37.5199C91.5327 37.5199 91.2628 37.5895 91.044 37.7287C90.8281 37.8679 90.7216 38.0483 90.7244 38.2699C90.7216 38.4602 90.7912 38.6151 90.9332 38.7344C91.0781 38.8537 91.3168 38.9517 91.6491 39.0284L92.7656 39.267C93.3849 39.4006 93.8452 39.6122 94.1463 39.902C94.4503 40.1918 94.6037 40.571 94.6065 41.0398C94.6037 41.4517 94.483 41.8153 94.2443 42.1307C94.0085 42.4432 93.6804 42.6875 93.2599 42.8636C92.8395 43.0398 92.3565 43.1278 91.8111 43.1278C91.0099 43.1278 90.3651 42.9602 89.8764 42.625C89.3878 42.2869 89.0966 41.8168 89.0028 41.2145L90.5071 41.0696C90.5753 41.3651 90.7202 41.5881 90.9418 41.7386C91.1634 41.8892 91.4517 41.9645 91.8068 41.9645C92.1733 41.9645 92.4673 41.8892 92.6889 41.7386C92.9134 41.5881 93.0256 41.402 93.0256 41.1804C93.0256 40.9929 92.9531 40.8381 92.8082 40.7159C92.6662 40.5937 92.4446 40.5 92.1435 40.4347L91.027 40.2003C90.3991 40.0696 89.9347 39.8494 89.6335 39.5398C89.3324 39.2273 89.1832 38.8324 89.1861 38.3551C89.1832 37.9517 89.2926 37.6023 89.5142 37.3068C89.7386 37.0085 90.0497 36.7784 90.4474 36.6165C90.848 36.4517 91.3097 36.3693 91.8324 36.3693C92.5994 36.3693 93.2031 36.5327 93.6435 36.8594C94.0866 37.1861 94.3608 37.6278 94.4659 38.1847ZM100.76 43L98.2969 34.2727H99.9972L101.57 40.6861H101.651L103.33 34.2727H104.876L106.56 40.6903H106.636L108.209 34.2727H109.909L107.446 43H105.886L104.139 36.8764H104.071L102.32 43H100.76ZM113.167 43.1278C112.511 43.1278 111.944 42.9915 111.467 42.7188C110.992 42.4432 110.627 42.054 110.371 41.5511C110.116 41.0455 109.988 40.4503 109.988 39.7656C109.988 39.0923 110.116 38.5014 110.371 37.9929C110.63 37.4815 110.991 37.0838 111.454 36.7997C111.917 36.5128 112.461 36.3693 113.086 36.3693C113.489 36.3693 113.87 36.4347 114.228 36.5653C114.589 36.6932 114.907 36.892 115.183 37.1619C115.461 37.4318 115.68 37.7756 115.839 38.1932C115.998 38.608 116.077 39.1023 116.077 39.6761V40.1491H110.712V39.1094H114.599C114.596 38.8139 114.532 38.5511 114.407 38.321C114.282 38.0881 114.107 37.9048 113.883 37.7713C113.661 37.6378 113.403 37.571 113.107 37.571C112.792 37.571 112.515 37.6477 112.276 37.8011C112.038 37.9517 111.852 38.1506 111.718 38.3977C111.587 38.642 111.521 38.9105 111.518 39.2031V40.1108C111.518 40.4915 111.587 40.8182 111.727 41.0909C111.866 41.3608 112.06 41.5682 112.31 41.7131C112.56 41.8551 112.853 41.9261 113.188 41.9261C113.413 41.9261 113.616 41.8949 113.798 41.8324C113.979 41.767 114.137 41.6719 114.271 41.5469C114.404 41.4219 114.505 41.267 114.573 41.0824L116.013 41.2443C115.923 41.625 115.749 41.9574 115.494 42.2415C115.241 42.5227 114.917 42.7415 114.522 42.8977C114.127 43.0511 113.675 43.1278 113.167 43.1278ZM120.28 43.1278C119.624 43.1278 119.057 42.9915 118.58 42.7188C118.105 42.4432 117.74 42.054 117.485 41.5511C117.229 41.0455 117.101 40.4503 117.101 39.7656C117.101 39.0923 117.229 38.5014 117.485 37.9929C117.743 37.4815 118.104 37.0838 118.567 36.7997C119.03 36.5128 119.574 36.3693 120.199 36.3693C120.603 36.3693 120.983 36.4347 121.341 36.5653C121.702 36.6932 122.02 36.892 122.296 37.1619C122.574 37.4318 122.793 37.7756 122.952 38.1932C123.111 38.608 123.191 39.1023 123.191 39.6761V40.1491H117.826V39.1094H121.712C121.709 38.8139 121.645 38.5511 121.52 38.321C121.395 38.0881 121.221 37.9048 120.996 37.7713C120.775 37.6378 120.516 37.571 120.221 37.571C119.905 37.571 119.628 37.6477 119.39 37.8011C119.151 37.9517 118.965 38.1506 118.831 38.3977C118.701 38.642 118.634 38.9105 118.631 39.2031V40.1108C118.631 40.4915 118.701 40.8182 118.84 41.0909C118.979 41.3608 119.174 41.5682 119.424 41.7131C119.674 41.8551 119.966 41.9261 120.301 41.9261C120.526 41.9261 120.729 41.8949 120.911 41.8324C121.093 41.767 121.25 41.6719 121.384 41.5469C121.517 41.4219 121.618 41.267 121.686 41.0824L123.127 41.2443C123.036 41.625 122.863 41.9574 122.607 42.2415C122.354 42.5227 122.03 42.7415 121.635 42.8977C121.24 43.0511 120.789 43.1278 120.28 43.1278ZM125.902 40.946L125.898 39.0838H126.145L128.497 36.4545H130.3L127.406 39.6761H127.087L125.902 40.946ZM124.496 43V34.2727H126.038V43H124.496ZM128.604 43L126.473 40.0213L127.513 38.9347L130.449 43H128.604Z" fill="#7C2D12"/>
<path d="M31.7699 74.6364H37.0795L42.6875 88.3182H42.9261L48.5341 74.6364H53.8438V95H49.6676V81.7457H49.4986L44.2287 94.9006H41.3849L36.1151 81.696H35.946V95H31.7699V74.6364ZM61.6665 95.2884C60.6921 95.2884 59.8237 95.1193 59.0614 94.7812C58.2991 94.4366 57.6959 93.9295 57.2518 93.2599C56.8143 92.5838 56.5955 91.742 56.5955 90.7344C56.5955 89.8859 56.7513 89.1733 57.0629 88.5966C57.3744 88.0199 57.7987 87.5559 58.3356 87.2045C58.8725 86.8532 59.4824 86.5881 60.1651 86.4091C60.8545 86.2301 61.5771 86.1042 62.3327 86.0312C63.221 85.9384 63.9369 85.8523 64.4805 85.7727C65.024 85.6866 65.4184 85.5606 65.6637 85.3949C65.909 85.2292 66.0316 84.9839 66.0316 84.6591V84.5994C66.0316 83.9697 65.8327 83.4825 65.435 83.1378C65.0439 82.7931 64.4871 82.6207 63.7646 82.6207C63.0022 82.6207 62.3957 82.7898 61.945 83.1278C61.4942 83.4593 61.1959 83.8769 61.0501 84.3807L57.1325 84.0625C57.3313 83.1345 57.7224 82.3324 58.3058 81.6562C58.8891 80.9735 59.6415 80.4498 60.5629 80.0852C61.4909 79.714 62.5647 79.5284 63.7844 79.5284C64.6329 79.5284 65.445 79.6278 66.2205 79.8267C67.0027 80.0256 67.6954 80.3338 68.2987 80.7514C68.9085 81.169 69.3891 81.706 69.7404 82.3622C70.0917 83.0118 70.2674 83.7907 70.2674 84.6989V95H66.2504V92.8821H66.131C65.8858 93.3594 65.5576 93.7803 65.1467 94.1449C64.7357 94.5028 64.2418 94.7846 63.6651 94.9901C63.0884 95.1889 62.4222 95.2884 61.6665 95.2884ZM62.8796 92.3651C63.5027 92.3651 64.0529 92.2424 64.5302 91.9972C65.0075 91.7453 65.382 91.4072 65.6538 90.983C65.9255 90.5587 66.0614 90.0781 66.0614 89.5412V87.9205C65.9289 88.0066 65.7466 88.0862 65.5146 88.1591C65.2892 88.2254 65.034 88.2884 64.7489 88.348C64.4639 88.401 64.1789 88.4508 63.8938 88.4972C63.6088 88.5369 63.3503 88.5734 63.1183 88.6065C62.6211 88.6795 62.1869 88.7955 61.8157 88.9545C61.4445 89.1136 61.1561 89.3291 60.9506 89.6009C60.7451 89.866 60.6424 90.1974 60.6424 90.5952C60.6424 91.1719 60.8512 91.6127 61.2688 91.9176C61.6931 92.2159 62.23 92.3651 62.8796 92.3651ZM77.3917 90.6051L77.4016 85.5241H78.0181L82.9102 79.7273H87.7724L81.1999 87.4034H80.1957L77.3917 90.6051ZM73.5536 95V74.6364H77.7894V95H73.5536ZM83.0991 95L78.6048 88.348L81.4286 85.3551L88.0607 95H83.0991ZM96.1818 95.2983C94.6108 95.2983 93.2585 94.9801 92.125 94.3438C90.9981 93.7008 90.1297 92.7926 89.5199 91.6193C88.91 90.4394 88.6051 89.044 88.6051 87.4332C88.6051 85.8622 88.91 84.4834 89.5199 83.2969C90.1297 82.1103 90.9882 81.1856 92.0952 80.5227C93.2088 79.8598 94.5147 79.5284 96.0128 79.5284C97.0204 79.5284 97.9583 79.6908 98.8267 80.0156C99.7017 80.3338 100.464 80.8144 101.114 81.4574C101.77 82.1004 102.28 82.9091 102.645 83.8835C103.009 84.8513 103.192 85.9848 103.192 87.2841V88.4474H90.2955V85.8224H99.2045C99.2045 85.2126 99.072 84.6723 98.8068 84.2017C98.5417 83.7311 98.1738 83.3632 97.7031 83.098C97.2391 82.8262 96.6989 82.6903 96.0824 82.6903C95.4394 82.6903 94.8693 82.8395 94.3722 83.1378C93.8816 83.4295 93.4972 83.8239 93.2188 84.321C92.9403 84.8116 92.7978 85.3584 92.7912 85.9616V88.4574C92.7912 89.2131 92.9304 89.866 93.2088 90.4162C93.4938 90.9664 93.8949 91.3906 94.4119 91.6889C94.929 91.9872 95.5421 92.1364 96.2514 92.1364C96.7221 92.1364 97.1529 92.0701 97.544 91.9375C97.9351 91.8049 98.2699 91.6061 98.5483 91.3409C98.8267 91.0758 99.0388 90.7509 99.1847 90.3665L103.102 90.625C102.903 91.5663 102.496 92.3883 101.879 93.0909C101.269 93.7869 100.481 94.3305 99.5128 94.7216C98.5516 95.1061 97.4413 95.2983 96.1818 95.2983ZM115.051 100.727C114.515 100.727 114.011 100.684 113.54 100.598C113.076 100.518 112.692 100.416 112.387 100.29L113.341 97.1278C113.838 97.2803 114.286 97.3632 114.684 97.3764C115.088 97.3897 115.436 97.2969 115.728 97.098C116.026 96.8991 116.268 96.5611 116.453 96.0838L116.702 95.4375L111.223 79.7273H115.678L118.84 90.9432H118.999L122.191 79.7273H126.675L120.739 96.6506C120.454 97.4725 120.066 98.1884 119.576 98.7983C119.092 99.4148 118.479 99.8887 117.736 100.22C116.994 100.558 116.099 100.727 115.051 100.727ZM135.251 95.2983C133.707 95.2983 132.371 94.9702 131.244 94.3139C130.124 93.651 129.259 92.7296 128.649 91.5497C128.039 90.3632 127.734 88.9877 127.734 87.4233C127.734 85.8456 128.039 84.4669 128.649 83.2869C129.259 82.1004 130.124 81.179 131.244 80.5227C132.371 79.8598 133.707 79.5284 135.251 79.5284C136.796 79.5284 138.128 79.8598 139.248 80.5227C140.375 81.179 141.243 82.1004 141.853 83.2869C142.463 84.4669 142.768 85.8456 142.768 87.4233C142.768 88.9877 142.463 90.3632 141.853 91.5497C141.243 92.7296 140.375 93.651 139.248 94.3139C138.128 94.9702 136.796 95.2983 135.251 95.2983ZM135.271 92.017C135.974 92.017 136.56 91.8182 137.031 91.4205C137.502 91.0161 137.856 90.4659 138.095 89.7699C138.34 89.0739 138.463 88.2817 138.463 87.3935C138.463 86.5052 138.34 85.7131 138.095 85.017C137.856 84.321 137.502 83.7708 137.031 83.3665C136.56 82.9621 135.974 82.7599 135.271 82.7599C134.562 82.7599 133.965 82.9621 133.481 83.3665C133.004 83.7708 132.643 84.321 132.397 85.017C132.159 85.7131 132.039 86.5052 132.039 87.3935C132.039 88.2817 132.159 89.0739 132.397 89.7699C132.643 90.4659 133.004 91.0161 133.481 91.4205C133.965 91.8182 134.562 92.017 135.271 92.017ZM155.316 88.4972V79.7273H159.552V95H155.485V92.2259H155.326C154.982 93.1207 154.408 93.84 153.606 94.3835C152.811 94.9271 151.84 95.1989 150.693 95.1989C149.672 95.1989 148.774 94.9669 147.998 94.5028C147.223 94.0388 146.616 93.3793 146.179 92.5241C145.748 91.669 145.529 90.6449 145.522 89.4517V79.7273H149.758V88.696C149.765 89.5975 150.007 90.3101 150.484 90.8338C150.961 91.3575 151.601 91.6193 152.403 91.6193C152.913 91.6193 153.391 91.5033 153.835 91.2713C154.279 91.0327 154.637 90.6813 154.909 90.2173C155.187 89.7533 155.323 89.1799 155.316 88.4972ZM162.94 95V79.7273H167.047V82.392H167.206C167.484 81.4441 167.952 80.7282 168.608 80.2443C169.264 79.7538 170.02 79.5085 170.875 79.5085C171.087 79.5085 171.316 79.5218 171.561 79.5483C171.806 79.5748 172.022 79.6113 172.207 79.6577V83.4162C172.009 83.3565 171.733 83.3035 171.382 83.2571C171.031 83.2107 170.709 83.1875 170.418 83.1875C169.795 83.1875 169.238 83.3234 168.747 83.5952C168.263 83.8603 167.879 84.2315 167.594 84.7088C167.315 85.1861 167.176 85.7363 167.176 86.3594V95H162.94ZM187.759 101.045C186.386 101.045 185.21 100.857 184.229 100.479C183.254 100.107 182.479 99.6004 181.902 98.9574C181.325 98.3144 180.951 97.5919 180.778 96.7898L184.696 96.2628C184.815 96.5677 185.004 96.8527 185.263 97.1179C185.521 97.383 185.863 97.5952 186.287 97.7543C186.718 97.92 187.241 98.0028 187.858 98.0028C188.779 98.0028 189.538 97.7775 190.135 97.3267C190.738 96.8826 191.04 96.1368 191.04 95.0895V92.2955H190.861C190.675 92.7197 190.397 93.1207 190.026 93.4986C189.654 93.8764 189.177 94.1847 188.594 94.4233C188.01 94.6619 187.314 94.7812 186.506 94.7812C185.359 94.7812 184.315 94.5161 183.374 93.9858C182.439 93.4489 181.693 92.6302 181.136 91.5298C180.586 90.4228 180.311 89.0241 180.311 87.3338C180.311 85.6037 180.593 84.1586 181.156 82.9986C181.72 81.8385 182.469 80.9702 183.403 80.3935C184.345 79.8168 185.375 79.5284 186.496 79.5284C187.351 79.5284 188.067 79.6742 188.643 79.9659C189.22 80.2509 189.684 80.6089 190.036 81.0398C190.393 81.464 190.669 81.8816 190.861 82.2926H191.02V79.7273H195.226V95.1491C195.226 96.4484 194.908 97.5355 194.271 98.4105C193.635 99.2855 192.753 99.9418 191.626 100.379C190.506 100.823 189.217 101.045 187.759 101.045ZM187.848 91.5994C188.531 91.5994 189.107 91.4304 189.578 91.0923C190.055 90.7476 190.42 90.2571 190.672 89.6207C190.93 88.9777 191.06 88.2088 191.06 87.3139C191.06 86.419 190.934 85.6435 190.682 84.9872C190.43 84.3243 190.065 83.8106 189.588 83.446C189.111 83.0814 188.531 82.8991 187.848 82.8991C187.152 82.8991 186.565 83.0881 186.088 83.4659C185.611 83.8371 185.25 84.3542 185.004 85.017C184.759 85.6799 184.636 86.4455 184.636 87.3139C184.636 88.1955 184.759 88.9579 185.004 89.6009C185.256 90.2372 185.617 90.7311 186.088 91.0824C186.565 91.4271 187.152 91.5994 187.848 91.5994ZM198.597 95V79.7273H202.703V82.392H202.862C203.141 81.4441 203.608 80.7282 204.264 80.2443C204.92 79.7538 205.676 79.5085 206.531 79.5085C206.743 79.5085 206.972 79.5218 207.217 79.5483C207.463 79.5748 207.678 79.6113 207.864 79.6577V83.4162C207.665 83.3565 207.39 83.3035 207.038 83.2571C206.687 83.2107 206.366 83.1875 206.074 83.1875C205.451 83.1875 204.894 83.3234 204.403 83.5952C203.92 83.8603 203.535 84.2315 203.25 84.7088C202.972 85.1861 202.832 85.7363 202.832 86.3594V95H198.597ZM216.243 95.2983C214.699 95.2983 213.363 94.9702 212.236 94.3139C211.116 93.651 210.251 92.7296 209.641 91.5497C209.031 90.3632 208.726 88.9877 208.726 87.4233C208.726 85.8456 209.031 84.4669 209.641 83.2869C210.251 82.1004 211.116 81.179 212.236 80.5227C213.363 79.8598 214.699 79.5284 216.243 79.5284C217.788 79.5284 219.12 79.8598 220.24 80.5227C221.367 81.179 222.236 82.1004 222.846 83.2869C223.455 84.4669 223.76 85.8456 223.76 87.4233C223.76 88.9877 223.455 90.3632 222.846 91.5497C222.236 92.7296 221.367 93.651 220.24 94.3139C219.12 94.9702 217.788 95.2983 216.243 95.2983ZM216.263 92.017C216.966 92.017 217.552 91.8182 218.023 91.4205C218.494 91.0161 218.848 90.4659 219.087 89.7699C219.332 89.0739 219.455 88.2817 219.455 87.3935C219.455 86.5052 219.332 85.7131 219.087 85.017C218.848 84.321 218.494 83.7708 218.023 83.3665C217.552 82.9621 216.966 82.7599 216.263 82.7599C215.554 82.7599 214.957 82.9621 214.473 83.3665C213.996 83.7708 213.635 84.321 213.39 85.017C213.151 85.7131 213.032 86.5052 213.032 87.3935C213.032 88.2817 213.151 89.0739 213.39 89.7699C213.635 90.4659 213.996 91.0161 214.473 91.4205C214.957 91.8182 215.554 92.017 216.263 92.017ZM233.415 95.2983C231.851 95.2983 230.505 94.9669 229.378 94.304C228.258 93.6345 227.396 92.7064 226.793 91.5199C226.196 90.3333 225.898 88.9678 225.898 87.4233C225.898 85.8589 226.2 84.4867 226.803 83.3068C227.413 82.1203 228.278 81.1955 229.398 80.5327C230.518 79.8632 231.851 79.5284 233.395 79.5284C234.728 79.5284 235.894 79.7704 236.895 80.2543C237.896 80.7382 238.688 81.4176 239.272 82.2926C239.855 83.1676 240.176 84.1951 240.236 85.375H236.239C236.126 84.6127 235.828 83.9995 235.344 83.5355C234.867 83.0649 234.24 82.8295 233.465 82.8295C232.809 82.8295 232.235 83.0085 231.745 83.3665C231.261 83.7178 230.883 84.2315 230.611 84.9077C230.339 85.5838 230.203 86.4025 230.203 87.3636C230.203 88.3381 230.336 89.1667 230.601 89.8494C230.873 90.5322 231.254 91.0526 231.745 91.4105C232.235 91.7685 232.809 91.9474 233.465 91.9474C233.949 91.9474 234.383 91.848 234.767 91.6491C235.158 91.4503 235.48 91.1619 235.732 90.7841C235.99 90.3996 236.159 89.9389 236.239 89.402H240.236C240.17 90.5687 239.852 91.5961 239.282 92.4844C238.718 93.366 237.939 94.0554 236.945 94.5526C235.951 95.0497 234.774 95.2983 233.415 95.2983ZM249.908 95.2983C248.337 95.2983 246.985 94.9801 245.852 94.3438C244.725 93.7008 243.856 92.7926 243.246 91.6193C242.637 90.4394 242.332 89.044 242.332 87.4332C242.332 85.8622 242.637 84.4834 243.246 83.2969C243.856 82.1103 244.715 81.1856 245.822 80.5227C246.935 79.8598 248.241 79.5284 249.739 79.5284C250.747 79.5284 251.685 79.6908 252.553 80.0156C253.428 80.3338 254.191 80.8144 254.84 81.4574C255.496 82.1004 256.007 82.9091 256.371 83.8835C256.736 84.8513 256.918 85.9848 256.918 87.2841V88.4474H244.022V85.8224H252.931C252.931 85.2126 252.799 84.6723 252.533 84.2017C252.268 83.7311 251.9 83.3632 251.43 83.098C250.966 82.8262 250.425 82.6903 249.809 82.6903C249.166 82.6903 248.596 82.8395 248.099 83.1378C247.608 83.4295 247.224 83.8239 246.945 84.321C246.667 84.8116 246.524 85.3584 246.518 85.9616V88.4574C246.518 89.2131 246.657 89.866 246.935 90.4162C247.22 90.9664 247.621 91.3906 248.138 91.6889C248.656 91.9872 249.269 92.1364 249.978 92.1364C250.449 92.1364 250.879 92.0701 251.271 91.9375C251.662 91.8049 251.996 91.6061 252.275 91.3409C252.553 91.0758 252.765 90.7509 252.911 90.3665L256.829 90.625C256.63 91.5663 256.222 92.3883 255.606 93.0909C254.996 93.7869 254.207 94.3305 253.239 94.7216C252.278 95.1061 251.168 95.2983 249.908 95.2983ZM259.683 95V79.7273H263.789V82.392H263.948C264.227 81.4441 264.694 80.7282 265.35 80.2443C266.006 79.7538 266.762 79.5085 267.617 79.5085C267.829 79.5085 268.058 79.5218 268.303 79.5483C268.549 79.5748 268.764 79.6113 268.95 79.6577V83.4162C268.751 83.3565 268.476 83.3035 268.124 83.2571C267.773 83.2107 267.451 83.1875 267.16 83.1875C266.537 83.1875 265.98 83.3234 265.489 83.5952C265.005 83.8603 264.621 84.2315 264.336 84.7088C264.058 85.1861 263.918 85.7363 263.918 86.3594V95H259.683ZM274.219 100.727C273.683 100.727 273.179 100.684 272.708 100.598C272.244 100.518 271.86 100.416 271.555 100.29L272.509 97.1278C273.006 97.2803 273.454 97.3632 273.852 97.3764C274.256 97.3897 274.604 97.2969 274.896 97.098C275.194 96.8991 275.436 96.5611 275.621 96.0838L275.87 95.4375L270.391 79.7273H274.846L278.008 90.9432H278.167L281.359 79.7273H285.843L279.907 96.6506C279.622 97.4725 279.234 98.1884 278.744 98.7983C278.26 99.4148 277.647 99.8887 276.904 100.22C276.162 100.558 275.267 100.727 274.219 100.727Z" fill="#333333"/>
<path d="M44.3977 118.082L40.5199 118.321C40.4536 117.99 40.3111 117.691 40.0923 117.426C39.8736 117.154 39.5852 116.939 39.2273 116.78C38.8759 116.614 38.455 116.531 37.9645 116.531C37.3082 116.531 36.7547 116.67 36.304 116.949C35.8532 117.221 35.6278 117.585 35.6278 118.043C35.6278 118.407 35.7737 118.715 36.0653 118.967C36.357 119.219 36.8575 119.421 37.5668 119.574L40.331 120.131C41.8158 120.436 42.9228 120.926 43.652 121.602C44.3812 122.278 44.7457 123.167 44.7457 124.267C44.7457 125.268 44.4508 126.146 43.8608 126.902C43.2775 127.658 42.4754 128.248 41.4545 128.672C40.4403 129.089 39.2704 129.298 37.9446 129.298C35.9228 129.298 34.312 128.877 33.1122 128.036C31.919 127.187 31.2197 126.034 31.0142 124.575L35.1804 124.357C35.3063 124.973 35.6113 125.444 36.0952 125.768C36.5791 126.087 37.1989 126.246 37.9545 126.246C38.697 126.246 39.2936 126.103 39.7443 125.818C40.2017 125.527 40.4337 125.152 40.4403 124.695C40.4337 124.31 40.2713 123.995 39.9531 123.75C39.6349 123.498 39.1444 123.306 38.4815 123.173L35.8366 122.646C34.3452 122.348 33.2348 121.831 32.5057 121.095C31.7831 120.359 31.4219 119.421 31.4219 118.281C31.4219 117.3 31.687 116.455 32.2173 115.746C32.7543 115.036 33.5066 114.49 34.4744 114.105C35.4489 113.721 36.589 113.528 37.8949 113.528C39.8239 113.528 41.3419 113.936 42.4489 114.751C43.5625 115.567 44.2121 116.677 44.3977 118.082ZM51.6488 120.17V129H47.413V108.636H51.5295V116.422H51.7085C52.0531 115.52 52.61 114.814 53.3789 114.304C54.1478 113.787 55.1123 113.528 56.2724 113.528C57.333 113.528 58.2577 113.76 59.0465 114.224C59.842 114.682 60.4585 115.341 60.896 116.203C61.3401 117.058 61.5588 118.082 61.5522 119.276V129H57.3164V120.031C57.323 119.09 57.0844 118.357 56.6005 117.834C56.1232 117.31 55.4537 117.048 54.592 117.048C54.0153 117.048 53.5049 117.171 53.0607 117.416C52.6232 117.661 52.2785 118.019 52.0266 118.49C51.7814 118.954 51.6554 119.514 51.6488 120.17ZM71.7862 129.298C70.2417 129.298 68.906 128.97 67.7791 128.314C66.6589 127.651 65.7938 126.73 65.1839 125.55C64.5741 124.363 64.2692 122.988 64.2692 121.423C64.2692 119.846 64.5741 118.467 65.1839 117.287C65.7938 116.1 66.6589 115.179 67.7791 114.523C68.906 113.86 70.2417 113.528 71.7862 113.528C73.3307 113.528 74.6631 113.86 75.7834 114.523C76.9103 115.179 77.7786 116.1 78.3885 117.287C78.9983 118.467 79.3033 119.846 79.3033 121.423C79.3033 122.988 78.9983 124.363 78.3885 125.55C77.7786 126.73 76.9103 127.651 75.7834 128.314C74.6631 128.97 73.3307 129.298 71.7862 129.298ZM71.8061 126.017C72.5088 126.017 73.0954 125.818 73.5661 125.42C74.0367 125.016 74.3913 124.466 74.63 123.77C74.8752 123.074 74.9979 122.282 74.9979 121.393C74.9979 120.505 74.8752 119.713 74.63 119.017C74.3913 118.321 74.0367 117.771 73.5661 117.366C73.0954 116.962 72.5088 116.76 71.8061 116.76C71.0968 116.76 70.5002 116.962 70.0163 117.366C69.5391 117.771 69.1778 118.321 68.9325 119.017C68.6939 119.713 68.5746 120.505 68.5746 121.393C68.5746 122.282 68.6939 123.074 68.9325 123.77C69.1778 124.466 69.5391 125.016 70.0163 125.42C70.5002 125.818 71.0968 126.017 71.8061 126.017ZM82.0575 134.727V113.727H86.2337V116.293H86.4226C86.6082 115.882 86.8767 115.464 87.228 115.04C87.5859 114.609 88.05 114.251 88.62 113.966C89.1967 113.674 89.9126 113.528 90.7678 113.528C91.8814 113.528 92.9089 113.82 93.8501 114.403C94.7914 114.98 95.5438 115.852 96.1072 117.018C96.6707 118.179 96.9524 119.634 96.9524 121.384C96.9524 123.087 96.6773 124.526 96.1271 125.699C95.5836 126.866 94.8411 127.75 93.8999 128.354C92.9652 128.95 91.9179 129.249 90.7578 129.249C89.9358 129.249 89.2365 129.113 88.6598 128.841C88.0897 128.569 87.6224 128.228 87.2578 127.817C86.8932 127.399 86.6148 126.978 86.4226 126.554H86.2933V134.727H82.0575ZM86.2038 121.364C86.2038 122.272 86.3298 123.064 86.5817 123.74C86.8336 124.416 87.1982 124.943 87.6754 125.321C88.1527 125.692 88.7327 125.878 89.4155 125.878C90.1049 125.878 90.6882 125.689 91.1655 125.311C91.6428 124.927 92.004 124.396 92.2493 123.72C92.5012 123.037 92.6271 122.252 92.6271 121.364C92.6271 120.482 92.5045 119.706 92.2592 119.037C92.014 118.367 91.6527 117.844 91.1754 117.466C90.6982 117.088 90.1115 116.899 89.4155 116.899C88.7261 116.899 88.1428 117.081 87.6655 117.446C87.1948 117.811 86.8336 118.328 86.5817 118.997C86.3298 119.667 86.2038 120.455 86.2038 121.364ZM99.7763 134.727V113.727H103.952V116.293H104.141C104.327 115.882 104.595 115.464 104.947 115.04C105.305 114.609 105.769 114.251 106.339 113.966C106.915 113.674 107.631 113.528 108.487 113.528C109.6 113.528 110.628 113.82 111.569 114.403C112.51 114.98 113.263 115.852 113.826 117.018C114.389 118.179 114.671 119.634 114.671 121.384C114.671 123.087 114.396 124.526 113.846 125.699C113.302 126.866 112.56 127.75 111.619 128.354C110.684 128.95 109.637 129.249 108.477 129.249C107.655 129.249 106.955 129.113 106.379 128.841C105.808 128.569 105.341 128.228 104.977 127.817C104.612 127.399 104.334 126.978 104.141 126.554H104.012V134.727H99.7763ZM103.923 121.364C103.923 122.272 104.049 123.064 104.3 123.74C104.552 124.416 104.917 124.943 105.394 125.321C105.871 125.692 106.451 125.878 107.134 125.878C107.824 125.878 108.407 125.689 108.884 125.311C109.362 124.927 109.723 124.396 109.968 123.72C110.22 123.037 110.346 122.252 110.346 121.364C110.346 120.482 110.223 119.706 109.978 119.037C109.733 118.367 109.371 117.844 108.894 117.466C108.417 117.088 107.83 116.899 107.134 116.899C106.445 116.899 105.862 117.081 105.384 117.446C104.914 117.811 104.552 118.328 104.3 118.997C104.049 119.667 103.923 120.455 103.923 121.364ZM117.495 129V113.727H121.731V129H117.495ZM119.623 111.759C118.993 111.759 118.453 111.55 118.002 111.132C117.558 110.708 117.336 110.201 117.336 109.611C117.336 109.027 117.558 108.527 118.002 108.109C118.453 107.685 118.993 107.473 119.623 107.473C120.253 107.473 120.79 107.685 121.234 108.109C121.684 108.527 121.91 109.027 121.91 109.611C121.91 110.201 121.684 110.708 121.234 111.132C120.79 111.55 120.253 111.759 119.623 111.759ZM129.36 120.17V129H125.124V113.727H129.161V116.422H129.34C129.678 115.534 130.245 114.831 131.04 114.314C131.836 113.79 132.8 113.528 133.934 113.528C134.994 113.528 135.919 113.76 136.708 114.224C137.497 114.688 138.11 115.351 138.547 116.213C138.985 117.068 139.203 118.089 139.203 119.276V129H134.968V120.031C134.974 119.097 134.736 118.367 134.252 117.844C133.768 117.313 133.102 117.048 132.253 117.048C131.683 117.048 131.179 117.171 130.742 117.416C130.311 117.661 129.973 118.019 129.728 118.49C129.489 118.954 129.366 119.514 129.36 120.17ZM149.423 135.045C148.05 135.045 146.874 134.857 145.893 134.479C144.918 134.107 144.143 133.6 143.566 132.957C142.989 132.314 142.615 131.592 142.442 130.79L146.36 130.263C146.479 130.568 146.668 130.853 146.927 131.118C147.185 131.383 147.527 131.595 147.951 131.754C148.382 131.92 148.906 132.003 149.522 132.003C150.443 132.003 151.202 131.777 151.799 131.327C152.402 130.883 152.704 130.137 152.704 129.089V126.295H152.525C152.339 126.72 152.061 127.121 151.69 127.499C151.318 127.876 150.841 128.185 150.258 128.423C149.674 128.662 148.978 128.781 148.17 128.781C147.023 128.781 145.979 128.516 145.038 127.986C144.103 127.449 143.357 126.63 142.8 125.53C142.25 124.423 141.975 123.024 141.975 121.334C141.975 119.604 142.257 118.159 142.82 116.999C143.384 115.839 144.133 114.97 145.067 114.393C146.009 113.817 147.04 113.528 148.16 113.528C149.015 113.528 149.731 113.674 150.308 113.966C150.884 114.251 151.348 114.609 151.7 115.04C152.058 115.464 152.333 115.882 152.525 116.293H152.684V113.727H156.89V129.149C156.89 130.448 156.572 131.536 155.935 132.411C155.299 133.286 154.417 133.942 153.29 134.379C152.17 134.823 150.881 135.045 149.423 135.045ZM149.512 125.599C150.195 125.599 150.772 125.43 151.242 125.092C151.719 124.748 152.084 124.257 152.336 123.621C152.594 122.978 152.724 122.209 152.724 121.314C152.724 120.419 152.598 119.643 152.346 118.987C152.094 118.324 151.729 117.811 151.252 117.446C150.775 117.081 150.195 116.899 149.512 116.899C148.816 116.899 148.229 117.088 147.752 117.466C147.275 117.837 146.914 118.354 146.668 119.017C146.423 119.68 146.3 120.446 146.3 121.314C146.3 122.196 146.423 122.958 146.668 123.601C146.92 124.237 147.281 124.731 147.752 125.082C148.229 125.427 148.816 125.599 149.512 125.599ZM173.701 129.298C172.13 129.298 170.778 128.98 169.645 128.344C168.518 127.701 167.649 126.793 167.039 125.619C166.43 124.439 166.125 123.044 166.125 121.433C166.125 119.862 166.43 118.483 167.039 117.297C167.649 116.11 168.508 115.186 169.615 114.523C170.728 113.86 172.034 113.528 173.532 113.528C174.54 113.528 175.478 113.691 176.346 114.016C177.221 114.334 177.984 114.814 178.633 115.457C179.289 116.1 179.8 116.909 180.164 117.884C180.529 118.851 180.711 119.985 180.711 121.284V122.447H167.815V119.822H176.724C176.724 119.213 176.592 118.672 176.326 118.202C176.061 117.731 175.693 117.363 175.223 117.098C174.759 116.826 174.218 116.69 173.602 116.69C172.959 116.69 172.389 116.839 171.892 117.138C171.401 117.429 171.017 117.824 170.738 118.321C170.46 118.812 170.317 119.358 170.311 119.962V122.457C170.311 123.213 170.45 123.866 170.728 124.416C171.013 124.966 171.414 125.391 171.931 125.689C172.449 125.987 173.062 126.136 173.771 126.136C174.242 126.136 174.672 126.07 175.064 125.938C175.455 125.805 175.789 125.606 176.068 125.341C176.346 125.076 176.558 124.751 176.704 124.366L180.622 124.625C180.423 125.566 180.015 126.388 179.399 127.091C178.789 127.787 178 128.33 177.032 128.722C176.071 129.106 174.961 129.298 173.701 129.298ZM187.831 129.288C186.856 129.288 185.988 129.119 185.225 128.781C184.463 128.437 183.86 127.929 183.416 127.26C182.978 126.584 182.76 125.742 182.76 124.734C182.76 123.886 182.915 123.173 183.227 122.597C183.538 122.02 183.963 121.556 184.5 121.205C185.037 120.853 185.646 120.588 186.329 120.409C187.019 120.23 187.741 120.104 188.497 120.031C189.385 119.938 190.101 119.852 190.645 119.773C191.188 119.687 191.583 119.561 191.828 119.395C192.073 119.229 192.196 118.984 192.196 118.659V118.599C192.196 117.97 191.997 117.482 191.599 117.138C191.208 116.793 190.651 116.621 189.929 116.621C189.166 116.621 188.56 116.79 188.109 117.128C187.658 117.459 187.36 117.877 187.214 118.381L183.297 118.062C183.495 117.134 183.886 116.332 184.47 115.656C185.053 114.973 185.806 114.45 186.727 114.085C187.655 113.714 188.729 113.528 189.949 113.528C190.797 113.528 191.609 113.628 192.385 113.827C193.167 114.026 193.859 114.334 194.463 114.751C195.073 115.169 195.553 115.706 195.904 116.362C196.256 117.012 196.431 117.791 196.431 118.699V129H192.414V126.882H192.295C192.05 127.359 191.722 127.78 191.311 128.145C190.9 128.503 190.406 128.785 189.829 128.99C189.252 129.189 188.586 129.288 187.831 129.288ZM189.044 126.365C189.667 126.365 190.217 126.242 190.694 125.997C191.172 125.745 191.546 125.407 191.818 124.983C192.09 124.559 192.225 124.078 192.225 123.541V121.92C192.093 122.007 191.911 122.086 191.679 122.159C191.453 122.225 191.198 122.288 190.913 122.348C190.628 122.401 190.343 122.451 190.058 122.497C189.773 122.537 189.514 122.573 189.282 122.607C188.785 122.679 188.351 122.795 187.98 122.955C187.609 123.114 187.32 123.329 187.115 123.601C186.909 123.866 186.806 124.197 186.806 124.595C186.806 125.172 187.015 125.613 187.433 125.918C187.857 126.216 188.394 126.365 189.044 126.365ZM212.425 118.082L208.547 118.321C208.481 117.99 208.338 117.691 208.12 117.426C207.901 117.154 207.613 116.939 207.255 116.78C206.903 116.614 206.482 116.531 205.992 116.531C205.336 116.531 204.782 116.67 204.331 116.949C203.881 117.221 203.655 117.585 203.655 118.043C203.655 118.407 203.801 118.715 204.093 118.967C204.384 119.219 204.885 119.421 205.594 119.574L208.358 120.131C209.843 120.436 210.95 120.926 211.679 121.602C212.408 122.278 212.773 123.167 212.773 124.267C212.773 125.268 212.478 126.146 211.888 126.902C211.305 127.658 210.503 128.248 209.482 128.672C208.468 129.089 207.298 129.298 205.972 129.298C203.95 129.298 202.339 128.877 201.14 128.036C199.946 127.187 199.247 126.034 199.042 124.575L203.208 124.357C203.334 124.973 203.639 125.444 204.123 125.768C204.606 126.087 205.226 126.246 205.982 126.246C206.724 126.246 207.321 126.103 207.772 125.818C208.229 125.527 208.461 125.152 208.468 124.695C208.461 124.31 208.299 123.995 207.98 123.75C207.662 123.498 207.172 123.306 206.509 123.173L203.864 122.646C202.373 122.348 201.262 121.831 200.533 121.095C199.81 120.359 199.449 119.421 199.449 118.281C199.449 117.3 199.714 116.455 200.245 115.746C200.782 115.036 201.534 114.49 202.502 114.105C203.476 113.721 204.616 113.528 205.922 113.528C207.851 113.528 209.369 113.936 210.476 114.751C211.59 115.567 212.239 116.677 212.425 118.082ZM218.055 134.727C217.518 134.727 217.015 134.684 216.544 134.598C216.08 134.518 215.696 134.416 215.391 134.29L216.345 131.128C216.842 131.28 217.29 131.363 217.688 131.376C218.092 131.39 218.44 131.297 218.732 131.098C219.03 130.899 219.272 130.561 219.457 130.084L219.706 129.438L214.227 113.727H218.682L221.844 124.943H222.003L225.195 113.727H229.679L223.743 130.651C223.458 131.473 223.07 132.188 222.58 132.798C222.096 133.415 221.482 133.889 220.74 134.22C219.998 134.558 219.103 134.727 218.055 134.727ZM241.34 129L237.184 113.727H241.469L243.836 123.989H243.975L246.441 113.727H250.647L253.152 123.929H253.282L255.608 113.727H259.884L255.738 129H251.253L248.628 119.395H248.439L245.814 129H241.34ZM262.143 129V113.727H266.379V129H262.143ZM264.271 111.759C263.642 111.759 263.101 111.55 262.651 111.132C262.206 110.708 261.984 110.201 261.984 109.611C261.984 109.027 262.206 108.527 262.651 108.109C263.101 107.685 263.642 107.473 264.271 107.473C264.901 107.473 265.438 107.685 265.882 108.109C266.333 108.527 266.558 109.027 266.558 109.611C266.558 110.201 266.333 110.708 265.882 111.132C265.438 111.55 264.901 111.759 264.271 111.759ZM277.896 113.727V116.909H268.699V113.727H277.896ZM270.787 110.068H275.022V124.307C275.022 124.698 275.082 125.003 275.201 125.222C275.321 125.434 275.486 125.583 275.699 125.669C275.917 125.755 276.169 125.798 276.454 125.798C276.653 125.798 276.852 125.782 277.051 125.749C277.25 125.709 277.402 125.679 277.508 125.659L278.174 128.811C277.962 128.877 277.664 128.954 277.279 129.04C276.895 129.133 276.428 129.189 275.877 129.209C274.857 129.249 273.962 129.113 273.193 128.801C272.431 128.49 271.837 128.006 271.413 127.349C270.989 126.693 270.78 125.865 270.787 124.864V110.068ZM285.219 120.17V129H280.983V108.636H285.1V116.422H285.279C285.623 115.52 286.18 114.814 286.949 114.304C287.718 113.787 288.683 113.528 289.843 113.528C290.903 113.528 291.828 113.76 292.617 114.224C293.412 114.682 294.029 115.341 294.466 116.203C294.91 117.058 295.129 118.082 295.123 119.276V129H290.887V120.031C290.893 119.09 290.655 118.357 290.171 117.834C289.694 117.31 289.024 117.048 288.162 117.048C287.586 117.048 287.075 117.171 286.631 117.416C286.194 117.661 285.849 118.019 285.597 118.49C285.352 118.954 285.226 119.514 285.219 120.17ZM314.73 122.497V113.727H318.966V129H314.9V126.226H314.74C314.396 127.121 313.822 127.84 313.02 128.384C312.225 128.927 311.254 129.199 310.107 129.199C309.086 129.199 308.188 128.967 307.412 128.503C306.637 128.039 306.03 127.379 305.593 126.524C305.162 125.669 304.943 124.645 304.936 123.452V113.727H309.172V122.696C309.179 123.598 309.421 124.31 309.898 124.834C310.375 125.357 311.015 125.619 311.817 125.619C312.328 125.619 312.805 125.503 313.249 125.271C313.693 125.033 314.051 124.681 314.323 124.217C314.601 123.753 314.737 123.18 314.73 122.497ZM335.062 118.082L331.184 118.321C331.118 117.99 330.975 117.691 330.756 117.426C330.538 117.154 330.249 116.939 329.891 116.78C329.54 116.614 329.119 116.531 328.629 116.531C327.972 116.531 327.419 116.67 326.968 116.949C326.517 117.221 326.292 117.585 326.292 118.043C326.292 118.407 326.438 118.715 326.729 118.967C327.021 119.219 327.522 119.421 328.231 119.574L330.995 120.131C332.48 120.436 333.587 120.926 334.316 121.602C335.045 122.278 335.41 123.167 335.41 124.267C335.41 125.268 335.115 126.146 334.525 126.902C333.942 127.658 333.139 128.248 332.119 128.672C331.104 129.089 329.934 129.298 328.609 129.298C326.587 129.298 324.976 128.877 323.776 128.036C322.583 127.187 321.884 126.034 321.678 124.575L325.844 124.357C325.97 124.973 326.275 125.444 326.759 125.768C327.243 126.087 327.863 126.246 328.619 126.246C329.361 126.246 329.958 126.103 330.408 125.818C330.866 125.527 331.098 125.152 331.104 124.695C331.098 124.31 330.935 123.995 330.617 123.75C330.299 123.498 329.808 123.306 329.146 123.173L326.501 122.646C325.009 122.348 323.899 121.831 323.17 121.095C322.447 120.359 322.086 119.421 322.086 118.281C322.086 117.3 322.351 116.455 322.881 115.746C323.418 115.036 324.171 114.49 325.138 114.105C326.113 113.721 327.253 113.528 328.559 113.528C330.488 113.528 332.006 113.936 333.113 114.751C334.227 115.567 334.876 116.677 335.062 118.082Z" fill="#333333"/>
<path d="M31.1449 165V155.545H36.8139V156.561H32.2898V159.756H36.3892V160.771H32.2898V165H31.1449ZM41.0795 165.148C40.3963 165.148 39.8069 164.997 39.3114 164.695C38.819 164.391 38.4389 163.966 38.1712 163.421C37.9065 162.873 37.7741 162.236 37.7741 161.51C37.7741 160.784 37.9065 160.143 38.1712 159.589C38.4389 159.032 38.8113 158.598 39.2884 158.288C39.7685 157.974 40.3286 157.817 40.9688 157.817C41.3381 157.817 41.7028 157.878 42.0629 158.001C42.4229 158.125 42.7507 158.325 43.0462 158.602C43.3416 158.875 43.5771 159.239 43.7525 159.691C43.9279 160.143 44.0156 160.701 44.0156 161.362V161.824H38.5497V160.882H42.9077C42.9077 160.482 42.8277 160.125 42.6676 159.811C42.5107 159.497 42.286 159.249 41.9936 159.068C41.7043 158.886 41.3627 158.795 40.9688 158.795C40.5348 158.795 40.1593 158.903 39.8423 159.119C39.5284 159.331 39.2868 159.608 39.1175 159.95C38.9483 160.291 38.8636 160.657 38.8636 161.048V161.676C38.8636 162.212 38.956 162.666 39.1406 163.038C39.3284 163.407 39.5884 163.689 39.9208 163.883C40.2532 164.074 40.6394 164.169 41.0795 164.169C41.3658 164.169 41.6243 164.129 41.8551 164.049C42.089 163.966 42.2906 163.843 42.4599 163.68C42.6291 163.513 42.7599 163.307 42.8523 163.061L43.9048 163.357C43.794 163.714 43.6078 164.027 43.3462 164.298C43.0846 164.566 42.7615 164.775 42.3768 164.926C41.9921 165.074 41.5597 165.148 41.0795 165.148ZM48.646 165.148C47.9627 165.148 47.3733 164.997 46.8778 164.695C46.3854 164.391 46.0053 163.966 45.7376 163.421C45.4729 162.873 45.3406 162.236 45.3406 161.51C45.3406 160.784 45.4729 160.143 45.7376 159.589C46.0053 159.032 46.3777 158.598 46.8548 158.288C47.3349 157.974 47.895 157.817 48.5352 157.817C48.9045 157.817 49.2692 157.878 49.6293 158.001C49.9893 158.125 50.3171 158.325 50.6126 158.602C50.908 158.875 51.1435 159.239 51.3189 159.691C51.4943 160.143 51.582 160.701 51.582 161.362V161.824H46.1161V160.882H50.4741C50.4741 160.482 50.3941 160.125 50.234 159.811C50.0771 159.497 49.8524 159.249 49.56 159.068C49.2707 158.886 48.9291 158.795 48.5352 158.795C48.1012 158.795 47.7257 158.903 47.4087 159.119C47.0948 159.331 46.8532 159.608 46.6839 159.95C46.5147 160.291 46.43 160.657 46.43 161.048V161.676C46.43 162.212 46.5224 162.666 46.707 163.038C46.8948 163.407 47.1548 163.689 47.4872 163.883C47.8196 164.074 48.2058 164.169 48.646 164.169C48.9322 164.169 49.1907 164.129 49.4215 164.049C49.6554 163.966 49.857 163.843 50.0263 163.68C50.1955 163.513 50.3263 163.307 50.4187 163.061L51.4712 163.357C51.3604 163.714 51.1742 164.027 50.9126 164.298C50.651 164.566 50.3279 164.775 49.9432 164.926C49.5585 165.074 49.1261 165.148 48.646 165.148ZM55.9169 165.148C55.326 165.148 54.8043 164.998 54.3519 164.7C53.8995 164.398 53.5456 163.974 53.2901 163.426C53.0347 162.875 52.907 162.224 52.907 161.473C52.907 160.728 53.0347 160.082 53.2901 159.534C53.5456 158.986 53.901 158.563 54.3565 158.265C54.812 157.966 55.3383 157.817 55.9354 157.817C56.397 157.817 56.7617 157.894 57.0295 158.048C57.3003 158.198 57.5065 158.371 57.6481 158.565C57.7927 158.755 57.9051 158.912 57.9851 159.036H58.0774V155.545H59.1669V165H58.1143V163.911H57.9851C57.9051 164.04 57.7912 164.203 57.6435 164.4C57.4957 164.594 57.2849 164.768 57.011 164.922C56.7371 165.072 56.3724 165.148 55.9169 165.148ZM56.0646 164.169C56.5017 164.169 56.871 164.055 57.1726 163.827C57.4742 163.597 57.7035 163.278 57.8604 162.872C58.0174 162.462 58.0959 161.99 58.0959 161.455C58.0959 160.925 58.0189 160.462 57.8651 160.065C57.7112 159.665 57.4834 159.354 57.1818 159.132C56.8802 158.908 56.5078 158.795 56.0646 158.795C55.603 158.795 55.2183 158.914 54.9105 159.151C54.6058 159.385 54.3765 159.703 54.2227 160.107C54.0719 160.507 53.9964 160.956 53.9964 161.455C53.9964 161.959 54.0734 162.418 54.2273 162.83C54.3842 163.24 54.6151 163.566 54.9197 163.809C55.2275 164.049 55.6091 164.169 56.0646 164.169ZM65.6715 167.659C65.4869 167.659 65.3222 167.644 65.1776 167.613C65.0329 167.585 64.9329 167.558 64.8775 167.53L65.1545 166.57C65.4192 166.637 65.6531 166.662 65.8562 166.643C66.0593 166.625 66.2393 166.534 66.3963 166.371C66.5563 166.211 66.7025 165.951 66.8349 165.591L67.038 165.037L64.4158 157.909H65.5977L67.555 163.56H67.6289L69.5863 157.909H70.7681L67.7582 166.034C67.6228 166.4 67.455 166.703 67.255 166.944C67.0549 167.187 66.8226 167.367 66.5579 167.484C66.2963 167.601 66.0008 167.659 65.6715 167.659ZM74.8329 165.148C74.1928 165.148 73.6311 164.995 73.1479 164.691C72.6678 164.386 72.2923 163.96 72.0215 163.412C71.7537 162.864 71.6199 162.224 71.6199 161.491C71.6199 160.753 71.7537 160.108 72.0215 159.557C72.2923 159.006 72.6678 158.578 73.1479 158.274C73.6311 157.969 74.1928 157.817 74.8329 157.817C75.4731 157.817 76.0332 157.969 76.5133 158.274C76.9965 158.578 77.372 159.006 77.6397 159.557C77.9106 160.108 78.046 160.753 78.046 161.491C78.046 162.224 77.9106 162.864 77.6397 163.412C77.372 163.96 76.9965 164.386 76.5133 164.691C76.0332 164.995 75.4731 165.148 74.8329 165.148ZM74.8329 164.169C75.3192 164.169 75.7193 164.044 76.0332 163.795C76.3471 163.546 76.5795 163.218 76.7303 162.812C76.8811 162.406 76.9565 161.965 76.9565 161.491C76.9565 161.018 76.8811 160.576 76.7303 160.167C76.5795 159.757 76.3471 159.426 76.0332 159.174C75.7193 158.922 75.3192 158.795 74.8329 158.795C74.3467 158.795 73.9466 158.922 73.6326 159.174C73.3187 159.426 73.0864 159.757 72.9355 160.167C72.7847 160.576 72.7093 161.018 72.7093 161.491C72.7093 161.965 72.7847 162.406 72.9355 162.812C73.0864 163.218 73.3187 163.546 73.6326 163.795C73.9466 164.044 74.3467 164.169 74.8329 164.169ZM84.1778 162.101V157.909H85.2673V165H84.1778V163.8H84.104C83.9378 164.16 83.6792 164.466 83.3284 164.718C82.9775 164.968 82.5344 165.092 81.9988 165.092C81.5557 165.092 81.1617 164.995 80.817 164.801C80.4723 164.605 80.2015 164.309 80.0045 163.915C79.8076 163.518 79.7091 163.018 79.7091 162.415V157.909H80.7986V162.341C80.7986 162.858 80.9432 163.27 81.2325 163.578C81.5249 163.886 81.8973 164.04 82.3497 164.04C82.6205 164.04 82.896 163.971 83.176 163.832C83.4592 163.694 83.6962 163.481 83.887 163.195C84.0809 162.909 84.1778 162.544 84.1778 162.101ZM87.2628 165V157.909H88.3153V158.98H88.3892C88.5185 158.629 88.7524 158.345 89.0909 158.126C89.4295 157.908 89.8111 157.798 90.2358 157.798C90.3158 157.798 90.4158 157.8 90.5359 157.803C90.6559 157.806 90.7467 157.811 90.8082 157.817V158.925C90.7713 158.915 90.6867 158.902 90.5543 158.883C90.4251 158.862 90.2881 158.851 90.1435 158.851C89.7988 158.851 89.491 158.923 89.2202 159.068C88.9524 159.209 88.7401 159.406 88.5831 159.659C88.4292 159.908 88.3523 160.193 88.3523 160.513V165H87.2628ZM98.9136 157.909V158.832H95.0912V157.909H98.9136ZM96.2361 165V156.93C96.2361 156.524 96.3315 156.186 96.5223 155.915C96.7131 155.644 96.9608 155.441 97.2655 155.305C97.5702 155.17 97.8918 155.102 98.2304 155.102C98.4981 155.102 98.7166 155.124 98.8859 155.167C99.0552 155.21 99.1814 155.25 99.2645 155.287L98.9506 156.229C98.8952 156.21 98.8182 156.187 98.7197 156.159C98.6243 156.132 98.4981 156.118 98.3412 156.118C97.9811 156.118 97.721 156.209 97.561 156.39C97.404 156.572 97.3256 156.838 97.3256 157.189V165H96.2361ZM102.324 165.166C101.875 165.166 101.467 165.082 101.101 164.912C100.734 164.74 100.444 164.492 100.228 164.169C100.013 163.843 99.905 163.449 99.905 162.987C99.905 162.581 99.985 162.252 100.145 161.999C100.305 161.744 100.519 161.544 100.787 161.399C101.055 161.254 101.35 161.147 101.673 161.076C101.999 161.002 102.327 160.944 102.656 160.901C103.087 160.845 103.437 160.804 103.704 160.776C103.975 160.745 104.172 160.694 104.295 160.624C104.421 160.553 104.485 160.43 104.485 160.254V160.217C104.485 159.762 104.36 159.408 104.111 159.156C103.864 158.903 103.49 158.777 102.989 158.777C102.469 158.777 102.061 158.891 101.765 159.119C101.47 159.346 101.262 159.589 101.142 159.848L100.108 159.479C100.293 159.048 100.539 158.712 100.847 158.472C101.158 158.229 101.496 158.06 101.862 157.964C102.232 157.866 102.595 157.817 102.952 157.817C103.18 157.817 103.441 157.844 103.737 157.9C104.035 157.952 104.323 158.061 104.6 158.228C104.88 158.394 105.112 158.645 105.297 158.98C105.482 159.316 105.574 159.765 105.574 160.328V165H104.485V164.04H104.429C104.355 164.194 104.232 164.358 104.06 164.534C103.887 164.709 103.658 164.858 103.372 164.982C103.086 165.105 102.736 165.166 102.324 165.166ZM102.49 164.188C102.921 164.188 103.284 164.103 103.58 163.934C103.878 163.764 104.103 163.546 104.254 163.278C104.408 163.01 104.485 162.729 104.485 162.433V161.436C104.438 161.491 104.337 161.542 104.18 161.588C104.026 161.632 103.847 161.67 103.644 161.704C103.444 161.735 103.249 161.762 103.058 161.787C102.87 161.808 102.718 161.827 102.601 161.842C102.318 161.879 102.053 161.939 101.807 162.022C101.564 162.102 101.367 162.224 101.216 162.387C101.068 162.547 100.994 162.766 100.994 163.043C100.994 163.421 101.135 163.707 101.415 163.901C101.698 164.092 102.056 164.188 102.49 164.188ZM107.563 165V157.909H108.615V159.017H108.707C108.855 158.638 109.094 158.345 109.423 158.135C109.752 157.923 110.148 157.817 110.609 157.817C111.077 157.817 111.467 157.923 111.777 158.135C112.091 158.345 112.336 158.638 112.511 159.017H112.585C112.767 158.651 113.039 158.36 113.402 158.145C113.766 157.926 114.201 157.817 114.709 157.817C115.343 157.817 115.861 158.015 116.265 158.412C116.668 158.806 116.869 159.42 116.869 160.254V165H115.78V160.254C115.78 159.731 115.637 159.357 115.351 159.132C115.064 158.908 114.727 158.795 114.34 158.795C113.841 158.795 113.455 158.946 113.181 159.248C112.907 159.546 112.77 159.925 112.77 160.384V165H111.662V160.143C111.662 159.74 111.531 159.416 111.27 159.169C111.008 158.92 110.671 158.795 110.259 158.795C109.975 158.795 109.711 158.871 109.465 159.022C109.221 159.172 109.024 159.382 108.874 159.65C108.726 159.914 108.652 160.22 108.652 160.568V165H107.563ZM118.861 165V157.909H119.951V165H118.861ZM119.415 156.727C119.203 156.727 119.02 156.655 118.866 156.51C118.715 156.366 118.64 156.192 118.64 155.989C118.64 155.786 118.715 155.612 118.866 155.467C119.02 155.322 119.203 155.25 119.415 155.25C119.628 155.25 119.809 155.322 119.96 155.467C120.114 155.612 120.191 155.786 120.191 155.989C120.191 156.192 120.114 156.366 119.96 156.51C119.809 156.655 119.628 156.727 119.415 156.727ZM123.036 155.545V165H121.946V155.545H123.036ZM125.733 167.659C125.548 167.659 125.384 167.644 125.239 167.613C125.094 167.585 124.994 167.558 124.939 167.53L125.216 166.57C125.481 166.637 125.715 166.662 125.918 166.643C126.121 166.625 126.301 166.534 126.458 166.371C126.618 166.211 126.764 165.951 126.896 165.591L127.1 165.037L124.477 157.909H125.659L127.617 163.56H127.69L129.648 157.909H130.83L127.82 166.034C127.684 166.4 127.517 166.703 127.316 166.944C127.116 167.187 126.884 167.367 126.619 167.484C126.358 167.601 126.062 167.659 125.733 167.659ZM139.008 157.909V158.832H135.333V157.909H139.008ZM136.404 156.21H137.494V162.969C137.494 163.277 137.538 163.507 137.627 163.661C137.72 163.812 137.837 163.914 137.978 163.966C138.123 164.015 138.275 164.04 138.435 164.04C138.555 164.04 138.654 164.034 138.731 164.021C138.808 164.006 138.869 163.994 138.915 163.984L139.137 164.963C139.063 164.991 138.96 165.018 138.828 165.046C138.695 165.077 138.528 165.092 138.324 165.092C138.017 165.092 137.715 165.026 137.42 164.894C137.127 164.761 136.884 164.56 136.69 164.289C136.499 164.018 136.404 163.677 136.404 163.264V156.21ZM141.888 160.734V165H140.799V155.545H141.888V159.017H141.981C142.147 158.651 142.396 158.36 142.729 158.145C143.064 157.926 143.51 157.817 144.067 157.817C144.551 157.817 144.974 157.914 145.337 158.108C145.7 158.298 145.982 158.592 146.182 158.989C146.385 159.383 146.486 159.885 146.486 160.494V165H145.397V160.568C145.397 160.005 145.251 159.569 144.958 159.262C144.669 158.951 144.267 158.795 143.753 158.795C143.396 158.795 143.076 158.871 142.793 159.022C142.513 159.172 142.292 159.393 142.128 159.682C141.968 159.971 141.888 160.322 141.888 160.734ZM151.453 165.148C150.769 165.148 150.18 164.997 149.684 164.695C149.192 164.391 148.812 163.966 148.544 163.421C148.28 162.873 148.147 162.236 148.147 161.51C148.147 160.784 148.28 160.143 148.544 159.589C148.812 159.032 149.184 158.598 149.661 158.288C150.142 157.974 150.702 157.817 151.342 157.817C151.711 157.817 152.076 157.878 152.436 158.001C152.796 158.125 153.124 158.325 153.419 158.602C153.715 158.875 153.95 159.239 154.126 159.691C154.301 160.143 154.389 160.701 154.389 161.362V161.824H148.923V160.882H153.281C153.281 160.482 153.201 160.125 153.041 159.811C152.884 159.497 152.659 159.249 152.367 159.068C152.077 158.886 151.736 158.795 151.342 158.795C150.908 158.795 150.532 158.903 150.215 159.119C149.901 159.331 149.66 159.608 149.491 159.95C149.321 160.291 149.237 160.657 149.237 161.048V161.676C149.237 162.212 149.329 162.666 149.514 163.038C149.701 163.407 149.961 163.689 150.294 163.883C150.626 164.074 151.012 164.169 151.453 164.169C151.739 164.169 151.997 164.129 152.228 164.049C152.462 163.966 152.664 163.843 152.833 163.68C153.002 163.513 153.133 163.307 153.225 163.061L154.278 163.357C154.167 163.714 153.981 164.027 153.719 164.298C153.458 164.566 153.135 164.775 152.75 164.926C152.365 165.074 151.933 165.148 151.453 165.148ZM159.85 165V155.545H160.939V159.036H161.032C161.112 158.912 161.223 158.755 161.364 158.565C161.509 158.371 161.715 158.198 161.983 158.048C162.254 157.894 162.62 157.817 163.081 157.817C163.679 157.817 164.205 157.966 164.66 158.265C165.116 158.563 165.471 158.986 165.727 159.534C165.982 160.082 166.11 160.728 166.11 161.473C166.11 162.224 165.982 162.875 165.727 163.426C165.471 163.974 165.117 164.398 164.665 164.7C164.213 164.998 163.691 165.148 163.1 165.148C162.644 165.148 162.28 165.072 162.006 164.922C161.732 164.768 161.521 164.594 161.373 164.4C161.226 164.203 161.112 164.04 161.032 163.911H160.903V165H159.85ZM160.921 161.455C160.921 161.99 160.999 162.462 161.156 162.872C161.313 163.278 161.543 163.597 161.844 163.827C162.146 164.055 162.515 164.169 162.952 164.169C163.408 164.169 163.788 164.049 164.093 163.809C164.4 163.566 164.631 163.24 164.785 162.83C164.942 162.418 165.02 161.959 165.02 161.455C165.02 160.956 164.943 160.507 164.79 160.107C164.639 159.703 164.41 159.385 164.102 159.151C163.797 158.914 163.414 158.795 162.952 158.795C162.509 158.795 162.137 158.908 161.835 159.132C161.533 159.354 161.306 159.665 161.152 160.065C160.998 160.462 160.921 160.925 160.921 161.455ZM170.749 165.148C170.066 165.148 169.477 164.997 168.981 164.695C168.489 164.391 168.109 163.966 167.841 163.421C167.576 162.873 167.444 162.236 167.444 161.51C167.444 160.784 167.576 160.143 167.841 159.589C168.109 159.032 168.481 158.598 168.958 158.288C169.438 157.974 169.999 157.817 170.639 157.817C171.008 157.817 171.373 157.878 171.733 158.001C172.093 158.125 172.421 158.325 172.716 158.602C173.012 158.875 173.247 159.239 173.422 159.691C173.598 160.143 173.686 160.701 173.686 161.362V161.824H168.22V160.882H172.578C172.578 160.482 172.498 160.125 172.338 159.811C172.181 159.497 171.956 159.249 171.664 159.068C171.374 158.886 171.033 158.795 170.639 158.795C170.205 158.795 169.829 158.903 169.512 159.119C169.198 159.331 168.957 159.608 168.787 159.95C168.618 160.291 168.534 160.657 168.534 161.048V161.676C168.534 162.212 168.626 162.666 168.811 163.038C168.998 163.407 169.258 163.689 169.591 163.883C169.923 164.074 170.309 164.169 170.749 164.169C171.036 164.169 171.294 164.129 171.525 164.049C171.759 163.966 171.961 163.843 172.13 163.68C172.299 163.513 172.43 163.307 172.522 163.061L173.575 163.357C173.464 163.714 173.278 164.027 173.016 164.298C172.755 164.566 172.431 164.775 172.047 164.926C171.662 165.074 171.23 165.148 170.749 165.148ZM180.366 159.497L179.387 159.774C179.325 159.611 179.235 159.453 179.115 159.299C178.998 159.142 178.838 159.012 178.634 158.911C178.431 158.809 178.171 158.759 177.854 158.759C177.42 158.759 177.059 158.859 176.769 159.059C176.483 159.256 176.34 159.506 176.34 159.811C176.34 160.082 176.439 160.296 176.635 160.453C176.832 160.61 177.14 160.741 177.559 160.845L178.611 161.104C179.245 161.258 179.718 161.493 180.029 161.81C180.339 162.124 180.495 162.529 180.495 163.024C180.495 163.43 180.378 163.794 180.144 164.114C179.913 164.434 179.59 164.686 179.175 164.871C178.759 165.055 178.276 165.148 177.725 165.148C177.002 165.148 176.403 164.991 175.929 164.677C175.455 164.363 175.155 163.904 175.029 163.301L176.063 163.043C176.162 163.424 176.348 163.71 176.622 163.901C176.899 164.092 177.26 164.188 177.706 164.188C178.214 164.188 178.617 164.08 178.916 163.864C179.218 163.646 179.368 163.384 179.368 163.08C179.368 162.833 179.282 162.627 179.11 162.461C178.938 162.292 178.673 162.165 178.316 162.082L177.134 161.805C176.485 161.652 176.008 161.413 175.703 161.09C175.401 160.764 175.251 160.356 175.251 159.866C175.251 159.466 175.363 159.112 175.588 158.805C175.815 158.497 176.125 158.255 176.515 158.08C176.909 157.904 177.356 157.817 177.854 157.817C178.556 157.817 179.107 157.971 179.507 158.278C179.91 158.586 180.196 158.992 180.366 159.497ZM185.219 157.909V158.832H181.544V157.909H185.219ZM182.615 156.21H183.704V162.969C183.704 163.277 183.749 163.507 183.838 163.661C183.931 163.812 184.048 163.914 184.189 163.966C184.334 164.015 184.486 164.04 184.646 164.04C184.766 164.04 184.865 164.034 184.942 164.021C185.019 164.006 185.08 163.994 185.126 163.984L185.348 164.963C185.274 164.991 185.171 165.018 185.039 165.046C184.906 165.077 184.739 165.092 184.535 165.092C184.228 165.092 183.926 165.026 183.631 164.894C183.338 164.761 183.095 164.56 182.901 164.289C182.71 164.018 182.615 163.677 182.615 163.264V156.21Z" fill="#333333"/>
<rect x="30" y="184" width="108.98" height="34" rx="17" fill="white"/>
<path d="M46.8386 198.783C46.8045 198.439 46.6582 198.172 46.3997 197.982C46.1412 197.791 45.7903 197.696 45.3471 197.696C45.046 197.696 44.7917 197.739 44.5843 197.824C44.377 197.906 44.2179 198.021 44.1071 198.169C43.9991 198.317 43.9451 198.484 43.9451 198.672C43.9395 198.828 43.9721 198.964 44.0431 199.081C44.117 199.197 44.2179 199.298 44.3457 199.384C44.4735 199.466 44.6213 199.538 44.7889 199.601C44.9565 199.661 45.1355 199.712 45.3258 199.754L46.1099 199.942C46.4906 200.027 46.84 200.141 47.1582 200.283C47.4764 200.425 47.752 200.599 47.9849 200.807C48.2179 201.014 48.3983 201.259 48.5261 201.54C48.6568 201.821 48.7235 202.143 48.7264 202.507C48.7235 203.041 48.5872 203.504 48.3173 203.896C48.0502 204.286 47.6639 204.588 47.1582 204.804C46.6554 205.017 46.0488 205.124 45.3386 205.124C44.6341 205.124 44.0204 205.016 43.4977 204.8C42.9778 204.584 42.5716 204.264 42.2789 203.841C41.9892 203.415 41.8372 202.888 41.823 202.26H43.6085C43.6284 202.553 43.7122 202.797 43.8599 202.993C44.0105 203.186 44.2108 203.332 44.4608 203.432C44.7136 203.528 44.9991 203.577 45.3173 203.577C45.6298 203.577 45.9011 203.531 46.1312 203.44C46.3642 203.349 46.5446 203.223 46.6724 203.061C46.8002 202.899 46.8642 202.713 46.8642 202.503C46.8642 202.307 46.8059 202.142 46.6895 202.009C46.5758 201.875 46.4082 201.761 46.1866 201.668C45.9679 201.574 45.6994 201.489 45.3812 201.412L44.4309 201.173C43.6951 200.994 43.1142 200.714 42.688 200.334C42.2619 199.953 42.0502 199.44 42.0531 198.795C42.0502 198.267 42.1909 197.805 42.475 197.411C42.7619 197.016 43.1554 196.707 43.6554 196.486C44.1554 196.264 44.7235 196.153 45.3599 196.153C46.0076 196.153 46.573 196.264 47.0559 196.486C47.5417 196.707 47.9196 197.016 48.1895 197.411C48.4593 197.805 48.5985 198.263 48.6071 198.783H46.8386ZM51.7488 201.216V205H49.9334V196.273H51.6976V199.609H51.7743C51.9221 199.223 52.1607 198.92 52.4902 198.702C52.8198 198.48 53.2331 198.369 53.7303 198.369C54.1848 198.369 54.5811 198.469 54.9192 198.668C55.2601 198.864 55.5243 199.146 55.7118 199.516C55.9022 199.882 55.9959 200.321 55.9931 200.832V205H54.1777V201.156C54.1806 200.753 54.0783 200.439 53.8709 200.214C53.6664 199.99 53.3794 199.878 53.0101 199.878C52.763 199.878 52.5442 199.93 52.3539 200.036C52.1664 200.141 52.0186 200.294 51.9107 200.496C51.8056 200.695 51.7516 200.935 51.7488 201.216ZM60.3791 205.128C59.7172 205.128 59.1447 204.987 58.6618 204.706C58.1816 204.422 57.8109 204.027 57.5495 203.521C57.2882 203.013 57.1575 202.423 57.1575 201.753C57.1575 201.077 57.2882 200.486 57.5495 199.98C57.8109 199.472 58.1816 199.077 58.6618 198.795C59.1447 198.511 59.7172 198.369 60.3791 198.369C61.041 198.369 61.612 198.511 62.0922 198.795C62.5751 199.077 62.9473 199.472 63.2086 199.98C63.47 200.486 63.6007 201.077 63.6007 201.753C63.6007 202.423 63.47 203.013 63.2086 203.521C62.9473 204.027 62.5751 204.422 62.0922 204.706C61.612 204.987 61.041 205.128 60.3791 205.128ZM60.3876 203.722C60.6887 203.722 60.9402 203.636 61.1419 203.466C61.3436 203.293 61.4956 203.057 61.5978 202.759C61.7029 202.46 61.7555 202.121 61.7555 201.74C61.7555 201.359 61.7029 201.02 61.5978 200.722C61.4956 200.423 61.3436 200.187 61.1419 200.014C60.9402 199.841 60.6887 199.754 60.3876 199.754C60.0836 199.754 59.8279 199.841 59.6206 200.014C59.416 200.187 59.2612 200.423 59.1561 200.722C59.0538 201.02 59.0027 201.359 59.0027 201.74C59.0027 202.121 59.0538 202.46 59.1561 202.759C59.2612 203.057 59.416 203.293 59.6206 203.466C59.8279 203.636 60.0836 203.722 60.3876 203.722ZM64.7811 207.455V198.455H66.5708V199.554H66.6518C66.7314 199.378 66.8464 199.199 66.997 199.017C67.1504 198.832 67.3493 198.679 67.5936 198.557C67.8407 198.432 68.1475 198.369 68.514 198.369C68.9913 198.369 69.4316 198.494 69.835 198.744C70.2385 198.991 70.5609 199.365 70.8024 199.865C71.0439 200.362 71.1646 200.986 71.1646 201.736C71.1646 202.466 71.0467 203.082 70.8109 203.585C70.5779 204.085 70.2598 204.464 69.8564 204.723C69.4558 204.979 69.0069 205.107 68.5098 205.107C68.1575 205.107 67.8578 205.048 67.6106 204.932C67.3663 204.815 67.166 204.669 67.0098 204.493C66.8535 204.314 66.7342 204.134 66.6518 203.952H66.5964V207.455H64.7811ZM66.5581 201.727C66.5581 202.116 66.612 202.456 66.72 202.746C66.8279 203.036 66.9842 203.261 67.1887 203.423C67.3933 203.582 67.6419 203.662 67.9345 203.662C68.2299 203.662 68.4799 203.581 68.6845 203.419C68.889 203.254 69.0439 203.027 69.149 202.737C69.2569 202.445 69.3109 202.108 69.3109 201.727C69.3109 201.349 69.2583 201.017 69.1532 200.73C69.0481 200.443 68.8933 200.219 68.6887 200.057C68.4842 199.895 68.2328 199.814 67.9345 199.814C67.639 199.814 67.389 199.892 67.1845 200.048C66.9828 200.205 66.8279 200.426 66.72 200.713C66.612 201 66.5581 201.338 66.5581 201.727ZM82.486 196.273V205H80.8922L77.0953 199.507H77.0314V205H75.1863V196.273H76.8056L80.5726 201.761H80.6493V196.273H82.486ZM86.9338 205.128C86.2718 205.128 85.6994 204.987 85.2164 204.706C84.7363 204.422 84.3656 204.027 84.1042 203.521C83.8429 203.013 83.7122 202.423 83.7122 201.753C83.7122 201.077 83.8429 200.486 84.1042 199.98C84.3656 199.472 84.7363 199.077 85.2164 198.795C85.6994 198.511 86.2718 198.369 86.9338 198.369C87.5957 198.369 88.1667 198.511 88.6468 198.795C89.1298 199.077 89.502 199.472 89.7633 199.98C90.0247 200.486 90.1554 201.077 90.1554 201.753C90.1554 202.423 90.0247 203.013 89.7633 203.521C89.502 204.027 89.1298 204.422 88.6468 204.706C88.1667 204.987 87.5957 205.128 86.9338 205.128ZM86.9423 203.722C87.2434 203.722 87.4949 203.636 87.6966 203.466C87.8983 203.293 88.0502 203.057 88.1525 202.759C88.2576 202.46 88.3102 202.121 88.3102 201.74C88.3102 201.359 88.2576 201.02 88.1525 200.722C88.0502 200.423 87.8983 200.187 87.6966 200.014C87.4949 199.841 87.2434 199.754 86.9423 199.754C86.6383 199.754 86.3826 199.841 86.1752 200.014C85.9707 200.187 85.8159 200.423 85.7108 200.722C85.6085 201.02 85.5574 201.359 85.5574 201.74C85.5574 202.121 85.6085 202.46 85.7108 202.759C85.8159 203.057 85.9707 203.293 86.1752 203.466C86.3826 203.636 86.6383 203.722 86.9423 203.722ZM92.4629 205L90.6816 198.455H92.5183L93.5325 202.852H93.5922L94.649 198.455H96.4515L97.5254 202.827H97.5808L98.5779 198.455H100.41L98.6333 205H96.7115L95.5865 200.884H95.5055L94.3805 205H92.4629Z" fill="#333333"/>
<g clip-path="url(#clip0_156_2902)">
<path d="M121.855 200.818C121.855 200.79 121.843 200.764 121.82 200.741C121.796 200.718 121.771 200.706 121.743 200.706L119.405 198.368C119.311 198.284 119.204 198.242 119.083 198.242C118.961 198.242 118.854 198.284 118.761 198.368C118.667 198.452 118.623 198.559 118.628 198.69C118.632 198.821 118.677 198.928 118.761 199.012L120.343 200.594H109.773C109.651 200.594 109.544 200.636 109.451 200.72C109.357 200.804 109.311 200.918 109.311 201.063C109.311 201.208 109.353 201.32 109.437 201.399C109.521 201.478 109.633 201.518 109.773 201.518H120.399L118.817 203.1C118.733 203.184 118.691 203.289 118.691 203.415C118.691 203.541 118.733 203.651 118.817 203.744C118.845 203.772 118.887 203.798 118.943 203.821C118.999 203.844 119.055 203.856 119.111 203.856C119.167 203.856 119.223 203.844 119.279 203.821C119.335 203.798 119.377 203.772 119.405 203.744L121.743 201.406C121.761 201.387 121.78 201.364 121.799 201.336C121.817 201.308 121.836 201.294 121.855 201.294C121.883 201.173 121.897 201.079 121.897 201.014C121.897 200.949 121.883 200.883 121.855 200.818Z" fill="#333333"/>
</g>
<defs>
<clipPath id="clip0_156_2902">
<rect width="14" height="14" fill="white" transform="matrix(1 0 0 -1 109.191 208)"/>
</clipPath>
</defs>
</svg>
