<svg width="648" height="360" viewBox="0 0 648 360" fill="none" xmlns="http://www.w3.org/2000/svg">
<rect width="648" height="360" rx="10" fill="#FAE7C8"/>
<path d="M44.8423 88.8182V99H43.3011V90.3594H43.2415L40.8054 91.9503V90.4787L43.3459 88.8182H44.8423ZM51.1413 99.169C50.3558 99.1657 49.6847 98.9586 49.1278 98.5476C48.571 98.1366 48.1451 97.5384 47.8501 96.7528C47.5552 95.9673 47.4077 95.0211 47.4077 93.9141C47.4077 92.8104 47.5552 91.8674 47.8501 91.0852C48.1484 90.303 48.576 89.7064 49.1328 89.2955C49.6929 88.8845 50.3625 88.679 51.1413 88.679C51.9202 88.679 52.5881 88.8861 53.1449 89.3004C53.7017 89.7114 54.1276 90.308 54.4226 91.0902C54.7209 91.8691 54.87 92.8104 54.87 93.9141C54.87 95.0244 54.7225 95.9723 54.4276 96.7578C54.1326 97.54 53.7067 98.1383 53.1499 98.5526C52.593 98.9635 51.9235 99.169 51.1413 99.169ZM51.1413 97.8416C51.8307 97.8416 52.3693 97.5052 52.7571 96.8324C53.1482 96.1596 53.3438 95.1868 53.3438 93.9141C53.3438 93.0689 53.2543 92.3546 53.0753 91.7713C52.8996 91.1847 52.6461 90.7405 52.3146 90.4389C51.9865 90.134 51.5954 89.9815 51.1413 89.9815C50.4553 89.9815 49.9167 90.3196 49.5256 90.9957C49.1345 91.6719 48.9373 92.6446 48.9339 93.9141C48.9339 94.7625 49.0218 95.4801 49.1974 96.0668C49.3764 96.6501 49.63 97.0926 49.9581 97.3942C50.2862 97.6925 50.6806 97.8416 51.1413 97.8416ZM60.1784 99.169C59.3929 99.1657 58.7218 98.9586 58.165 98.5476C57.6081 98.1366 57.1822 97.5384 56.8873 96.7528C56.5923 95.9673 56.4448 95.0211 56.4448 93.9141C56.4448 92.8104 56.5923 91.8674 56.8873 91.0852C57.1855 90.303 57.6131 89.7064 58.1699 89.2955C58.7301 88.8845 59.3996 88.679 60.1784 88.679C60.9573 88.679 61.6252 88.8861 62.182 89.3004C62.7388 89.7114 63.1647 90.308 63.4597 91.0902C63.758 91.8691 63.9071 92.8104 63.9071 93.9141C63.9071 95.0244 63.7596 95.9723 63.4647 96.7578C63.1697 97.54 62.7438 98.1383 62.187 98.5526C61.6301 98.9635 60.9606 99.169 60.1784 99.169ZM60.1784 97.8416C60.8678 97.8416 61.4064 97.5052 61.7942 96.8324C62.1853 96.1596 62.3809 95.1868 62.3809 93.9141C62.3809 93.0689 62.2914 92.3546 62.1124 91.7713C61.9367 91.1847 61.6832 90.7405 61.3517 90.4389C61.0236 90.134 60.6325 89.9815 60.1784 89.9815C59.4924 89.9815 58.9538 90.3196 58.5627 90.9957C58.1716 91.6719 57.9744 92.6446 57.9711 93.9141C57.9711 94.7625 58.0589 95.4801 58.2346 96.0668C58.4135 96.6501 58.6671 97.0926 58.9952 97.3942C59.3233 97.6925 59.7177 97.8416 60.1784 97.8416ZM70.9854 97.0909V96.554C70.9854 96.1695 71.065 95.8182 71.2241 95.5C71.3865 95.1785 71.6218 94.9216 71.93 94.7294C72.2416 94.5339 72.6178 94.4361 73.0586 94.4361C73.5094 94.4361 73.8872 94.5322 74.1921 94.7244C74.497 94.9167 74.7274 95.1735 74.8832 95.495C75.0423 95.8165 75.1218 96.1695 75.1218 96.554V97.0909C75.1218 97.4754 75.0423 97.8284 74.8832 98.1499C74.7241 98.468 74.4904 98.7249 74.1822 98.9205C73.8772 99.1127 73.5027 99.2088 73.0586 99.2088C72.6112 99.2088 72.2333 99.1127 71.9251 98.9205C71.6168 98.7249 71.3832 98.468 71.2241 98.1499C71.065 97.8284 70.9854 97.4754 70.9854 97.0909ZM72.1438 96.554V97.0909C72.1438 97.3759 72.2118 97.6345 72.3477 97.8665C72.4835 98.0985 72.7205 98.2145 73.0586 98.2145C73.3933 98.2145 73.627 98.0985 73.7596 97.8665C73.8922 97.6345 73.9585 97.3759 73.9585 97.0909V96.554C73.9585 96.2689 73.8938 96.0104 73.7646 95.7784C73.6386 95.5464 73.4033 95.4304 73.0586 95.4304C72.7272 95.4304 72.4918 95.5464 72.3526 95.7784C72.2134 96.0104 72.1438 96.2689 72.1438 96.554ZM65.8647 91.2642V90.7273C65.8647 90.3428 65.9442 89.9898 66.1033 89.6683C66.2657 89.3468 66.5011 89.09 66.8093 88.8977C67.1209 88.7055 67.497 88.6094 67.9379 88.6094C68.3886 88.6094 68.7665 88.7055 69.0714 88.8977C69.3763 89.09 69.6067 89.3468 69.7624 89.6683C69.9182 89.9898 69.9961 90.3428 69.9961 90.7273V91.2642C69.9961 91.6487 69.9165 92.0017 69.7575 92.3232C69.6017 92.6413 69.3697 92.8982 69.0614 93.0938C68.7565 93.286 68.382 93.3821 67.9379 93.3821C67.4871 93.3821 67.1076 93.286 66.7994 93.0938C66.4944 92.8982 66.2624 92.6413 66.1033 92.3232C65.9442 92.0017 65.8647 91.6487 65.8647 91.2642ZM67.0281 90.7273V91.2642C67.0281 91.5492 67.0943 91.8078 67.2269 92.0398C67.3628 92.2718 67.5998 92.3878 67.9379 92.3878C68.2693 92.3878 68.5013 92.2718 68.6339 92.0398C68.7698 91.8078 68.8377 91.5492 68.8377 91.2642V90.7273C68.8377 90.4422 68.7731 90.1837 68.6438 89.9517C68.5146 89.7197 68.2792 89.6037 67.9379 89.6037C67.6064 89.6037 67.3711 89.7197 67.2319 89.9517C67.096 90.1837 67.0281 90.4422 67.0281 90.7273ZM66.337 99L73.337 88.8182H74.5252L67.5252 99H66.337ZM89.9533 93.9091C89.9533 94.9962 89.7544 95.9309 89.3567 96.7131C88.959 97.492 88.4138 98.0919 87.7211 98.5128C87.0317 98.9304 86.2478 99.1392 85.3695 99.1392C84.4879 99.1392 83.7007 98.9304 83.008 98.5128C82.3186 98.0919 81.775 97.4903 81.3773 96.7081C80.9796 95.9259 80.7807 94.9929 80.7807 93.9091C80.7807 92.822 80.9796 91.889 81.3773 91.1101C81.775 90.3279 82.3186 89.728 83.008 89.3104C83.7007 88.8894 84.4879 88.679 85.3695 88.679C86.2478 88.679 87.0317 88.8894 87.7211 89.3104C88.4138 89.728 88.959 90.3279 89.3567 91.1101C89.7544 91.889 89.9533 92.822 89.9533 93.9091ZM88.432 93.9091C88.432 93.0805 88.2978 92.3828 88.0293 91.8161C87.7641 91.246 87.3996 90.8151 86.9355 90.5234C86.4748 90.2285 85.9528 90.081 85.3695 90.081C84.7828 90.081 84.2592 90.2285 83.7985 90.5234C83.3378 90.8151 82.9732 91.246 82.7047 91.8161C82.4396 92.3828 82.307 93.0805 82.307 93.9091C82.307 94.7377 82.4396 95.437 82.7047 96.0071C82.9732 96.5739 83.3378 97.0047 83.7985 97.2997C84.2592 97.5914 84.7828 97.7372 85.3695 97.7372C85.9528 97.7372 86.4748 97.5914 86.9355 97.2997C87.3996 97.0047 87.7641 96.5739 88.0293 96.0071C88.2978 95.437 88.432 94.7377 88.432 93.9091ZM91.8686 99V88.8182H95.4979C96.2867 88.8182 96.9413 88.9541 97.4616 89.2259C97.9853 89.4976 98.3764 89.8738 98.6349 90.3544C98.8935 90.8317 99.0227 91.3835 99.0227 92.0099C99.0227 92.633 98.8918 93.1816 98.63 93.6555C98.3714 94.1262 97.9804 94.4924 97.4567 94.7543C96.9363 95.0161 96.2817 95.147 95.4929 95.147H92.7436V93.8246H95.3537C95.8509 93.8246 96.2552 93.7533 96.5668 93.6108C96.8816 93.4683 97.112 93.2611 97.2578 92.9893C97.4036 92.7176 97.4766 92.3911 97.4766 92.0099C97.4766 91.6255 97.402 91.2924 97.2528 91.0107C97.107 90.7289 96.8767 90.5135 96.5618 90.3643C96.2502 90.2119 95.8409 90.1357 95.3338 90.1357H93.4048V99H91.8686ZM96.8949 94.4062L99.4105 99H97.6605L95.1946 94.4062H96.8949ZM107.783 92.0348C107.687 91.7332 107.557 91.4631 107.395 91.2244C107.236 90.9825 107.045 90.777 106.823 90.608C106.601 90.4356 106.348 90.3047 106.062 90.2152C105.781 90.1257 105.471 90.081 105.133 90.081C104.559 90.081 104.042 90.2285 103.582 90.5234C103.121 90.8184 102.756 91.2509 102.488 91.821C102.223 92.3878 102.09 93.0821 102.09 93.9041C102.09 94.7294 102.224 95.4271 102.493 95.9972C102.761 96.5672 103.129 96.9998 103.597 97.2947C104.064 97.5897 104.596 97.7372 105.192 97.7372C105.746 97.7372 106.228 97.6245 106.639 97.3991C107.054 97.1738 107.373 96.8556 107.599 96.4446C107.827 96.0303 107.942 95.5431 107.942 94.983L108.339 95.0575H105.426V93.7898H109.428V94.9482C109.428 95.8033 109.246 96.5457 108.881 97.1754C108.52 97.8018 108.02 98.2857 107.38 98.6271C106.744 98.9685 106.014 99.1392 105.192 99.1392C104.271 99.1392 103.462 98.9271 102.766 98.5028C102.074 98.0786 101.533 97.477 101.146 96.6982C100.758 95.916 100.564 94.9879 100.564 93.9141C100.564 93.102 100.677 92.3729 100.902 91.7266C101.127 91.0803 101.444 90.5317 101.852 90.081C102.263 89.6269 102.745 89.2805 103.298 89.0419C103.855 88.8 104.463 88.679 105.123 88.679C105.673 88.679 106.185 88.7602 106.659 88.9226C107.136 89.085 107.561 89.3153 107.932 89.6136C108.306 89.9119 108.616 90.2666 108.862 90.6776C109.107 91.0852 109.272 91.5376 109.359 92.0348H107.783ZM111.924 99H110.293L113.957 88.8182H115.732L119.396 99H117.766L114.887 90.6676H114.808L111.924 99ZM112.197 95.0128H117.487V96.3054H112.197V95.0128ZM129.085 88.8182V99H127.673L122.497 91.5327H122.403V99H120.867V88.8182H122.289L127.469 96.2955H127.563V88.8182H129.085ZM132.862 88.8182V99H131.326V88.8182H132.862ZM143.556 92.1293H142.005C141.945 91.7978 141.834 91.5062 141.672 91.2543C141.509 91.0024 141.31 90.7886 141.075 90.6129C140.84 90.4373 140.576 90.3047 140.284 90.2152C139.996 90.1257 139.69 90.081 139.365 90.081C138.778 90.081 138.253 90.2285 137.789 90.5234C137.328 90.8184 136.963 91.2509 136.695 91.821C136.43 92.3911 136.297 93.0871 136.297 93.9091C136.297 94.7377 136.43 95.437 136.695 96.0071C136.963 96.5772 137.33 97.008 137.794 97.2997C138.258 97.5914 138.78 97.7372 139.36 97.7372C139.681 97.7372 139.986 97.6941 140.275 97.608C140.566 97.5185 140.83 97.3875 141.065 97.2152C141.3 97.0429 141.499 96.8324 141.662 96.5838C141.827 96.3319 141.942 96.0436 142.005 95.7188L143.556 95.7237C143.473 96.2242 143.312 96.6849 143.074 97.1058C142.838 97.5234 142.535 97.8847 142.164 98.1896C141.796 98.4912 141.375 98.7249 140.901 98.8906C140.427 99.0563 139.91 99.1392 139.35 99.1392C138.468 99.1392 137.683 98.9304 136.993 98.5128C136.304 98.0919 135.76 97.4903 135.363 96.7081C134.968 95.9259 134.771 94.9929 134.771 93.9091C134.771 92.822 134.97 91.889 135.368 91.1101C135.765 90.3279 136.309 89.728 136.998 89.3104C137.688 88.8894 138.471 88.679 139.35 88.679C139.89 88.679 140.394 88.7569 140.861 88.9126C141.332 89.0651 141.754 89.2905 142.129 89.5888C142.503 89.8838 142.813 90.245 143.059 90.6726C143.304 91.0968 143.47 91.5824 143.556 92.1293Z" fill="#333333"/>
<path d="M42.5824 148V121.818H59.3551V125.794H47.3253V132.902H58.2045V136.878H47.3253V148H42.5824ZM63.1903 148V128.364H67.6776V131.636H67.8821C68.2401 130.503 68.8537 129.629 69.723 129.016C70.6009 128.393 71.6023 128.082 72.7273 128.082C72.983 128.082 73.2685 128.095 73.5838 128.121C73.9077 128.138 74.1761 128.168 74.3892 128.21V132.467C74.1932 132.399 73.8821 132.339 73.456 132.288C73.0384 132.229 72.6335 132.199 72.2415 132.199C71.3977 132.199 70.6392 132.382 69.9659 132.749C69.3011 133.107 68.777 133.605 68.3935 134.244C68.0099 134.884 67.8182 135.621 67.8182 136.456V148H63.1903ZM89.9794 139.741V128.364H94.6072V148H90.12V144.51H89.9155C89.4723 145.609 88.7436 146.509 87.7294 147.207C86.7237 147.906 85.4837 148.256 84.0092 148.256C82.7223 148.256 81.5845 147.97 80.5959 147.399C79.6158 146.82 78.8487 145.98 78.2947 144.881C77.7408 143.773 77.4638 142.435 77.4638 140.866V128.364H82.0916V140.151C82.0916 141.395 82.4325 142.384 83.1143 143.116C83.7962 143.849 84.6911 144.216 85.799 144.216C86.4808 144.216 87.1413 144.05 87.7805 143.717C88.4197 143.385 88.9439 142.891 89.353 142.234C89.7706 141.57 89.9794 140.739 89.9794 139.741ZM99.3661 148V128.364H103.994V148H99.3661ZM101.693 125.577C100.96 125.577 100.329 125.334 99.8008 124.848C99.2724 124.354 99.0082 123.761 99.0082 123.071C99.0082 122.372 99.2724 121.78 99.8008 121.294C100.329 120.8 100.96 120.553 101.693 120.553C102.434 120.553 103.065 120.8 103.585 121.294C104.113 121.78 104.377 122.372 104.377 123.071C104.377 123.761 104.113 124.354 103.585 124.848C103.065 125.334 102.434 125.577 101.693 125.577ZM118.558 128.364V131.943H107.27V128.364H118.558ZM110.057 123.659H114.685V142.094C114.685 142.716 114.778 143.193 114.966 143.526C115.162 143.849 115.418 144.071 115.733 144.19C116.048 144.31 116.398 144.369 116.781 144.369C117.071 144.369 117.335 144.348 117.574 144.305C117.821 144.263 118.009 144.224 118.136 144.19L118.916 147.808C118.669 147.893 118.315 147.987 117.855 148.089C117.403 148.192 116.849 148.251 116.193 148.268C115.034 148.303 113.99 148.128 113.061 147.744C112.132 147.352 111.395 146.747 110.849 145.929C110.313 145.111 110.048 144.088 110.057 142.861V123.659ZM139.182 148.384C137.392 148.384 135.854 148.06 134.567 147.412C133.28 146.764 132.287 145.891 131.588 144.791C130.898 143.683 130.553 142.435 130.553 141.045C130.553 139.997 130.766 139.068 131.192 138.259C131.627 137.449 132.223 136.699 132.982 136.009C133.749 135.318 134.635 134.632 135.641 133.95L140.282 130.793C140.963 130.349 141.479 129.881 141.828 129.386C142.186 128.892 142.365 128.312 142.365 127.648C142.365 127.085 142.127 126.553 141.65 126.05C141.181 125.547 140.533 125.295 139.706 125.295C139.152 125.295 138.662 125.428 138.236 125.692C137.819 125.947 137.49 126.284 137.252 126.702C137.022 127.119 136.907 127.562 136.907 128.031C136.907 128.602 137.064 129.182 137.38 129.77C137.703 130.358 138.121 130.967 138.632 131.598C139.152 132.229 139.706 132.898 140.294 133.605L152.58 148H147.569L137.367 136.315C136.608 135.429 135.875 134.555 135.168 133.695C134.469 132.834 133.894 131.939 133.442 131.01C132.999 130.072 132.777 129.058 132.777 127.967C132.777 126.732 133.063 125.628 133.634 124.656C134.205 123.676 135.002 122.905 136.025 122.342C137.056 121.78 138.262 121.499 139.642 121.499C141.023 121.499 142.208 121.771 143.196 122.317C144.185 122.862 144.948 123.587 145.485 124.49C146.022 125.393 146.29 126.378 146.29 127.443C146.29 128.679 145.983 129.787 145.37 130.767C144.756 131.739 143.904 132.621 142.813 133.413L137.52 137.287C136.651 137.918 136.029 138.557 135.654 139.205C135.279 139.844 135.091 140.389 135.091 140.841C135.091 141.531 135.266 142.158 135.615 142.72C135.965 143.283 136.455 143.734 137.086 144.075C137.725 144.408 138.471 144.574 139.323 144.574C140.26 144.574 141.185 144.365 142.097 143.947C143.009 143.521 143.84 142.916 144.59 142.132C145.34 141.348 145.936 140.411 146.38 139.32C146.823 138.22 147.044 137.001 147.044 135.663H151.02C151.02 137.317 150.837 138.757 150.471 139.984C150.104 141.203 149.631 142.234 149.051 143.078C148.472 143.913 147.858 144.582 147.211 145.085C147.006 145.23 146.81 145.375 146.623 145.52C146.435 145.665 146.239 145.81 146.034 145.955C145.114 146.79 144.036 147.403 142.8 147.795C141.573 148.188 140.367 148.384 139.182 148.384ZM167.866 121.818L174.68 142.426H174.949L181.75 121.818H186.966L177.736 148H171.881L162.663 121.818H167.866ZM196.794 148.384C194.825 148.384 193.125 147.974 191.693 147.156C190.27 146.33 189.174 145.162 188.407 143.653C187.64 142.136 187.257 140.351 187.257 138.297C187.257 136.277 187.64 134.504 188.407 132.979C189.183 131.445 190.265 130.251 191.654 129.399C193.044 128.538 194.676 128.108 196.551 128.108C197.761 128.108 198.903 128.304 199.977 128.696C201.059 129.08 202.014 129.676 202.841 130.486C203.676 131.295 204.332 132.327 204.809 133.58C205.287 134.824 205.525 136.307 205.525 138.028V139.447H189.43V136.328H201.089C201.081 135.442 200.889 134.653 200.514 133.963C200.139 133.264 199.615 132.714 198.941 132.314C198.277 131.913 197.501 131.713 196.615 131.713C195.669 131.713 194.838 131.943 194.122 132.403C193.406 132.855 192.848 133.452 192.447 134.193C192.055 134.926 191.855 135.732 191.846 136.609V139.332C191.846 140.474 192.055 141.455 192.473 142.273C192.89 143.082 193.474 143.705 194.224 144.139C194.974 144.565 195.852 144.778 196.858 144.778C197.531 144.778 198.14 144.685 198.686 144.497C199.231 144.301 199.704 144.016 200.105 143.641C200.505 143.266 200.808 142.801 201.012 142.247L205.333 142.733C205.061 143.875 204.541 144.872 203.774 145.724C203.015 146.568 202.044 147.224 200.859 147.693C199.674 148.153 198.319 148.384 196.794 148.384ZM217.98 155.773C216.318 155.773 214.891 155.547 213.697 155.095C212.504 154.652 211.545 154.055 210.821 153.305C210.097 152.555 209.594 151.724 209.312 150.812L213.48 149.803C213.668 150.186 213.94 150.565 214.298 150.94C214.656 151.324 215.138 151.639 215.743 151.886C216.357 152.142 217.128 152.27 218.057 152.27C219.369 152.27 220.456 151.95 221.317 151.311C222.178 150.68 222.608 149.641 222.608 148.192V144.472H222.378C222.139 144.949 221.79 145.439 221.33 145.942C220.878 146.445 220.277 146.866 219.527 147.207C218.786 147.548 217.852 147.719 216.727 147.719C215.219 147.719 213.851 147.365 212.624 146.658C211.405 145.942 210.433 144.876 209.709 143.462C208.993 142.038 208.635 140.257 208.635 138.118C208.635 135.962 208.993 134.142 209.709 132.659C210.433 131.168 211.409 130.038 212.636 129.271C213.864 128.496 215.232 128.108 216.74 128.108C217.891 128.108 218.837 128.304 219.578 128.696C220.328 129.08 220.925 129.544 221.368 130.089C221.811 130.626 222.148 131.134 222.378 131.611H222.634V128.364H227.197V148.32C227.197 149.999 226.797 151.388 225.996 152.487C225.195 153.587 224.099 154.409 222.71 154.955C221.321 155.5 219.744 155.773 217.98 155.773ZM218.018 144.088C218.999 144.088 219.834 143.849 220.524 143.372C221.214 142.895 221.739 142.209 222.097 141.314C222.455 140.419 222.634 139.345 222.634 138.092C222.634 136.857 222.455 135.774 222.097 134.845C221.747 133.916 221.227 133.196 220.537 132.685C219.855 132.165 219.016 131.905 218.018 131.905C216.987 131.905 216.126 132.173 215.436 132.71C214.746 133.247 214.226 133.984 213.876 134.922C213.527 135.851 213.352 136.908 213.352 138.092C213.352 139.294 213.527 140.347 213.876 141.25C214.234 142.145 214.759 142.844 215.449 143.347C216.148 143.841 217.004 144.088 218.018 144.088ZM240.634 148.384C238.665 148.384 236.964 147.974 235.533 147.156C234.109 146.33 233.014 145.162 232.247 143.653C231.48 142.136 231.097 140.351 231.097 138.297C231.097 136.277 231.48 134.504 232.247 132.979C233.023 131.445 234.105 130.251 235.494 129.399C236.884 128.538 238.516 128.108 240.391 128.108C241.601 128.108 242.743 128.304 243.817 128.696C244.899 129.08 245.854 129.676 246.68 130.486C247.516 131.295 248.172 132.327 248.649 133.58C249.126 134.824 249.365 136.307 249.365 138.028V139.447H233.27V136.328H244.929C244.92 135.442 244.729 134.653 244.354 133.963C243.979 133.264 243.455 132.714 242.781 132.314C242.116 131.913 241.341 131.713 240.455 131.713C239.509 131.713 238.678 131.943 237.962 132.403C237.246 132.855 236.688 133.452 236.287 134.193C235.895 134.926 235.695 135.732 235.686 136.609V139.332C235.686 140.474 235.895 141.455 236.312 142.273C236.73 143.082 237.314 143.705 238.064 144.139C238.814 144.565 239.692 144.778 240.697 144.778C241.371 144.778 241.98 144.685 242.526 144.497C243.071 144.301 243.544 144.016 243.945 143.641C244.345 143.266 244.648 142.801 244.852 142.247L249.173 142.733C248.901 143.875 248.381 144.872 247.614 145.724C246.855 146.568 245.884 147.224 244.699 147.693C243.514 148.153 242.159 148.384 240.634 148.384ZM263.086 128.364V131.943H251.797V128.364H263.086ZM254.584 123.659H259.212V142.094C259.212 142.716 259.306 143.193 259.493 143.526C259.689 143.849 259.945 144.071 260.26 144.19C260.576 144.31 260.925 144.369 261.309 144.369C261.598 144.369 261.863 144.348 262.101 144.305C262.348 144.263 262.536 144.224 262.664 144.19L263.444 147.808C263.196 147.893 262.843 147.987 262.382 148.089C261.931 148.192 261.377 148.251 260.721 148.268C259.561 148.303 258.517 148.128 257.588 147.744C256.659 147.352 255.922 146.747 255.377 145.929C254.84 145.111 254.576 144.088 254.584 142.861V123.659ZM272.607 148.396C271.362 148.396 270.241 148.175 269.244 147.732C268.256 147.28 267.472 146.615 266.892 145.737C266.321 144.859 266.036 143.777 266.036 142.49C266.036 141.382 266.24 140.466 266.649 139.741C267.058 139.017 267.616 138.438 268.324 138.003C269.031 137.568 269.828 137.24 270.714 137.018C271.609 136.788 272.534 136.622 273.489 136.52C274.639 136.401 275.572 136.294 276.288 136.2C277.004 136.098 277.524 135.945 277.848 135.74C278.18 135.527 278.347 135.199 278.347 134.756V134.679C278.347 133.716 278.061 132.97 277.49 132.442C276.919 131.913 276.097 131.649 275.023 131.649C273.889 131.649 272.99 131.896 272.325 132.391C271.669 132.885 271.226 133.469 270.996 134.142L266.675 133.528C267.016 132.335 267.578 131.338 268.362 130.537C269.146 129.727 270.105 129.122 271.239 128.722C272.372 128.312 273.625 128.108 274.997 128.108C275.943 128.108 276.885 128.219 277.822 128.44C278.76 128.662 279.616 129.028 280.392 129.54C281.168 130.043 281.79 130.729 282.259 131.598C282.736 132.467 282.974 133.554 282.974 134.858V148H278.526V145.303H278.372C278.091 145.848 277.695 146.359 277.183 146.837C276.68 147.305 276.045 147.685 275.278 147.974C274.52 148.256 273.629 148.396 272.607 148.396ZM273.808 144.996C274.737 144.996 275.543 144.812 276.224 144.446C276.906 144.071 277.43 143.577 277.797 142.963C278.172 142.349 278.359 141.68 278.359 140.956V138.642C278.214 138.761 277.967 138.872 277.618 138.974C277.277 139.077 276.893 139.166 276.467 139.243C276.041 139.32 275.619 139.388 275.202 139.447C274.784 139.507 274.422 139.558 274.115 139.601C273.425 139.695 272.807 139.848 272.261 140.061C271.716 140.274 271.286 140.572 270.97 140.956C270.655 141.331 270.497 141.817 270.497 142.413C270.497 143.266 270.808 143.909 271.43 144.344C272.053 144.778 272.845 144.996 273.808 144.996ZM287.832 148V121.818H292.46V131.611H292.652C292.891 131.134 293.227 130.626 293.662 130.089C294.097 129.544 294.685 129.08 295.426 128.696C296.168 128.304 297.114 128.108 298.264 128.108C299.781 128.108 301.149 128.496 302.368 129.271C303.595 130.038 304.567 131.176 305.283 132.685C306.007 134.185 306.369 136.026 306.369 138.207C306.369 140.364 306.016 142.196 305.308 143.705C304.601 145.213 303.638 146.364 302.419 147.156C301.2 147.949 299.82 148.345 298.277 148.345C297.152 148.345 296.219 148.158 295.477 147.783C294.736 147.408 294.139 146.956 293.688 146.428C293.244 145.891 292.899 145.384 292.652 144.906H292.384V148H287.832ZM292.371 138.182C292.371 139.452 292.55 140.564 292.908 141.518C293.274 142.473 293.798 143.219 294.48 143.756C295.17 144.284 296.006 144.548 296.986 144.548C298.009 144.548 298.865 144.276 299.555 143.73C300.246 143.176 300.766 142.422 301.115 141.467C301.473 140.504 301.652 139.409 301.652 138.182C301.652 136.963 301.477 135.881 301.128 134.935C300.778 133.989 300.259 133.247 299.568 132.71C298.878 132.173 298.017 131.905 296.986 131.905C295.997 131.905 295.158 132.165 294.467 132.685C293.777 133.205 293.253 133.933 292.895 134.871C292.545 135.808 292.371 136.912 292.371 138.182ZM314.931 121.818V148H310.304V121.818H314.931ZM328.384 148.384C326.415 148.384 324.714 147.974 323.283 147.156C321.859 146.33 320.764 145.162 319.997 143.653C319.23 142.136 318.847 140.351 318.847 138.297C318.847 136.277 319.23 134.504 319.997 132.979C320.773 131.445 321.855 130.251 323.244 129.399C324.634 128.538 326.266 128.108 328.141 128.108C329.351 128.108 330.493 128.304 331.567 128.696C332.649 129.08 333.604 129.676 334.43 130.486C335.266 131.295 335.922 132.327 336.399 133.58C336.876 134.824 337.115 136.307 337.115 138.028V139.447H321.02V136.328H332.679C332.67 135.442 332.479 134.653 332.104 133.963C331.729 133.264 331.205 132.714 330.531 132.314C329.866 131.913 329.091 131.713 328.205 131.713C327.259 131.713 326.428 131.943 325.712 132.403C324.996 132.855 324.438 133.452 324.037 134.193C323.645 134.926 323.445 135.732 323.436 136.609V139.332C323.436 140.474 323.645 141.455 324.062 142.273C324.48 143.082 325.064 143.705 325.814 144.139C326.564 144.565 327.442 144.778 328.447 144.778C329.121 144.778 329.73 144.685 330.276 144.497C330.821 144.301 331.294 144.016 331.695 143.641C332.095 143.266 332.398 142.801 332.602 142.247L336.923 142.733C336.651 143.875 336.131 144.872 335.364 145.724C334.605 146.568 333.634 147.224 332.449 147.693C331.264 148.153 329.909 148.384 328.384 148.384Z" fill="#333333"/>
<path opacity="0.8" d="M47.058 180.364C46.9983 179.86 46.7564 179.469 46.3321 179.19C45.9079 178.912 45.3875 178.773 44.771 178.773C44.3203 178.773 43.9259 178.846 43.5878 178.991C43.253 179.137 42.9912 179.338 42.8023 179.593C42.6167 179.848 42.5239 180.138 42.5239 180.463C42.5239 180.735 42.5885 180.969 42.7178 181.164C42.8503 181.356 43.0194 181.517 43.2249 181.646C43.4304 181.772 43.6458 181.877 43.8712 181.96C44.0966 182.039 44.3037 182.104 44.4926 182.153L45.5267 182.432C45.7919 182.501 46.0869 182.598 46.4117 182.72C46.7398 182.843 47.053 183.01 47.3513 183.222C47.6529 183.431 47.9015 183.7 48.097 184.028C48.2926 184.356 48.3904 184.759 48.3904 185.236C48.3904 185.786 48.2462 186.283 47.9578 186.727C47.6728 187.171 47.2552 187.524 46.705 187.786C46.1581 188.048 45.4936 188.179 44.7114 188.179C43.9822 188.179 43.3508 188.061 42.8172 187.826C42.2869 187.591 41.8693 187.263 41.5644 186.842C41.2628 186.421 41.0921 185.932 41.0523 185.375H42.325C42.3582 185.759 42.4874 186.078 42.7128 186.33C42.9415 186.578 43.2298 186.764 43.5779 186.886C43.9292 187.006 44.307 187.065 44.7114 187.065C45.182 187.065 45.6046 186.989 45.9791 186.837C46.3537 186.681 46.6503 186.465 46.8691 186.19C47.0878 185.912 47.1972 185.587 47.1972 185.216C47.1972 184.878 47.1027 184.603 46.9138 184.391C46.7249 184.179 46.4763 184.006 46.1681 183.874C45.8598 183.741 45.5267 183.625 45.1688 183.526L43.9159 183.168C43.1205 182.939 42.4907 182.612 42.0267 182.188C41.5627 181.764 41.3307 181.209 41.3307 180.523C41.3307 179.953 41.4848 179.455 41.7931 179.031C42.1046 178.604 42.5222 178.272 43.0459 178.037C43.5729 177.798 44.1612 177.679 44.8108 177.679C45.4671 177.679 46.0504 177.797 46.5608 178.032C47.0712 178.264 47.4756 178.582 47.7739 178.987C48.0755 179.391 48.2346 179.85 48.2512 180.364H47.058ZM53.5795 180.364V181.358H49.6221V180.364H53.5795ZM50.7755 178.534H51.9488V185.812C51.9488 186.144 51.9968 186.393 52.093 186.558C52.1924 186.721 52.3183 186.83 52.4708 186.886C52.6266 186.939 52.7906 186.966 52.963 186.966C53.0922 186.966 53.1983 186.959 53.2812 186.946C53.364 186.929 53.4303 186.916 53.48 186.906L53.7187 187.96C53.6391 187.99 53.5281 188.02 53.3856 188.05C53.243 188.083 53.0624 188.099 52.8437 188.099C52.5122 188.099 52.1874 188.028 51.8692 187.886C51.5544 187.743 51.2925 187.526 51.0837 187.234C50.8782 186.943 50.7755 186.575 50.7755 186.131V178.534ZM57.5915 188.179C57.1076 188.179 56.6685 188.088 56.2741 187.906C55.8796 187.72 55.5664 187.453 55.3344 187.105C55.1024 186.754 54.9864 186.33 54.9864 185.832C54.9864 185.395 55.0726 185.04 55.2449 184.768C55.4173 184.493 55.6476 184.278 55.936 184.122C56.2243 183.966 56.5425 183.85 56.8905 183.774C57.2419 183.695 57.5948 183.632 57.9495 183.585C58.4135 183.526 58.7897 183.481 59.078 183.451C59.3697 183.418 59.5818 183.363 59.7144 183.287C59.8503 183.211 59.9182 183.078 59.9182 182.889V182.849C59.9182 182.359 59.784 181.978 59.5155 181.706C59.2504 181.434 58.8477 181.298 58.3074 181.298C57.7473 181.298 57.3082 181.421 56.99 181.666C56.6718 181.911 56.4481 182.173 56.3188 182.452L55.2052 182.054C55.404 181.59 55.6692 181.229 56.0006 180.97C56.3354 180.708 56.7 180.526 57.0944 180.423C57.4921 180.317 57.8832 180.264 58.2677 180.264C58.5129 180.264 58.7947 180.294 59.1128 180.354C59.4343 180.41 59.7442 180.528 60.0425 180.707C60.3441 180.886 60.5944 181.156 60.7932 181.517C60.9921 181.878 61.0915 182.362 61.0915 182.969V188H59.9182V186.966H59.8586C59.779 187.132 59.6465 187.309 59.4608 187.498C59.2752 187.687 59.0283 187.848 58.7201 187.98C58.4118 188.113 58.0357 188.179 57.5915 188.179ZM57.7705 187.125C58.2345 187.125 58.6256 187.034 58.9438 186.852C59.2653 186.669 59.5073 186.434 59.6697 186.146C59.8354 185.857 59.9182 185.554 59.9182 185.236V184.162C59.8685 184.222 59.7591 184.276 59.5901 184.326C59.4244 184.372 59.2322 184.414 59.0134 184.45C58.798 184.483 58.5875 184.513 58.382 184.54C58.1798 184.563 58.0158 184.583 57.8898 184.599C57.5849 184.639 57.2999 184.704 57.0347 184.793C56.7729 184.879 56.5608 185.01 56.3983 185.186C56.2393 185.358 56.1597 185.594 56.1597 185.892C56.1597 186.3 56.3105 186.608 56.6121 186.817C56.9171 187.022 57.3032 187.125 57.7705 187.125ZM63.233 188V180.364H64.3666V181.517H64.4461C64.5853 181.139 64.8372 180.833 65.2018 180.597C65.5664 180.362 65.9774 180.244 66.4347 180.244C66.5209 180.244 66.6286 180.246 66.7579 180.249C66.8872 180.253 66.9849 180.258 67.0512 180.264V181.457C67.0115 181.447 66.9203 181.433 66.7778 181.413C66.6386 181.389 66.4911 181.378 66.3353 181.378C65.9641 181.378 65.6327 181.456 65.341 181.612C65.0526 181.764 64.824 181.976 64.6549 182.248C64.4892 182.516 64.4063 182.823 64.4063 183.168V188H63.233ZM72.2416 180.364V181.358H68.2842V180.364H72.2416ZM69.4376 178.534H70.6109V185.812C70.6109 186.144 70.6589 186.393 70.7551 186.558C70.8545 186.721 70.9804 186.83 71.1329 186.886C71.2887 186.939 71.4527 186.966 71.6251 186.966C71.7544 186.966 71.8604 186.959 71.9433 186.946C72.0261 186.929 72.0924 186.916 72.1421 186.906L72.3808 187.96C72.3012 187.99 72.1902 188.02 72.0477 188.05C71.9052 188.083 71.7245 188.099 71.5058 188.099C71.1743 188.099 70.8495 188.028 70.5313 187.886C70.2165 187.743 69.9546 187.526 69.7458 187.234C69.5403 186.943 69.4376 186.575 69.4376 186.131V178.534ZM74.0065 188V180.364H75.1798V188H74.0065ZM74.6031 179.091C74.3744 179.091 74.1772 179.013 74.0115 178.857C73.849 178.701 73.7678 178.514 73.7678 178.295C73.7678 178.077 73.849 177.889 74.0115 177.734C74.1772 177.578 74.3744 177.5 74.6031 177.5C74.8318 177.5 75.0273 177.578 75.1897 177.734C75.3554 177.889 75.4383 178.077 75.4383 178.295C75.4383 178.514 75.3554 178.701 75.1897 178.857C75.0273 179.013 74.8318 179.091 74.6031 179.091ZM78.502 183.406V188H77.3287V180.364H78.4623V181.557H78.5617C78.7407 181.169 79.0125 180.857 79.377 180.622C79.7416 180.384 80.2123 180.264 80.789 180.264C81.306 180.264 81.7584 180.37 82.1462 180.582C82.534 180.791 82.8356 181.109 83.051 181.537C83.2665 181.961 83.3742 182.498 83.3742 183.148V188H82.2009V183.227C82.2009 182.627 82.0451 182.16 81.7336 181.825C81.422 181.487 80.9945 181.318 80.4509 181.318C80.0764 181.318 79.7416 181.399 79.4466 181.562C79.155 181.724 78.9246 181.961 78.7556 182.273C78.5866 182.584 78.502 182.962 78.502 183.406ZM88.6006 191.023C88.0338 191.023 87.5466 190.95 87.1389 190.804C86.7313 190.661 86.3915 190.473 86.1198 190.237C85.8513 190.005 85.6375 189.757 85.4784 189.491L86.4131 188.835C86.5191 188.974 86.6534 189.134 86.8158 189.312C86.9782 189.495 87.2003 189.652 87.482 189.785C87.767 189.921 88.1399 189.989 88.6006 189.989C89.2171 189.989 89.7258 189.839 90.1269 189.541C90.5279 189.243 90.7284 188.776 90.7284 188.139V186.588H90.629C90.5428 186.727 90.4202 186.9 90.2611 187.105C90.1053 187.307 89.8799 187.488 89.585 187.647C89.2933 187.803 88.8989 187.881 88.4017 187.881C87.7852 187.881 87.2317 187.735 86.7412 187.443C86.254 187.152 85.8679 186.727 85.5828 186.17C85.3011 185.614 85.1602 184.937 85.1602 184.142C85.1602 183.36 85.2978 182.679 85.5729 182.099C85.848 181.515 86.2308 181.065 86.7213 180.746C87.2119 180.425 87.7786 180.264 88.4216 180.264C88.9188 180.264 89.3132 180.347 89.6048 180.513C89.8998 180.675 90.1252 180.861 90.281 181.07C90.4401 181.275 90.5627 181.444 90.6489 181.577H90.7682V180.364H91.9017V188.219C91.9017 188.875 91.7526 189.409 91.4543 189.82C91.1593 190.234 90.7616 190.537 90.2611 190.729C89.7639 190.925 89.2104 191.023 88.6006 191.023ZM88.5608 186.827C89.0315 186.827 89.4292 186.719 89.754 186.504C90.0788 186.288 90.3257 185.978 90.4948 185.574C90.6638 185.17 90.7483 184.686 90.7483 184.122C90.7483 183.572 90.6655 183.086 90.4997 182.665C90.334 182.245 90.0887 181.915 89.7639 181.676C89.4391 181.437 89.0381 181.318 88.5608 181.318C88.0637 181.318 87.6494 181.444 87.3179 181.696C86.9898 181.948 86.7429 182.286 86.5771 182.71C86.4147 183.134 86.3335 183.605 86.3335 184.122C86.3335 184.652 86.4164 185.121 86.5821 185.529C86.7512 185.933 86.9997 186.252 87.3279 186.484C87.6593 186.712 88.0703 186.827 88.5608 186.827ZM100.234 188.179C99.7502 188.179 99.3111 188.088 98.9166 187.906C98.5222 187.72 98.209 187.453 97.977 187.105C97.745 186.754 97.629 186.33 97.629 185.832C97.629 185.395 97.7152 185.04 97.8875 184.768C98.0599 184.493 98.2902 184.278 98.5786 184.122C98.8669 183.966 99.1851 183.85 99.5331 183.774C99.8844 183.695 100.237 183.632 100.592 183.585C101.056 183.526 101.432 183.481 101.721 183.451C102.012 183.418 102.224 183.363 102.357 183.287C102.493 183.211 102.561 183.078 102.561 182.889V182.849C102.561 182.359 102.427 181.978 102.158 181.706C101.893 181.434 101.49 181.298 100.95 181.298C100.39 181.298 99.9507 181.421 99.6325 181.666C99.3144 181.911 99.0906 182.173 98.9614 182.452L97.8477 182.054C98.0466 181.59 98.3118 181.229 98.6432 180.97C98.978 180.708 99.3425 180.526 99.7369 180.423C100.135 180.317 100.526 180.264 100.91 180.264C101.156 180.264 101.437 180.294 101.755 180.354C102.077 180.41 102.387 180.528 102.685 180.707C102.987 180.886 103.237 181.156 103.436 181.517C103.635 181.878 103.734 182.362 103.734 182.969V188H102.561V186.966H102.501C102.422 187.132 102.289 187.309 102.103 187.498C101.918 187.687 101.671 187.848 101.363 187.98C101.054 188.113 100.678 188.179 100.234 188.179ZM100.413 187.125C100.877 187.125 101.268 187.034 101.586 186.852C101.908 186.669 102.15 186.434 102.312 186.146C102.478 185.857 102.561 185.554 102.561 185.236V184.162C102.511 184.222 102.402 184.276 102.233 184.326C102.067 184.372 101.875 184.414 101.656 184.45C101.441 184.483 101.23 184.513 101.025 184.54C100.822 184.563 100.658 184.583 100.532 184.599C100.227 184.639 99.9424 184.704 99.6773 184.793C99.4155 184.879 99.2033 185.01 99.0409 185.186C98.8818 185.358 98.8023 185.594 98.8023 185.892C98.8023 186.3 98.9531 186.608 99.2547 186.817C99.5596 187.022 99.9458 187.125 100.413 187.125ZM109.197 180.364V181.358H105.239V180.364H109.197ZM106.393 178.534H107.566V185.812C107.566 186.144 107.614 186.393 107.71 186.558C107.81 186.721 107.936 186.83 108.088 186.886C108.244 186.939 108.408 186.966 108.58 186.966C108.709 186.966 108.815 186.959 108.898 186.946C108.981 186.929 109.047 186.916 109.097 186.906L109.336 187.96C109.256 187.99 109.145 188.02 109.003 188.05C108.86 188.083 108.68 188.099 108.461 188.099C108.129 188.099 107.805 188.028 107.486 187.886C107.172 187.743 106.91 187.526 106.701 187.234C106.495 186.943 106.393 186.575 106.393 186.131V178.534ZM111.817 188.08C111.571 188.08 111.361 187.992 111.185 187.816C111.01 187.64 110.922 187.43 110.922 187.185C110.922 186.939 111.01 186.729 111.185 186.553C111.361 186.378 111.571 186.29 111.817 186.29C112.062 186.29 112.272 186.378 112.448 186.553C112.624 186.729 112.712 186.939 112.712 187.185C112.712 187.347 112.67 187.496 112.587 187.632C112.508 187.768 112.4 187.877 112.264 187.96C112.132 188.04 111.982 188.08 111.817 188.08ZM111.817 182.412C111.571 182.412 111.361 182.324 111.185 182.148C111.01 181.973 110.922 181.762 110.922 181.517C110.922 181.272 111.01 181.061 111.185 180.886C111.361 180.71 111.571 180.622 111.817 180.622C112.062 180.622 112.272 180.71 112.448 180.886C112.624 181.061 112.712 181.272 112.712 181.517C112.712 181.679 112.67 181.829 112.587 181.964C112.508 182.1 112.4 182.21 112.264 182.293C112.132 182.372 111.982 182.412 111.817 182.412Z" fill="#333333"/>
<rect x="122" y="168" width="70" height="29" rx="14.5" fill="#FF0000"/>
<path d="M136.968 189.455V174.909H137.9V189.455H136.968ZM139.883 179.42C139.822 178.883 139.572 178.466 139.133 178.17C138.693 177.871 138.14 177.722 137.474 177.722C136.996 177.722 136.584 177.797 136.235 177.949C135.887 178.097 135.616 178.301 135.423 178.562C135.233 178.82 135.138 179.114 135.138 179.443C135.138 179.72 135.203 179.958 135.332 180.159C135.464 180.36 135.637 180.528 135.849 180.665C136.065 180.797 136.296 180.909 136.542 181C136.788 181.087 137.025 181.159 137.252 181.216L138.388 181.511C138.76 181.602 139.14 181.725 139.531 181.881C139.921 182.036 140.282 182.241 140.616 182.494C140.949 182.748 141.218 183.062 141.423 183.438C141.631 183.812 141.735 184.261 141.735 184.784C141.735 185.443 141.565 186.028 141.224 186.54C140.887 187.051 140.396 187.455 139.752 187.75C139.112 188.045 138.337 188.193 137.428 188.193C136.557 188.193 135.803 188.055 135.167 187.778C134.531 187.502 134.032 187.11 133.673 186.602C133.313 186.091 133.114 185.485 133.076 184.784H134.837C134.871 185.205 135.008 185.555 135.246 185.835C135.489 186.112 135.798 186.318 136.173 186.455C136.551 186.587 136.966 186.653 137.417 186.653C137.913 186.653 138.354 186.576 138.741 186.42C139.131 186.261 139.438 186.042 139.661 185.761C139.885 185.477 139.996 185.146 139.996 184.767C139.996 184.422 139.898 184.14 139.701 183.92C139.508 183.701 139.245 183.519 138.911 183.375C138.582 183.231 138.209 183.104 137.792 182.994L136.417 182.619C135.485 182.366 134.746 181.992 134.201 181.5C133.659 181.008 133.388 180.356 133.388 179.545C133.388 178.875 133.57 178.29 133.934 177.79C134.298 177.29 134.79 176.902 135.411 176.625C136.032 176.345 136.733 176.205 137.513 176.205C138.301 176.205 138.996 176.343 139.599 176.619C140.205 176.896 140.682 177.277 141.031 177.761C141.379 178.242 141.561 178.795 141.576 179.42H139.883ZM148.089 176.364V188H146.327V178.125H146.259L143.475 179.943V178.261L146.379 176.364H148.089ZM155.651 176.364V188H153.89V178.125H153.822L151.038 179.943V178.261L153.941 176.364H155.651ZM159.269 188.108C158.959 188.108 158.692 187.998 158.468 187.778C158.245 187.555 158.133 187.286 158.133 186.972C158.133 186.661 158.245 186.396 158.468 186.176C158.692 185.953 158.959 185.841 159.269 185.841C159.58 185.841 159.847 185.953 160.07 186.176C160.294 186.396 160.406 186.661 160.406 186.972C160.406 187.18 160.353 187.371 160.246 187.545C160.144 187.716 160.008 187.852 159.837 187.955C159.667 188.057 159.478 188.108 159.269 188.108ZM166.387 176.205C166.906 176.208 167.417 176.303 167.921 176.489C168.425 176.674 168.879 176.977 169.285 177.398C169.694 177.818 170.02 178.386 170.262 179.102C170.508 179.814 170.633 180.701 170.637 181.761C170.637 182.78 170.535 183.687 170.33 184.483C170.126 185.275 169.832 185.943 169.45 186.489C169.071 187.034 168.611 187.449 168.069 187.733C167.527 188.017 166.917 188.159 166.239 188.159C165.546 188.159 164.931 188.023 164.393 187.75C163.855 187.477 163.417 187.1 163.08 186.619C162.743 186.134 162.533 185.578 162.45 184.949H164.183C164.296 185.449 164.527 185.854 164.876 186.165C165.228 186.472 165.683 186.625 166.239 186.625C167.092 186.625 167.756 186.254 168.234 185.511C168.711 184.765 168.951 183.723 168.955 182.386H168.864C168.667 182.712 168.421 182.992 168.126 183.227C167.834 183.462 167.506 183.644 167.143 183.773C166.779 183.902 166.391 183.966 165.978 183.966C165.308 183.966 164.698 183.801 164.148 183.472C163.599 183.142 163.162 182.689 162.836 182.114C162.51 181.538 162.347 180.881 162.347 180.142C162.347 179.407 162.514 178.741 162.847 178.142C163.184 177.544 163.654 177.07 164.256 176.722C164.862 176.369 165.573 176.197 166.387 176.205ZM166.393 177.682C165.95 177.682 165.55 177.792 165.194 178.011C164.842 178.227 164.563 178.521 164.359 178.892C164.154 179.259 164.052 179.669 164.052 180.119C164.052 180.57 164.15 180.979 164.347 181.347C164.548 181.71 164.821 182 165.165 182.216C165.514 182.428 165.912 182.534 166.359 182.534C166.692 182.534 167.003 182.47 167.29 182.341C167.578 182.212 167.83 182.034 168.046 181.807C168.262 181.576 168.431 181.314 168.552 181.023C168.673 180.731 168.734 180.424 168.734 180.102C168.734 179.674 168.631 179.277 168.427 178.909C168.226 178.542 167.95 178.246 167.597 178.023C167.245 177.795 166.844 177.682 166.393 177.682ZM176.559 176.205C177.078 176.208 177.589 176.303 178.093 176.489C178.597 176.674 179.051 176.977 179.457 177.398C179.866 177.818 180.192 178.386 180.434 179.102C180.68 179.814 180.805 180.701 180.809 181.761C180.809 182.78 180.707 183.687 180.502 184.483C180.298 185.275 180.004 185.943 179.621 186.489C179.243 187.034 178.782 187.449 178.241 187.733C177.699 188.017 177.089 188.159 176.411 188.159C175.718 188.159 175.103 188.023 174.565 187.75C174.027 187.477 173.589 187.1 173.252 186.619C172.915 186.134 172.705 185.578 172.621 184.949H174.354C174.468 185.449 174.699 185.854 175.048 186.165C175.4 186.472 175.854 186.625 176.411 186.625C177.263 186.625 177.928 186.254 178.406 185.511C178.883 184.765 179.123 183.723 179.127 182.386H179.036C178.839 182.712 178.593 182.992 178.298 183.227C178.006 183.462 177.678 183.644 177.315 183.773C176.951 183.902 176.563 183.966 176.15 183.966C175.479 183.966 174.87 183.801 174.32 183.472C173.771 183.142 173.334 182.689 173.008 182.114C172.682 181.538 172.519 180.881 172.519 180.142C172.519 179.407 172.686 178.741 173.019 178.142C173.356 177.544 173.826 177.07 174.428 176.722C175.034 176.369 175.745 176.197 176.559 176.205ZM176.565 177.682C176.121 177.682 175.722 177.792 175.366 178.011C175.013 178.227 174.735 178.521 174.531 178.892C174.326 179.259 174.224 179.669 174.224 180.119C174.224 180.57 174.322 180.979 174.519 181.347C174.72 181.71 174.993 182 175.337 182.216C175.686 182.428 176.084 182.534 176.531 182.534C176.864 182.534 177.174 182.47 177.462 182.341C177.75 182.212 178.002 182.034 178.218 181.807C178.434 181.576 178.603 181.314 178.724 181.023C178.845 180.731 178.906 180.424 178.906 180.102C178.906 179.674 178.803 179.277 178.599 178.909C178.398 178.542 178.121 178.246 177.769 178.023C177.417 177.795 177.015 177.682 176.565 177.682Z" fill="white"/>
<rect x="40" y="221" width="160" height="45" rx="22.5" fill="white"/>
<path d="M78.5376 241.617C78.4912 241.183 78.2957 240.845 77.951 240.603C77.6096 240.361 77.1655 240.24 76.6186 240.24C76.2341 240.24 75.9044 240.298 75.6293 240.414C75.3542 240.53 75.1437 240.687 74.9979 240.886C74.852 241.085 74.7775 241.312 74.7741 241.567C74.7741 241.78 74.8222 241.964 74.9183 242.119C75.0178 242.275 75.152 242.408 75.321 242.517C75.4901 242.623 75.6773 242.713 75.8828 242.786C76.0883 242.858 76.2955 242.92 76.5043 242.969L77.4588 243.208C77.8433 243.298 78.2128 243.419 78.5675 243.571C78.9254 243.723 79.2453 243.916 79.527 244.148C79.812 244.38 80.0374 244.66 80.2031 244.988C80.3688 245.316 80.4517 245.701 80.4517 246.141C80.4517 246.738 80.2992 247.263 79.9943 247.717C79.6894 248.168 79.2486 248.521 78.6719 248.776C78.0985 249.028 77.4041 249.154 76.5888 249.154C75.7966 249.154 75.1089 249.031 74.5256 248.786C73.9455 248.541 73.4915 248.183 73.1634 247.712C72.8385 247.242 72.6629 246.668 72.6364 245.992H74.451C74.4775 246.347 74.5869 246.642 74.7791 246.877C74.9714 247.112 75.2216 247.288 75.5298 247.404C75.8414 247.52 76.1894 247.578 76.5739 247.578C76.9749 247.578 77.3262 247.518 77.6278 247.399C77.9328 247.277 78.1714 247.107 78.3438 246.892C78.5161 246.673 78.6039 246.418 78.6072 246.126C78.6039 245.861 78.526 245.643 78.3736 245.47C78.2211 245.295 78.0073 245.149 77.7322 245.033C77.4605 244.913 77.1423 244.807 76.7777 244.714L75.6193 244.416C74.7808 244.201 74.1179 243.874 73.6307 243.437C73.1468 242.996 72.9048 242.411 72.9048 241.682C72.9048 241.082 73.0672 240.557 73.392 240.106C73.7202 239.655 74.166 239.305 74.7294 239.057C75.2929 238.805 75.9309 238.679 76.6435 238.679C77.366 238.679 77.9991 238.805 78.5426 239.057C79.0895 239.305 79.5187 239.652 79.8303 240.096C80.1418 240.537 80.3026 241.044 80.3125 241.617H78.5376ZM83.8162 244.526V249H82.0165V238.818H83.7765V242.661H83.8659C84.0449 242.23 84.3217 241.891 84.6962 241.642C85.074 241.39 85.5546 241.264 86.138 241.264C86.6683 241.264 87.1306 241.375 87.525 241.597C87.9194 241.819 88.2244 242.144 88.4398 242.572C88.6586 242.999 88.7679 243.521 88.7679 244.138V249H86.9682V244.416C86.9682 243.902 86.8356 243.503 86.5705 243.218C86.3087 242.93 85.9408 242.786 85.4668 242.786C85.1486 242.786 84.8636 242.855 84.6117 242.994C84.3631 243.13 84.1676 243.327 84.025 243.586C83.8858 243.844 83.8162 244.158 83.8162 244.526ZM93.9334 249.149C93.1877 249.149 92.5414 248.985 91.9945 248.657C91.4476 248.329 91.0234 247.87 90.7218 247.28C90.4235 246.69 90.2743 246 90.2743 245.212C90.2743 244.423 90.4235 243.732 90.7218 243.138C91.0234 242.545 91.4476 242.085 91.9945 241.756C92.5414 241.428 93.1877 241.264 93.9334 241.264C94.6792 241.264 95.3255 241.428 95.8723 241.756C96.4192 242.085 96.8418 242.545 97.1401 243.138C97.4417 243.732 97.5925 244.423 97.5925 245.212C97.5925 246 97.4417 246.69 97.1401 247.28C96.8418 247.87 96.4192 248.329 95.8723 248.657C95.3255 248.985 94.6792 249.149 93.9334 249.149ZM93.9434 247.707C94.3477 247.707 94.6858 247.596 94.9576 247.374C95.2293 247.149 95.4315 246.847 95.5641 246.469C95.7 246.092 95.7679 245.671 95.7679 245.207C95.7679 244.739 95.7 244.317 95.5641 243.939C95.4315 243.558 95.2293 243.254 94.9576 243.029C94.6858 242.804 94.3477 242.691 93.9434 242.691C93.5291 242.691 93.1844 242.804 92.9093 243.029C92.6375 243.254 92.4337 243.558 92.2978 243.939C92.1652 244.317 92.0989 244.739 92.0989 245.207C92.0989 245.671 92.1652 246.092 92.2978 246.469C92.4337 246.847 92.6375 247.149 92.9093 247.374C93.1844 247.596 93.5291 247.707 93.9434 247.707ZM99.12 251.864V241.364H100.89V242.626H100.994C101.087 242.441 101.218 242.244 101.387 242.035C101.556 241.823 101.785 241.642 102.073 241.493C102.362 241.34 102.729 241.264 103.177 241.264C103.767 241.264 104.299 241.415 104.773 241.717C105.25 242.015 105.628 242.457 105.906 243.044C106.188 243.627 106.329 244.343 106.329 245.192C106.329 246.03 106.191 246.743 105.916 247.33C105.641 247.916 105.267 248.364 104.793 248.672C104.319 248.98 103.782 249.134 103.182 249.134C102.744 249.134 102.381 249.061 102.093 248.915C101.805 248.77 101.573 248.594 101.397 248.388C101.225 248.18 101.09 247.982 100.994 247.797H100.92V251.864H99.12ZM100.885 245.182C100.885 245.676 100.955 246.108 101.094 246.479C101.236 246.851 101.44 247.141 101.705 247.349C101.974 247.555 102.299 247.658 102.68 247.658C103.077 247.658 103.411 247.552 103.679 247.339C103.947 247.124 104.15 246.831 104.286 246.46C104.425 246.085 104.494 245.659 104.494 245.182C104.494 244.708 104.426 244.287 104.29 243.919C104.155 243.551 103.952 243.263 103.684 243.054C103.415 242.845 103.081 242.741 102.68 242.741C102.295 242.741 101.969 242.842 101.7 243.044C101.432 243.246 101.228 243.53 101.089 243.894C100.953 244.259 100.885 244.688 100.885 245.182ZM119.789 238.818V249H118.149L113.351 242.065H113.267V249H111.422V238.818H113.073L117.865 245.759H117.955V238.818H119.789ZM125.051 249.149C124.305 249.149 123.659 248.985 123.112 248.657C122.565 248.329 122.141 247.87 121.839 247.28C121.541 246.69 121.392 246 121.392 245.212C121.392 244.423 121.541 243.732 121.839 243.138C122.141 242.545 122.565 242.085 123.112 241.756C123.659 241.428 124.305 241.264 125.051 241.264C125.796 241.264 126.443 241.428 126.99 241.756C127.536 242.085 127.959 242.545 128.257 243.138C128.559 243.732 128.71 244.423 128.71 245.212C128.71 246 128.559 246.69 128.257 247.28C127.959 247.87 127.536 248.329 126.99 248.657C126.443 248.985 125.796 249.149 125.051 249.149ZM125.061 247.707C125.465 247.707 125.803 247.596 126.075 247.374C126.347 247.149 126.549 246.847 126.681 246.469C126.817 246.092 126.885 245.671 126.885 245.207C126.885 244.739 126.817 244.317 126.681 243.939C126.549 243.558 126.347 243.254 126.075 243.029C125.803 242.804 125.465 242.691 125.061 242.691C124.646 242.691 124.302 242.804 124.026 243.029C123.755 243.254 123.551 243.558 123.415 243.939C123.282 244.317 123.216 244.739 123.216 245.207C123.216 245.671 123.282 246.092 123.415 246.469C123.551 246.847 123.755 247.149 124.026 247.374C124.302 247.596 124.646 247.707 125.061 247.707ZM131.594 249L129.437 241.364H131.271L132.614 246.733H132.683L134.055 241.364H135.87L137.242 246.703H137.317L138.639 241.364H140.479L138.316 249H136.442L135.01 243.839H134.906L133.474 249H131.594Z" fill="#333333"/>
<path d="M168 243.5H153" stroke="#333333" stroke-width="1.5" stroke-linecap="round" stroke-linejoin="round"/>
<path d="M161.949 237.476L167.999 243.5L161.949 249.525" stroke="#333333" stroke-width="1.5" stroke-linecap="round" stroke-linejoin="round"/>
</svg>
