<svg width="648" height="360" viewBox="0 0 648 360" fill="none" xmlns="http://www.w3.org/2000/svg">
<rect width="648" height="360" rx="8" fill="#FAE7C8"/>
<path d="M52.1719 93.4929C52.1188 93.0223 51.9001 92.6577 51.5156 92.3991C51.1312 92.1373 50.6473 92.0064 50.0639 92.0064C49.6463 92.0064 49.285 92.0727 48.9801 92.2053C48.6752 92.3345 48.4382 92.5135 48.2692 92.7422C48.1035 92.9676 48.0206 93.2244 48.0206 93.5128C48.0206 93.7547 48.0769 93.9635 48.1896 94.1392C48.3056 94.3149 48.4564 94.4624 48.642 94.5817C48.831 94.6977 49.0331 94.7955 49.2486 94.875C49.464 94.9512 49.6712 95.0142 49.87 95.0639L50.8643 95.3224C51.1892 95.402 51.5223 95.5097 51.8636 95.6456C52.205 95.7815 52.5215 95.9605 52.8132 96.1825C53.1049 96.4046 53.3402 96.6797 53.5192 97.0078C53.7015 97.3359 53.7926 97.7287 53.7926 98.1861C53.7926 98.7628 53.6435 99.2749 53.3452 99.7223C53.0502 100.17 52.621 100.523 52.0575 100.781C51.4974 101.04 50.8196 101.169 50.0241 101.169C49.2618 101.169 48.6023 101.048 48.0455 100.806C47.4886 100.564 47.0528 100.221 46.7379 99.777C46.4231 99.3295 46.2491 98.7992 46.2159 98.1861H47.7571C47.7869 98.554 47.9063 98.8606 48.1151 99.1058C48.3272 99.3478 48.5973 99.5284 48.9254 99.6477C49.2569 99.7637 49.6198 99.8217 50.0142 99.8217C50.4484 99.8217 50.8345 99.7538 51.1726 99.6179C51.514 99.4787 51.7824 99.2865 51.978 99.0412C52.1735 98.7926 52.2713 98.5026 52.2713 98.1712C52.2713 97.8696 52.1851 97.6226 52.0128 97.4304C51.8438 97.2382 51.6134 97.0791 51.3217 96.9531C51.0334 96.8272 50.7069 96.7161 50.3423 96.62L49.1392 96.2919C48.3239 96.0698 47.6776 95.7434 47.2003 95.3125C46.7263 94.8816 46.4893 94.3116 46.4893 93.6023C46.4893 93.0156 46.6484 92.5036 46.9666 92.0661C47.2848 91.6286 47.7157 91.2888 48.2592 91.0469C48.8028 90.8016 49.416 90.679 50.0987 90.679C50.7881 90.679 51.3963 90.8 51.9233 91.0419C52.4536 91.2839 52.8712 91.617 53.1761 92.0412C53.4811 92.4621 53.6402 92.946 53.6534 93.4929H52.1719ZM56.4064 101H54.7757L58.4398 90.8182H60.2147L63.8787 101H62.248L59.3695 92.6676H59.29L56.4064 101ZM56.6799 97.0128H61.9696V98.3054H56.6799V97.0128ZM65.3491 101V90.8182H66.8853V99.6776H71.4989V101H65.3491ZM73.2514 101V90.8182H79.6349V92.1406H74.7876V95.2429H79.3018V96.5604H74.7876V99.6776H79.6946V101H73.2514ZM94.2365 95.9091C94.2365 96.9962 94.0376 97.9309 93.6399 98.7131C93.2422 99.492 92.697 100.092 92.0043 100.513C91.3149 100.93 90.531 101.139 89.6527 101.139C88.7711 101.139 87.9839 100.93 87.2912 100.513C86.6018 100.092 86.0582 99.4903 85.6605 98.7081C85.2628 97.9259 85.0639 96.9929 85.0639 95.9091C85.0639 94.822 85.2628 93.889 85.6605 93.1101C86.0582 92.3279 86.6018 91.728 87.2912 91.3104C87.9839 90.8894 88.7711 90.679 89.6527 90.679C90.531 90.679 91.3149 90.8894 92.0043 91.3104C92.697 91.728 93.2422 92.3279 93.6399 93.1101C94.0376 93.889 94.2365 94.822 94.2365 95.9091ZM92.7152 95.9091C92.7152 95.0805 92.581 94.3828 92.3125 93.8161C92.0473 93.246 91.6828 92.8151 91.2188 92.5234C90.758 92.2285 90.236 92.081 89.6527 92.081C89.0661 92.081 88.5424 92.2285 88.0817 92.5234C87.621 92.8151 87.2564 93.246 86.9879 93.8161C86.7228 94.3828 86.5902 95.0805 86.5902 95.9091C86.5902 96.7377 86.7228 97.437 86.9879 98.0071C87.2564 98.5739 87.621 99.0047 88.0817 99.2997C88.5424 99.5914 89.0661 99.7372 89.6527 99.7372C90.236 99.7372 90.758 99.5914 91.2188 99.2997C91.6828 99.0047 92.0473 98.5739 92.3125 98.0071C92.581 97.437 92.7152 96.7377 92.7152 95.9091ZM96.1518 101V90.8182H102.466V92.1406H97.688V95.2429H102.013V96.5604H97.688V101H96.1518ZM104.355 101V90.8182H110.669V92.1406H105.891V95.2429H110.216V96.5604H105.891V101H104.355ZM115.761 92.1406V90.8182H123.641V92.1406H120.464V101H118.933V92.1406H115.761ZM125.382 101V90.8182H126.919V95.2429H131.994V90.8182H133.536V101H131.994V96.5604H126.919V101H125.382ZM135.773 101V90.8182H142.156V92.1406H137.309V95.2429H141.823V96.5604H137.309V99.6776H142.216V101H135.773ZM149.907 101L147.083 90.8182H148.699L150.683 98.7031H150.777L152.84 90.8182H154.441L156.504 98.7081H156.599L158.578 90.8182H160.198L157.369 101H155.823L153.681 93.3736H153.601L151.458 101H149.907ZM161.599 101V90.8182H167.983V92.1406H163.135V95.2429H167.65V96.5604H163.135V99.6776H168.042V101H161.599ZM170.035 101V90.8182H176.418V92.1406H171.571V95.2429H176.085V96.5604H171.571V99.6776H176.478V101H170.035ZM178.47 101V90.8182H180.006V95.6804H180.131L184.401 90.8182H186.335L182.229 95.402L186.35 101H184.501L181.21 96.451L180.006 97.8331V101H178.47Z" fill="#333333"/>
<path d="M62.3111 127.016C62.1918 125.899 61.6889 125.03 60.8026 124.408C59.9247 123.786 58.7827 123.474 57.3764 123.474C56.3878 123.474 55.5398 123.624 54.8324 123.922C54.125 124.22 53.5838 124.625 53.2088 125.136C52.8338 125.648 52.642 126.232 52.6335 126.888C52.6335 127.433 52.7571 127.906 53.0043 128.307C53.2599 128.707 53.6051 129.048 54.0398 129.33C54.4744 129.602 54.956 129.832 55.4844 130.02C56.0128 130.207 56.5455 130.365 57.0824 130.493L59.5369 131.107C60.5256 131.337 61.4759 131.648 62.3878 132.04C63.3082 132.432 64.1307 132.926 64.8551 133.523C65.5881 134.119 66.1676 134.839 66.5938 135.683C67.0199 136.527 67.233 137.516 67.233 138.649C67.233 140.183 66.8409 141.534 66.0568 142.702C65.2727 143.861 64.1392 144.768 62.6562 145.425C61.1818 146.072 59.3963 146.396 57.2997 146.396C55.2628 146.396 53.4943 146.081 51.9943 145.45C50.5028 144.82 49.3352 143.899 48.4915 142.689C47.6563 141.479 47.2045 140.004 47.1364 138.266H51.8026C51.8707 139.178 52.152 139.936 52.6463 140.541C53.1406 141.146 53.7841 141.598 54.5767 141.896C55.3778 142.195 56.2727 142.344 57.2614 142.344C58.2926 142.344 59.196 142.19 59.9716 141.884C60.7557 141.568 61.3693 141.134 61.8125 140.58C62.2557 140.017 62.4815 139.361 62.4901 138.611C62.4815 137.929 62.2813 137.366 61.8892 136.923C61.4972 136.472 60.9474 136.097 60.2401 135.798C59.5412 135.491 58.723 135.219 57.7855 134.98L54.8068 134.213C52.6506 133.659 50.946 132.82 49.6932 131.695C48.4489 130.561 47.8267 129.057 47.8267 127.182C47.8267 125.639 48.2443 124.288 49.0795 123.129C49.9233 121.97 51.0696 121.071 52.5185 120.432C53.9673 119.784 55.608 119.46 57.4403 119.46C59.2983 119.46 60.9261 119.784 62.3239 120.432C63.7301 121.071 64.8338 121.962 65.6349 123.104C66.4361 124.237 66.8494 125.541 66.875 127.016H62.3111ZM76.9073 146.396C75.663 146.396 74.5423 146.175 73.5451 145.732C72.5565 145.28 71.7724 144.615 71.1928 143.737C70.6218 142.859 70.3363 141.777 70.3363 140.49C70.3363 139.382 70.5408 138.466 70.9499 137.741C71.359 137.017 71.9173 136.438 72.6246 136.003C73.332 135.568 74.1289 135.24 75.0153 135.018C75.9102 134.788 76.8349 134.622 77.7894 134.52C78.94 134.401 79.8732 134.294 80.5891 134.2C81.305 134.098 81.8249 133.945 82.1488 133.74C82.4812 133.527 82.6474 133.199 82.6474 132.756V132.679C82.6474 131.716 82.3619 130.97 81.7908 130.442C81.2198 129.913 80.3974 129.649 79.3235 129.649C78.19 129.649 77.2908 129.896 76.6261 130.391C75.9698 130.885 75.5266 131.469 75.2965 132.142L70.9755 131.528C71.3164 130.335 71.8789 129.338 72.663 128.537C73.4471 127.727 74.4059 127.122 75.5394 126.722C76.6729 126.312 77.9258 126.108 79.2979 126.108C80.244 126.108 81.1857 126.219 82.1232 126.44C83.0607 126.662 83.9173 127.028 84.6928 127.54C85.4684 128.043 86.0906 128.729 86.5593 129.598C87.0366 130.467 87.2752 131.554 87.2752 132.858V146H82.8264V143.303H82.6729C82.3917 143.848 81.9954 144.359 81.484 144.837C80.9812 145.305 80.3462 145.685 79.5792 145.974C78.8207 146.256 77.93 146.396 76.9073 146.396ZM78.109 142.996C79.038 142.996 79.8434 142.812 80.5252 142.446C81.207 142.071 81.7312 141.577 82.0977 140.963C82.4727 140.349 82.6602 139.68 82.6602 138.956V136.642C82.5153 136.761 82.2681 136.872 81.9187 136.974C81.5778 137.077 81.1942 137.166 80.7681 137.243C80.342 137.32 79.9201 137.388 79.5025 137.447C79.0849 137.507 78.7227 137.558 78.4158 137.601C77.7255 137.695 77.1076 137.848 76.5621 138.061C76.0167 138.274 75.5863 138.572 75.271 138.956C74.9556 139.331 74.7979 139.817 74.7979 140.413C74.7979 141.266 75.109 141.909 75.7312 142.344C76.3533 142.778 77.146 142.996 78.109 142.996ZM96.5565 119.818V146H91.9286V119.818H96.5565ZM110.009 146.384C108.04 146.384 106.339 145.974 104.908 145.156C103.484 144.33 102.389 143.162 101.622 141.653C100.855 140.136 100.472 138.351 100.472 136.297C100.472 134.277 100.855 132.504 101.622 130.979C102.398 129.445 103.48 128.251 104.869 127.399C106.259 126.538 107.891 126.108 109.766 126.108C110.976 126.108 112.118 126.304 113.192 126.696C114.274 127.08 115.229 127.676 116.055 128.486C116.891 129.295 117.547 130.327 118.024 131.58C118.501 132.824 118.74 134.307 118.74 136.028V137.447H102.645V134.328H114.304C114.295 133.442 114.104 132.653 113.729 131.963C113.354 131.264 112.83 130.714 112.156 130.314C111.491 129.913 110.716 129.713 109.83 129.713C108.884 129.713 108.053 129.943 107.337 130.403C106.621 130.855 106.063 131.452 105.662 132.193C105.27 132.926 105.07 133.732 105.061 134.609V137.332C105.061 138.474 105.27 139.455 105.688 140.273C106.105 141.082 106.689 141.705 107.439 142.139C108.189 142.565 109.067 142.778 110.072 142.778C110.746 142.778 111.355 142.685 111.901 142.497C112.446 142.301 112.919 142.016 113.32 141.641C113.72 141.266 114.023 140.801 114.227 140.247L118.548 140.733C118.276 141.875 117.756 142.872 116.989 143.724C116.23 144.568 115.259 145.224 114.074 145.693C112.889 146.153 111.534 146.384 110.009 146.384ZM138.175 131.554L133.956 132.014C133.837 131.588 133.628 131.188 133.33 130.812C133.04 130.438 132.648 130.135 132.154 129.905C131.659 129.675 131.054 129.56 130.338 129.56C129.375 129.56 128.566 129.768 127.909 130.186C127.262 130.604 126.942 131.145 126.951 131.81C126.942 132.381 127.151 132.845 127.577 133.203C128.012 133.561 128.728 133.855 129.725 134.085L133.074 134.801C134.932 135.202 136.313 135.837 137.216 136.706C138.128 137.575 138.588 138.713 138.597 140.119C138.588 141.355 138.226 142.446 137.51 143.392C136.803 144.33 135.819 145.062 134.557 145.591C133.296 146.119 131.847 146.384 130.211 146.384C127.807 146.384 125.873 145.881 124.407 144.875C122.941 143.861 122.067 142.45 121.786 140.643L126.299 140.209C126.503 141.095 126.938 141.764 127.603 142.216C128.267 142.668 129.132 142.893 130.198 142.893C131.297 142.893 132.179 142.668 132.844 142.216C133.517 141.764 133.854 141.206 133.854 140.541C133.854 139.979 133.637 139.514 133.202 139.148C132.776 138.781 132.111 138.5 131.208 138.304L127.858 137.601C125.975 137.209 124.581 136.548 123.678 135.619C122.775 134.682 122.327 133.497 122.336 132.065C122.327 130.855 122.655 129.807 123.32 128.92C123.993 128.026 124.926 127.335 126.12 126.849C127.321 126.355 128.706 126.108 130.275 126.108C132.576 126.108 134.387 126.598 135.708 127.578C137.037 128.558 137.86 129.884 138.175 131.554ZM159.908 146.384C157.99 146.384 156.328 145.962 154.922 145.118C153.516 144.274 152.425 143.094 151.65 141.577C150.882 140.06 150.499 138.287 150.499 136.259C150.499 134.23 150.882 132.453 151.65 130.928C152.425 129.402 153.516 128.217 154.922 127.374C156.328 126.53 157.99 126.108 159.908 126.108C161.826 126.108 163.488 126.53 164.894 127.374C166.3 128.217 167.387 129.402 168.154 130.928C168.929 132.453 169.317 134.23 169.317 136.259C169.317 138.287 168.929 140.06 168.154 141.577C167.387 143.094 166.3 144.274 164.894 145.118C163.488 145.962 161.826 146.384 159.908 146.384ZM159.934 142.676C160.973 142.676 161.843 142.391 162.542 141.82C163.24 141.24 163.76 140.464 164.101 139.493C164.451 138.521 164.625 137.439 164.625 136.246C164.625 135.044 164.451 133.957 164.101 132.986C163.76 132.006 163.24 131.226 162.542 130.646C161.843 130.067 160.973 129.777 159.934 129.777C158.868 129.777 157.982 130.067 157.275 130.646C156.576 131.226 156.051 132.006 155.702 132.986C155.361 133.957 155.191 135.044 155.191 136.246C155.191 137.439 155.361 138.521 155.702 139.493C156.051 140.464 156.576 141.24 157.275 141.82C157.982 142.391 158.868 142.676 159.934 142.676ZM183.191 126.364V129.943H171.583V126.364H183.191ZM174.485 146V124.51C174.485 123.189 174.758 122.089 175.303 121.212C175.857 120.334 176.599 119.678 177.528 119.243C178.457 118.808 179.488 118.591 180.621 118.591C181.423 118.591 182.134 118.655 182.756 118.783C183.379 118.911 183.839 119.026 184.137 119.128L183.217 122.707C183.021 122.648 182.773 122.588 182.475 122.528C182.177 122.46 181.844 122.426 181.478 122.426C180.617 122.426 180.008 122.635 179.65 123.053C179.3 123.462 179.126 124.05 179.126 124.817V146H174.485ZM205.55 126.364V129.943H194.262V126.364H205.55ZM197.049 121.659H201.677V140.094C201.677 140.716 201.771 141.193 201.958 141.526C202.154 141.849 202.41 142.071 202.725 142.19C203.04 142.31 203.39 142.369 203.773 142.369C204.063 142.369 204.327 142.348 204.566 142.305C204.813 142.263 205.001 142.224 205.129 142.19L205.908 145.808C205.661 145.893 205.308 145.987 204.847 146.089C204.396 146.192 203.842 146.251 203.185 146.268C202.026 146.303 200.982 146.128 200.053 145.744C199.124 145.352 198.387 144.747 197.842 143.929C197.305 143.111 197.04 142.088 197.049 140.861V121.659ZM214.471 134.494V146H209.843V119.818H214.368V129.7H214.598C215.059 128.592 215.77 127.719 216.733 127.08C217.705 126.432 218.941 126.108 220.441 126.108C221.804 126.108 222.993 126.393 224.007 126.964C225.022 127.536 225.806 128.371 226.36 129.47C226.922 130.57 227.203 131.912 227.203 133.497V146H222.576V134.213C222.576 132.892 222.235 131.865 221.553 131.132C220.88 130.391 219.934 130.02 218.715 130.02C217.897 130.02 217.164 130.199 216.516 130.557C215.877 130.906 215.374 131.413 215.007 132.078C214.65 132.743 214.471 133.548 214.471 134.494ZM240.614 146.384C238.645 146.384 236.945 145.974 235.513 145.156C234.09 144.33 232.995 143.162 232.228 141.653C231.461 140.136 231.077 138.351 231.077 136.297C231.077 134.277 231.461 132.504 232.228 130.979C233.003 129.445 234.086 128.251 235.475 127.399C236.864 126.538 238.496 126.108 240.371 126.108C241.581 126.108 242.723 126.304 243.797 126.696C244.88 127.08 245.834 127.676 246.661 128.486C247.496 129.295 248.152 130.327 248.63 131.58C249.107 132.824 249.346 134.307 249.346 136.028V137.447H233.25V134.328H244.909C244.901 133.442 244.709 132.653 244.334 131.963C243.959 131.264 243.435 130.714 242.762 130.314C242.097 129.913 241.321 129.713 240.435 129.713C239.489 129.713 238.658 129.943 237.942 130.403C237.226 130.855 236.668 131.452 236.267 132.193C235.875 132.926 235.675 133.732 235.667 134.609V137.332C235.667 138.474 235.875 139.455 236.293 140.273C236.711 141.082 237.294 141.705 238.044 142.139C238.794 142.565 239.672 142.778 240.678 142.778C241.351 142.778 241.961 142.685 242.506 142.497C243.051 142.301 243.525 142.016 243.925 141.641C244.326 141.266 244.628 140.801 244.833 140.247L249.154 140.733C248.881 141.875 248.361 142.872 247.594 143.724C246.836 144.568 245.864 145.224 244.679 145.693C243.495 146.153 242.14 146.384 240.614 146.384ZM260.605 119.818H265.962L272.366 131.401H272.622L279.027 119.818H284.384L274.859 136.233V146H270.129V136.233L260.605 119.818ZM292.575 146.384C290.606 146.384 288.906 145.974 287.474 145.156C286.051 144.33 284.956 143.162 284.189 141.653C283.422 140.136 283.038 138.351 283.038 136.297C283.038 134.277 283.422 132.504 284.189 130.979C284.964 129.445 286.047 128.251 287.436 127.399C288.825 126.538 290.457 126.108 292.332 126.108C293.542 126.108 294.684 126.304 295.758 126.696C296.841 127.08 297.795 127.676 298.622 128.486C299.457 129.295 300.113 130.327 300.591 131.58C301.068 132.824 301.306 134.307 301.306 136.028V137.447H285.211V134.328H296.87C296.862 133.442 296.67 132.653 296.295 131.963C295.92 131.264 295.396 130.714 294.723 130.314C294.058 129.913 293.282 129.713 292.396 129.713C291.45 129.713 290.619 129.943 289.903 130.403C289.187 130.855 288.629 131.452 288.228 132.193C287.836 132.926 287.636 133.732 287.627 134.609V137.332C287.627 138.474 287.836 139.455 288.254 140.273C288.672 141.082 289.255 141.705 290.005 142.139C290.755 142.565 291.633 142.778 292.639 142.778C293.312 142.778 293.922 142.685 294.467 142.497C295.012 142.301 295.485 142.016 295.886 141.641C296.287 141.266 296.589 140.801 296.794 140.247L301.115 140.733C300.842 141.875 300.322 142.872 299.555 143.724C298.797 144.568 297.825 145.224 296.64 145.693C295.456 146.153 294.1 146.384 292.575 146.384ZM310.872 146.396C309.628 146.396 308.507 146.175 307.51 145.732C306.521 145.28 305.737 144.615 305.158 143.737C304.587 142.859 304.301 141.777 304.301 140.49C304.301 139.382 304.506 138.466 304.915 137.741C305.324 137.017 305.882 136.438 306.589 136.003C307.297 135.568 308.094 135.24 308.98 135.018C309.875 134.788 310.8 134.622 311.754 134.52C312.905 134.401 313.838 134.294 314.554 134.2C315.27 134.098 315.79 133.945 316.114 133.74C316.446 133.527 316.612 133.199 316.612 132.756V132.679C316.612 131.716 316.327 130.97 315.756 130.442C315.185 129.913 314.362 129.649 313.288 129.649C312.155 129.649 311.256 129.896 310.591 130.391C309.935 130.885 309.491 131.469 309.261 132.142L304.94 131.528C305.281 130.335 305.844 129.338 306.628 128.537C307.412 127.727 308.371 127.122 309.504 126.722C310.638 126.312 311.891 126.108 313.263 126.108C314.209 126.108 315.151 126.219 316.088 126.44C317.026 126.662 317.882 127.028 318.658 127.54C319.433 128.043 320.055 128.729 320.524 129.598C321.001 130.467 321.24 131.554 321.24 132.858V146H316.791V143.303H316.638C316.357 143.848 315.96 144.359 315.449 144.837C314.946 145.305 314.311 145.685 313.544 145.974C312.786 146.256 311.895 146.396 310.872 146.396ZM312.074 142.996C313.003 142.996 313.808 142.812 314.49 142.446C315.172 142.071 315.696 141.577 316.062 140.963C316.438 140.349 316.625 139.68 316.625 138.956V136.642C316.48 136.761 316.233 136.872 315.884 136.974C315.543 137.077 315.159 137.166 314.733 137.243C314.307 137.32 313.885 137.388 313.467 137.447C313.05 137.507 312.688 137.558 312.381 137.601C311.69 137.695 311.072 137.848 310.527 138.061C309.982 138.274 309.551 138.572 309.236 138.956C308.92 139.331 308.763 139.817 308.763 140.413C308.763 141.266 309.074 141.909 309.696 142.344C310.318 142.778 311.111 142.996 312.074 142.996ZM325.893 146V126.364H330.381V129.636H330.585C330.943 128.503 331.557 127.629 332.426 127.016C333.304 126.393 334.305 126.082 335.43 126.082C335.686 126.082 335.972 126.095 336.287 126.121C336.611 126.138 336.879 126.168 337.092 126.21V130.467C336.896 130.399 336.585 130.339 336.159 130.288C335.741 130.229 335.337 130.199 334.945 130.199C334.101 130.199 333.342 130.382 332.669 130.749C332.004 131.107 331.48 131.605 331.097 132.244C330.713 132.884 330.521 133.621 330.521 134.456V146H325.893Z" fill="#333333"/>
<path d="M55.25 181.199C54.1799 181.199 53.2685 180.908 52.5156 180.325C51.7628 179.738 51.1875 178.888 50.7898 177.776C50.392 176.658 50.1932 175.309 50.1932 173.727C50.1932 172.155 50.392 170.813 50.7898 169.7C51.1922 168.583 51.7699 167.731 52.5227 167.143C53.2803 166.552 54.1894 166.256 55.25 166.256C56.3106 166.256 57.2173 166.552 57.9702 167.143C58.7277 167.731 59.3054 168.583 59.7031 169.7C60.1056 170.813 60.3068 172.155 60.3068 173.727C60.3068 175.309 60.108 176.658 59.7102 177.776C59.3125 178.888 58.7372 179.738 57.9844 180.325C57.2315 180.908 56.3201 181.199 55.25 181.199ZM55.25 179.636C56.3106 179.636 57.1345 179.125 57.7216 178.102C58.3087 177.08 58.6023 175.621 58.6023 173.727C58.6023 172.468 58.4673 171.395 58.1974 170.51C57.9323 169.625 57.5488 168.95 57.0469 168.486C56.5497 168.022 55.9508 167.79 55.25 167.79C54.1989 167.79 53.3774 168.308 52.7855 169.345C52.1937 170.377 51.8977 171.838 51.8977 173.727C51.8977 174.987 52.0303 176.057 52.2955 176.938C52.5606 177.818 52.9418 178.488 53.4389 178.947C53.9408 179.407 54.5445 179.636 55.25 179.636ZM67.75 181.199C66.6799 181.199 65.7685 180.908 65.0156 180.325C64.2628 179.738 63.6875 178.888 63.2898 177.776C62.892 176.658 62.6932 175.309 62.6932 173.727C62.6932 172.155 62.892 170.813 63.2898 169.7C63.6922 168.583 64.2699 167.731 65.0227 167.143C65.7803 166.552 66.6894 166.256 67.75 166.256C68.8106 166.256 69.7173 166.552 70.4702 167.143C71.2277 167.731 71.8054 168.583 72.2031 169.7C72.6056 170.813 72.8068 172.155 72.8068 173.727C72.8068 175.309 72.608 176.658 72.2102 177.776C71.8125 178.888 71.2372 179.738 70.4844 180.325C69.7315 180.908 68.8201 181.199 67.75 181.199ZM67.75 179.636C68.8106 179.636 69.6345 179.125 70.2216 178.102C70.8087 177.08 71.1023 175.621 71.1023 173.727C71.1023 172.468 70.9673 171.395 70.6974 170.51C70.4323 169.625 70.0488 168.95 69.5469 168.486C69.0497 168.022 68.4508 167.79 67.75 167.79C66.6989 167.79 65.8774 168.308 65.2855 169.345C64.6937 170.377 64.3977 171.838 64.3977 173.727C64.3977 174.987 64.5303 176.057 64.7955 176.938C65.0606 177.818 65.4418 178.488 65.9389 178.947C66.4408 179.407 67.0445 179.636 67.75 179.636Z" fill="#333333"/>
<path opacity="0.7" d="M49.7168 202H47.0236V193.273H49.8361C50.6827 193.273 51.4071 193.447 52.0094 193.797C52.6117 194.143 53.0733 194.642 53.3944 195.293C53.7154 195.94 53.8759 196.716 53.8759 197.619C53.8759 198.528 53.714 199.311 53.3901 199.967C53.0662 200.621 52.5946 201.124 51.9753 201.476C51.356 201.825 50.6032 202 49.7168 202ZM48.0804 201.062H49.6486C50.3702 201.062 50.9682 200.923 51.4426 200.645C51.9171 200.366 52.2708 199.97 52.5037 199.456C52.7367 198.942 52.8532 198.33 52.8532 197.619C52.8532 196.915 52.7381 196.308 52.508 195.8C52.2779 195.288 51.9341 194.896 51.4767 194.624C51.0194 194.348 50.4498 194.21 49.7679 194.21H48.0804V201.062ZM55.5964 202H54.4885L57.693 193.273H58.7839L61.9885 202H60.8805L58.2725 194.653H58.2044L55.5964 202ZM56.0055 198.591H60.4714V199.528H56.0055V198.591ZM61.7072 193.273H62.9174L65.3379 197.347H65.4402L67.8606 193.273H69.0708L65.9174 198.403V202H64.8606V198.403L61.7072 193.273ZM75.2104 195.455C75.1593 195.023 74.9519 194.688 74.5882 194.449C74.2246 194.21 73.7786 194.091 73.2502 194.091C72.8638 194.091 72.5257 194.153 72.236 194.278C71.949 194.403 71.7246 194.575 71.5627 194.794C71.4036 195.013 71.324 195.261 71.324 195.54C71.324 195.773 71.3794 195.973 71.4902 196.141C71.6039 196.305 71.7488 196.443 71.9249 196.554C72.101 196.662 72.2857 196.751 72.4789 196.822C72.6721 196.891 72.8496 196.946 73.0115 196.989L73.8979 197.227C74.1252 197.287 74.378 197.369 74.6564 197.474C74.9377 197.58 75.2061 197.723 75.4618 197.905C75.7203 198.084 75.9334 198.314 76.101 198.595C76.2686 198.876 76.3525 199.222 76.3525 199.631C76.3525 200.102 76.2289 200.528 75.9817 200.909C75.7374 201.29 75.3794 201.592 74.9078 201.817C74.4391 202.041 73.8695 202.153 73.199 202.153C72.574 202.153 72.0328 202.053 71.5755 201.851C71.1209 201.649 70.763 201.368 70.5016 201.007C70.2431 200.646 70.0968 200.227 70.0627 199.75H71.1536C71.182 200.08 71.2928 200.352 71.486 200.568C71.682 200.781 71.9292 200.94 72.2275 201.045C72.5286 201.148 72.8525 201.199 73.199 201.199C73.6025 201.199 73.9647 201.134 74.2857 201.003C74.6067 200.869 74.861 200.685 75.0485 200.449C75.236 200.21 75.3297 199.932 75.3297 199.614C75.3297 199.324 75.2488 199.088 75.0868 198.906C74.9249 198.724 74.7118 198.577 74.4476 198.463C74.1834 198.349 73.8979 198.25 73.5911 198.165L72.5172 197.858C71.8354 197.662 71.2956 197.382 70.8979 197.018C70.5002 196.655 70.3013 196.179 70.3013 195.591C70.3013 195.102 70.4334 194.676 70.6976 194.312C70.9647 193.946 71.3226 193.662 71.7715 193.46C72.2232 193.256 72.7275 193.153 73.2843 193.153C73.8468 193.153 74.3468 193.254 74.7843 193.456C75.2218 193.655 75.5684 193.928 75.824 194.274C76.0826 194.621 76.2189 195.014 76.2331 195.455H75.2104Z" fill="#333333"/>
<path opacity="0.6" d="M88.0014 189.091C87.7211 189.091 87.4806 188.991 87.2798 188.79C87.0791 188.589 86.9787 188.348 86.9787 188.068C86.9787 187.788 87.0791 187.547 87.2798 187.347C87.4806 187.146 87.7211 187.045 88.0014 187.045C88.2817 187.045 88.5223 187.146 88.723 187.347C88.9238 187.547 89.0241 187.788 89.0241 188.068C89.0241 188.254 88.9768 188.424 88.8821 188.58C88.7912 188.735 88.6681 188.86 88.5128 188.955C88.3613 189.045 88.1908 189.091 88.0014 189.091ZM88.0014 182.614C87.7211 182.614 87.4806 182.513 87.2798 182.312C87.0791 182.112 86.9787 181.871 86.9787 181.591C86.9787 181.311 87.0791 181.07 87.2798 180.869C87.4806 180.669 87.7211 180.568 88.0014 180.568C88.2817 180.568 88.5223 180.669 88.723 180.869C88.9238 181.07 89.0241 181.311 89.0241 181.591C89.0241 181.777 88.9768 181.947 88.8821 182.102C88.7912 182.258 88.6681 182.383 88.5128 182.477C88.3613 182.568 88.1908 182.614 88.0014 182.614Z" fill="#333333"/>
<path d="M113.945 181.199C112.875 181.199 111.964 180.908 111.211 180.325C110.458 179.738 109.883 178.888 109.485 177.776C109.087 176.658 108.888 175.309 108.888 173.727C108.888 172.155 109.087 170.813 109.485 169.7C109.888 168.583 110.465 167.731 111.218 167.143C111.976 166.552 112.885 166.256 113.945 166.256C115.006 166.256 115.913 166.552 116.665 167.143C117.423 167.731 118.001 168.583 118.398 169.7C118.801 170.813 119.002 172.155 119.002 173.727C119.002 175.309 118.803 176.658 118.406 177.776C118.008 178.888 117.433 179.738 116.68 180.325C115.927 180.908 115.015 181.199 113.945 181.199ZM113.945 179.636C115.006 179.636 115.83 179.125 116.417 178.102C117.004 177.08 117.298 175.621 117.298 173.727C117.298 172.468 117.163 171.395 116.893 170.51C116.628 169.625 116.244 168.95 115.742 168.486C115.245 168.022 114.646 167.79 113.945 167.79C112.894 167.79 112.073 168.308 111.481 169.345C110.889 170.377 110.593 171.838 110.593 173.727C110.593 174.987 110.726 176.057 110.991 176.938C111.256 177.818 111.637 178.488 112.134 178.947C112.636 179.407 113.24 179.636 113.945 179.636ZM121.701 181V179.722L126.502 174.466C127.066 173.85 127.53 173.315 127.894 172.861C128.259 172.402 128.529 171.971 128.704 171.568C128.884 171.161 128.974 170.735 128.974 170.29C128.974 169.778 128.851 169.336 128.604 168.962C128.363 168.588 128.031 168.299 127.61 168.095C127.189 167.892 126.715 167.79 126.19 167.79C125.631 167.79 125.143 167.906 124.727 168.138C124.315 168.365 123.995 168.685 123.768 169.097C123.545 169.509 123.434 169.991 123.434 170.545H121.758C121.758 169.693 121.954 168.945 122.347 168.301C122.74 167.657 123.275 167.155 123.952 166.795C124.634 166.436 125.399 166.256 126.246 166.256C127.099 166.256 127.854 166.436 128.512 166.795C129.17 167.155 129.686 167.641 130.06 168.251C130.434 168.862 130.621 169.542 130.621 170.29C130.621 170.825 130.524 171.348 130.33 171.859C130.141 172.366 129.809 172.932 129.336 173.557C128.867 174.177 128.216 174.935 127.383 175.83L124.116 179.324V179.438H130.877V181H121.701Z" fill="#333333"/>
<path opacity="0.7" d="M99.9338 202V193.273H100.991V197.159H105.644V193.273H106.701V202H105.644V198.097H100.991V202H99.9338ZM116.18 197.636C116.18 198.557 116.014 199.352 115.682 200.023C115.349 200.693 114.893 201.21 114.314 201.574C113.734 201.938 113.072 202.119 112.328 202.119C111.584 202.119 110.922 201.938 110.342 201.574C109.763 201.21 109.307 200.693 108.974 200.023C108.642 199.352 108.476 198.557 108.476 197.636C108.476 196.716 108.642 195.92 108.974 195.25C109.307 194.58 109.763 194.062 110.342 193.699C110.922 193.335 111.584 193.153 112.328 193.153C113.072 193.153 113.734 193.335 114.314 193.699C114.893 194.062 115.349 194.58 115.682 195.25C116.014 195.92 116.18 196.716 116.18 197.636ZM115.157 197.636C115.157 196.881 115.031 196.243 114.778 195.723C114.528 195.203 114.189 194.81 113.76 194.543C113.334 194.276 112.856 194.142 112.328 194.142C111.8 194.142 111.321 194.276 110.892 194.543C110.466 194.81 110.126 195.203 109.873 195.723C109.623 196.243 109.498 196.881 109.498 197.636C109.498 198.392 109.623 199.03 109.873 199.55C110.126 200.07 110.466 200.463 110.892 200.73C111.321 200.997 111.8 201.131 112.328 201.131C112.856 201.131 113.334 200.997 113.76 200.73C114.189 200.463 114.528 200.07 114.778 199.55C115.031 199.03 115.157 198.392 115.157 197.636ZM123.684 193.273H124.741V199.051C124.741 199.648 124.601 200.18 124.319 200.649C124.041 201.115 123.648 201.483 123.139 201.753C122.631 202.02 122.034 202.153 121.349 202.153C120.665 202.153 120.068 202.02 119.559 201.753C119.051 201.483 118.656 201.115 118.375 200.649C118.096 200.18 117.957 199.648 117.957 199.051V193.273H119.014V198.966C119.014 199.392 119.108 199.771 119.295 200.104C119.483 200.433 119.75 200.693 120.096 200.884C120.446 201.071 120.863 201.165 121.349 201.165C121.835 201.165 122.253 201.071 122.602 200.884C122.952 200.693 123.219 200.433 123.403 200.104C123.591 199.771 123.684 199.392 123.684 198.966V193.273ZM126.852 202V193.273H129.801C130.482 193.273 131.042 193.389 131.48 193.622C131.917 193.852 132.241 194.169 132.451 194.572C132.661 194.976 132.767 195.435 132.767 195.949C132.767 196.463 132.661 196.919 132.451 197.317C132.241 197.714 131.919 198.027 131.484 198.254C131.049 198.479 130.494 198.591 129.818 198.591H127.431V197.636H129.784C130.249 197.636 130.624 197.568 130.909 197.432C131.195 197.295 131.403 197.102 131.531 196.852C131.661 196.599 131.727 196.298 131.727 195.949C131.727 195.599 131.661 195.294 131.531 195.033C131.4 194.771 131.191 194.57 130.904 194.428C130.617 194.283 130.238 194.21 129.767 194.21H127.909V202H126.852ZM130.96 198.08L133.107 202H131.88L129.767 198.08H130.96ZM139.3 195.455C139.249 195.023 139.042 194.688 138.678 194.449C138.314 194.21 137.868 194.091 137.34 194.091C136.954 194.091 136.616 194.153 136.326 194.278C136.039 194.403 135.814 194.575 135.653 194.794C135.493 195.013 135.414 195.261 135.414 195.54C135.414 195.773 135.469 195.973 135.58 196.141C135.694 196.305 135.839 196.443 136.015 196.554C136.191 196.662 136.376 196.751 136.569 196.822C136.762 196.891 136.939 196.946 137.101 196.989L137.988 197.227C138.215 197.287 138.468 197.369 138.746 197.474C139.028 197.58 139.296 197.723 139.552 197.905C139.81 198.084 140.023 198.314 140.191 198.595C140.358 198.876 140.442 199.222 140.442 199.631C140.442 200.102 140.319 200.528 140.072 200.909C139.827 201.29 139.469 201.592 138.998 201.817C138.529 202.041 137.959 202.153 137.289 202.153C136.664 202.153 136.123 202.053 135.665 201.851C135.211 201.649 134.853 201.368 134.591 201.007C134.333 200.646 134.187 200.227 134.153 199.75H135.243C135.272 200.08 135.383 200.352 135.576 200.568C135.772 200.781 136.019 200.94 136.317 201.045C136.618 201.148 136.942 201.199 137.289 201.199C137.692 201.199 138.055 201.134 138.376 201.003C138.697 200.869 138.951 200.685 139.138 200.449C139.326 200.21 139.42 199.932 139.42 199.614C139.42 199.324 139.339 199.088 139.177 198.906C139.015 198.724 138.802 198.577 138.537 198.463C138.273 198.349 137.988 198.25 137.681 198.165L136.607 197.858C135.925 197.662 135.385 197.382 134.988 197.018C134.59 196.655 134.391 196.179 134.391 195.591C134.391 195.102 134.523 194.676 134.787 194.312C135.055 193.946 135.412 193.662 135.861 193.46C136.313 193.256 136.817 193.153 137.374 193.153C137.937 193.153 138.437 193.254 138.874 193.456C139.312 193.655 139.658 193.928 139.914 194.274C140.172 194.621 140.309 195.014 140.323 195.455H139.3Z" fill="#333333"/>
<path opacity="0.6" d="M152.001 189.091C151.721 189.091 151.481 188.991 151.28 188.79C151.079 188.589 150.979 188.348 150.979 188.068C150.979 187.788 151.079 187.547 151.28 187.347C151.481 187.146 151.721 187.045 152.001 187.045C152.282 187.045 152.522 187.146 152.723 187.347C152.924 187.547 153.024 187.788 153.024 188.068C153.024 188.254 152.977 188.424 152.882 188.58C152.791 188.735 152.668 188.86 152.513 188.955C152.361 189.045 152.191 189.091 152.001 189.091ZM152.001 182.614C151.721 182.614 151.481 182.513 151.28 182.312C151.079 182.112 150.979 181.871 150.979 181.591C150.979 181.311 151.079 181.07 151.28 180.869C151.481 180.669 151.721 180.568 152.001 180.568C152.282 180.568 152.522 180.669 152.723 180.869C152.924 181.07 153.024 181.311 153.024 181.591C153.024 181.777 152.977 181.947 152.882 182.102C152.791 182.258 152.668 182.383 152.513 182.477C152.361 182.568 152.191 182.614 152.001 182.614Z" fill="#333333"/>
<path d="M174.309 166.455V181H172.547V168.301H172.462L168.911 170.659V168.869L172.547 166.455H174.309ZM183.151 181.199C182.176 181.199 181.314 181.026 180.566 180.68C179.823 180.33 179.242 179.849 178.826 179.239C178.409 178.623 178.203 177.922 178.208 177.136C178.203 176.521 178.324 175.953 178.57 175.432C178.816 174.906 179.153 174.468 179.579 174.118C180.01 173.763 180.49 173.538 181.02 173.443V173.358C180.324 173.178 179.77 172.787 179.358 172.186C178.947 171.58 178.743 170.891 178.748 170.119C178.743 169.381 178.93 168.72 179.309 168.138C179.688 167.555 180.208 167.096 180.871 166.76C181.539 166.424 182.299 166.256 183.151 166.256C183.994 166.256 184.747 166.424 185.41 166.76C186.073 167.096 186.593 167.555 186.972 168.138C187.356 168.72 187.55 169.381 187.555 170.119C187.55 170.891 187.339 171.58 186.922 172.186C186.51 172.787 185.964 173.178 185.282 173.358V173.443C185.807 173.538 186.281 173.763 186.702 174.118C187.124 174.468 187.46 174.906 187.711 175.432C187.962 175.953 188.09 176.521 188.094 177.136C188.09 177.922 187.876 178.623 187.455 179.239C187.038 179.849 186.458 180.33 185.715 180.68C184.976 181.026 184.122 181.199 183.151 181.199ZM183.151 179.636C183.809 179.636 184.377 179.53 184.856 179.317C185.334 179.104 185.703 178.803 185.964 178.415C186.224 178.027 186.357 177.572 186.361 177.051C186.357 176.502 186.215 176.017 185.935 175.595C185.656 175.174 185.275 174.842 184.792 174.601C184.314 174.359 183.767 174.239 183.151 174.239C182.531 174.239 181.977 174.359 181.489 174.601C181.006 174.842 180.625 175.174 180.346 175.595C180.071 176.017 179.936 176.502 179.941 177.051C179.936 177.572 180.062 178.027 180.317 178.415C180.578 178.803 180.949 179.104 181.432 179.317C181.915 179.53 182.488 179.636 183.151 179.636ZM183.151 172.733C183.672 172.733 184.134 172.629 184.536 172.42C184.943 172.212 185.263 171.921 185.495 171.547C185.727 171.173 185.845 170.735 185.85 170.233C185.845 169.741 185.729 169.312 185.502 168.947C185.275 168.578 184.96 168.294 184.557 168.095C184.155 167.892 183.686 167.79 183.151 167.79C182.607 167.79 182.131 167.892 181.724 168.095C181.316 168.294 181.001 168.578 180.779 168.947C180.556 169.312 180.448 169.741 180.452 170.233C180.448 170.735 180.559 171.173 180.786 171.547C181.018 171.921 181.338 172.212 181.745 172.42C182.152 172.629 182.621 172.733 183.151 172.733Z" fill="#333333"/>
<path opacity="0.7" d="M164.287 193.273H165.549L168.515 200.517H168.617L171.583 193.273H172.844V202H171.855V195.369H171.77L169.043 202H168.088L165.361 195.369H165.276V202H164.287V193.273ZM176.02 193.273V202H174.963V193.273H176.02ZM185.059 193.273V202H184.037L179.281 195.148H179.196V202H178.139V193.273H179.162L183.934 200.142H184.02V193.273H185.059ZM191.947 195.455C191.896 195.023 191.688 194.688 191.325 194.449C190.961 194.21 190.515 194.091 189.987 194.091C189.6 194.091 189.262 194.153 188.972 194.278C188.685 194.403 188.461 194.575 188.299 194.794C188.14 195.013 188.06 195.261 188.06 195.54C188.06 195.773 188.116 195.973 188.227 196.141C188.34 196.305 188.485 196.443 188.661 196.554C188.837 196.662 189.022 196.751 189.215 196.822C189.408 196.891 189.586 196.946 189.748 196.989L190.634 197.227C190.862 197.287 191.114 197.369 191.393 197.474C191.674 197.58 191.942 197.723 192.198 197.905C192.457 198.084 192.67 198.314 192.837 198.595C193.005 198.876 193.089 199.222 193.089 199.631C193.089 200.102 192.965 200.528 192.718 200.909C192.474 201.29 192.116 201.592 191.644 201.817C191.175 202.041 190.606 202.153 189.935 202.153C189.31 202.153 188.769 202.053 188.312 201.851C187.857 201.649 187.499 201.368 187.238 201.007C186.979 200.646 186.833 200.227 186.799 199.75H187.89C187.918 200.08 188.029 200.352 188.222 200.568C188.418 200.781 188.665 200.94 188.964 201.045C189.265 201.148 189.589 201.199 189.935 201.199C190.339 201.199 190.701 201.134 191.022 201.003C191.343 200.869 191.597 200.685 191.785 200.449C191.972 200.21 192.066 199.932 192.066 199.614C192.066 199.324 191.985 199.088 191.823 198.906C191.661 198.724 191.448 198.577 191.184 198.463C190.92 198.349 190.634 198.25 190.327 198.165L189.254 197.858C188.572 197.662 188.032 197.382 187.634 197.018C187.237 196.655 187.038 196.179 187.038 195.591C187.038 195.102 187.17 194.676 187.434 194.312C187.701 193.946 188.059 193.662 188.508 193.46C188.96 193.256 189.464 193.153 190.021 193.153C190.583 193.153 191.083 193.254 191.521 193.456C191.958 193.655 192.305 193.928 192.56 194.274C192.819 194.621 192.955 195.014 192.969 195.455H191.947Z" fill="#333333"/>
<path opacity="0.6" d="M205.001 189.091C204.721 189.091 204.481 188.991 204.28 188.79C204.079 188.589 203.979 188.348 203.979 188.068C203.979 187.788 204.079 187.547 204.28 187.347C204.481 187.146 204.721 187.045 205.001 187.045C205.282 187.045 205.522 187.146 205.723 187.347C205.924 187.547 206.024 187.788 206.024 188.068C206.024 188.254 205.977 188.424 205.882 188.58C205.791 188.735 205.668 188.86 205.513 188.955C205.361 189.045 205.191 189.091 205.001 189.091ZM205.001 182.614C204.721 182.614 204.481 182.513 204.28 182.312C204.079 182.112 203.979 181.871 203.979 181.591C203.979 181.311 204.079 181.07 204.28 180.869C204.481 180.669 204.721 180.568 205.001 180.568C205.282 180.568 205.522 180.669 205.723 180.869C205.924 181.07 206.024 181.311 206.024 181.591C206.024 181.777 205.977 181.947 205.882 182.102C205.791 182.258 205.668 182.383 205.513 182.477C205.361 182.568 205.191 182.614 205.001 182.614Z" fill="#333333"/>
<path d="M220.009 178.017V176.568L226.401 166.455H227.452V168.699H226.741L221.912 176.341V176.455H230.52V178.017H220.009ZM226.855 181V177.577V176.902V166.455H228.531V181H226.855ZM238.011 181.199C237.414 181.189 236.818 181.076 236.221 180.858C235.625 180.64 235.08 180.273 234.588 179.757C234.095 179.236 233.7 178.533 233.402 177.648C233.103 176.758 232.954 175.64 232.954 174.295C232.954 173.008 233.075 171.866 233.316 170.872C233.558 169.873 233.908 169.033 234.368 168.351C234.827 167.664 235.381 167.143 236.029 166.788C236.683 166.433 237.419 166.256 238.238 166.256C239.053 166.256 239.777 166.419 240.412 166.746C241.051 167.068 241.572 167.518 241.974 168.095C242.377 168.673 242.637 169.338 242.755 170.091H241.022C240.861 169.437 240.549 168.895 240.085 168.464C239.621 168.034 239.005 167.818 238.238 167.818C237.111 167.818 236.224 168.308 235.575 169.288C234.931 170.268 234.607 171.644 234.602 173.415H234.716C234.981 173.012 235.296 172.669 235.66 172.385C236.029 172.096 236.437 171.874 236.882 171.717C237.327 171.561 237.798 171.483 238.295 171.483C239.128 171.483 239.891 171.691 240.582 172.108C241.273 172.52 241.827 173.09 242.244 173.82C242.661 174.544 242.869 175.375 242.869 176.312C242.869 177.212 242.668 178.036 242.265 178.784C241.863 179.527 241.297 180.119 240.568 180.56C239.843 180.995 238.991 181.208 238.011 181.199ZM238.011 179.636C238.608 179.636 239.143 179.487 239.616 179.189C240.094 178.891 240.471 178.491 240.745 177.989C241.025 177.487 241.164 176.928 241.164 176.312C241.164 175.711 241.029 175.164 240.76 174.672C240.494 174.175 240.127 173.779 239.659 173.486C239.195 173.192 238.664 173.045 238.068 173.045C237.618 173.045 237.199 173.135 236.811 173.315C236.422 173.491 236.082 173.732 235.788 174.04C235.499 174.348 235.272 174.7 235.106 175.098C234.94 175.491 234.858 175.905 234.858 176.341C234.858 176.919 234.993 177.458 235.262 177.96C235.537 178.462 235.911 178.867 236.385 179.175C236.863 179.482 237.405 179.636 238.011 179.636Z" fill="#333333"/>
<path opacity="0.7" d="M221.726 195.455C221.675 195.023 221.468 194.688 221.104 194.449C220.74 194.21 220.294 194.091 219.766 194.091C219.379 194.091 219.041 194.153 218.752 194.278C218.465 194.403 218.24 194.575 218.078 194.794C217.919 195.013 217.84 195.261 217.84 195.54C217.84 195.773 217.895 195.973 218.006 196.141C218.119 196.305 218.264 196.443 218.441 196.554C218.617 196.662 218.801 196.751 218.994 196.822C219.188 196.891 219.365 196.946 219.527 196.989L220.414 197.227C220.641 197.287 220.894 197.369 221.172 197.474C221.453 197.58 221.722 197.723 221.977 197.905C222.236 198.084 222.449 198.314 222.617 198.595C222.784 198.876 222.868 199.222 222.868 199.631C222.868 200.102 222.744 200.528 222.497 200.909C222.253 201.29 221.895 201.592 221.423 201.817C220.955 202.041 220.385 202.153 219.715 202.153C219.09 202.153 218.548 202.053 218.091 201.851C217.637 201.649 217.279 201.368 217.017 201.007C216.759 200.646 216.612 200.227 216.578 199.75H217.669C217.698 200.08 217.808 200.352 218.002 200.568C218.198 200.781 218.445 200.94 218.743 201.045C219.044 201.148 219.368 201.199 219.715 201.199C220.118 201.199 220.48 201.134 220.801 201.003C221.122 200.869 221.377 200.685 221.564 200.449C221.752 200.21 221.845 199.932 221.845 199.614C221.845 199.324 221.764 199.088 221.602 198.906C221.441 198.724 221.227 198.577 220.963 198.463C220.699 198.349 220.414 198.25 220.107 198.165L219.033 197.858C218.351 197.662 217.811 197.382 217.414 197.018C217.016 196.655 216.817 196.179 216.817 195.591C216.817 195.102 216.949 194.676 217.213 194.312C217.48 193.946 217.838 193.662 218.287 193.46C218.739 193.256 219.243 193.153 219.8 193.153C220.362 193.153 220.862 193.254 221.3 193.456C221.737 193.655 222.084 193.928 222.34 194.274C222.598 194.621 222.735 195.014 222.749 195.455H221.726ZM224.606 202V193.273H229.873V194.21H225.662V197.159H229.6V198.097H225.662V201.062H229.941V202H224.606ZM238.8 196H237.743C237.681 195.696 237.572 195.429 237.415 195.199C237.262 194.969 237.074 194.776 236.853 194.619C236.634 194.46 236.391 194.341 236.124 194.261C235.857 194.182 235.579 194.142 235.289 194.142C234.76 194.142 234.282 194.276 233.853 194.543C233.427 194.81 233.087 195.203 232.834 195.723C232.584 196.243 232.459 196.881 232.459 197.636C232.459 198.392 232.584 199.03 232.834 199.55C233.087 200.07 233.427 200.463 233.853 200.73C234.282 200.997 234.76 201.131 235.289 201.131C235.579 201.131 235.857 201.091 236.124 201.011C236.391 200.932 236.634 200.814 236.853 200.658C237.074 200.499 237.262 200.304 237.415 200.074C237.572 199.841 237.681 199.574 237.743 199.273H238.8C238.721 199.719 238.576 200.118 238.366 200.47C238.155 200.822 237.894 201.122 237.581 201.369C237.269 201.614 236.918 201.8 236.529 201.928C236.143 202.055 235.729 202.119 235.289 202.119C234.545 202.119 233.883 201.938 233.303 201.574C232.724 201.21 232.268 200.693 231.935 200.023C231.603 199.352 231.437 198.557 231.437 197.636C231.437 196.716 231.603 195.92 231.935 195.25C232.268 194.58 232.724 194.062 233.303 193.699C233.883 193.335 234.545 193.153 235.289 193.153C235.729 193.153 236.143 193.217 236.529 193.345C236.918 193.473 237.269 193.661 237.581 193.908C237.894 194.152 238.155 194.45 238.366 194.803C238.576 195.152 238.721 195.551 238.8 196ZM245.281 195.455C245.23 195.023 245.022 194.688 244.659 194.449C244.295 194.21 243.849 194.091 243.32 194.091C242.934 194.091 242.596 194.153 242.306 194.278C242.019 194.403 241.795 194.575 241.633 194.794C241.474 195.013 241.394 195.261 241.394 195.54C241.394 195.773 241.45 195.973 241.561 196.141C241.674 196.305 241.819 196.443 241.995 196.554C242.171 196.662 242.356 196.751 242.549 196.822C242.742 196.891 242.92 196.946 243.082 196.989L243.968 197.227C244.195 197.287 244.448 197.369 244.727 197.474C245.008 197.58 245.276 197.723 245.532 197.905C245.791 198.084 246.004 198.314 246.171 198.595C246.339 198.876 246.423 199.222 246.423 199.631C246.423 200.102 246.299 200.528 246.052 200.909C245.808 201.29 245.45 201.592 244.978 201.817C244.509 202.041 243.94 202.153 243.269 202.153C242.644 202.153 242.103 202.053 241.646 201.851C241.191 201.649 240.833 201.368 240.572 201.007C240.313 200.646 240.167 200.227 240.133 199.75H241.224C241.252 200.08 241.363 200.352 241.556 200.568C241.752 200.781 241.999 200.94 242.298 201.045C242.599 201.148 242.923 201.199 243.269 201.199C243.673 201.199 244.035 201.134 244.356 201.003C244.677 200.869 244.931 200.685 245.119 200.449C245.306 200.21 245.4 199.932 245.4 199.614C245.4 199.324 245.319 199.088 245.157 198.906C244.995 198.724 244.782 198.577 244.518 198.463C244.254 198.349 243.968 198.25 243.661 198.165L242.588 197.858C241.906 197.662 241.366 197.382 240.968 197.018C240.57 196.655 240.372 196.179 240.372 195.591C240.372 195.102 240.504 194.676 240.768 194.312C241.035 193.946 241.393 193.662 241.842 193.46C242.294 193.256 242.798 193.153 243.355 193.153C243.917 193.153 244.417 193.254 244.855 193.456C245.292 193.655 245.639 193.928 245.894 194.274C246.153 194.621 246.289 195.014 246.303 195.455H245.281Z" fill="#333333"/>
<rect x="45.5" y="229" width="160" height="45" rx="22.5" fill="white"/>
<path d="M84.0376 249.617C83.9912 249.183 83.7957 248.845 83.451 248.603C83.1096 248.361 82.6655 248.24 82.1186 248.24C81.7341 248.24 81.4044 248.298 81.1293 248.414C80.8542 248.53 80.6437 248.687 80.4979 248.886C80.352 249.085 80.2775 249.312 80.2741 249.567C80.2741 249.78 80.3222 249.964 80.4183 250.119C80.5178 250.275 80.652 250.408 80.821 250.517C80.9901 250.623 81.1773 250.713 81.3828 250.786C81.5883 250.858 81.7955 250.92 82.0043 250.969L82.9588 251.208C83.3433 251.298 83.7128 251.419 84.0675 251.571C84.4254 251.723 84.7453 251.916 85.027 252.148C85.312 252.38 85.5374 252.66 85.7031 252.988C85.8688 253.316 85.9517 253.701 85.9517 254.141C85.9517 254.738 85.7992 255.263 85.4943 255.717C85.1894 256.168 84.7486 256.521 84.1719 256.776C83.5985 257.028 82.9041 257.154 82.0888 257.154C81.2966 257.154 80.6089 257.031 80.0256 256.786C79.4455 256.541 78.9915 256.183 78.6634 255.712C78.3385 255.242 78.1629 254.668 78.1364 253.992H79.951C79.9775 254.347 80.0869 254.642 80.2791 254.877C80.4714 255.112 80.7216 255.288 81.0298 255.404C81.3414 255.52 81.6894 255.578 82.0739 255.578C82.4749 255.578 82.8262 255.518 83.1278 255.399C83.4328 255.277 83.6714 255.107 83.8438 254.892C84.0161 254.673 84.1039 254.418 84.1072 254.126C84.1039 253.861 84.026 253.643 83.8736 253.47C83.7211 253.295 83.5073 253.149 83.2322 253.033C82.9605 252.913 82.6423 252.807 82.2777 252.714L81.1193 252.416C80.2808 252.201 79.6179 251.874 79.1307 251.437C78.6468 250.996 78.4048 250.411 78.4048 249.682C78.4048 249.082 78.5672 248.557 78.892 248.106C79.2202 247.655 79.666 247.305 80.2294 247.057C80.7929 246.805 81.4309 246.679 82.1435 246.679C82.866 246.679 83.4991 246.805 84.0426 247.057C84.5895 247.305 85.0187 247.652 85.3303 248.096C85.6418 248.537 85.8026 249.044 85.8125 249.617H84.0376ZM89.3162 252.526V257H87.5165V246.818H89.2765V250.661H89.3659C89.5449 250.23 89.8217 249.891 90.1962 249.642C90.574 249.39 91.0546 249.264 91.638 249.264C92.1683 249.264 92.6306 249.375 93.025 249.597C93.4194 249.819 93.7244 250.144 93.9398 250.572C94.1586 250.999 94.2679 251.521 94.2679 252.138V257H92.4682V252.416C92.4682 251.902 92.3356 251.503 92.0705 251.218C91.8087 250.93 91.4408 250.786 90.9668 250.786C90.6486 250.786 90.3636 250.855 90.1117 250.994C89.8631 251.13 89.6676 251.327 89.525 251.586C89.3858 251.844 89.3162 252.158 89.3162 252.526ZM99.4334 257.149C98.6877 257.149 98.0414 256.985 97.4945 256.657C96.9476 256.329 96.5234 255.87 96.2218 255.28C95.9235 254.69 95.7743 254 95.7743 253.212C95.7743 252.423 95.9235 251.732 96.2218 251.138C96.5234 250.545 96.9476 250.085 97.4945 249.756C98.0414 249.428 98.6877 249.264 99.4334 249.264C100.179 249.264 100.825 249.428 101.372 249.756C101.919 250.085 102.342 250.545 102.64 251.138C102.942 251.732 103.093 252.423 103.093 253.212C103.093 254 102.942 254.69 102.64 255.28C102.342 255.87 101.919 256.329 101.372 256.657C100.825 256.985 100.179 257.149 99.4334 257.149ZM99.4434 255.707C99.8477 255.707 100.186 255.596 100.458 255.374C100.729 255.149 100.932 254.847 101.064 254.469C101.2 254.092 101.268 253.671 101.268 253.207C101.268 252.739 101.2 252.317 101.064 251.939C100.932 251.558 100.729 251.254 100.458 251.029C100.186 250.804 99.8477 250.691 99.4434 250.691C99.0291 250.691 98.6844 250.804 98.4093 251.029C98.1375 251.254 97.9337 251.558 97.7978 251.939C97.6652 252.317 97.5989 252.739 97.5989 253.207C97.5989 253.671 97.6652 254.092 97.7978 254.469C97.9337 254.847 98.1375 255.149 98.4093 255.374C98.6844 255.596 99.0291 255.707 99.4434 255.707ZM104.62 259.864V249.364H106.39V250.626H106.494C106.587 250.441 106.718 250.244 106.887 250.035C107.056 249.823 107.285 249.642 107.573 249.493C107.862 249.34 108.229 249.264 108.677 249.264C109.267 249.264 109.799 249.415 110.273 249.717C110.75 250.015 111.128 250.457 111.406 251.044C111.688 251.627 111.829 252.343 111.829 253.192C111.829 254.03 111.691 254.743 111.416 255.33C111.141 255.916 110.767 256.364 110.293 256.672C109.819 256.98 109.282 257.134 108.682 257.134C108.244 257.134 107.881 257.061 107.593 256.915C107.305 256.77 107.073 256.594 106.897 256.388C106.725 256.18 106.59 255.982 106.494 255.797H106.42V259.864H104.62ZM106.385 253.182C106.385 253.676 106.455 254.108 106.594 254.479C106.736 254.851 106.94 255.141 107.205 255.349C107.474 255.555 107.799 255.658 108.18 255.658C108.577 255.658 108.911 255.552 109.179 255.339C109.447 255.124 109.65 254.831 109.786 254.46C109.925 254.085 109.994 253.659 109.994 253.182C109.994 252.708 109.926 252.287 109.79 251.919C109.655 251.551 109.452 251.263 109.184 251.054C108.915 250.845 108.581 250.741 108.18 250.741C107.795 250.741 107.469 250.842 107.2 251.044C106.932 251.246 106.728 251.53 106.589 251.894C106.453 252.259 106.385 252.688 106.385 253.182ZM125.289 246.818V257H123.649L118.851 250.065H118.767V257H116.922V246.818H118.573L123.365 253.759H123.455V246.818H125.289ZM130.551 257.149C129.805 257.149 129.159 256.985 128.612 256.657C128.065 256.329 127.641 255.87 127.339 255.28C127.041 254.69 126.892 254 126.892 253.212C126.892 252.423 127.041 251.732 127.339 251.138C127.641 250.545 128.065 250.085 128.612 249.756C129.159 249.428 129.805 249.264 130.551 249.264C131.296 249.264 131.943 249.428 132.49 249.756C133.036 250.085 133.459 250.545 133.757 251.138C134.059 251.732 134.21 252.423 134.21 253.212C134.21 254 134.059 254.69 133.757 255.28C133.459 255.87 133.036 256.329 132.49 256.657C131.943 256.985 131.296 257.149 130.551 257.149ZM130.561 255.707C130.965 255.707 131.303 255.596 131.575 255.374C131.847 255.149 132.049 254.847 132.181 254.469C132.317 254.092 132.385 253.671 132.385 253.207C132.385 252.739 132.317 252.317 132.181 251.939C132.049 251.558 131.847 251.254 131.575 251.029C131.303 250.804 130.965 250.691 130.561 250.691C130.146 250.691 129.802 250.804 129.526 251.029C129.255 251.254 129.051 251.558 128.915 251.939C128.782 252.317 128.716 252.739 128.716 253.207C128.716 253.671 128.782 254.092 128.915 254.469C129.051 254.847 129.255 255.149 129.526 255.374C129.802 255.596 130.146 255.707 130.561 255.707ZM137.094 257L134.937 249.364H136.771L138.114 254.733H138.183L139.555 249.364H141.37L142.742 254.703H142.817L144.139 249.364H145.979L143.816 257H141.942L140.51 251.839H140.406L138.974 257H137.094Z" fill="#333333"/>
<path d="M173.5 251.5H158.5" stroke="#333333" stroke-width="1.5" stroke-linecap="round" stroke-linejoin="round"/>
<path d="M167.449 245.476L173.499 251.5L167.449 257.525" stroke="#333333" stroke-width="1.5" stroke-linecap="round" stroke-linejoin="round"/>
</svg>
