<svg width="350" height="323" viewBox="0 0 350 323" fill="none" xmlns="http://www.w3.org/2000/svg">
<rect width="350" height="321.531" transform="translate(0 0.734375)" fill="#FAE7C8"/>
<path d="M38.5398 58.3707C38.5398 59.3026 38.3693 60.1037 38.0284 60.7741C37.6875 61.4418 37.2202 61.956 36.6264 62.3168C36.0355 62.6747 35.3636 62.8537 34.6108 62.8537C33.8551 62.8537 33.1804 62.6747 32.5866 62.3168C31.9957 61.956 31.5298 61.4403 31.1889 60.7699C30.848 60.0994 30.6776 59.2997 30.6776 58.3707C30.6776 57.4389 30.848 56.6392 31.1889 55.9716C31.5298 55.3011 31.9957 54.7869 32.5866 54.429C33.1804 54.0682 33.8551 53.8878 34.6108 53.8878C35.3636 53.8878 36.0355 54.0682 36.6264 54.429C37.2202 54.7869 37.6875 55.3011 38.0284 55.9716C38.3693 56.6392 38.5398 57.4389 38.5398 58.3707ZM37.2358 58.3707C37.2358 57.6605 37.1207 57.0625 36.8906 56.5767C36.6634 56.0881 36.3509 55.7188 35.9531 55.4688C35.5582 55.2159 35.1108 55.0895 34.6108 55.0895C34.108 55.0895 33.6591 55.2159 33.2642 55.4688C32.8693 55.7188 32.5568 56.0881 32.3267 56.5767C32.0994 57.0625 31.9858 57.6605 31.9858 58.3707C31.9858 59.081 32.0994 59.6804 32.3267 60.169C32.5568 60.6548 32.8693 61.0241 33.2642 61.277C33.6591 61.527 34.108 61.652 34.6108 61.652C35.1108 61.652 35.5582 61.527 35.9531 61.277C36.3509 61.0241 36.6634 60.6548 36.8906 60.169C37.1207 59.6804 37.2358 59.081 37.2358 58.3707ZM41.3533 58.848V62.7344H40.0792V56.1889H41.3022V57.2543H41.3832C41.5337 56.9077 41.7695 56.6293 42.0906 56.419C42.4144 56.2088 42.8221 56.1037 43.3136 56.1037C43.7596 56.1037 44.1502 56.1974 44.4854 56.3849C44.8207 56.5696 45.0806 56.8452 45.2653 57.2116C45.4499 57.5781 45.5423 58.0312 45.5423 58.571V62.7344H44.2681V58.7244C44.2681 58.25 44.1445 57.8793 43.8974 57.6122C43.6502 57.3423 43.3107 57.2074 42.8789 57.2074C42.5835 57.2074 42.3207 57.2713 42.0906 57.3991C41.8633 57.527 41.6829 57.7145 41.5494 57.9616C41.4187 58.206 41.3533 58.5014 41.3533 58.848ZM48.5252 54.0071V62.7344H47.2511V54.0071H48.5252ZM51.0447 65.1889C50.8544 65.1889 50.6811 65.1733 50.5249 65.142C50.3686 65.1136 50.2521 65.0824 50.1754 65.0483L50.4822 64.0043C50.7152 64.0668 50.9226 64.0938 51.1044 64.0852C51.2862 64.0767 51.4467 64.0085 51.5859 63.8807C51.728 63.7528 51.853 63.544 51.9609 63.2543L52.1186 62.8196L49.7237 56.1889H51.0874L52.745 61.2685H52.8132L54.4709 56.1889H55.8388L53.1413 63.608C53.0163 63.9489 52.8572 64.2372 52.6641 64.473C52.4709 64.7116 52.2408 64.8906 51.9737 65.0099C51.7067 65.1293 51.397 65.1889 51.0447 65.1889ZM59.8839 55.1406V54.0071H66.6381V55.1406H63.9151V62.7344H62.6026V55.1406H59.8839ZM69.3026 58.848V62.7344H68.0284V54.0071H69.2855V57.2543H69.3665C69.5199 56.902 69.7543 56.6222 70.0696 56.4148C70.3849 56.2074 70.7969 56.1037 71.3054 56.1037C71.7543 56.1037 72.1463 56.196 72.4815 56.3807C72.8196 56.5653 73.081 56.8409 73.2656 57.2074C73.4531 57.571 73.5469 58.0256 73.5469 58.571V62.7344H72.2727V58.7244C72.2727 58.2443 72.1491 57.8722 71.902 57.608C71.6548 57.3409 71.3111 57.2074 70.8707 57.2074C70.5696 57.2074 70.2997 57.2713 70.0611 57.3991C69.8253 57.527 69.6392 57.7145 69.5028 57.9616C69.3693 58.206 69.3026 58.5014 69.3026 58.848ZM75.2472 62.7344V56.1889H76.5213V62.7344H75.2472ZM75.8906 55.179C75.669 55.179 75.4787 55.1051 75.3196 54.9574C75.1634 54.8068 75.0852 54.6278 75.0852 54.4205C75.0852 54.2102 75.1634 54.0312 75.3196 53.8835C75.4787 53.733 75.669 53.6577 75.8906 53.6577C76.1122 53.6577 76.3011 53.733 76.4574 53.8835C76.6165 54.0312 76.696 54.2102 76.696 54.4205C76.696 54.6278 76.6165 54.8068 76.4574 54.9574C76.3011 55.1051 76.1122 55.179 75.8906 55.179ZM83.1403 57.7869L81.9854 57.9915C81.9371 57.8437 81.8604 57.7031 81.7553 57.5696C81.6531 57.4361 81.5138 57.3267 81.3377 57.2415C81.1616 57.1562 80.9414 57.1136 80.6772 57.1136C80.3164 57.1136 80.0153 57.1946 79.7738 57.3565C79.5323 57.5156 79.4116 57.7216 79.4116 57.9744C79.4116 58.1932 79.4925 58.3693 79.6545 58.5028C79.8164 58.6364 80.0778 58.7457 80.4386 58.831L81.4783 59.0696C82.0806 59.2088 82.5295 59.4233 82.8249 59.7131C83.1204 60.0028 83.2681 60.3793 83.2681 60.8423C83.2681 61.2344 83.1545 61.5838 82.9272 61.8906C82.7028 62.1946 82.3888 62.4332 81.9854 62.6065C81.5849 62.7798 81.1204 62.8665 80.592 62.8665C79.859 62.8665 79.261 62.7102 78.7979 62.3977C78.3349 62.0824 78.0508 61.6349 77.9457 61.0554L79.1772 60.8679C79.2539 61.1889 79.4116 61.4318 79.6502 61.5966C79.8888 61.7585 80.1999 61.8395 80.5835 61.8395C81.0011 61.8395 81.3349 61.7528 81.5849 61.5795C81.8349 61.4034 81.9599 61.1889 81.9599 60.9361C81.9599 60.7315 81.8832 60.5597 81.7298 60.4205C81.5792 60.2812 81.3477 60.1761 81.0352 60.1051L79.9272 59.8622C79.3164 59.723 78.8647 59.5014 78.5721 59.1974C78.2823 58.8935 78.1374 58.5085 78.1374 58.0426C78.1374 57.6562 78.2454 57.3182 78.4613 57.0284C78.6772 56.7386 78.9755 56.5128 79.3562 56.3509C79.7369 56.1861 80.1729 56.1037 80.6644 56.1037C81.3718 56.1037 81.9286 56.2571 82.3349 56.5639C82.7411 56.8679 83.0096 57.2756 83.1403 57.7869ZM89.6559 62.7344L87.2354 54.0071H88.6204L90.3207 60.7656H90.4016L92.1701 54.0071H93.5423L95.3107 60.7699H95.3917L97.0877 54.0071H98.4769L96.0522 62.7344H94.7269L92.8903 56.1974H92.8221L90.9854 62.7344H89.6559ZM101.752 62.8665C101.107 62.8665 100.551 62.7287 100.086 62.4531C99.6225 62.1747 99.2646 61.7841 99.0117 61.2812C98.7617 60.7756 98.6367 60.1832 98.6367 59.5043C98.6367 58.8338 98.7617 58.2429 99.0117 57.7315C99.2646 57.2202 99.6168 56.821 100.069 56.5341C100.523 56.2472 101.054 56.1037 101.662 56.1037C102.032 56.1037 102.39 56.1648 102.736 56.2869C103.083 56.4091 103.394 56.6009 103.669 56.8622C103.945 57.1236 104.162 57.4631 104.321 57.8807C104.48 58.2955 104.56 58.7997 104.56 59.3935V59.8452H99.3569V58.8906H103.311C103.311 58.5554 103.243 58.2585 103.107 58C102.971 57.7386 102.779 57.5327 102.532 57.3821C102.287 57.2315 102 57.1562 101.671 57.1562C101.313 57.1562 101 57.2443 100.733 57.4205C100.469 57.5937 100.265 57.821 100.12 58.1023C99.9776 58.3807 99.9066 58.6832 99.9066 59.0099V59.7557C99.9066 60.1932 99.9833 60.5653 100.137 60.8722C100.293 61.179 100.51 61.4134 100.789 61.5753C101.067 61.7344 101.392 61.8139 101.765 61.8139C102.006 61.8139 102.226 61.7798 102.425 61.7116C102.624 61.6406 102.796 61.5355 102.941 61.3963C103.086 61.2571 103.196 61.0852 103.273 60.8807L104.479 61.098C104.382 61.4531 104.209 61.7642 103.959 62.0312C103.712 62.2955 103.401 62.5014 103.026 62.6491C102.654 62.794 102.229 62.8665 101.752 62.8665ZM108.795 62.8665C108.15 62.8665 107.594 62.7287 107.129 62.4531C106.665 62.1747 106.308 61.7841 106.055 61.2812C105.805 60.7756 105.68 60.1832 105.68 59.5043C105.68 58.8338 105.805 58.2429 106.055 57.7315C106.308 57.2202 106.66 56.821 107.112 56.5341C107.566 56.2472 108.097 56.1037 108.705 56.1037C109.075 56.1037 109.433 56.1648 109.779 56.2869C110.126 56.4091 110.437 56.6009 110.712 56.8622C110.988 57.1236 111.205 57.4631 111.364 57.8807C111.523 58.2955 111.603 58.7997 111.603 59.3935V59.8452H106.4V58.8906H110.354C110.354 58.5554 110.286 58.2585 110.15 58C110.013 57.7386 109.822 57.5327 109.575 57.3821C109.33 57.2315 109.043 57.1562 108.714 57.1562C108.356 57.1562 108.043 57.2443 107.776 57.4205C107.512 57.5937 107.308 57.821 107.163 58.1023C107.021 58.3807 106.95 58.6832 106.95 59.0099V59.7557C106.95 60.1932 107.026 60.5653 107.18 60.8722C107.336 61.179 107.553 61.4134 107.832 61.5753C108.11 61.7344 108.435 61.8139 108.808 61.8139C109.049 61.8139 109.269 61.7798 109.468 61.7116C109.667 61.6406 109.839 61.5355 109.984 61.3963C110.129 61.2571 110.239 61.0852 110.316 60.8807L111.522 61.098C111.425 61.4531 111.252 61.7642 111.002 62.0312C110.755 62.2955 110.444 62.5014 110.069 62.6491C109.697 62.794 109.272 62.8665 108.795 62.8665ZM114.189 60.5142L114.18 58.9588H114.402L117.01 56.1889H118.535L115.561 59.3423H115.36L114.189 60.5142ZM113.017 62.7344V54.0071H114.291V62.7344H113.017ZM117.15 62.7344L114.806 59.6236L115.684 58.733L118.714 62.7344H117.15Z" fill="#333333"/>
<path d="M35.446 102.734L30.4517 85.2798H34.483L37.3722 97.4077H37.517L40.7045 85.2798H44.1562L47.3352 97.4332H47.4886L50.3778 85.2798H54.4091L49.4148 102.734H45.8182L42.4943 91.3224H42.358L39.0426 102.734H35.446ZM60.8757 102.99C59.5291 102.99 58.37 102.717 57.3984 102.172C56.4325 101.621 55.6882 100.842 55.1655 99.8366C54.6428 98.8253 54.3814 97.6293 54.3814 96.2486C54.3814 94.902 54.6428 93.7202 55.1655 92.7031C55.6882 91.6861 56.424 90.8935 57.3729 90.3253C58.3274 89.7571 59.4467 89.473 60.7308 89.473C61.5945 89.473 62.3984 89.6122 63.1428 89.8906C63.8928 90.1634 64.5462 90.5753 65.103 91.1264C65.6655 91.6776 66.103 92.3707 66.4155 93.206C66.728 94.0355 66.8842 95.0071 66.8842 96.1207V97.1179H55.8303V94.8679H63.4666C63.4666 94.3452 63.353 93.8821 63.1257 93.4787C62.8984 93.0753 62.5831 92.7599 62.1797 92.5327C61.782 92.2997 61.3189 92.1832 60.7905 92.1832C60.2393 92.1832 59.7507 92.3111 59.3246 92.5668C58.9041 92.8168 58.5746 93.1548 58.3359 93.581C58.0973 94.0014 57.9751 94.4702 57.9695 94.9872V97.1264C57.9695 97.7741 58.0888 98.3338 58.3274 98.8054C58.5717 99.277 58.9155 99.6406 59.3587 99.8963C59.8018 100.152 60.3274 100.28 60.9354 100.28C61.3388 100.28 61.7081 100.223 62.0433 100.109C62.3786 99.9957 62.6655 99.8253 62.9041 99.598C63.1428 99.3707 63.3246 99.0923 63.4496 98.7628L66.8075 98.9844C66.6371 99.7912 66.2876 100.496 65.7592 101.098C65.2365 101.695 64.5604 102.161 63.7308 102.496C62.907 102.825 61.9553 102.99 60.8757 102.99ZM78.5412 102.982C77.706 102.982 76.9616 102.837 76.3082 102.547C75.6548 102.251 75.1378 101.817 74.7571 101.243C74.3821 100.663 74.1946 99.9418 74.1946 99.0781C74.1946 98.3509 74.3281 97.7401 74.5952 97.2457C74.8622 96.7514 75.2259 96.3537 75.6861 96.0526C76.1463 95.7514 76.669 95.5241 77.2543 95.3707C77.8452 95.2173 78.4645 95.1094 79.1122 95.0469C79.8736 94.9673 80.4872 94.8935 80.9531 94.8253C81.419 94.7514 81.7571 94.6435 81.9673 94.5014C82.1776 94.3594 82.2827 94.1491 82.2827 93.8707V93.8196C82.2827 93.2798 82.1122 92.8622 81.7713 92.5668C81.4361 92.2713 80.9588 92.1236 80.3395 92.1236C79.6861 92.1236 79.1662 92.2685 78.7798 92.5582C78.3935 92.8423 78.1378 93.2003 78.0128 93.6321L74.6548 93.3594C74.8253 92.5639 75.1605 91.8764 75.6605 91.2969C76.1605 90.7116 76.8054 90.2628 77.5952 89.9503C78.3906 89.6321 79.3111 89.473 80.3565 89.473C81.0838 89.473 81.7798 89.5582 82.4446 89.7287C83.1151 89.8991 83.7088 90.1634 84.2259 90.5213C84.7486 90.8793 85.1605 91.3395 85.4616 91.902C85.7628 92.4588 85.9134 93.1264 85.9134 93.9048V102.734H82.4702V100.919H82.3679C82.1577 101.328 81.8764 101.689 81.5241 102.001C81.1719 102.308 80.7486 102.55 80.2543 102.726C79.7599 102.896 79.1889 102.982 78.5412 102.982ZM79.581 100.476C80.1151 100.476 80.5866 100.371 80.9957 100.161C81.4048 99.9446 81.7259 99.6548 81.9588 99.2912C82.1918 98.9276 82.3082 98.5156 82.3082 98.0554V96.6662C82.1946 96.7401 82.0384 96.8082 81.8395 96.8707C81.6463 96.9276 81.4276 96.9815 81.1832 97.0327C80.9389 97.0781 80.6946 97.1207 80.4503 97.1605C80.206 97.1946 79.9844 97.2259 79.7855 97.2543C79.3594 97.3168 78.9872 97.4162 78.669 97.5526C78.3509 97.6889 78.1037 97.8736 77.9276 98.1065C77.7514 98.3338 77.6634 98.6179 77.6634 98.9588C77.6634 99.4531 77.8423 99.831 78.2003 100.092C78.5639 100.348 79.0241 100.476 79.581 100.476ZM88.7301 102.734V89.6435H92.25V91.9276H92.3864C92.625 91.1151 93.0256 90.5014 93.5881 90.0866C94.1506 89.6662 94.7983 89.456 95.5312 89.456C95.7131 89.456 95.9091 89.4673 96.1193 89.4901C96.3295 89.5128 96.5142 89.544 96.6733 89.5838V92.8054C96.5028 92.7543 96.267 92.7088 95.9659 92.669C95.6648 92.6293 95.3892 92.6094 95.1392 92.6094C94.6051 92.6094 94.1278 92.7259 93.7074 92.9588C93.2926 93.1861 92.9631 93.5043 92.7188 93.9134C92.4801 94.3224 92.3608 94.794 92.3608 95.3281V102.734H88.7301ZM103.907 102.99C102.56 102.99 101.401 102.717 100.43 102.172C99.4638 101.621 98.7195 100.842 98.1967 99.8366C97.674 98.8253 97.4126 97.6293 97.4126 96.2486C97.4126 94.902 97.674 93.7202 98.1967 92.7031C98.7195 91.6861 99.4553 90.8935 100.404 90.3253C101.359 89.7571 102.478 89.473 103.762 89.473C104.626 89.473 105.43 89.6122 106.174 89.8906C106.924 90.1634 107.577 90.5753 108.134 91.1264C108.697 91.6776 109.134 92.3707 109.447 93.206C109.759 94.0355 109.915 95.0071 109.915 96.1207V97.1179H98.8615V94.8679H106.498C106.498 94.3452 106.384 93.8821 106.157 93.4787C105.93 93.0753 105.614 92.7599 105.211 92.5327C104.813 92.2997 104.35 92.1832 103.822 92.1832C103.271 92.1832 102.782 92.3111 102.356 92.5668C101.935 92.8168 101.606 93.1548 101.367 93.581C101.129 94.0014 101.006 94.4702 101.001 94.9872V97.1264C101.001 97.7741 101.12 98.3338 101.359 98.8054C101.603 99.277 101.947 99.6406 102.39 99.8963C102.833 100.152 103.359 100.28 103.967 100.28C104.37 100.28 104.739 100.223 105.075 100.109C105.41 99.9957 105.697 99.8253 105.935 99.598C106.174 99.3707 106.356 99.0923 106.481 98.7628L109.839 98.9844C109.668 99.7912 109.319 100.496 108.79 101.098C108.268 101.695 107.592 102.161 106.762 102.496C105.938 102.825 104.987 102.99 103.907 102.99ZM121.572 102.982C120.737 102.982 119.993 102.837 119.339 102.547C118.686 102.251 118.169 101.817 117.788 101.243C117.413 100.663 117.226 99.9418 117.226 99.0781C117.226 98.3509 117.359 97.7401 117.626 97.2457C117.893 96.7514 118.257 96.3537 118.717 96.0526C119.178 95.7514 119.7 95.5241 120.286 95.3707C120.876 95.2173 121.496 95.1094 122.143 95.0469C122.905 94.9673 123.518 94.8935 123.984 94.8253C124.45 94.7514 124.788 94.6435 124.999 94.5014C125.209 94.3594 125.314 94.1491 125.314 93.8707V93.8196C125.314 93.2798 125.143 92.8622 124.803 92.5668C124.467 92.2713 123.99 92.1236 123.371 92.1236C122.717 92.1236 122.197 92.2685 121.811 92.5582C121.425 92.8423 121.169 93.2003 121.044 93.6321L117.686 93.3594C117.857 92.5639 118.192 91.8764 118.692 91.2969C119.192 90.7116 119.837 90.2628 120.626 89.9503C121.422 89.6321 122.342 89.473 123.388 89.473C124.115 89.473 124.811 89.5582 125.476 89.7287C126.146 89.8991 126.74 90.1634 127.257 90.5213C127.78 90.8793 128.192 91.3395 128.493 91.902C128.794 92.4588 128.945 93.1264 128.945 93.9048V102.734H125.501V100.919H125.399C125.189 101.328 124.908 101.689 124.555 102.001C124.203 102.308 123.78 102.55 123.286 102.726C122.791 102.896 122.22 102.982 121.572 102.982ZM122.612 100.476C123.146 100.476 123.618 100.371 124.027 100.161C124.436 99.9446 124.757 99.6548 124.99 99.2912C125.223 98.9276 125.339 98.5156 125.339 98.0554V96.6662C125.226 96.7401 125.07 96.8082 124.871 96.8707C124.678 96.9276 124.459 96.9815 124.214 97.0327C123.97 97.0781 123.726 97.1207 123.482 97.1605C123.237 97.1946 123.016 97.2259 122.817 97.2543C122.391 97.3168 122.018 97.4162 121.7 97.5526C121.382 97.6889 121.135 97.8736 120.959 98.1065C120.783 98.3338 120.695 98.6179 120.695 98.9588C120.695 99.4531 120.874 99.831 121.232 100.092C121.595 100.348 122.055 100.476 122.612 100.476ZM135.392 85.2798V102.734H131.761V85.2798H135.392ZM140.883 102.734L137.32 89.6435H140.994L143.022 98.4389H143.141L145.255 89.6435H148.86L151.008 98.3878H151.119L153.113 89.6435H156.778L153.224 102.734H149.38L147.13 94.5014H146.968L144.718 102.734H140.883ZM162.447 102.982C161.612 102.982 160.868 102.837 160.214 102.547C159.561 102.251 159.044 101.817 158.663 101.243C158.288 100.663 158.101 99.9418 158.101 99.0781C158.101 98.3509 158.234 97.7401 158.501 97.2457C158.768 96.7514 159.132 96.3537 159.592 96.0526C160.053 95.7514 160.575 95.5241 161.161 95.3707C161.751 95.2173 162.371 95.1094 163.018 95.0469C163.78 94.9673 164.393 94.8935 164.859 94.8253C165.325 94.7514 165.663 94.6435 165.874 94.5014C166.084 94.3594 166.189 94.1491 166.189 93.8707V93.8196C166.189 93.2798 166.018 92.8622 165.678 92.5668C165.342 92.2713 164.865 92.1236 164.246 92.1236C163.592 92.1236 163.072 92.2685 162.686 92.5582C162.3 92.8423 162.044 93.2003 161.919 93.6321L158.561 93.3594C158.732 92.5639 159.067 91.8764 159.567 91.2969C160.067 90.7116 160.712 90.2628 161.501 89.9503C162.297 89.6321 163.217 89.473 164.263 89.473C164.99 89.473 165.686 89.5582 166.351 89.7287C167.021 89.8991 167.615 90.1634 168.132 90.5213C168.655 90.8793 169.067 91.3395 169.368 91.902C169.669 92.4588 169.82 93.1264 169.82 93.9048V102.734H166.376V100.919H166.274C166.064 101.328 165.783 101.689 165.43 102.001C165.078 102.308 164.655 102.55 164.161 102.726C163.666 102.896 163.095 102.982 162.447 102.982ZM163.487 100.476C164.021 100.476 164.493 100.371 164.902 100.161C165.311 99.9446 165.632 99.6548 165.865 99.2912C166.098 98.9276 166.214 98.5156 166.214 98.0554V96.6662C166.101 96.7401 165.945 96.8082 165.746 96.8707C165.553 96.9276 165.334 96.9815 165.089 97.0327C164.845 97.0781 164.601 97.1207 164.357 97.1605C164.112 97.1946 163.891 97.2259 163.692 97.2543C163.266 97.3168 162.893 97.4162 162.575 97.5526C162.257 97.6889 162.01 97.8736 161.834 98.1065C161.658 98.3338 161.57 98.6179 161.57 98.9588C161.57 99.4531 161.749 99.831 162.107 100.092C162.47 100.348 162.93 100.476 163.487 100.476ZM174.409 107.643C173.949 107.643 173.517 107.607 173.114 107.533C172.716 107.464 172.386 107.376 172.125 107.268L172.943 104.558C173.369 104.689 173.753 104.76 174.094 104.771C174.44 104.783 174.739 104.703 174.989 104.533C175.244 104.362 175.452 104.072 175.611 103.663L175.824 103.109L171.128 89.6435H174.946L177.656 99.2571H177.793L180.528 89.6435H184.372L179.284 104.149C179.04 104.854 178.707 105.467 178.287 105.99C177.872 106.518 177.347 106.925 176.71 107.209C176.074 107.499 175.307 107.643 174.409 107.643ZM197.122 93.3764L193.798 93.581C193.741 93.2969 193.619 93.0412 193.432 92.8139C193.244 92.581 192.997 92.3963 192.69 92.2599C192.389 92.1179 192.028 92.0469 191.608 92.0469C191.045 92.0469 190.571 92.1662 190.185 92.4048C189.798 92.6378 189.605 92.9503 189.605 93.3423C189.605 93.6548 189.73 93.919 189.98 94.1349C190.23 94.3509 190.659 94.5241 191.267 94.6548L193.636 95.1321C194.909 95.3935 195.858 95.8139 196.483 96.3935C197.108 96.973 197.42 97.7344 197.42 98.6776C197.42 99.5355 197.168 100.288 196.662 100.936C196.162 101.584 195.474 102.089 194.599 102.453C193.73 102.811 192.727 102.99 191.591 102.99C189.858 102.99 188.477 102.629 187.449 101.908C186.426 101.18 185.827 100.192 185.651 98.9418L189.222 98.7543C189.33 99.2827 189.591 99.6861 190.006 99.9645C190.42 100.237 190.952 100.374 191.599 100.374C192.236 100.374 192.747 100.251 193.134 100.007C193.526 99.7571 193.724 99.4361 193.73 99.044C193.724 98.7145 193.585 98.4446 193.312 98.2344C193.04 98.0185 192.619 97.8537 192.051 97.7401L189.784 97.2884C188.506 97.0327 187.554 96.5895 186.929 95.9588C186.31 95.3281 186 94.5241 186 93.5469C186 92.706 186.227 91.9815 186.682 91.3736C187.142 90.7656 187.787 90.2969 188.616 89.9673C189.452 89.6378 190.429 89.473 191.548 89.473C193.202 89.473 194.503 89.8224 195.452 90.5213C196.406 91.2202 196.963 92.1719 197.122 93.3764ZM208.892 95.1662V102.734H205.261V85.2798H208.79V91.9531H208.943C209.239 91.1804 209.716 90.5753 210.375 90.1378C211.034 89.6946 211.861 89.473 212.855 89.473C213.764 89.473 214.557 89.6719 215.233 90.0696C215.915 90.4616 216.443 91.027 216.818 91.7656C217.199 92.4986 217.386 93.3764 217.381 94.3991V102.734H213.75V95.0469C213.756 94.2401 213.551 93.6122 213.136 93.1634C212.727 92.7145 212.153 92.4901 211.415 92.4901C210.92 92.4901 210.483 92.5952 210.102 92.8054C209.727 93.0156 209.432 93.3224 209.216 93.7259C209.006 94.1236 208.898 94.6037 208.892 95.1662ZM226.204 102.99C224.857 102.99 223.698 102.717 222.727 102.172C221.761 101.621 221.016 100.842 220.494 99.8366C219.971 98.8253 219.71 97.6293 219.71 96.2486C219.71 94.902 219.971 93.7202 220.494 92.7031C221.016 91.6861 221.752 90.8935 222.701 90.3253C223.656 89.7571 224.775 89.473 226.059 89.473C226.923 89.473 227.727 89.6122 228.471 89.8906C229.221 90.1634 229.874 90.5753 230.431 91.1264C230.994 91.6776 231.431 92.3707 231.744 93.206C232.056 94.0355 232.212 95.0071 232.212 96.1207V97.1179H221.158V94.8679H228.795C228.795 94.3452 228.681 93.8821 228.454 93.4787C228.227 93.0753 227.911 92.7599 227.508 92.5327C227.11 92.2997 226.647 92.1832 226.119 92.1832C225.567 92.1832 225.079 92.3111 224.653 92.5668C224.232 92.8168 223.903 93.1548 223.664 93.581C223.425 94.0014 223.303 94.4702 223.298 94.9872V97.1264C223.298 97.7741 223.417 98.3338 223.656 98.8054C223.9 99.277 224.244 99.6406 224.687 99.8963C225.13 100.152 225.656 100.28 226.263 100.28C226.667 100.28 227.036 100.223 227.371 100.109C227.707 99.9957 227.994 99.8253 228.232 99.598C228.471 99.3707 228.653 99.0923 228.778 98.7628L232.136 98.9844C231.965 99.7912 231.616 100.496 231.087 101.098C230.565 101.695 229.888 102.161 229.059 102.496C228.235 102.825 227.283 102.99 226.204 102.99ZM234.582 102.734V89.6435H238.102V91.9276H238.238C238.477 91.1151 238.877 90.5014 239.44 90.0866C240.002 89.6662 240.65 89.456 241.383 89.456C241.565 89.456 241.761 89.4673 241.971 89.4901C242.181 89.5128 242.366 89.544 242.525 89.5838V92.8054C242.354 92.7543 242.119 92.7088 241.817 92.669C241.516 92.6293 241.241 92.6094 240.991 92.6094C240.457 92.6094 239.979 92.7259 239.559 92.9588C239.144 93.1861 238.815 93.5043 238.57 93.9134C238.332 94.3224 238.212 94.794 238.212 95.3281V102.734H234.582ZM249.759 102.99C248.412 102.99 247.253 102.717 246.281 102.172C245.315 101.621 244.571 100.842 244.048 99.8366C243.526 98.8253 243.264 97.6293 243.264 96.2486C243.264 94.902 243.526 93.7202 244.048 92.7031C244.571 91.6861 245.307 90.8935 246.256 90.3253C247.21 89.7571 248.33 89.473 249.614 89.473C250.477 89.473 251.281 89.6122 252.026 89.8906C252.776 90.1634 253.429 90.5753 253.986 91.1264C254.548 91.6776 254.986 92.3707 255.298 93.206C255.611 94.0355 255.767 95.0071 255.767 96.1207V97.1179H244.713V94.8679H252.349C252.349 94.3452 252.236 93.8821 252.009 93.4787C251.781 93.0753 251.466 92.7599 251.062 92.5327C250.665 92.2997 250.202 92.1832 249.673 92.1832C249.122 92.1832 248.634 92.3111 248.207 92.5668C247.787 92.8168 247.457 93.1548 247.219 93.581C246.98 94.0014 246.858 94.4702 246.852 94.9872V97.1264C246.852 97.7741 246.972 98.3338 247.21 98.8054C247.455 99.277 247.798 99.6406 248.241 99.8963C248.685 100.152 249.21 100.28 249.818 100.28C250.222 100.28 250.591 100.223 250.926 100.109C251.261 99.9957 251.548 99.8253 251.787 99.598C252.026 99.3707 252.207 99.0923 252.332 98.7628L255.69 98.9844C255.52 99.7912 255.17 100.496 254.642 101.098C254.119 101.695 253.443 102.161 252.614 102.496C251.79 102.825 250.838 102.99 249.759 102.99ZM270.654 89.6435V92.3707H262.771V89.6435H270.654ZM264.56 86.5071H268.191V98.7116C268.191 99.0469 268.242 99.3082 268.344 99.4957C268.447 99.6776 268.589 99.8054 268.771 99.8793C268.958 99.9531 269.174 99.9901 269.418 99.9901C269.589 99.9901 269.759 99.9759 269.93 99.9474C270.1 99.9134 270.231 99.8878 270.322 99.8707L270.893 102.572C270.711 102.629 270.455 102.695 270.126 102.768C269.796 102.848 269.396 102.896 268.924 102.913C268.049 102.947 267.282 102.831 266.623 102.564C265.969 102.297 265.461 101.882 265.097 101.32C264.734 100.757 264.555 100.047 264.56 99.1889V86.5071ZM278.793 102.99C277.469 102.99 276.325 102.709 275.359 102.146C274.398 101.578 273.657 100.788 273.134 99.777C272.612 98.7599 272.35 97.581 272.35 96.2401C272.35 94.8878 272.612 93.706 273.134 92.6946C273.657 91.6776 274.398 90.8878 275.359 90.3253C276.325 89.7571 277.469 89.473 278.793 89.473C280.117 89.473 281.259 89.7571 282.219 90.3253C283.185 90.8878 283.93 91.6776 284.452 92.6946C284.975 93.706 285.237 94.8878 285.237 96.2401C285.237 97.581 284.975 98.7599 284.452 99.777C283.93 100.788 283.185 101.578 282.219 102.146C281.259 102.709 280.117 102.99 278.793 102.99ZM278.81 100.178C279.413 100.178 279.915 100.007 280.319 99.6662C280.722 99.3196 281.026 98.848 281.231 98.2514C281.441 97.6548 281.546 96.9759 281.546 96.2145C281.546 95.4531 281.441 94.7741 281.231 94.1776C281.026 93.581 280.722 93.1094 280.319 92.7628C279.915 92.4162 279.413 92.2429 278.81 92.2429C278.202 92.2429 277.691 92.4162 277.276 92.7628C276.867 93.1094 276.558 93.581 276.347 94.1776C276.143 94.7741 276.04 95.4531 276.04 96.2145C276.04 96.9759 276.143 97.6548 276.347 98.2514C276.558 98.848 276.867 99.3196 277.276 99.6662C277.691 100.007 278.202 100.178 278.81 100.178ZM35.0795 124.166V131.734H31.4489V114.28H34.9773V120.953H35.1307C35.4261 120.18 35.9034 119.575 36.5625 119.138C37.2216 118.695 38.0483 118.473 39.0426 118.473C39.9517 118.473 40.7443 118.672 41.4205 119.07C42.1023 119.462 42.6307 120.027 43.0057 120.766C43.3864 121.499 43.5739 122.376 43.5682 123.399V131.734H39.9375V124.047C39.9432 123.24 39.7386 122.612 39.3239 122.163C38.9148 121.714 38.3409 121.49 37.6023 121.49C37.108 121.49 36.6705 121.595 36.2898 121.805C35.9148 122.016 35.6193 122.322 35.4034 122.726C35.1932 123.124 35.0852 123.604 35.0795 124.166ZM52.3913 131.99C51.0447 131.99 49.8857 131.717 48.9141 131.172C47.9482 130.621 47.2038 129.842 46.6811 128.837C46.1584 127.825 45.897 126.629 45.897 125.249C45.897 123.902 46.1584 122.72 46.6811 121.703C47.2038 120.686 47.9396 119.893 48.8885 119.325C49.843 118.757 50.9624 118.473 52.2464 118.473C53.1101 118.473 53.9141 118.612 54.6584 118.891C55.4084 119.163 56.0618 119.575 56.6186 120.126C57.1811 120.678 57.6186 121.371 57.9311 122.206C58.2436 123.036 58.3999 124.007 58.3999 125.121V126.118H47.3459V123.868H54.9822C54.9822 123.345 54.8686 122.882 54.6413 122.479C54.4141 122.075 54.0987 121.76 53.6953 121.533C53.2976 121.3 52.8345 121.183 52.3061 121.183C51.755 121.183 51.2663 121.311 50.8402 121.567C50.4197 121.817 50.0902 122.155 49.8516 122.581C49.6129 123.001 49.4908 123.47 49.4851 123.987V126.126C49.4851 126.774 49.6044 127.334 49.843 127.805C50.0874 128.277 50.4311 128.641 50.8743 128.896C51.3175 129.152 51.843 129.28 52.451 129.28C52.8544 129.28 53.2237 129.223 53.5589 129.109C53.8942 128.996 54.1811 128.825 54.4197 128.598C54.6584 128.371 54.8402 128.092 54.9652 127.763L58.3232 127.984C58.1527 128.791 57.8033 129.496 57.2749 130.098C56.7521 130.695 56.076 131.161 55.2464 131.496C54.4226 131.825 53.4709 131.99 52.3913 131.99ZM64.3999 114.28V131.734H60.7692V114.28H64.3999ZM67.3082 136.643V118.643H70.8878V120.842H71.0497C71.2088 120.49 71.4389 120.132 71.7401 119.768C72.0469 119.399 72.4446 119.092 72.9332 118.848C73.4276 118.598 74.0412 118.473 74.7741 118.473C75.7287 118.473 76.6094 118.723 77.4162 119.223C78.223 119.717 78.8679 120.464 79.3509 121.464C79.8338 122.459 80.0753 123.706 80.0753 125.206C80.0753 126.666 79.8395 127.899 79.3679 128.905C78.902 129.905 78.2656 130.663 77.4588 131.18C76.6577 131.692 75.7599 131.947 74.7656 131.947C74.0611 131.947 73.4616 131.831 72.9673 131.598C72.4787 131.365 72.0781 131.072 71.7656 130.72C71.4531 130.362 71.2145 130.001 71.0497 129.638H70.9389V136.643H67.3082ZM70.8622 125.189C70.8622 125.967 70.9702 126.646 71.1861 127.226C71.402 127.805 71.7145 128.257 72.1236 128.581C72.5327 128.899 73.0298 129.058 73.6151 129.058C74.206 129.058 74.706 128.896 75.1151 128.572C75.5241 128.243 75.8338 127.788 76.044 127.209C76.2599 126.624 76.3679 125.95 76.3679 125.189C76.3679 124.433 76.2628 123.768 76.0526 123.195C75.8423 122.621 75.5327 122.172 75.1236 121.848C74.7145 121.524 74.2116 121.362 73.6151 121.362C73.0241 121.362 72.5241 121.518 72.1151 121.831C71.7116 122.143 71.402 122.587 71.1861 123.161C70.9702 123.734 70.8622 124.411 70.8622 125.189ZM90.2919 136.643C89.8317 136.643 89.3999 136.607 88.9964 136.533C88.5987 136.464 88.2692 136.376 88.0078 136.268L88.826 133.558C89.2521 133.689 89.6357 133.76 89.9766 133.771C90.3232 133.783 90.6214 133.703 90.8714 133.533C91.1271 133.362 91.3345 133.072 91.4936 132.663L91.7067 132.109L87.0107 118.643H90.8288L93.5391 128.257H93.6754L96.4112 118.643H100.255L95.1669 133.149C94.9226 133.854 94.5902 134.467 94.1697 134.99C93.755 135.518 93.2294 135.925 92.593 136.209C91.9567 136.499 91.1896 136.643 90.2919 136.643ZM107.606 131.99C106.282 131.99 105.137 131.709 104.171 131.146C103.211 130.578 102.469 129.788 101.947 128.777C101.424 127.76 101.163 126.581 101.163 125.24C101.163 123.888 101.424 122.706 101.947 121.695C102.469 120.678 103.211 119.888 104.171 119.325C105.137 118.757 106.282 118.473 107.606 118.473C108.93 118.473 110.072 118.757 111.032 119.325C111.998 119.888 112.742 120.678 113.265 121.695C113.788 122.706 114.049 123.888 114.049 125.24C114.049 126.581 113.788 127.76 113.265 128.777C112.742 129.788 111.998 130.578 111.032 131.146C110.072 131.709 108.93 131.99 107.606 131.99ZM107.623 129.178C108.225 129.178 108.728 129.007 109.131 128.666C109.535 128.32 109.839 127.848 110.043 127.251C110.254 126.655 110.359 125.976 110.359 125.214C110.359 124.453 110.254 123.774 110.043 123.178C109.839 122.581 109.535 122.109 109.131 121.763C108.728 121.416 108.225 121.243 107.623 121.243C107.015 121.243 106.504 121.416 106.089 121.763C105.68 122.109 105.37 122.581 105.16 123.178C104.955 123.774 104.853 124.453 104.853 125.214C104.853 125.976 104.955 126.655 105.16 127.251C105.37 127.848 105.68 128.32 106.089 128.666C106.504 129.007 107.015 129.178 107.623 129.178ZM124.805 126.161V118.643H128.435V131.734H124.95V129.357H124.813C124.518 130.124 124.026 130.74 123.339 131.206C122.657 131.672 121.825 131.905 120.842 131.905C119.967 131.905 119.197 131.706 118.532 131.308C117.867 130.911 117.347 130.345 116.972 129.612C116.603 128.879 116.415 128.001 116.41 126.979V118.643H120.04V126.331C120.046 127.104 120.254 127.714 120.663 128.163C121.072 128.612 121.62 128.837 122.308 128.837C122.745 128.837 123.154 128.737 123.535 128.538C123.915 128.334 124.222 128.033 124.455 127.635C124.694 127.237 124.81 126.746 124.805 126.161ZM139.477 131.734L135.914 118.643H139.587L141.616 127.439H141.735L143.849 118.643H147.454L149.602 127.388H149.712L151.707 118.643H155.371L151.817 131.734H147.974L145.724 123.501H145.562L143.312 131.734H139.477ZM157.308 131.734V118.643H160.939V131.734H157.308ZM159.132 116.956C158.592 116.956 158.129 116.777 157.743 116.419C157.362 116.055 157.172 115.621 157.172 115.115C157.172 114.615 157.362 114.186 157.743 113.828C158.129 113.464 158.592 113.283 159.132 113.283C159.672 113.283 160.132 113.464 160.513 113.828C160.899 114.186 161.092 114.615 161.092 115.115C161.092 115.621 160.899 116.055 160.513 116.419C160.132 116.777 159.672 116.956 159.132 116.956ZM170.81 118.643V121.371H162.927V118.643H170.81ZM164.717 115.507H168.347V127.712C168.347 128.047 168.398 128.308 168.501 128.496C168.603 128.678 168.745 128.805 168.927 128.879C169.114 128.953 169.33 128.99 169.575 128.99C169.745 128.99 169.915 128.976 170.086 128.947C170.256 128.913 170.387 128.888 170.478 128.871L171.049 131.572C170.867 131.629 170.612 131.695 170.282 131.768C169.952 131.848 169.552 131.896 169.08 131.913C168.205 131.947 167.438 131.831 166.779 131.564C166.126 131.297 165.617 130.882 165.254 130.32C164.89 129.757 164.711 129.047 164.717 128.189V115.507ZM177.087 124.166V131.734H173.457V114.28H176.985V120.953H177.138C177.434 120.18 177.911 119.575 178.57 119.138C179.229 118.695 180.056 118.473 181.05 118.473C181.96 118.473 182.752 118.672 183.428 119.07C184.11 119.462 184.638 120.027 185.013 120.766C185.394 121.499 185.582 122.376 185.576 123.399V131.734H181.945V124.047C181.951 123.24 181.746 122.612 181.332 122.163C180.923 121.714 180.349 121.49 179.61 121.49C179.116 121.49 178.678 121.595 178.298 121.805C177.923 122.016 177.627 122.322 177.411 122.726C177.201 123.124 177.093 123.604 177.087 124.166ZM196.229 136.643C195.769 136.643 195.337 136.607 194.934 136.533C194.536 136.464 194.207 136.376 193.945 136.268L194.763 133.558C195.19 133.689 195.573 133.76 195.914 133.771C196.261 133.783 196.559 133.703 196.809 133.533C197.065 133.362 197.272 133.072 197.431 132.663L197.644 132.109L192.948 118.643H196.766L199.477 128.257H199.613L202.349 118.643H206.192L201.104 133.149C200.86 133.854 200.528 134.467 200.107 134.99C199.692 135.518 199.167 135.925 198.531 136.209C197.894 136.499 197.127 136.643 196.229 136.643ZM213.543 131.99C212.219 131.99 211.075 131.709 210.109 131.146C209.148 130.578 208.407 129.788 207.884 128.777C207.362 127.76 207.1 126.581 207.1 125.24C207.1 123.888 207.362 122.706 207.884 121.695C208.407 120.678 209.148 119.888 210.109 119.325C211.075 118.757 212.219 118.473 213.543 118.473C214.867 118.473 216.009 118.757 216.969 119.325C217.935 119.888 218.68 120.678 219.202 121.695C219.725 122.706 219.987 123.888 219.987 125.24C219.987 126.581 219.725 127.76 219.202 128.777C218.68 129.788 217.935 130.578 216.969 131.146C216.009 131.709 214.867 131.99 213.543 131.99ZM213.56 129.178C214.163 129.178 214.665 129.007 215.069 128.666C215.472 128.32 215.776 127.848 215.981 127.251C216.191 126.655 216.296 125.976 216.296 125.214C216.296 124.453 216.191 123.774 215.981 123.178C215.776 122.581 215.472 122.109 215.069 121.763C214.665 121.416 214.163 121.243 213.56 121.243C212.952 121.243 212.441 121.416 212.026 121.763C211.617 122.109 211.308 122.581 211.097 123.178C210.893 123.774 210.79 124.453 210.79 125.214C210.79 125.976 210.893 126.655 211.097 127.251C211.308 127.848 211.617 128.32 212.026 128.666C212.441 129.007 212.952 129.178 213.56 129.178ZM230.742 126.161V118.643H234.373V131.734H230.887V129.357H230.751C230.455 130.124 229.964 130.74 229.276 131.206C228.594 131.672 227.762 131.905 226.779 131.905C225.904 131.905 225.134 131.706 224.469 131.308C223.805 130.911 223.285 130.345 222.91 129.612C222.54 128.879 222.353 128.001 222.347 126.979V118.643H225.978V126.331C225.984 127.104 226.191 127.714 226.6 128.163C227.009 128.612 227.558 128.837 228.245 128.837C228.683 128.837 229.092 128.737 229.472 128.538C229.853 128.334 230.16 128.033 230.393 127.635C230.631 127.237 230.748 126.746 230.742 126.161ZM237.277 131.734V118.643H240.797V120.928H240.933C241.172 120.115 241.572 119.501 242.135 119.087C242.697 118.666 243.345 118.456 244.078 118.456C244.26 118.456 244.456 118.467 244.666 118.49C244.876 118.513 245.061 118.544 245.22 118.584V121.805C245.05 121.754 244.814 121.709 244.513 121.669C244.212 121.629 243.936 121.609 243.686 121.609C243.152 121.609 242.675 121.726 242.254 121.959C241.839 122.186 241.51 122.504 241.266 122.913C241.027 123.322 240.908 123.794 240.908 124.328V131.734H237.277ZM37.3466 165.916C36.1705 165.916 35.1619 165.754 34.321 165.43C33.4858 165.112 32.821 164.678 32.3267 164.126C31.8324 163.575 31.5114 162.956 31.3636 162.268L34.7216 161.817C34.8239 162.078 34.9858 162.322 35.2074 162.55C35.429 162.777 35.7216 162.959 36.0852 163.095C36.4545 163.237 36.9034 163.308 37.4318 163.308C38.2216 163.308 38.8722 163.115 39.3835 162.729C39.9006 162.348 40.1591 161.709 40.1591 160.811V158.416H40.0057C39.8466 158.78 39.608 159.124 39.2898 159.447C38.9716 159.771 38.5625 160.036 38.0625 160.24C37.5625 160.445 36.9659 160.547 36.2727 160.547C35.2898 160.547 34.3949 160.32 33.5881 159.865C32.7869 159.405 32.1477 158.703 31.6705 157.76C31.1989 156.811 30.9631 155.612 30.9631 154.163C30.9631 152.68 31.2045 151.442 31.6875 150.447C32.1705 149.453 32.8125 148.709 33.6136 148.214C34.4205 147.72 35.304 147.473 36.2642 147.473C36.9972 147.473 37.6108 147.598 38.1051 147.848C38.5994 148.092 38.9972 148.399 39.2983 148.768C39.6051 149.132 39.8409 149.49 40.0057 149.842H40.142V147.643H43.7472V160.862C43.7472 161.976 43.4744 162.908 42.929 163.658C42.3835 164.408 41.6278 164.97 40.6619 165.345C39.7017 165.726 38.5966 165.916 37.3466 165.916ZM37.4233 157.82C38.0085 157.82 38.5028 157.675 38.9062 157.385C39.3153 157.089 39.6278 156.669 39.8438 156.124C40.0653 155.572 40.1761 154.913 40.1761 154.146C40.1761 153.379 40.0682 152.714 39.8523 152.152C39.6364 151.584 39.3239 151.143 38.9148 150.831C38.5057 150.518 38.0085 150.362 37.4233 150.362C36.8267 150.362 36.3239 150.524 35.9148 150.848C35.5057 151.166 35.196 151.609 34.9858 152.178C34.7756 152.746 34.6705 153.402 34.6705 154.146C34.6705 154.902 34.7756 155.555 34.9858 156.107C35.2017 156.652 35.5114 157.075 35.9148 157.376C36.3239 157.672 36.8267 157.82 37.4233 157.82ZM46.6364 160.734V147.643H50.1562V149.928H50.2926C50.5313 149.115 50.9318 148.501 51.4943 148.087C52.0568 147.666 52.7045 147.456 53.4375 147.456C53.6193 147.456 53.8153 147.467 54.0256 147.49C54.2358 147.513 54.4205 147.544 54.5795 147.584V150.805C54.4091 150.754 54.1733 150.709 53.8722 150.669C53.571 150.629 53.2955 150.609 53.0455 150.609C52.5114 150.609 52.0341 150.726 51.6136 150.959C51.1989 151.186 50.8693 151.504 50.625 151.913C50.3864 152.322 50.267 152.794 50.267 153.328V160.734H46.6364ZM61.7621 160.99C60.4382 160.99 59.2933 160.709 58.3274 160.146C57.3672 159.578 56.6257 158.788 56.103 157.777C55.5803 156.76 55.3189 155.581 55.3189 154.24C55.3189 152.888 55.5803 151.706 56.103 150.695C56.6257 149.678 57.3672 148.888 58.3274 148.325C59.2933 147.757 60.4382 147.473 61.7621 147.473C63.0859 147.473 64.228 147.757 65.1882 148.325C66.1541 148.888 66.8984 149.678 67.4212 150.695C67.9439 151.706 68.2053 152.888 68.2053 154.24C68.2053 155.581 67.9439 156.76 67.4212 157.777C66.8984 158.788 66.1541 159.578 65.1882 160.146C64.228 160.709 63.0859 160.99 61.7621 160.99ZM61.7791 158.178C62.3814 158.178 62.8842 158.007 63.2876 157.666C63.6911 157.32 63.995 156.848 64.1996 156.251C64.4098 155.655 64.5149 154.976 64.5149 154.214C64.5149 153.453 64.4098 152.774 64.1996 152.178C63.995 151.581 63.6911 151.109 63.2876 150.763C62.8842 150.416 62.3814 150.243 61.7791 150.243C61.1712 150.243 60.6598 150.416 60.245 150.763C59.8359 151.109 59.5263 151.581 59.3161 152.178C59.1115 152.774 59.0092 153.453 59.0092 154.214C59.0092 154.976 59.1115 155.655 59.3161 156.251C59.5263 156.848 59.8359 157.32 60.245 157.666C60.6598 158.007 61.1712 158.178 61.7791 158.178ZM76.4808 160.99C75.1399 160.99 73.9865 160.706 73.0206 160.138C72.0604 159.564 71.3217 158.768 70.8047 157.751C70.2933 156.734 70.0376 155.564 70.0376 154.24C70.0376 152.899 70.2962 151.723 70.8132 150.712C71.3359 149.695 72.0774 148.902 73.0376 148.334C73.9979 147.76 75.1399 147.473 76.4638 147.473C77.6058 147.473 78.6058 147.68 79.4638 148.095C80.3217 148.51 81.0007 149.092 81.5007 149.842C82.0007 150.592 82.2763 151.473 82.3274 152.484H78.9013C78.8047 151.831 78.549 151.305 78.1342 150.908C77.7251 150.504 77.1882 150.303 76.5234 150.303C75.9609 150.303 75.4695 150.456 75.049 150.763C74.6342 151.064 74.3104 151.504 74.0774 152.084C73.8445 152.663 73.728 153.365 73.728 154.189C73.728 155.024 73.8416 155.734 74.0689 156.32C74.3018 156.905 74.6286 157.351 75.049 157.658C75.4695 157.964 75.9609 158.118 76.5234 158.118C76.9382 158.118 77.3104 158.033 77.6399 157.862C77.9751 157.692 78.2507 157.445 78.4666 157.121C78.6882 156.791 78.8331 156.396 78.9013 155.936H82.3274C82.2706 156.936 81.9979 157.817 81.5092 158.578C81.0263 159.334 80.3587 159.925 79.5064 160.351C78.6541 160.777 77.6456 160.99 76.4808 160.99ZM90.6179 160.99C89.2713 160.99 88.1122 160.717 87.1406 160.172C86.1747 159.621 85.4304 158.842 84.9077 157.837C84.3849 156.825 84.1236 155.629 84.1236 154.249C84.1236 152.902 84.3849 151.72 84.9077 150.703C85.4304 149.686 86.1662 148.893 87.1151 148.325C88.0696 147.757 89.1889 147.473 90.473 147.473C91.3366 147.473 92.1406 147.612 92.8849 147.891C93.6349 148.163 94.2884 148.575 94.8452 149.126C95.4077 149.678 95.8452 150.371 96.1577 151.206C96.4702 152.036 96.6264 153.007 96.6264 154.121V155.118H85.5724V152.868H93.2088C93.2088 152.345 93.0952 151.882 92.8679 151.479C92.6406 151.075 92.3253 150.76 91.9219 150.533C91.5241 150.3 91.0611 150.183 90.5327 150.183C89.9815 150.183 89.4929 150.311 89.0668 150.567C88.6463 150.817 88.3168 151.155 88.0781 151.581C87.8395 152.001 87.7173 152.47 87.7116 152.987V155.126C87.7116 155.774 87.831 156.334 88.0696 156.805C88.3139 157.277 88.6577 157.641 89.1009 157.896C89.544 158.152 90.0696 158.28 90.6776 158.28C91.081 158.28 91.4503 158.223 91.7855 158.109C92.1207 157.996 92.4077 157.825 92.6463 157.598C92.8849 157.371 93.0668 157.092 93.1918 156.763L96.5497 156.984C96.3793 157.791 96.0298 158.496 95.5014 159.098C94.9787 159.695 94.3026 160.161 93.473 160.496C92.6491 160.825 91.6974 160.99 90.6179 160.99ZM98.9957 160.734V147.643H102.516V149.928H102.652C102.891 149.115 103.291 148.501 103.854 148.087C104.416 147.666 105.064 147.456 105.797 147.456C105.979 147.456 106.175 147.467 106.385 147.49C106.595 147.513 106.78 147.544 106.939 147.584V150.805C106.768 150.754 106.533 150.709 106.232 150.669C105.93 150.629 105.655 150.609 105.405 150.609C104.871 150.609 104.393 150.726 103.973 150.959C103.558 151.186 103.229 151.504 102.984 151.913C102.746 152.322 102.626 152.794 102.626 153.328V160.734H98.9957ZM111.456 165.643C110.996 165.643 110.564 165.607 110.161 165.533C109.763 165.464 109.433 165.376 109.172 165.268L109.99 162.558C110.416 162.689 110.8 162.76 111.141 162.771C111.487 162.783 111.786 162.703 112.036 162.533C112.291 162.362 112.499 162.072 112.658 161.663L112.871 161.109L108.175 147.643H111.993L114.703 157.257H114.839L117.575 147.643H121.419L116.331 162.149C116.087 162.854 115.754 163.467 115.334 163.99C114.919 164.518 114.393 164.925 113.757 165.209C113.121 165.499 112.354 165.643 111.456 165.643Z" fill="#333333"/>
<path d="M31.5327 193.734H30.3324L33.804 184.28H34.9858L38.4574 193.734H37.2571L34.4318 185.776H34.358L31.5327 193.734ZM31.9759 190.041H36.8139V191.057H31.9759V190.041ZM46.1161 193.882C45.5252 193.882 45.0036 193.733 44.5511 193.434C44.0987 193.133 43.7448 192.708 43.4893 192.16C43.2339 191.609 43.1062 190.958 43.1062 190.207C43.1062 189.463 43.2339 188.816 43.4893 188.268C43.7448 187.721 44.1003 187.297 44.5558 186.999C45.0112 186.7 45.5375 186.551 46.1346 186.551C46.5962 186.551 46.9609 186.628 47.2287 186.782C47.4995 186.933 47.7057 187.105 47.8473 187.299C47.992 187.49 48.1043 187.647 48.1843 187.77H48.2766V184.28H49.3661V193.734H48.3136V192.645H48.1843C48.1043 192.774 47.9904 192.937 47.8427 193.134C47.695 193.328 47.4841 193.502 47.2102 193.656C46.9363 193.807 46.5716 193.882 46.1161 193.882ZM46.2638 192.903C46.7009 192.903 47.0702 192.79 47.3718 192.562C47.6734 192.331 47.9027 192.012 48.0597 191.606C48.2166 191.197 48.2951 190.724 48.2951 190.189C48.2951 189.66 48.2182 189.196 48.0643 188.799C47.9104 188.399 47.6826 188.088 47.381 187.867C47.0794 187.642 46.707 187.53 46.2638 187.53C45.8022 187.53 45.4175 187.648 45.1097 187.885C44.805 188.119 44.5758 188.438 44.4219 188.841C44.2711 189.241 44.1957 189.69 44.1957 190.189C44.1957 190.694 44.2726 191.152 44.4265 191.565C44.5835 191.974 44.8143 192.3 45.119 192.543C45.4267 192.783 45.8084 192.903 46.2638 192.903ZM51.5128 193.734V186.643H52.6023V193.734H51.5128ZM52.0668 185.462C51.8544 185.462 51.6713 185.389 51.5174 185.245C51.3666 185.1 51.2912 184.926 51.2912 184.723C51.2912 184.52 51.3666 184.346 51.5174 184.201C51.6713 184.057 51.8544 183.984 52.0668 183.984C52.2791 183.984 52.4607 184.057 52.6115 184.201C52.7654 184.346 52.8423 184.52 52.8423 184.723C52.8423 184.926 52.7654 185.1 52.6115 185.245C52.4607 185.389 52.2791 185.462 52.0668 185.462ZM57.7554 186.643V187.567H53.933V186.643H57.7554ZM55.0779 193.734V185.665C55.0779 185.259 55.1733 184.92 55.3641 184.649C55.5549 184.378 55.8026 184.175 56.1073 184.04C56.412 183.904 56.7336 183.837 57.0722 183.837C57.3399 183.837 57.5584 183.858 57.7277 183.901C57.897 183.944 58.0232 183.984 58.1063 184.021L57.7923 184.963C57.7369 184.945 57.66 184.922 57.5615 184.894C57.4661 184.866 57.3399 184.852 57.183 184.852C56.8229 184.852 56.5628 184.943 56.4028 185.125C56.2458 185.306 56.1673 185.572 56.1673 185.923V193.734H55.0779ZM62.44 186.643V187.567H58.6175V186.643H62.44ZM59.7624 193.734V185.665C59.7624 185.259 59.8578 184.92 60.0487 184.649C60.2395 184.378 60.4872 184.175 60.7919 184.04C61.0966 183.904 61.4182 183.837 61.7567 183.837C62.0245 183.837 62.243 183.858 62.4123 183.901C62.5816 183.944 62.7077 183.984 62.7908 184.021L62.4769 184.963C62.4215 184.945 62.3446 184.922 62.2461 184.894C62.1507 184.866 62.0245 184.852 61.8675 184.852C61.5075 184.852 61.2474 184.943 61.0874 185.125C60.9304 185.306 60.8519 185.572 60.8519 185.923V193.734H59.7624ZM66.6479 193.882C65.9647 193.882 65.3753 193.731 64.8798 193.43C64.3874 193.125 64.0073 192.7 63.7395 192.156C63.4748 191.608 63.3425 190.971 63.3425 190.244C63.3425 189.518 63.4748 188.878 63.7395 188.324C64.0073 187.767 64.3797 187.333 64.8567 187.022C65.3368 186.708 65.897 186.551 66.5371 186.551C66.9064 186.551 67.2711 186.613 67.6312 186.736C67.9913 186.859 68.3191 187.059 68.6145 187.336C68.91 187.61 69.1454 187.973 69.3208 188.425C69.4963 188.878 69.584 189.435 69.584 190.097V190.558H64.1181V189.616H68.476C68.476 189.216 68.396 188.859 68.236 188.545C68.079 188.232 67.8543 187.984 67.562 187.802C67.2727 187.621 66.931 187.53 66.5371 187.53C66.1032 187.53 65.7277 187.638 65.4107 187.853C65.0968 188.065 64.8552 188.342 64.6859 188.684C64.5166 189.026 64.432 189.392 64.432 189.783V190.411C64.432 190.946 64.5243 191.4 64.709 191.772C64.8967 192.142 65.1568 192.423 65.4892 192.617C65.8216 192.808 66.2078 192.903 66.6479 192.903C66.9341 192.903 67.1926 192.863 67.4235 192.783C67.6574 192.7 67.859 192.577 68.0282 192.414C68.1975 192.248 68.3283 192.042 68.4206 191.795L69.4732 192.091C69.3624 192.448 69.1762 192.762 68.9146 193.033C68.653 193.3 68.3298 193.51 67.9451 193.661C67.5604 193.808 67.128 193.882 66.6479 193.882ZM71.2413 193.734V186.643H72.2939V187.714H72.3677C72.497 187.364 72.7309 187.079 73.0694 186.86C73.408 186.642 73.7896 186.533 74.2143 186.533C74.2943 186.533 74.3944 186.534 74.5144 186.537C74.6344 186.54 74.7252 186.545 74.7868 186.551V187.659C74.7498 187.65 74.6652 187.636 74.5328 187.618C74.4036 187.596 74.2666 187.585 74.122 187.585C73.7773 187.585 73.4695 187.658 73.1987 187.802C72.9309 187.944 72.7186 188.141 72.5616 188.393C72.4077 188.642 72.3308 188.927 72.3308 189.247V193.734H71.2413ZM78.8354 193.882C78.1522 193.882 77.5628 193.731 77.0673 193.43C76.5749 193.125 76.1948 192.7 75.927 192.156C75.6623 191.608 75.53 190.971 75.53 190.244C75.53 189.518 75.6623 188.878 75.927 188.324C76.1948 187.767 76.5672 187.333 77.0442 187.022C77.5243 186.708 78.0845 186.551 78.7246 186.551C79.0939 186.551 79.4586 186.613 79.8187 186.736C80.1788 186.859 80.5066 187.059 80.802 187.336C81.0975 187.61 81.3329 187.973 81.5083 188.425C81.6838 188.878 81.7715 189.435 81.7715 190.097V190.558H76.3056V189.616H80.6635C80.6635 189.216 80.5835 188.859 80.4235 188.545C80.2665 188.232 80.0418 187.984 79.7495 187.802C79.4602 187.621 79.1185 187.53 78.7246 187.53C78.2907 187.53 77.9152 187.638 77.5982 187.853C77.2843 188.065 77.0427 188.342 76.8734 188.684C76.7041 189.026 76.6195 189.392 76.6195 189.783V190.411C76.6195 190.946 76.7118 191.4 76.8965 191.772C77.0842 192.142 77.3443 192.423 77.6767 192.617C78.0091 192.808 78.3953 192.903 78.8354 192.903C79.1216 192.903 79.3801 192.863 79.611 192.783C79.8449 192.7 80.0465 192.577 80.2157 192.414C80.385 192.248 80.5158 192.042 80.6081 191.795L81.6607 192.091C81.5499 192.448 81.3637 192.762 81.1021 193.033C80.8405 193.3 80.5173 193.51 80.1326 193.661C79.7479 193.808 79.3155 193.882 78.8354 193.882ZM84.5183 189.469V193.734H83.4288V186.643H84.4814V187.751H84.5737C84.7399 187.391 84.9922 187.102 85.3308 186.884C85.6693 186.662 86.1064 186.551 86.6419 186.551C87.122 186.551 87.5421 186.65 87.9022 186.847C88.2623 187.04 88.5423 187.336 88.7424 187.733C88.9424 188.127 89.0424 188.625 89.0424 189.229V193.734H87.9529V189.303C87.9529 188.746 87.8083 188.312 87.519 188.001C87.2297 187.687 86.8327 187.53 86.3279 187.53C85.9802 187.53 85.6693 187.605 85.3954 187.756C85.1246 187.907 84.9107 188.127 84.7537 188.416C84.5968 188.705 84.5183 189.056 84.5183 189.469ZM94.1171 186.643V187.567H90.4424V186.643H94.1171ZM91.5134 184.945H92.6029V191.703C92.6029 192.011 92.6475 192.242 92.7368 192.396C92.8291 192.546 92.9461 192.648 93.0876 192.7C93.2323 192.75 93.3846 192.774 93.5447 192.774C93.6647 192.774 93.7632 192.768 93.8401 192.756C93.9171 192.74 93.9786 192.728 94.0248 192.719L94.2464 193.697C94.1725 193.725 94.0694 193.753 93.9371 193.781C93.8047 193.811 93.637 193.827 93.4339 193.827C93.1261 193.827 92.8245 193.761 92.529 193.628C92.2367 193.496 91.9935 193.294 91.7996 193.023C91.6088 192.753 91.5134 192.411 91.5134 191.999V184.945ZM100.428 191.149L100.409 189.801H100.631L103.733 186.643H105.081L101.776 189.986H101.684L100.428 191.149ZM99.4122 193.734V184.28H100.502V193.734H99.4122ZM103.918 193.734L101.148 190.226L101.924 189.469L105.303 193.734H103.918ZM106.483 193.734V186.643H107.573V193.734H106.483ZM107.037 185.462C106.825 185.462 106.642 185.389 106.488 185.245C106.337 185.1 106.262 184.926 106.262 184.723C106.262 184.52 106.337 184.346 106.488 184.201C106.642 184.057 106.825 183.984 107.037 183.984C107.25 183.984 107.431 184.057 107.582 184.201C107.736 184.346 107.813 184.52 107.813 184.723C107.813 184.926 107.736 185.1 107.582 185.245C107.431 185.389 107.25 185.462 107.037 185.462ZM110.658 189.469V193.734H109.568V186.643H110.621V187.751H110.713C110.88 187.391 111.132 187.102 111.47 186.884C111.809 186.662 112.246 186.551 112.782 186.551C113.262 186.551 113.682 186.65 114.042 186.847C114.402 187.04 114.682 187.336 114.882 187.733C115.082 188.127 115.182 188.625 115.182 189.229V193.734H114.093V189.303C114.093 188.746 113.948 188.312 113.659 188.001C113.369 187.687 112.972 187.53 112.468 187.53C112.12 187.53 111.809 187.605 111.535 187.756C111.264 187.907 111.05 188.127 110.893 188.416C110.736 188.705 110.658 189.056 110.658 189.469ZM119.85 193.882C119.26 193.882 118.738 193.733 118.286 193.434C117.833 193.133 117.479 192.708 117.224 192.16C116.968 191.609 116.841 190.958 116.841 190.207C116.841 189.463 116.968 188.816 117.224 188.268C117.479 187.721 117.835 187.297 118.29 186.999C118.746 186.7 119.272 186.551 119.869 186.551C120.331 186.551 120.695 186.628 120.963 186.782C121.234 186.933 121.44 187.105 121.582 187.299C121.726 187.49 121.839 187.647 121.919 187.77H122.011V184.28H123.1V193.734H122.048V192.645H121.919C121.839 192.774 121.725 192.937 121.577 193.134C121.429 193.328 121.219 193.502 120.945 193.656C120.671 193.807 120.306 193.882 119.85 193.882ZM119.998 192.903C120.435 192.903 120.805 192.79 121.106 192.562C121.408 192.331 121.637 192.012 121.794 191.606C121.951 191.197 122.029 190.724 122.029 190.189C122.029 189.66 121.953 189.196 121.799 188.799C121.645 188.399 121.417 188.088 121.115 187.867C120.814 187.642 120.441 187.53 119.998 187.53C119.537 187.53 119.152 187.648 118.844 187.885C118.539 188.119 118.31 188.438 118.156 188.841C118.005 189.241 117.93 189.69 117.93 190.189C117.93 190.694 118.007 191.152 118.161 191.565C118.318 191.974 118.549 192.3 118.853 192.543C119.161 192.783 119.543 192.903 119.998 192.903ZM131.784 193.882C131.144 193.882 130.582 193.73 130.099 193.425C129.619 193.12 129.243 192.694 128.973 192.146C128.705 191.598 128.571 190.958 128.571 190.226C128.571 189.487 128.705 188.842 128.973 188.292C129.243 187.741 129.619 187.313 130.099 187.008C130.582 186.703 131.144 186.551 131.784 186.551C132.424 186.551 132.984 186.703 133.464 187.008C133.948 187.313 134.323 187.741 134.591 188.292C134.862 188.842 134.997 189.487 134.997 190.226C134.997 190.958 134.862 191.598 134.591 192.146C134.323 192.694 133.948 193.12 133.464 193.425C132.984 193.73 132.424 193.882 131.784 193.882ZM131.784 192.903C132.27 192.903 132.67 192.779 132.984 192.529C133.298 192.28 133.531 191.952 133.681 191.546C133.832 191.14 133.908 190.7 133.908 190.226C133.908 189.752 133.832 189.31 133.681 188.901C133.531 188.492 133.298 188.161 132.984 187.908C132.67 187.656 132.27 187.53 131.784 187.53C131.298 187.53 130.898 187.656 130.584 187.908C130.27 188.161 130.038 188.492 129.887 188.901C129.736 189.31 129.661 189.752 129.661 190.226C129.661 190.7 129.736 191.14 129.887 191.546C130.038 191.952 130.27 192.28 130.584 192.529C130.898 192.779 131.298 192.903 131.784 192.903ZM139.818 186.643V187.567H135.995V186.643H139.818ZM137.14 193.734V185.665C137.14 185.259 137.236 184.92 137.427 184.649C137.617 184.378 137.865 184.175 138.17 184.04C138.475 183.904 138.796 183.837 139.135 183.837C139.402 183.837 139.621 183.858 139.79 183.901C139.959 183.944 140.086 183.984 140.169 184.021L139.855 184.963C139.799 184.945 139.723 184.922 139.624 184.894C139.529 184.866 139.402 184.852 139.245 184.852C138.885 184.852 138.625 184.943 138.465 185.125C138.308 185.306 138.23 185.572 138.23 185.923V193.734H137.14ZM147.863 196.541C147.337 196.541 146.885 196.473 146.506 196.338C146.127 196.206 145.812 196.03 145.56 195.812C145.31 195.596 145.112 195.366 144.964 195.119L145.832 194.51C145.931 194.639 146.055 194.787 146.206 194.953C146.357 195.122 146.563 195.269 146.825 195.392C147.089 195.518 147.435 195.581 147.863 195.581C148.436 195.581 148.908 195.442 149.281 195.165C149.653 194.888 149.839 194.455 149.839 193.864V192.423H149.747C149.667 192.553 149.553 192.713 149.405 192.903C149.261 193.091 149.051 193.259 148.777 193.407C148.507 193.551 148.14 193.624 147.679 193.624C147.106 193.624 146.592 193.488 146.137 193.217C145.684 192.946 145.326 192.553 145.061 192.036C144.799 191.518 144.669 190.891 144.669 190.152C144.669 189.426 144.796 188.793 145.052 188.255C145.307 187.713 145.663 187.294 146.118 186.999C146.574 186.7 147.1 186.551 147.697 186.551C148.159 186.551 148.525 186.628 148.796 186.782C149.07 186.933 149.279 187.105 149.424 187.299C149.571 187.49 149.685 187.647 149.765 187.77H149.876V186.643H150.929V193.938C150.929 194.547 150.79 195.042 150.513 195.424C150.239 195.809 149.87 196.09 149.405 196.269C148.944 196.45 148.43 196.541 147.863 196.541ZM147.826 192.645C148.263 192.645 148.633 192.545 148.934 192.345C149.236 192.145 149.465 191.857 149.622 191.482C149.779 191.106 149.858 190.657 149.858 190.134C149.858 189.623 149.781 189.172 149.627 188.781C149.473 188.39 149.245 188.084 148.944 187.862C148.642 187.641 148.27 187.53 147.826 187.53C147.365 187.53 146.98 187.647 146.672 187.881C146.368 188.115 146.138 188.429 145.984 188.822C145.834 189.216 145.758 189.653 145.758 190.134C145.758 190.626 145.835 191.061 145.989 191.44C146.146 191.815 146.377 192.111 146.681 192.326C146.989 192.539 147.371 192.645 147.826 192.645ZM152.923 193.734V186.643H153.975V187.714H154.049C154.179 187.364 154.413 187.079 154.751 186.86C155.09 186.642 155.471 186.533 155.896 186.533C155.976 186.533 156.076 186.534 156.196 186.537C156.316 186.54 156.407 186.545 156.468 186.551V187.659C156.431 187.65 156.347 187.636 156.214 187.618C156.085 187.596 155.948 187.585 155.804 187.585C155.459 187.585 155.151 187.658 154.88 187.802C154.613 187.944 154.4 188.141 154.243 188.393C154.089 188.642 154.012 188.927 154.012 189.247V193.734H152.923ZM160.425 193.882C159.785 193.882 159.223 193.73 158.74 193.425C158.26 193.12 157.884 192.694 157.613 192.146C157.346 191.598 157.212 190.958 157.212 190.226C157.212 189.487 157.346 188.842 157.613 188.292C157.884 187.741 158.26 187.313 158.74 187.008C159.223 186.703 159.785 186.551 160.425 186.551C161.065 186.551 161.625 186.703 162.105 187.008C162.588 187.313 162.964 187.741 163.232 188.292C163.502 188.842 163.638 189.487 163.638 190.226C163.638 190.958 163.502 191.598 163.232 192.146C162.964 192.694 162.588 193.12 162.105 193.425C161.625 193.73 161.065 193.882 160.425 193.882ZM160.425 192.903C160.911 192.903 161.311 192.779 161.625 192.529C161.939 192.28 162.171 191.952 162.322 191.546C162.473 191.14 162.548 190.7 162.548 190.226C162.548 189.752 162.473 189.31 162.322 188.901C162.171 188.492 161.939 188.161 161.625 187.908C161.311 187.656 160.911 187.53 160.425 187.53C159.938 187.53 159.538 187.656 159.224 187.908C158.911 188.161 158.678 188.492 158.527 188.901C158.377 189.31 158.301 189.752 158.301 190.226C158.301 190.7 158.377 191.14 158.527 191.546C158.678 191.952 158.911 192.28 159.224 192.529C159.538 192.779 159.938 192.903 160.425 192.903ZM168.182 193.882C167.517 193.882 166.944 193.725 166.464 193.411C165.984 193.097 165.615 192.665 165.356 192.114C165.098 191.563 164.968 190.934 164.968 190.226C164.968 189.506 165.101 188.87 165.366 188.319C165.633 187.765 166.006 187.333 166.483 187.022C166.963 186.708 167.523 186.551 168.163 186.551C168.662 186.551 169.111 186.643 169.511 186.828C169.911 187.013 170.239 187.271 170.494 187.604C170.75 187.936 170.908 188.324 170.97 188.767H169.88C169.797 188.444 169.613 188.158 169.326 187.908C169.043 187.656 168.662 187.53 168.182 187.53C167.757 187.53 167.384 187.641 167.064 187.862C166.747 188.081 166.5 188.39 166.321 188.79C166.146 189.187 166.058 189.653 166.058 190.189C166.058 190.737 166.144 191.214 166.316 191.62C166.492 192.026 166.738 192.342 167.055 192.566C167.375 192.791 167.751 192.903 168.182 192.903C168.465 192.903 168.722 192.854 168.953 192.756C169.183 192.657 169.379 192.516 169.539 192.331C169.699 192.146 169.813 191.925 169.88 191.666H170.97C170.908 192.085 170.756 192.462 170.513 192.797C170.273 193.13 169.954 193.394 169.557 193.591C169.163 193.785 168.705 193.882 168.182 193.882ZM175.536 193.882C174.852 193.882 174.263 193.731 173.767 193.43C173.275 193.125 172.895 192.7 172.627 192.156C172.363 191.608 172.23 190.971 172.23 190.244C172.23 189.518 172.363 188.878 172.627 188.324C172.895 187.767 173.267 187.333 173.744 187.022C174.225 186.708 174.785 186.551 175.425 186.551C175.794 186.551 176.159 186.613 176.519 186.736C176.879 186.859 177.207 187.059 177.502 187.336C177.798 187.61 178.033 187.973 178.209 188.425C178.384 188.878 178.472 189.435 178.472 190.097V190.558H173.006V189.616H177.364C177.364 189.216 177.284 188.859 177.124 188.545C176.967 188.232 176.742 187.984 176.45 187.802C176.16 187.621 175.819 187.53 175.425 187.53C174.991 187.53 174.615 187.638 174.298 187.853C173.984 188.065 173.743 188.342 173.574 188.684C173.404 189.026 173.32 189.392 173.32 189.783V190.411C173.32 190.946 173.412 191.4 173.597 191.772C173.784 192.142 174.044 192.423 174.377 192.617C174.709 192.808 175.095 192.903 175.536 192.903C175.822 192.903 176.08 192.863 176.311 192.783C176.545 192.7 176.747 192.577 176.916 192.414C177.085 192.248 177.216 192.042 177.308 191.795L178.361 192.091C178.25 192.448 178.064 192.762 177.802 193.033C177.541 193.3 177.218 193.51 176.833 193.661C176.448 193.808 176.016 193.882 175.536 193.882ZM180.129 193.734V186.643H181.182V187.714H181.255C181.385 187.364 181.619 187.079 181.957 186.86C182.296 186.642 182.677 186.533 183.102 186.533C183.182 186.533 183.282 186.534 183.402 186.537C183.522 186.54 183.613 186.545 183.674 186.551V187.659C183.638 187.65 183.553 187.636 183.421 187.618C183.291 187.596 183.154 187.585 183.01 187.585C182.665 187.585 182.357 187.658 182.086 187.802C181.819 187.944 181.606 188.141 181.449 188.393C181.295 188.642 181.218 188.927 181.218 189.247V193.734H180.129ZM185.883 196.393C185.699 196.393 185.534 196.378 185.389 196.347C185.245 196.32 185.145 196.292 185.089 196.264L185.366 195.304C185.631 195.372 185.865 195.396 186.068 195.378C186.271 195.359 186.451 195.269 186.608 195.105C186.768 194.945 186.914 194.685 187.047 194.325L187.25 193.771L184.628 186.643H185.81L187.767 192.294H187.841L189.798 186.643H190.98L187.97 194.768C187.835 195.135 187.667 195.438 187.467 195.678C187.267 195.921 187.034 196.101 186.77 196.218C186.508 196.335 186.213 196.393 185.883 196.393ZM201.097 188.232L200.118 188.509C200.057 188.345 199.966 188.187 199.846 188.033C199.729 187.876 199.569 187.747 199.366 187.645C199.163 187.544 198.903 187.493 198.586 187.493C198.152 187.493 197.79 187.593 197.501 187.793C197.215 187.99 197.071 188.241 197.071 188.545C197.071 188.816 197.17 189.03 197.367 189.187C197.564 189.344 197.872 189.475 198.29 189.58L199.343 189.838C199.977 189.992 200.449 190.227 200.76 190.544C201.071 190.858 201.226 191.263 201.226 191.759C201.226 192.165 201.109 192.528 200.875 192.848C200.645 193.168 200.321 193.42 199.906 193.605C199.491 193.79 199.007 193.882 198.456 193.882C197.733 193.882 197.135 193.725 196.661 193.411C196.187 193.097 195.887 192.639 195.76 192.036L196.794 191.777C196.893 192.159 197.079 192.445 197.353 192.636C197.63 192.826 197.992 192.922 198.438 192.922C198.946 192.922 199.349 192.814 199.647 192.599C199.949 192.38 200.1 192.119 200.1 191.814C200.1 191.568 200.014 191.362 199.841 191.195C199.669 191.026 199.404 190.9 199.047 190.817L197.866 190.54C197.216 190.386 196.739 190.147 196.434 189.824C196.133 189.498 195.982 189.09 195.982 188.601C195.982 188.201 196.094 187.847 196.319 187.539C196.547 187.231 196.856 186.99 197.247 186.814C197.641 186.639 198.087 186.551 198.586 186.551C199.287 186.551 199.838 186.705 200.238 187.013C200.642 187.321 200.928 187.727 201.097 188.232ZM205.95 186.643V187.567H202.275V186.643H205.95ZM203.346 184.945H204.436V191.703C204.436 192.011 204.481 192.242 204.57 192.396C204.662 192.546 204.779 192.648 204.921 192.7C205.065 192.75 205.218 192.774 205.378 192.774C205.498 192.774 205.596 192.768 205.673 192.756C205.75 192.74 205.812 192.728 205.858 192.719L206.079 193.697C206.006 193.725 205.902 193.753 205.77 193.781C205.638 193.811 205.47 193.827 205.267 193.827C204.959 193.827 204.657 193.761 204.362 193.628C204.07 193.496 203.827 193.294 203.633 193.023C203.442 192.753 203.346 192.411 203.346 191.999V184.945ZM210.393 193.882C209.753 193.882 209.192 193.73 208.708 193.425C208.228 193.12 207.853 192.694 207.582 192.146C207.314 191.598 207.18 190.958 207.18 190.226C207.18 189.487 207.314 188.842 207.582 188.292C207.853 187.741 208.228 187.313 208.708 187.008C209.192 186.703 209.753 186.551 210.393 186.551C211.034 186.551 211.594 186.703 212.074 187.008C212.557 187.313 212.933 187.741 213.2 188.292C213.471 188.842 213.607 189.487 213.607 190.226C213.607 190.958 213.471 191.598 213.2 192.146C212.933 192.694 212.557 193.12 212.074 193.425C211.594 193.73 211.034 193.882 210.393 193.882ZM210.393 192.903C210.88 192.903 211.28 192.779 211.594 192.529C211.908 192.28 212.14 191.952 212.291 191.546C212.442 191.14 212.517 190.7 212.517 190.226C212.517 189.752 212.442 189.31 212.291 188.901C212.14 188.492 211.908 188.161 211.594 187.908C211.28 187.656 210.88 187.53 210.393 187.53C209.907 187.53 209.507 187.656 209.193 187.908C208.879 188.161 208.647 188.492 208.496 188.901C208.345 189.31 208.27 189.752 208.27 190.226C208.27 190.7 208.345 191.14 208.496 191.546C208.647 191.952 208.879 192.28 209.193 192.529C209.507 192.779 209.907 192.903 210.393 192.903ZM215.27 193.734V186.643H216.322V187.714H216.396C216.525 187.364 216.759 187.079 217.098 186.86C217.436 186.642 217.818 186.533 218.243 186.533C218.323 186.533 218.423 186.534 218.543 186.537C218.663 186.54 218.754 186.545 218.815 186.551V187.659C218.778 187.65 218.694 187.636 218.561 187.618C218.432 187.596 218.295 187.585 218.15 187.585C217.806 187.585 217.498 187.658 217.227 187.802C216.959 187.944 216.747 188.141 216.59 188.393C216.436 188.642 216.359 188.927 216.359 189.247V193.734H215.27ZM222.864 193.882C222.18 193.882 221.591 193.731 221.096 193.43C220.603 193.125 220.223 192.7 219.955 192.156C219.691 191.608 219.558 190.971 219.558 190.244C219.558 189.518 219.691 188.878 219.955 188.324C220.223 187.767 220.595 187.333 221.073 187.022C221.553 186.708 222.113 186.551 222.753 186.551C223.122 186.551 223.487 186.613 223.847 186.736C224.207 186.859 224.535 187.059 224.83 187.336C225.126 187.61 225.361 187.973 225.537 188.425C225.712 188.878 225.8 189.435 225.8 190.097V190.558H220.334V189.616H224.692C224.692 189.216 224.612 188.859 224.452 188.545C224.295 188.232 224.07 187.984 223.778 187.802C223.488 187.621 223.147 187.53 222.753 187.53C222.319 187.53 221.944 187.638 221.627 187.853C221.313 188.065 221.071 188.342 220.902 188.684C220.732 189.026 220.648 189.392 220.648 189.783V190.411C220.648 190.946 220.74 191.4 220.925 191.772C221.113 192.142 221.373 192.423 221.705 192.617C222.037 192.808 222.424 192.903 222.864 192.903C223.15 192.903 223.408 192.863 223.639 192.783C223.873 192.7 224.075 192.577 224.244 192.414C224.413 192.248 224.544 192.042 224.636 191.795L225.689 192.091C225.578 192.448 225.392 192.762 225.13 193.033C224.869 193.3 224.546 193.51 224.161 193.661C223.776 193.808 223.344 193.882 222.864 193.882Z" fill="#333333"/>
<rect x="30.5" y="211.234" width="107.98" height="33" rx="16.5" fill="white"/>
<rect x="30.5" y="211.234" width="107.98" height="33" rx="16.5" stroke="#E5E7EB"/>
<path d="M46.8386 225.517C46.8045 225.173 46.6582 224.906 46.3997 224.716C46.1412 224.526 45.7903 224.43 45.3471 224.43C45.046 224.43 44.7917 224.473 44.5843 224.558C44.377 224.641 44.2179 224.756 44.1071 224.903C43.9991 225.051 43.9451 225.219 43.9451 225.406C43.9395 225.562 43.9721 225.699 44.0431 225.815C44.117 225.932 44.2179 226.033 44.3457 226.118C44.4735 226.2 44.6213 226.273 44.7889 226.335C44.9565 226.395 45.1355 226.446 45.3258 226.489L46.1099 226.676C46.4906 226.761 46.84 226.875 47.1582 227.017C47.4764 227.159 47.752 227.334 47.9849 227.541C48.2179 227.749 48.3983 227.993 48.5261 228.274C48.6568 228.555 48.7235 228.878 48.7264 229.241C48.7235 229.776 48.5872 230.239 48.3173 230.631C48.0502 231.02 47.6639 231.322 47.1582 231.538C46.6554 231.751 46.0488 231.858 45.3386 231.858C44.6341 231.858 44.0204 231.75 43.4977 231.534C42.9778 231.318 42.5716 230.999 42.2789 230.575C41.9892 230.149 41.8372 229.622 41.823 228.994H43.6085C43.6284 229.287 43.7122 229.531 43.8599 229.727C44.0105 229.92 44.2108 230.067 44.4608 230.166C44.7136 230.263 44.9991 230.311 45.3173 230.311C45.6298 230.311 45.9011 230.266 46.1312 230.175C46.3642 230.084 46.5446 229.957 46.6724 229.795C46.8002 229.634 46.8642 229.447 46.8642 229.237C46.8642 229.041 46.8059 228.876 46.6895 228.743C46.5758 228.609 46.4082 228.496 46.1866 228.402C45.9679 228.308 45.6994 228.223 45.3812 228.146L44.4309 227.908C43.6951 227.729 43.1142 227.449 42.688 227.068C42.2619 226.687 42.0502 226.175 42.0531 225.53C42.0502 225.001 42.1909 224.54 42.475 224.145C42.7619 223.75 43.1554 223.442 43.6554 223.22C44.1554 222.999 44.7235 222.888 45.3599 222.888C46.0076 222.888 46.573 222.999 47.0559 223.22C47.5417 223.442 47.9196 223.75 48.1895 224.145C48.4593 224.54 48.5985 224.997 48.6071 225.517H46.8386ZM51.7488 227.95V231.734H49.9334V223.007H51.6976V226.344H51.7743C51.9221 225.957 52.1607 225.655 52.4902 225.436C52.8198 225.214 53.2331 225.104 53.7303 225.104C54.1848 225.104 54.5811 225.203 54.9192 225.402C55.2601 225.598 55.5243 225.881 55.7118 226.25C55.9022 226.616 55.9959 227.055 55.9931 227.567V231.734H54.1777V227.891C54.1806 227.487 54.0783 227.173 53.8709 226.949C53.6664 226.724 53.3794 226.612 53.0101 226.612C52.763 226.612 52.5442 226.665 52.3539 226.77C52.1664 226.875 52.0186 227.028 51.9107 227.23C51.8056 227.429 51.7516 227.669 51.7488 227.95ZM60.3791 231.862C59.7172 231.862 59.1447 231.722 58.6618 231.44C58.1816 231.156 57.8109 230.761 57.5495 230.256C57.2882 229.747 57.1575 229.158 57.1575 228.487C57.1575 227.811 57.2882 227.22 57.5495 226.714C57.8109 226.206 58.1816 225.811 58.6618 225.53C59.1447 225.246 59.7172 225.104 60.3791 225.104C61.041 225.104 61.612 225.246 62.0922 225.53C62.5751 225.811 62.9473 226.206 63.2086 226.714C63.47 227.22 63.6007 227.811 63.6007 228.487C63.6007 229.158 63.47 229.747 63.2086 230.256C62.9473 230.761 62.5751 231.156 62.0922 231.44C61.612 231.722 61.041 231.862 60.3791 231.862ZM60.3876 230.456C60.6887 230.456 60.9402 230.371 61.1419 230.2C61.3436 230.027 61.4956 229.791 61.5978 229.493C61.7029 229.195 61.7555 228.855 61.7555 228.474C61.7555 228.094 61.7029 227.754 61.5978 227.456C61.4956 227.158 61.3436 226.922 61.1419 226.749C60.9402 226.575 60.6887 226.489 60.3876 226.489C60.0836 226.489 59.8279 226.575 59.6206 226.749C59.416 226.922 59.2612 227.158 59.1561 227.456C59.0538 227.754 59.0027 228.094 59.0027 228.474C59.0027 228.855 59.0538 229.195 59.1561 229.493C59.2612 229.791 59.416 230.027 59.6206 230.2C59.8279 230.371 60.0836 230.456 60.3876 230.456ZM64.7811 234.189V225.189H66.5708V226.288H66.6518C66.7314 226.112 66.8464 225.933 66.997 225.751C67.1504 225.567 67.3493 225.413 67.5936 225.291C67.8407 225.166 68.1475 225.104 68.514 225.104C68.9913 225.104 69.4316 225.229 69.835 225.479C70.2385 225.726 70.5609 226.099 70.8024 226.599C71.0439 227.097 71.1646 227.72 71.1646 228.47C71.1646 229.2 71.0467 229.817 70.8109 230.32C70.5779 230.82 70.2598 231.199 69.8564 231.457C69.4558 231.713 69.0069 231.841 68.5098 231.841C68.1575 231.841 67.8578 231.783 67.6106 231.666C67.3663 231.55 67.166 231.403 67.0098 231.227C66.8535 231.048 66.7342 230.868 66.6518 230.686H66.5964V234.189H64.7811ZM66.5581 228.462C66.5581 228.851 66.612 229.19 66.72 229.48C66.8279 229.77 66.9842 229.996 67.1887 230.158C67.3933 230.317 67.6419 230.396 67.9345 230.396C68.2299 230.396 68.4799 230.315 68.6845 230.153C68.889 229.989 69.0439 229.761 69.149 229.472C69.2569 229.179 69.3109 228.842 69.3109 228.462C69.3109 228.084 69.2583 227.751 69.1532 227.464C69.0481 227.178 68.8933 226.953 68.6887 226.791C68.4842 226.629 68.2328 226.548 67.9345 226.548C67.639 226.548 67.389 226.626 67.1845 226.783C66.9828 226.939 66.8279 227.161 66.72 227.447C66.612 227.734 66.5581 228.072 66.5581 228.462ZM82.486 223.007V231.734H80.8922L77.0953 226.241H77.0314V231.734H75.1863V223.007H76.8056L80.5726 228.496H80.6493V223.007H82.486ZM86.9338 231.862C86.2718 231.862 85.6994 231.722 85.2164 231.44C84.7363 231.156 84.3656 230.761 84.1042 230.256C83.8429 229.747 83.7122 229.158 83.7122 228.487C83.7122 227.811 83.8429 227.22 84.1042 226.714C84.3656 226.206 84.7363 225.811 85.2164 225.53C85.6994 225.246 86.2718 225.104 86.9338 225.104C87.5957 225.104 88.1667 225.246 88.6468 225.53C89.1298 225.811 89.502 226.206 89.7633 226.714C90.0247 227.22 90.1554 227.811 90.1554 228.487C90.1554 229.158 90.0247 229.747 89.7633 230.256C89.502 230.761 89.1298 231.156 88.6468 231.44C88.1667 231.722 87.5957 231.862 86.9338 231.862ZM86.9423 230.456C87.2434 230.456 87.4949 230.371 87.6966 230.2C87.8983 230.027 88.0502 229.791 88.1525 229.493C88.2576 229.195 88.3102 228.855 88.3102 228.474C88.3102 228.094 88.2576 227.754 88.1525 227.456C88.0502 227.158 87.8983 226.922 87.6966 226.749C87.4949 226.575 87.2434 226.489 86.9423 226.489C86.6383 226.489 86.3826 226.575 86.1752 226.749C85.9707 226.922 85.8159 227.158 85.7108 227.456C85.6085 227.754 85.5574 228.094 85.5574 228.474C85.5574 228.855 85.6085 229.195 85.7108 229.493C85.8159 229.791 85.9707 230.027 86.1752 230.2C86.3826 230.371 86.6383 230.456 86.9423 230.456ZM92.4629 231.734L90.6816 225.189H92.5183L93.5325 229.587H93.5922L94.649 225.189H96.4515L97.5254 229.561H97.5808L98.5779 225.189H100.41L98.6333 231.734H96.7115L95.5865 227.618H95.5055L94.3805 231.734H92.4629Z" fill="#333333"/>
<g clip-path="url(#clip0_156_3452)">
<path d="M121.855 227.552C121.855 227.524 121.843 227.499 121.82 227.475C121.796 227.452 121.771 227.44 121.743 227.44L119.405 225.102C119.311 225.018 119.204 224.976 119.083 224.976C118.961 224.976 118.854 225.018 118.761 225.102C118.667 225.186 118.623 225.294 118.628 225.424C118.632 225.555 118.677 225.662 118.761 225.746L120.343 227.328H109.773C109.651 227.328 109.544 227.37 109.451 227.454C109.357 227.538 109.311 227.653 109.311 227.797C109.311 227.942 109.353 228.054 109.437 228.133C109.521 228.213 109.633 228.252 109.773 228.252H120.399L118.817 229.834C118.733 229.918 118.691 230.023 118.691 230.149C118.691 230.275 118.733 230.385 118.817 230.478C118.845 230.506 118.887 230.532 118.943 230.555C118.999 230.579 119.055 230.59 119.111 230.59C119.167 230.59 119.223 230.579 119.279 230.555C119.335 230.532 119.377 230.506 119.405 230.478L121.743 228.14C121.761 228.122 121.78 228.098 121.799 228.07C121.817 228.042 121.836 228.028 121.855 228.028C121.883 227.907 121.897 227.814 121.897 227.748C121.897 227.683 121.883 227.618 121.855 227.552Z" fill="#333333"/>
</g>
<defs>
<clipPath id="clip0_156_3452">
<rect width="14" height="14" fill="white" transform="matrix(1 0 0 -1 109.191 234.734)"/>
</clipPath>
</defs>
</svg>
