<svg width="18" height="18" viewBox="0 0 18 18" fill="none" xmlns="http://www.w3.org/2000/svg">
<g opacity="0.5" clip-path="url(#clip0_127_590)">
<path d="M17.4527 7.06426C16.7756 5.95555 15.9216 4.9652 14.9244 4.13251L17.0244 2.03251C17.161 1.89106 17.2366 1.70161 17.2349 1.50496C17.2332 1.30831 17.1543 1.1202 17.0153 0.981145C16.8762 0.842088 16.6881 0.763212 16.4915 0.761503C16.2948 0.759794 16.1054 0.83539 15.9639 0.972009L13.6802 3.25876C12.2645 2.41787 10.646 1.97961 8.99943 1.99126C4.35618 1.99126 1.71018 5.16976 0.546178 7.06426C0.186574 7.64589 -0.00390625 8.31619 -0.00390625 9.00001C-0.00390625 9.68383 0.186574 10.3541 0.546178 10.9358C1.22325 12.0445 2.07729 13.0348 3.07443 13.8675L0.974428 15.9675C0.902795 16.0367 0.845659 16.1195 0.806352 16.211C0.767045 16.3025 0.746356 16.4009 0.74549 16.5005C0.744625 16.6 0.763601 16.6988 0.801312 16.791C0.839022 16.8831 0.894712 16.9669 0.965132 17.0373C1.03555 17.1077 1.11929 17.1634 1.21146 17.2011C1.30363 17.2388 1.40239 17.2578 1.50198 17.2569C1.60156 17.2561 1.69998 17.2354 1.79148 17.1961C1.88298 17.1568 1.96574 17.0996 2.03493 17.028L4.32393 14.739C5.73788 15.5798 7.35443 16.0188 8.99943 16.0088C13.6427 16.0088 16.2887 12.8303 17.4527 10.9358C17.8123 10.3541 18.0028 9.68383 18.0028 9.00001C18.0028 8.31619 17.8123 7.64589 17.4527 7.06426ZM1.82418 10.1505C1.61053 9.80479 1.49737 9.40641 1.49737 9.00001C1.49737 8.5936 1.61053 8.19522 1.82418 7.84951C2.82468 6.22501 5.08593 3.49126 8.99943 3.49126C10.2446 3.48428 11.4724 3.78439 12.5739 4.36501L11.0642 5.87476C10.3441 5.39671 9.48086 5.18251 8.62085 5.26849C7.76085 5.35448 6.95708 5.73536 6.34593 6.34651C5.73478 6.95766 5.3539 7.76143 5.26791 8.62143C5.18192 9.48144 5.39613 10.3447 5.87418 11.0648L4.14168 12.7973C3.22301 12.0545 2.43906 11.1592 1.82418 10.1505ZM11.2494 9.00001C11.2494 9.59674 11.0124 10.169 10.5904 10.591C10.1685 11.013 9.59616 11.25 8.99943 11.25C8.66531 11.2487 8.33583 11.1718 8.03568 11.025L11.0244 8.03626C11.1712 8.33641 11.2481 8.66589 11.2494 9.00001ZM6.74943 9.00001C6.74943 8.40327 6.98648 7.83097 7.40844 7.40902C7.83039 6.98706 8.40269 6.75001 8.99943 6.75001C9.33354 6.7513 9.66303 6.82822 9.96318 6.97501L6.97443 9.96376C6.82764 9.66361 6.75072 9.33412 6.74943 9.00001ZM16.1747 10.1505C15.1742 11.775 12.9129 14.5088 8.99943 14.5088C7.75422 14.5157 6.5265 14.2156 5.42493 13.635L6.93468 12.1253C7.65473 12.6033 8.518 12.8175 9.378 12.7315C10.238 12.6455 11.0418 12.2647 11.6529 11.6535C12.2641 11.0424 12.645 10.2386 12.7309 9.37858C12.8169 8.51858 12.6027 7.65531 12.1247 6.93526L13.8572 5.20276C14.7758 5.94547 15.5598 6.84079 16.1747 7.84951C16.3883 8.19522 16.5015 8.5936 16.5015 9.00001C16.5015 9.40641 16.3883 9.80479 16.1747 10.1505Z" fill="#333333"/>
</g>
<defs>
<clipPath id="clip0_127_590">
<rect width="18" height="18" fill="white"/>
</clipPath>
</defs>
</svg>
